<svg version="1.1" xmlns="http://www.w3.org/2000/svg" viewBox="0 0 1066.8251150424844 940.4174684076456" width="1066.8251150424844" height="940.4174684076456">
  <!-- svg-source:excalidraw -->
  
  <defs>
    <style class="style-fonts">
      @font-face {
        font-family: "Virgil";
        src: url("https://excalidraw.com/Virgil.woff2");
      }
      @font-face {
        font-family: "Cascadia";
        src: url("https://excalidraw.com/Cascadia.woff2");
      }
    </style>
  </defs>
  <g transform="translate(180.06540755487623 10) rotate(0 140 22.5)"><text x="0" y="32" font-family="Virgil, Segoe UI Emoji" font-size="36px" fill="#000000" text-anchor="start" style="white-space: pre;" direction="ltr">Decision Science</text></g><g transform="translate(22.246531895351723 86.93625272482836) rotate(0 38.5 17.5)"><text x="0" y="25" font-family="Virgil, Segoe UI Emoji" font-size="28px" fill="#000000" text-anchor="start" style="white-space: pre;" direction="ltr">Data</text></g><g stroke-linecap="round"><g transform="translate(111.26135791510751 104.07516355442658) rotate(0 223.59884045298534 -0.039196956034970754)"><path d="M0.01 0.73 C74.96 0.48, 373.89 -0.68, 448.63 -0.81 M-1.44 0.07 C73.43 -0.1, 372.8 0.11, 447.64 0.31" stroke="#000000" stroke-width="1" fill="none"></path></g><g transform="translate(111.26135791510751 104.07516355442658) rotate(0 223.59884045298534 -0.039196956034970754)"><path d="M420.65 10.39 C424.06 7.99, 431.32 5.7, 448.11 1.07 M419.75 11.13 C427.03 7.19, 434.03 4.68, 446.71 0.15" stroke="#000000" stroke-width="1" fill="none"></path></g><g transform="translate(111.26135791510751 104.07516355442658) rotate(0 223.59884045298534 -0.039196956034970754)"><path d="M420.68 -10.13 C424.19 -8.15, 431.45 -6.07, 448.11 1.07 M419.78 -9.4 C426.9 -8.06, 433.89 -5.3, 446.71 0.15" stroke="#000000" stroke-width="1" fill="none"></path></g></g><g transform="translate(581.7665199014543 87.84907154117195) rotate(0 47.5 17.5)"><text x="0" y="25" font-family="Virgil, Segoe UI Emoji" font-size="28px" fill="#000000" text-anchor="start" style="white-space: pre;" direction="ltr">Insight</text></g><g stroke-linecap="round" transform="translate(113.06704623089047 120.32638870444453) rotate(0 68.16493092262098 19.862632089555404)"><path d="M0 0 C0 0, 0 0, 0 0 M0 0 C0 0, 0 0, 0 0 M-0.77 6.17 C1.48 4.67, 2.79 3.66, 5.72 0.89 M-0.52 6.72 C2.09 4.01, 3.84 2.04, 4.91 0.45 M1.25 11.5 C2.48 10.46, 4.79 4.92, 11.95 0.98 M0.44 11.4 C3.43 7.21, 7.21 2.11, 10.54 -0.7 M-1.34 19.49 C4.97 11.38, 12.64 4.97, 14.33 1.57 M-0.52 19.38 C4.96 11.71, 11.22 6.05, 16.06 1.17 M1.54 25.74 C7.57 15.57, 12.93 6.14, 20.57 1.93 M0.44 23.67 C5.07 17.86, 8.99 13.78, 20.44 0.65 M-0.44 32.22 C7.9 21.66, 18.33 10.44, 27.77 -0.38 M0.99 29.83 C5.9 22.54, 13.55 15.55, 26.58 0.9 M-1.65 35.37 C12.72 25.64, 23.26 10.52, 31 -0.89 M-0.07 36.84 C6.82 28.41, 13.33 21.93, 31.06 0.51 M3.02 41.74 C10.7 30.82, 14.5 22.32, 36.35 -0.91 M1.18 41.74 C9.76 31.43, 18.77 21.87, 36.4 0.33 M6.18 43.36 C18.97 26.14, 31.07 13.29, 42.08 1.51 M7.33 40.79 C15.41 30.93, 23.12 22.2, 42.88 -0.59 M12.55 40.57 C18.97 29.25, 27.53 21.7, 47.38 -1.34 M12.88 41.29 C21.08 31.45, 29.61 22.22, 46.76 0.02 M18.19 41.04 C31.29 24.02, 44.92 9.25, 53.44 -1.77 M17.04 40.44 C29.5 25.3, 44.15 10.81, 54.11 -0.44 M23.71 41.3 C32.92 29.59, 45.48 17.78, 56.27 -1.6 M23.55 41.84 C30.92 32.82, 37.05 24.63, 59.08 -0.4 M26.98 41.88 C36.17 31.63, 44.74 23.06, 63.78 0.83 M26.99 40.5 C38.55 28.81, 47.89 18.65, 63.67 -0.24 M32.32 40.32 C42.55 29.97, 53.05 14.74, 68.53 1.81 M32.54 40.73 C42.11 30.61, 52.6 18.75, 68.02 0.75 M39.18 42.25 C52.99 26.73, 66.42 9.22, 72.9 1.24 M38.27 41.2 C48.56 29.51, 60.49 15.54, 74.18 0.31 M43.31 42.46 C53.84 30.75, 64.17 21.09, 77.76 1.78 M44.91 40.84 C56.98 24.79, 71.61 9.53, 78.41 0.18 M49.5 39.93 C62.07 24.35, 78.62 9.23, 83.68 -2.19 M48.16 41.84 C57.92 32.63, 66.53 21.69, 84.96 0.08 M52.71 38.93 C64.36 33, 70.05 20.19, 91.64 -1.39 M54.43 41.61 C64.19 29.07, 76.57 16.17, 90.32 0.67 M58.78 40.08 C70.76 31.07, 78.99 19.6, 96.13 1.3 M59.15 41.75 C69.59 28.59, 80.85 16.05, 95.03 -0.5 M65.62 41.38 C79.61 24.04, 91.15 7.78, 101.96 2.01 M64.55 40.01 C79.05 24.72, 93.3 9.25, 99.98 0.03 M71.91 41.3 C81.02 27.5, 94.19 10.52, 105.33 0.86 M69.93 41.29 C76.95 31.87, 84.73 22.85, 106.13 -0.47 M74.25 39.83 C87.42 29.01, 98.7 12.05, 110.6 1.1 M75.44 41.56 C89.72 25.2, 103.14 10.32, 110.86 0.12 M79.9 41.56 C91.99 28.93, 102.48 16.41, 114.78 -1.17 M80.38 40.89 C92.58 27.95, 105.35 14.8, 117.04 -0.58 M87.91 40.72 C99.24 26.18, 110.04 11.93, 123.52 -1.61 M86.97 41.35 C96.96 28.41, 106.54 17.51, 122.62 -0.16 M89.85 40.27 C103.63 28.46, 117.14 12.06, 125.08 1.65 M90.61 42.02 C100.83 31.29, 109.21 22.3, 127.19 0.73 M98.98 40.91 C106.42 30.93, 110.91 22.1, 132.81 -0.19 M97.71 40.98 C105.09 29.82, 114.48 20.72, 132.11 0.15 M102.94 40.22 C112.54 28.04, 124.46 14.75, 135.27 -0.78 M101.92 40.21 C109.82 31.48, 118.49 23.27, 137.11 1.58 M108.95 41.65 C117.99 32, 125.34 18.44, 136.71 7.48 M107.94 41.62 C115.62 30.92, 123.89 22.13, 136.49 5.86 M112.47 41.62 C121.88 33.23, 126.02 23.96, 135.62 12.9 M111.8 42.01 C122.48 30.4, 131.16 18.51, 136.17 13.66 M118.4 42.59 C124.45 31.82, 133.54 23.75, 138.78 18.64 M118.64 40.99 C123.71 33.27, 130.65 26.69, 137.36 19.48 M121.8 40.1 C129 36.88, 132.71 30.53, 136.53 26.55 M122.97 40.03 C128.48 35.6, 131.43 30.19, 136.44 24.37 M128.36 40.84 C132.68 37.49, 135.92 34.86, 137.17 32.43 M128.01 41.19 C132.12 38.15, 134.6 34.65, 137.03 31.58 M134.1 40.88 C135.04 39.82, 135.57 38.95, 137.37 37.33 M134.08 41.2 C134.61 40.31, 135.69 39.5, 137.18 37.12" stroke="#15aabf" stroke-width="0.5" fill="none"></path><path d="M0.46 -0.92 C30.88 -1.61, 59.31 0.58, 135.08 -1.18 M0.71 0.7 C42.12 1.22, 84.86 0.87, 135.9 0.03 M138.25 0.78 C135.61 9.15, 136.84 15.35, 135.7 39.57 M137.11 -0.74 C136.87 15.07, 136.08 30.85, 136.52 40.27 M135.43 38.4 C108.03 39.56, 80.76 39.5, 0.16 40.1 M135.95 39.96 C87.79 39.58, 40.89 37.9, -0.17 39.87 M-0.12 37.87 C-1.36 25.53, 1.16 10.59, 1.72 1.66 M-0.31 39.5 C0.14 31.09, 0.72 21.18, 0.6 -0.73" stroke="#000000" stroke-width="1" fill="none"></path></g><g transform="translate(130.73197715351142 127.68902079399982) rotate(0 50.5 12.5)"><text x="50.5" y="17" font-family="Virgil, Segoe UI Emoji" font-size="20px" fill="#000000" text-anchor="middle" style="white-space: pre;" direction="ltr">Processing</text></g><g stroke-linecap="round" transform="translate(150.89636495560336 168.89958018524067) rotate(0 68.16493092262098 19.862632089555404)"><path d="M0 0 C0 0, 0 0, 0 0 M0 0 C0 0, 0 0, 0 0 M-0.99 6.72 C1.55 4.29, 4.08 1.4, 5.51 0.19 M-0.54 6.63 C1 4.28, 3.04 2.52, 4.87 0.67 M-1.03 12.2 C2.35 8.09, 4.92 6.02, 9.34 -1.59 M-0.29 12.39 C2.42 8.45, 5.33 5.73, 10.69 -0.18 M0.18 18.31 C4.15 15.23, 8.05 11.17, 16.73 -0.63 M-0.12 17.89 C3.21 14.3, 5.86 11.2, 15.44 0.1 M-1.52 24.38 C5.29 19.07, 12.17 11.2, 22.92 1.1 M0.75 24.97 C5.59 18.61, 8.7 13.4, 21.64 0.5 M0.82 30.43 C5.82 22.85, 9.65 17.52, 27.69 0.94 M-0.48 29.85 C5.59 24.27, 13 17.29, 27.16 -0.54 M0.19 37.28 C7.09 24.41, 19.99 17.21, 31 -1.78 M-0.08 36.71 C12.08 23.58, 23.56 9.09, 32.76 -0.48 M2.57 42.37 C12.05 26.61, 26.29 15.51, 37.28 1.03 M2.08 40.49 C12.13 28.37, 23.3 14.5, 36.43 0.2 M6.92 43.13 C15.43 31.8, 24.1 21, 40.68 -0.8 M6.03 42.16 C18.52 25.12, 32.37 10.66, 43.13 -0.02 M13.82 39.79 C22.01 31.42, 26.63 22.99, 45.69 -0.56 M12.96 40.42 C20.44 31.17, 29.08 20.12, 47.08 -0.69 M16.69 42.4 C25.73 28.52, 37.31 19.65, 52.42 -1.68 M18.02 40.67 C26 30.81, 36.59 18.89, 53.53 0.54 M23 40.39 C30.83 30.82, 40.79 20.62, 57.21 1.39 M22.16 41.44 C30.54 31.42, 38.82 22.9, 59.09 0.88 M26.98 41.69 C43.08 25.46, 55.17 9.96, 61.83 0.22 M28.41 41.41 C42.23 26.15, 55.89 9.37, 63.43 0.41 M34.81 41.71 C44.86 24.85, 59.78 12.22, 70.2 -0.52 M33.62 41.33 C39.6 33.55, 48.84 24.21, 69.66 1.01 M37.3 42.49 C51.86 28.2, 63.73 13.11, 73.57 -2.03 M38.83 41.04 C50.24 28.72, 60.15 14.8, 74.03 0.35 M43.06 41.68 C53.78 29.53, 61.06 19.95, 79.16 -0.27 M44.95 41.4 C51.93 31.33, 60.02 23.02, 80.22 0.86 M47.24 39.69 C61.61 28.72, 72.56 16.31, 83.4 -0.95 M49.13 41.28 C58.79 31.01, 68.31 18.28, 85.19 -0.33 M52.64 40.66 C62.53 32.4, 72.33 23.23, 88.63 -0.42 M54.47 41.52 C61.87 32.1, 71.16 22.22, 89.37 -0.37 M58.48 39.6 C67.16 33.92, 73.61 22.38, 96.21 -0.66 M60.36 41.91 C73.17 26.24, 85.92 10.01, 96.52 -0.78 M65.54 39.4 C73.81 27.57, 86.1 18.42, 99.28 1.85 M66.21 41.12 C74.09 28.78, 84.83 18.55, 99.93 -0.43 M68.83 41.92 C78.83 30.58, 88.7 21.64, 107.93 1.12 M69.77 41.73 C81.01 27.34, 94.09 14.88, 106.29 0.4 M74.83 41.05 C87.66 27.39, 98.92 14.46, 109.86 0.78 M74.9 40.15 C87.35 29.04, 97.59 15.86, 111.91 1 M82.15 41.77 C92.07 29.69, 97.69 21.51, 114.96 -0.16 M81.83 41.61 C92.41 28.01, 105.87 12.31, 115.86 0.92 M86.7 41.2 C95.21 28.32, 103.63 18.51, 123.23 0.02 M86.97 40.12 C93.57 32.84, 101.53 22.71, 121.54 -0.76 M90.41 39.67 C103.88 26.65, 117.59 9.22, 126.77 -0.91 M91.18 41.45 C102.48 28.7, 111.32 18.57, 127.23 0.75 M98.41 41.8 C109.51 25.51, 119.84 14.43, 132.32 -1.38 M97.55 41.09 C108.86 26.6, 122.05 11.98, 132.23 -0.31 M103.69 39.55 C110.57 30.79, 121.38 19.16, 135.27 1.87 M101.68 41.22 C110.42 31.21, 120.08 20.23, 137.49 0.46 M108.33 41.25 C113.88 33.4, 120.21 25.28, 136.26 7.83 M107.48 40.66 C119.11 27.41, 129.26 14.65, 137.72 7.59 M112.14 42.72 C120.54 29.6, 128.36 23.04, 135.62 14.68 M113.41 41.9 C116.89 36.09, 122.48 30.65, 136.55 12.18 M117.91 40.31 C124.68 36.26, 126.57 32.38, 135.49 18 M118.3 40.99 C123.85 33.95, 129.21 28.43, 138.14 17.91 M124.02 41.95 C127.95 36.58, 129.8 30.01, 139.07 26.5 M123.63 40.56 C128.23 36.17, 133.05 29.29, 137.07 25.74 M128.8 41.09 C130.13 39.03, 133.13 35.63, 137.07 30.46 M128.52 40.81 C131.59 38.39, 133.92 35.07, 136.61 31.61 M134.42 40.56 C134.93 39.71, 136.14 38.61, 137.5 36.9 M133.95 41.04 C135.13 39.38, 136.6 38.06, 137.1 37.09" stroke="#15aabf" stroke-width="0.5" fill="none"></path><path d="M0.16 0.22 C31.14 1.96, 61.01 -0.38, 134.56 -1.57 M-0.75 0.32 C37 1.55, 74.06 1.11, 136.36 0.5 M135.11 0.46 C136.1 12.03, 137.14 18.16, 137.71 38.18 M136.92 0.14 C137.55 10.47, 137.42 21.44, 136.35 40.05 M136.84 39.63 C91.03 38.55, 43.17 37.11, -1.66 40.24 M135.71 38.79 C97.13 39.23, 56.55 38.87, 0.21 40.26 M-1.93 38.56 C1.2 30.49, 0.2 20.09, 0.04 -0.77 M0.3 38.87 C0.29 26.33, -0.64 13.93, 0.17 0.25" stroke="#000000" stroke-width="1" fill="none"></path></g><g transform="translate(163.56129587822426 176.26221227479596) rotate(0 55.5 12.5)"><text x="55.5" y="17" font-family="Virgil, Segoe UI Emoji" font-size="20px" fill="#000000" text-anchor="middle" style="white-space: pre;" direction="ltr">Exploration</text></g><g stroke-linecap="round" transform="translate(334.62571178399054 215.03510153212073) rotate(0 79 22)"><path d="M0 0 C0 0, 0 0, 0 0 M0 0 C0 0, 0 0, 0 0 M-0.52 7.03 C1.31 5, 3.15 3.76, 4.33 1.02 M0.12 6.39 C1.54 4.02, 3.93 1.9, 4.59 0.39 M0.57 11 C3.49 6.84, 9.5 3.06, 9.54 -1.56 M-0.5 12.53 C3.01 9.87, 5.71 5.93, 10.56 0.25 M-2.02 16.53 C5.12 15.89, 6.24 8.33, 17.23 -1.15 M-0.3 19.21 C3.62 13.4, 10.12 7.27, 15.9 0.91 M-0.54 22.96 C7.51 18.68, 11.73 11.84, 21.72 1.54 M-0.17 24.63 C5.78 16.68, 12.45 9.42, 20.62 -0.25 M0.4 31.05 C10.79 17.95, 18.73 5.85, 27.55 2.25 M-0.68 29.68 C10.24 18.54, 20.95 7.13, 25.57 0.27 M1.43 37.01 C9.16 24.83, 20.9 9.49, 30.92 1.1 M-0.55 37 C5.68 28.52, 12.63 20.46, 31.72 -0.23 M-1.47 41.58 C12.14 30.26, 23.85 12.8, 36.18 1.34 M-0.28 43.31 C14.48 26.38, 28.42 10.92, 36.45 0.36 M1.55 46.33 C15.1 32.03, 27.06 17.81, 41.03 -1.69 M2.04 45.66 C15.77 30.96, 30.06 16.07, 43.28 -1.09 M8.9 46.24 C21.9 29.81, 34.34 13.66, 49.11 -1.37 M7.97 46.87 C19.26 32.39, 30.18 19.95, 48.2 0.08 M11.5 45.04 C26.83 31.38, 41.94 13.15, 51.32 1.14 M12.27 46.79 C23.56 34.77, 33.04 24.53, 53.43 0.22 M19.97 46.43 C28.38 35.35, 33.81 25.45, 58.4 0.05 M18.71 46.5 C27.22 34.01, 37.78 23.58, 57.7 0.4 M24.59 44.99 C35.92 30.84, 49.52 15.61, 62.17 -2.04 M23.57 44.98 C32.62 34.84, 42.49 25.24, 64.01 0.31 M29.94 47.17 C42.46 33.73, 53.18 16.3, 68.2 0.93 M28.94 47.15 C39.45 33.16, 50.58 21.09, 67.99 -0.69 M34.12 46.39 C48.38 32.63, 57.2 17.99, 73.02 -0.44 M33.46 46.78 C50.33 27.96, 65.18 8.97, 73.57 0.32 M39.4 48.12 C53.59 28.3, 70.68 11.02, 80.77 0.02 M39.64 46.52 C50.92 31.29, 64.25 17.35, 79.35 0.86 M43.45 44.87 C60.83 30.06, 74.77 11.95, 84.43 1.13 M44.62 44.8 C58.35 30.49, 69.82 15.28, 84.34 -1.05 M50.02 45.34 C67.04 28.4, 82.17 12.67, 90.46 1.45 M49.48 45.88 C65.71 29.8, 79.31 13.16, 90.25 0.15 M56.07 45.43 C67.82 32.15, 77.77 19.63, 96.04 0.28 M55.98 46.71 C64.53 36.25, 74.99 25.93, 95.27 -0.55 M62.56 45.31 C71.58 32.74, 84.83 15.74, 101.71 0.78 M59.86 47.03 C69.01 35.58, 77.02 26.6, 100.36 0.32 M65.54 44.5 C78.81 28.97, 96.45 12.38, 104.58 -1 M65.64 46.21 C74.2 35.38, 82.49 25.86, 107.01 0.6 M70.9 46.91 C85.66 28.85, 99.29 12.97, 111.04 -1.04 M71.86 45.32 C81.9 33.82, 94.25 20.42, 111.56 -0.45 M76.86 44.67 C88.53 31.49, 102.19 14.42, 117.24 -1.54 M75.26 46.8 C91.14 28.71, 106.21 10.96, 116.27 0.5 M79.98 47.43 C88.42 38.43, 96.74 27.8, 121.1 0.37 M81.27 46.67 C95.61 30.46, 109.69 14.3, 120.94 0.1 M87.1 45.67 C95.37 35.05, 101.79 28.92, 128.26 1.97 M87.67 45.77 C101.34 29.11, 115.95 14.49, 127.41 0.53 M91.87 44.55 C106.52 29.96, 121.67 12.25, 130.6 -1.24 M91.6 46.5 C100.5 36.54, 108.86 25.03, 131.76 -0.77 M99.45 46.91 C110.92 32.18, 123.1 14.15, 136.98 1.51 M97.93 45.73 C112.41 29.62, 126.82 12.54, 137.54 0.87 M103.69 46.37 C115.35 28.15, 133.12 14.69, 144.36 -0.68 M103.02 46.82 C114.63 32.17, 126.67 19.45, 142.53 0.28 M107.84 46.42 C125.1 26.54, 140.07 8.14, 148.54 0.7 M108.98 46.57 C120.56 32.44, 132.21 18.44, 148.11 0.49 M113.7 45.4 C127.95 30.07, 141.6 13.68, 155.29 0.62 M113.45 45.17 C123.5 35.04, 131.13 24.73, 153.93 -0.37 M118.32 47.67 C132.85 29.48, 147.52 10.55, 159.12 1.59 M117.93 47.22 C131.57 31.28, 144.79 14.13, 159.29 0.93 M123.22 44.56 C135.57 32.37, 151.36 17.23, 160.49 7.46 M123.5 45.63 C137.04 30.93, 152.09 14.63, 157.95 6.48 M131.02 45.52 C138.77 32.17, 149.67 21.32, 158.89 11.44 M129.12 46.67 C137.17 37.1, 145.66 26.53, 157.81 12.08 M134.67 47.15 C140.64 40.04, 144.94 31.52, 160.36 17.71 M135.45 45.85 C140.51 38.56, 147.51 31.9, 158 18.81 M138.14 44.25 C142.18 43.5, 148.91 38.22, 160.04 25.51 M139.08 46.96 C147.3 38.52, 154.22 29.05, 158.04 25.99 M145.58 46.89 C149.99 43.87, 153.65 37.2, 160.69 28.89 M146.34 45.99 C147.69 42.83, 150.71 39.36, 157.97 30.85 M150.28 46.98 C151.69 44.26, 154.42 40.94, 159.06 37.54 M151.2 46.16 C153.58 42.88, 156.95 39.1, 157.98 36.78 M156.05 45.8 C156.97 44.86, 157.66 44.3, 158.25 43.28 M156.39 45.78 C157.03 44.95, 157.41 44.31, 158.34 43.57" stroke="#15aabf" stroke-width="0.5" fill="none"></path><path d="M1.12 -0.3 C60.12 -0.84, 120.06 0.15, 158.29 -1.6 M-0.03 -0.9 C58.22 0.55, 118.52 1.6, 158.96 -0.26 M159 0.36 C156.79 14.3, 158.65 28.1, 156.13 42.21 M158.84 0.9 C159.03 9.69, 157.71 19.33, 158.94 43.41 M157.28 44.58 C124.8 43.94, 92.08 44.2, 0 45.04 M157.29 43.2 C114.27 44.22, 69.3 45.68, -0.11 43.96 M-1.02 43.41 C-1.28 32.13, -1.29 15.94, -0.24 1.65 M-0.8 43.82 C-0.7 32.99, 0.3 20.26, -0.75 0.6" stroke="#000000" stroke-width="1" fill="none"></path></g><g transform="translate(367.62571178399054 224.53510153212073) rotate(0 46 12.5)"><text x="46" y="17" font-family="Virgil, Segoe UI Emoji" font-size="20px" fill="#000000" text-anchor="middle" style="white-space: pre;" direction="ltr">Data Viz</text></g><g stroke-linecap="round" transform="translate(169.4047762702781 224.07870158934747) rotate(0 74.5 42.5)"><path d="M0 0 C0 0, 0 0, 0 0 M0 0 C0 0, 0 0, 0 0 M-0.8 6.38 C1.72 5.34, 2.27 3.57, 5.04 -0.4 M-0.46 6.64 C1.32 4.61, 3.33 1.98, 5.04 0.14 M-0.13 11.84 C3.11 9.04, 5.89 5.27, 9.87 -0.24 M-0.14 12.47 C5.03 8.09, 7.98 2.19, 11.26 0.44 M-0.98 18.64 C4.74 13.38, 8.37 6.9, 16.05 0.22 M-0.88 17.66 C5.54 11.72, 11.03 5.72, 15.38 0.16 M1.79 22.18 C8.38 14.96, 14.79 8.83, 21.25 -0.14 M1.07 23.28 C6.82 17.38, 13.41 9.79, 21.87 0.34 M1.4 30.2 C7.88 23.91, 14.61 12.92, 25.42 0.48 M-0.91 31.13 C9.17 19.36, 20.18 6.72, 27.18 1.28 M0.31 37.67 C7.41 24.15, 20.49 15.61, 32.1 1.78 M-0.13 36.81 C7.06 28.89, 14.92 20.21, 32.17 -0.91 M-0.75 42.94 C9.41 31.42, 18.45 23.19, 36.04 -0.69 M-0.67 41.6 C10.52 30.88, 22.78 17.01, 36.03 0.39 M0.34 49.95 C11.72 33.27, 21.6 22.57, 43.5 0.34 M-0.41 49.31 C17.05 29.61, 34.43 10.01, 43.48 -0.23 M-1.29 52.87 C11.95 39.03, 23.65 27.12, 48.11 1.88 M-0.42 54.46 C16.85 36.98, 31.88 18.6, 48.49 0.41 M-1.68 62.08 C20.58 38.76, 35.91 18.54, 55.11 -1.48 M0.7 60.91 C14.18 45.39, 29.13 28.43, 53.51 -0.47 M-0.35 68.83 C15.26 51.51, 26.33 33.21, 57.24 0.47 M-0.56 68.06 C23.71 41.06, 47.04 12.92, 57.18 0.98 M-1.27 71.45 C19.99 51.48, 36.97 32.43, 63 1.39 M0.36 73.68 C18.67 50.83, 37.08 29.48, 63.54 0.74 M0.32 79.52 C24.82 48.97, 50.39 21.53, 68.47 0.44 M0.06 79.69 C19.99 54.87, 40.34 32.85, 69.75 -0.55 M-0.53 84.56 C28.22 53.36, 56.45 21.74, 73.63 -1.9 M0.8 85.4 C28.25 53.7, 57.84 19.43, 75.35 -0.04 M4.66 85.93 C26.14 63.01, 44.67 39.86, 78.2 -1.76 M4.4 85.07 C26.05 60.27, 48.58 33.56, 79.91 -0.15 M12.33 86.9 C27.84 66.5, 41.09 49.2, 85.9 -0.09 M10.78 84.48 C27.7 65.7, 45.16 47.14, 84.31 -1.04 M16.44 84.44 C44.9 53.37, 74.05 19.71, 88.29 -0.58 M16.38 84.41 C40.95 58.5, 64.69 29.29, 90.42 -0.07 M21.53 85.23 C42.05 61.38, 64.38 32.53, 97.08 -1.83 M21.13 85.16 C51.4 51.1, 80 17.76, 96.32 -0.29 M24.56 85.57 C46.5 60.49, 71.55 34.27, 99.95 0.64 M27.2 86.15 C42.43 67.48, 56.79 51.38, 100.05 0.13 M33.18 85.32 C49.08 65.63, 64.88 47.51, 104.86 -1.69 M31.19 84.34 C60.81 51.76, 91.47 16.9, 106.82 -0.62 M35.59 83.87 C66.14 53.59, 92.72 24.08, 111.85 -0.38 M36.88 85.9 C66.45 53.39, 94.15 21.78, 110.68 0.61 M42.8 86.03 C64.03 62.24, 84.74 38.19, 116.7 -1.38 M43.39 84.61 C58.86 65.2, 75.39 45.34, 117.15 0.11 M46.5 86 C69.7 62.6, 87.27 38.71, 122.03 1.19 M47.97 85.48 C64.21 67.19, 79.78 48.82, 122.18 0.21 M53.31 85.31 C76.31 61.49, 95.59 34.77, 126.4 1.23 M54.17 85.24 C72.7 61.63, 94.17 38.03, 126.16 0.97 M58.67 84.73 C79.85 65.05, 97.5 40.73, 133.94 -0.7 M58.58 85.9 C83.66 58.19, 108.35 28.6, 133.49 -0.5 M65.06 86.22 C94.77 53.55, 121.16 18.75, 136.21 -1.39 M65.03 85.25 C91.76 53.06, 117.33 20.83, 137.29 -0.5 M67.88 84.89 C93.86 59.11, 117.44 31.57, 142.46 -1.06 M69.35 84.4 C84.62 68.44, 100.89 49.55, 143.61 -0.26 M73.77 82.9 C98.94 56.5, 125.63 25.59, 149.47 0.58 M75.53 84.32 C97.89 58.36, 121.36 32.23, 148.17 -0.33 M78.34 85.43 C95.71 65.87, 115.84 41.78, 149.88 0.5 M80.49 85.38 C108.31 51.32, 135.21 18.77, 152.59 2.15 M83.93 87.35 C106.31 58.66, 130.02 34.55, 152.66 9.34 M85.61 84.61 C109.96 56.12, 138.21 25.13, 151.76 7.99 M88.63 85.38 C109.2 63.13, 131.66 38.92, 153.32 12.74 M90.74 85.48 C111.56 61.51, 132.13 39.46, 151.96 13.95 M93.42 84.37 C115.59 65.07, 131.85 39.45, 151.87 20.38 M95.21 84.71 C110.32 68.35, 125.54 51.75, 151.73 21.32 M101.77 85.88 C114.12 73.34, 126.35 58.2, 149.74 28.89 M100.38 84.53 C114.87 68.86, 130.27 49.98, 150.71 27.44 M107.52 86.17 C119.9 66.25, 135.79 51.21, 150.9 34.02 M105.37 85.2 C117.05 74.01, 126.41 60.77, 151.63 33.47 M111.16 84.14 C126.27 66.27, 139.51 50.11, 152.93 40.84 M112.26 84.56 C123.88 71.19, 133.97 57.71, 151.33 39.2 M115.61 87.25 C129.24 71.31, 136.76 61.61, 150.69 44.44 M115.83 84.57 C129.86 69.87, 143.17 54.44, 151.3 45.26 M122.61 83.47 C130.82 71.39, 142.3 60.79, 152.13 51.84 M122.77 84.81 C130.73 75.26, 140.81 64.15, 151.39 51.75 M128.46 87.23 C130.95 77.83, 140.23 69.98, 149.95 58.69 M127.37 85.04 C133.97 76.78, 141.01 68.37, 152.43 58.43 M132.36 83.3 C138.45 79.56, 144.92 72.27, 152.65 63.46 M132.82 84.72 C138.37 77.74, 143.89 72.3, 151.15 63.57 M136.24 84.81 C142.38 77.98, 146.14 72.9, 149.72 67.64 M136.83 85.53 C142.58 81.13, 145.77 76.48, 152.26 69.69 M144.48 85.06 C146.54 81.63, 147.5 80.1, 152.77 74.65 M143.1 84.93 C146.22 81.6, 149.82 77.63, 151.95 74.95 M147.96 84.93 C148.74 83.98, 149.46 83.79, 151.67 81.28 M148.35 85.15 C149.45 83.94, 150.64 82.65, 151.94 81.7" stroke="#15aabf" stroke-width="0.5" fill="none"></path><path d="M-0.47 1.1 C57.18 -1.46, 116.4 -0.32, 150.58 0.42 M-0.82 0.83 C48.45 -0.39, 96.03 0.07, 148.97 -0.52 M147.03 0.13 C151.19 26.56, 149.28 52.03, 147.7 84.09 M148.32 -0.96 C148.9 22.63, 148.99 45.43, 149.61 85.52 M148.83 85.72 C93.35 84.22, 40.82 81.88, -1.91 86.63 M149.8 84.26 C91.74 83.93, 34.34 83.58, 0.77 84.08 M0.58 86.18 C-1.41 57.67, 0.62 27.3, -1.12 1.79 M0.23 85.8 C-0.13 55.12, -0.69 23.53, 0.55 -0.72" stroke="#000000" stroke-width="1" fill="none"></path></g><g transform="translate(175.9047762702781 229.07870158934747) rotate(0 67 37.5)"><text x="67" y="17" font-family="Virgil, Segoe UI Emoji" font-size="20px" fill="#000000" text-anchor="middle" style="white-space: pre;" direction="ltr">Clustering,</text><text x="67" y="42" font-family="Virgil, Segoe UI Emoji" font-size="20px" fill="#000000" text-anchor="middle" style="white-space: pre;" direction="ltr">Unsupervised </text><text x="67" y="67" font-family="Virgil, Segoe UI Emoji" font-size="20px" fill="#000000" text-anchor="middle" style="white-space: pre;" direction="ltr">Learning</text></g><g stroke-linecap="round" transform="translate(376.1567855107697 121.96672122131008) rotate(0 68.5 42.5)"><path d="M0 0 C0 0, 0 0, 0 0 M0 0 C0 0, 0 0, 0 0 M0.06 6.7 C0.44 5, 2.58 3.71, 4.37 1.06 M-0.59 6.29 C1.03 4.46, 2.93 3.46, 5.22 -0.02 M0.64 13.05 C3.2 9.18, 7.27 4, 9.34 0.01 M0.88 12.12 C4.67 6.75, 8.23 2.91, 10 0.21 M-0.98 19.23 C5.91 14.62, 8.69 7.61, 17.02 0.05 M0.8 18.1 C6.38 12.41, 11.55 4.79, 16.03 -0.59 M1.89 23.64 C4.52 20.75, 6.92 14.62, 21.95 0.55 M0.15 23.52 C8.73 15.16, 17.21 5.83, 20.73 0.25 M1.62 31.74 C8.59 18.95, 20.14 9.92, 27.44 1.96 M0.24 29.55 C7.1 20.74, 15.77 12, 26.41 -0.47 M-1.27 35.07 C10.31 24.73, 21.96 9.5, 31.44 -0.11 M-0.55 36.61 C11.53 24.34, 22.24 11.25, 31.22 -0.71 M-0.11 40.85 C12.88 30.12, 23.73 14.45, 34.91 0.13 M-0.04 42.68 C12.16 28.6, 24.38 15.2, 37.25 -0.19 M-2.04 47.24 C10.69 35.68, 22.69 25.14, 43.01 -0.24 M-0.73 48.49 C13.74 32.14, 28.86 15.77, 42.32 -0.42 M0.47 53.18 C12.2 38.94, 23.58 25.72, 45.76 2.21 M-0.59 54.23 C15.73 36.23, 31.96 18.55, 48.28 0.3 M-1.64 61.45 C16.03 41.87, 29.95 25.81, 51.27 -1.71 M-0.87 60.55 C21.36 36.53, 41.3 12.71, 52.75 -1.17 M-1.56 68.48 C18.2 49.96, 34.97 27.89, 58.4 1.3 M-0.91 67.24 C13.22 52.18, 27.29 35.95, 57.44 0.16 M-0.55 71.65 C24.74 46.15, 49.47 15.25, 61.94 0.03 M-0.6 72.48 C20.33 49.29, 40.5 26.3, 63.92 -0.66 M-2.05 78.65 C25.36 51.09, 50.12 23.44, 69.32 1.88 M0.17 79.05 C20.69 57.3, 39.51 34.83, 67.88 0.53 M-1.12 83.21 C28.24 54.63, 52.78 21.57, 73.8 -2.1 M-0.34 86.03 C14.89 66.83, 31.66 49.32, 74.95 -1.09 M3.51 84.23 C30.27 55.27, 58.84 21.76, 79.13 1.86 M4.79 84.76 C22.03 67.02, 38.63 47.07, 78.95 -0.34 M12.86 86.83 C40.17 53.35, 65.89 21.66, 84.76 -0.73 M10.19 85.89 C39.13 52.09, 69.11 19.09, 85.67 -0.08 M14.14 85.43 C30.23 69.62, 45.77 52.16, 90.52 -1.48 M15.21 85.29 C39.34 57.47, 64.01 30.41, 89.19 -0.2 M22.7 84.75 C43.68 60.22, 63.16 35.5, 93.81 -0.12 M21.48 84.98 C40.66 62.09, 60.93 40.03, 95.6 0.29 M24.71 84.94 C45.64 59.33, 69.25 33.19, 102.27 -1.42 M26.15 85.16 C49.9 58.6, 73.63 30.73, 101.35 0.27 M32.33 84.57 C54.92 59.64, 80.36 29.75, 107.01 -2.11 M32.72 85.16 C53.21 62.15, 73.91 37.53, 106.97 0.47 M38.42 85.77 C55.34 63.76, 79.4 37.19, 111.26 0.16 M36.28 85.4 C60.49 60.28, 81.25 33.79, 111.39 0.43 M43.73 85.26 C67.46 56.71, 94.91 27.14, 114.9 0.63 M42.31 84.37 C67.41 54.99, 92.33 27.37, 117.05 1.23 M47.57 83.38 C70.8 57.37, 94.5 30.22, 122.46 -1.24 M47.96 84.59 C64.13 68.02, 77.62 49.92, 121.47 0.69 M55.01 83.22 C70.36 63.64, 87.34 46.18, 125.06 -0.44 M52.84 85.57 C80.75 50.78, 111.81 18.17, 127.8 -0.38 M59.56 83.61 C87.06 53.48, 116.14 19.54, 130.94 1.33 M58.27 85.83 C83.05 56.64, 108.47 26.96, 132.95 -0.5 M62.36 86.25 C85.74 56.93, 110.14 29.64, 136.19 0.81 M64.1 85.78 C84.77 61.29, 103.95 37.31, 136.89 0.49 M70.88 84.72 C96.89 52.37, 124.34 23.9, 137.96 6.98 M69.98 85.79 C85.47 65.35, 102.27 46.96, 137.5 7.16 M74.07 83.57 C94.28 63.99, 110.26 42.67, 136.25 12.25 M74.11 85.07 C87.95 68.3, 102.39 52.98, 136.87 12.58 M81.1 83.37 C95.74 68.32, 109.27 47.53, 138.07 17.94 M80.57 85.7 C92.95 68.7, 108.17 51.28, 137.18 19.71 M83.85 84.53 C100.54 67.71, 119.51 46.94, 138.63 26.74 M85.4 86.3 C104.86 62.98, 124.56 37.9, 136.33 24.75 M90.9 84.62 C101.45 70.55, 113.34 60.71, 137.22 30.08 M91.22 84.3 C104.82 69.44, 118.51 53.99, 137.56 30.45 M95.49 85.66 C110.08 67.16, 124.44 49.44, 135.28 37.38 M94.71 85.12 C109.45 71.04, 121.48 54.42, 138.01 36.25 M100.06 83.95 C114.92 70.55, 128.41 52.35, 138.85 43.94 M101.82 84.9 C111.76 71.53, 122.82 58.73, 136.82 42.03 M104.9 85.13 C117.06 71.35, 129.95 56.64, 137.3 47.93 M105.99 85.48 C114.42 74.55, 123.44 64.6, 136.43 50.11 M113.42 85.23 C118.59 78.69, 125.5 70.95, 137.84 54.24 M111.95 84.36 C116.97 77.24, 123.48 70.46, 136.68 54.9 M116.75 85.77 C119.57 80.3, 124.57 75.11, 139.51 59.78 M116.04 85.65 C122.75 77.05, 129.62 69.57, 137.43 61.18 M122.96 86.76 C125.84 78.67, 130.5 73.75, 137.13 68.83 M121.92 84.07 C125.73 81.18, 130.52 76.25, 138.04 67.28 M126.06 85.73 C129.98 82.45, 132.54 79.86, 137.81 74.48 M126.95 85.81 C130.12 82.4, 131.85 79.82, 138.39 73.73 M133.14 84.37 C133.98 84.16, 134.4 83.01, 137.55 79.54 M133.13 84.99 C134.45 83.64, 135.21 81.64, 137.62 79.36" stroke="#15aabf" stroke-width="0.5" fill="none"></path><path d="M-0.14 -1.94 C32.36 1.85, 64.31 -1.32, 135.09 -1.89 M0.78 -0.51 C41.33 -1.68, 83.77 -0.24, 137.52 -0.98 M138.7 1.21 C136.63 26.31, 137.82 52.59, 137.66 86.7 M137.82 0.25 C136.74 20.76, 136.68 39.78, 137.61 84.39 M137.86 83.14 C95.99 86.46, 55.44 83.17, -1.12 83.51 M136.85 85.1 C104.94 85.78, 70.97 86.65, -0.01 85.47 M0.1 86.36 C1.04 54.25, -0.22 23.16, 0.22 0.9 M-0.08 85.62 C-0.08 57.04, 0.29 29.36, 0.37 0.12" stroke="#000000" stroke-width="1" fill="none"></path></g><g transform="translate(391.3217164333906 126.96672122131008) rotate(0 53 37.5)"><text x="53" y="17" font-family="Virgil, Segoe UI Emoji" font-size="20px" fill="#000000" text-anchor="middle" style="white-space: pre;" direction="ltr">Generate </text><text x="53" y="42" font-family="Virgil, Segoe UI Emoji" font-size="20px" fill="#000000" text-anchor="middle" style="white-space: pre;" direction="ltr">Report or</text><text x="53" y="67" font-family="Virgil, Segoe UI Emoji" font-size="20px" fill="#000000" text-anchor="middle" style="white-space: pre;" direction="ltr">Dashboard</text></g><g stroke-linecap="round" transform="translate(333.2706124423717 272.9369761993594) rotate(0 79.5 30)"><path d="M0 0 C0 0, 0 0, 0 0 M0 0 C0 0, 0 0, 0 0 M-0.92 6.09 C1.25 3.99, 2.87 2.26, 4.78 0.14 M-0.32 6.26 C0.83 4.91, 1.78 4.17, 4.66 0.51 M0.17 11.5 C4.16 9.51, 7.92 4.63, 10.77 0.38 M-0.66 12.12 C2.83 9.42, 4.67 5.8, 10.34 0.66 M1.34 16.57 C7.43 11.24, 11.1 4.26, 14.47 0.15 M0.46 18.99 C5.89 11.33, 11.8 5.74, 15.43 -0.15 M-1.43 22.49 C6.96 17.03, 11.49 12.25, 20.94 -1.51 M0.21 23.43 C6.68 16.95, 14.17 9.07, 21.29 -0.09 M-1.96 32.25 C5.24 24.13, 13.58 18.81, 26.42 0.5 M0.35 29.79 C9.62 18.72, 21.27 7.19, 25.55 -0.58 M-1.19 35.44 C7.1 27.04, 18.68 17.02, 32.24 -1.7 M0.73 36.14 C10.35 25.47, 19.67 12.77, 32.13 -0.42 M-0.1 42.34 C8 33.11, 17.38 25.84, 38.61 -0.79 M0.06 43.1 C9.24 31.41, 18.81 20.79, 35.93 -0.1 M1.38 48.16 C14.36 32.58, 29.6 13.23, 42.96 -0.44 M-0.04 49.65 C13.65 31.6, 29.2 14.92, 43.06 0.78 M2.04 55.62 C9.84 42.89, 24.85 29.57, 45.74 0.73 M0.45 54.33 C17.31 35.39, 34.95 16.7, 47.52 0.98 M1.85 58.22 C19.79 37.94, 41.19 15.59, 52.74 -0.99 M1.41 60.09 C15.97 43.6, 29.31 27.47, 53.44 0.17 M6.23 59.89 C17.81 50.11, 27.39 34.97, 56.9 1.6 M4.69 60.51 C23.33 40.65, 39.62 20.83, 57.8 0.51 M11.36 60.73 C31.76 38.12, 50.31 14.93, 64.62 0.48 M10.33 59.2 C30.56 39.06, 47.75 18.45, 64.65 -0.89 M16.39 60.13 C29.65 46.07, 39.15 31.75, 69.59 0.43 M16.71 61.45 C27.93 47.01, 38.55 34.12, 67.82 -0.4 M22.47 58.74 C39.47 36.15, 62.21 17.25, 75.07 0.9 M22.48 59.82 C32.85 47.07, 43.34 35.98, 75.14 0.64 M28.6 60.41 C48.45 37.03, 69.98 14.24, 79.73 -0.04 M26.28 60.67 C40.97 44.08, 56.77 26.55, 79.17 -0.49 M31.95 60.11 C47.17 41.7, 63.76 25.97, 83.95 0.27 M32 59.67 C53.2 36.13, 73.37 11.35, 85.39 0.54 M35.61 61.89 C50.99 42.99, 64.52 29.92, 91.64 1 M38.45 60.36 C57.11 37.17, 78.25 13.4, 90.97 0.74 M44.99 58.79 C58.46 43.96, 70.86 28.62, 96.53 -0.27 M42.6 59.67 C60.3 40.84, 76 22.69, 94.94 0.26 M47.56 58.8 C63.81 41.43, 82.32 23.12, 100.03 0.45 M47.31 60.44 C62.63 44.37, 76.24 28.02, 100.92 -0.03 M52.55 61.55 C70.22 42.66, 86.97 21.83, 105.49 -0.53 M53.87 61.71 C65.63 46.13, 79.16 32.21, 105.36 -0.04 M58.01 60.47 C76.61 39.42, 93.95 21.73, 112.04 1.33 M59 59.5 C70.18 45.16, 82.79 32.26, 112.24 -0.9 M63.93 59.02 C78.48 40.94, 94.55 23.34, 116.25 1.54 M62.89 60.61 C81.65 42.06, 98.18 22.31, 116.63 0.28 M69.9 61.33 C89.41 36.69, 105.9 17.89, 121.21 -1.27 M68.72 59.86 C81.91 46.9, 94.66 31.24, 122.71 0.23 M72.89 60.18 C94.84 37.48, 115.92 15.64, 127.61 0.84 M75.37 61.66 C93.27 38.19, 113.62 14.21, 126.73 0.28 M81.6 58.89 C93.99 44.31, 105.33 32.96, 133.46 1.83 M79.69 60.51 C92.42 46.3, 104.01 32.71, 131.64 0.65 M86.25 59.33 C101.02 43.1, 116.92 23.16, 137.82 -0.39 M85.17 60.58 C101.97 42.61, 115.54 24.66, 136.73 0.98 M88.89 59.77 C102.12 48.04, 115.47 34.45, 145.16 -0.07 M90.2 60.18 C102.83 47.99, 113.71 35.59, 142.91 -0.13 M97.23 58.9 C109.41 44.08, 127.75 24.11, 149.17 -1.58 M94.74 61.33 C107.16 47.26, 119.41 32.21, 148.39 -0.63 M102.94 61.68 C118.53 42.01, 137.41 20.13, 153.06 0.41 M100.59 60.28 C120.82 37.97, 140.59 15.42, 153.93 0.58 M107.46 59.38 C119 45.4, 131.48 32.21, 157.37 -1.05 M106.06 61.05 C117.51 47.75, 129.01 33.46, 158.53 0.13 M112.33 59.42 C123.12 44.67, 136.25 33.36, 159.07 4.76 M112.22 59.93 C127.71 41.31, 144.03 22.38, 159.42 5.75 M116.97 61.37 C130.91 47.62, 141.06 31.14, 159.04 14.05 M117.63 61.07 C132.34 43.21, 147.81 25.1, 159.51 12.71 M121.05 58.87 C135.2 44.35, 149.1 29.71, 158.75 18.57 M122.53 60.95 C136.99 44.73, 151.34 27.81, 158.88 17.47 M126.22 59.57 C134.25 52.87, 143.15 42.41, 157.2 25.51 M127.55 59.96 C135.17 53.93, 140.41 45.02, 159.73 24.14 M134.49 59.03 C140.19 51.1, 147.05 43.9, 158.67 30.2 M133.97 60.87 C141.5 50.46, 151.89 39.96, 158.97 30.78 M138.03 60.75 C144.35 50.59, 154.76 44.1, 159.77 38.28 M138.42 60.45 C141.94 54.99, 146.28 50.02, 159.16 36.2 M145.46 61.98 C146.82 57.54, 151.25 49.69, 158.53 41.9 M143.08 59.92 C148.1 54.69, 153.6 49.54, 158.59 43.7 M147.91 61.53 C151.56 55.04, 156.71 52.31, 159.93 46.8 M148.5 60.51 C152.34 57.8, 155.52 54.2, 158.9 48.38 M155.07 59.67 C156.3 58.67, 156.86 56.02, 158.85 54.61 M154.8 60.06 C155.79 58.75, 156.23 57.88, 159.13 54.76" stroke="#15aabf" stroke-width="0.5" fill="none"></path><path d="M0.81 -0.89 C63.39 1.53, 126.85 -2.11, 160.42 -0.79 M-0.67 0.25 C40.96 0.7, 83 1.09, 159.95 0.16 M157.71 0.38 C160.44 17.33, 159.79 40.28, 158.53 59.87 M159.34 0.14 C158.55 15.23, 158.28 30.68, 159.6 59.51 M159.44 60.91 C120.1 59.38, 81.25 60.69, -1.23 60.76 M158.29 59.95 C111.18 59.56, 65.37 59, 0.27 59.15 M-1.59 60.47 C-0.28 43.02, 0.42 24.99, -1.79 0.86 M0.33 59.6 C-0.14 39.33, 0.43 17.97, 0.54 -0.61" stroke="#000000" stroke-width="1" fill="none"></path></g><g transform="translate(352.7706124423717 277.9369761993594) rotate(0 59.5 25)"><text x="59.5" y="17" font-family="Virgil, Segoe UI Emoji" font-size="20px" fill="#000000" text-anchor="middle" style="white-space: pre;" direction="ltr">Statistical </text><text x="59.5" y="42" font-family="Virgil, Segoe UI Emoji" font-size="20px" fill="#000000" text-anchor="middle" style="white-space: pre;" direction="ltr">Analysis</text></g><g transform="translate(396.73016828291605 490.4353342309828) rotate(0 127.5 22.5)"><text x="0" y="32" font-family="Virgil, Segoe UI Emoji" font-size="36px" fill="#000000" text-anchor="start" style="white-space: pre;" direction="ltr">Data Product</text></g><g stroke-linecap="round" transform="translate(91.79887761390097 623.4048531274818) rotate(0 68.16493092262098 19.862632089555404)"><path d="M0 0 C0 0, 0 0, 0 0 M0 0 C0 0, 0 0, 0 0 M0.47 6.69 C1.03 5.48, 3.07 3.94, 5.66 1.08 M-0.54 6.2 C1.01 4.86, 2.39 3.23, 4.8 0.54 M1.04 12.06 C2.81 9.37, 6.74 4.89, 9.88 0.19 M-0.65 12.84 C3.87 7.42, 8.63 2.37, 10.34 -0.82 M-0.11 17.72 C3.08 12.76, 8.36 8.62, 15.51 1.22 M-0.9 19.39 C5.49 12.44, 11.19 4.6, 16.11 0.15 M-0.54 25.32 C5.47 18.48, 10.66 11.74, 19.96 0.45 M0.92 24.62 C5.82 16.76, 13.34 10.56, 21.94 -0.08 M0.04 30.16 C8.97 21.09, 15.76 12.55, 24.44 0.77 M-0.93 30.29 C5.38 22.9, 12.28 17.72, 25.76 -0.38 M1.34 36.18 C5.86 29.05, 13.91 20.06, 32.24 0.38 M-0.01 37.15 C7.01 27.98, 14.28 21.75, 30.95 -0.25 M1.18 42.71 C11.42 28.25, 20.99 19.66, 36.38 -1.22 M1.38 41.36 C15.78 25.46, 30.31 8.38, 35.93 0.54 M6.57 42.66 C17.1 29.99, 23.47 20.67, 43.9 0.76 M7.25 41.32 C20.13 25.47, 34.85 8.8, 43.42 -0.52 M13.45 40.21 C23.2 26.94, 37.65 13.37, 47.68 -1.71 M12.57 40.98 C23.54 27.61, 34.3 14.83, 48.13 -0.12 M17.08 40.72 C25.38 27.38, 39.43 17.32, 54.74 -1.54 M17.49 42.32 C26.2 30.33, 37.33 20.23, 54 0.35 M24.32 39.18 C33.05 30.54, 45.73 16.01, 58.07 1.45 M22.66 41.37 C36.2 26.63, 47.87 12.22, 57.9 -0.64 M29.54 42.16 C35.49 30.87, 41.91 24.78, 64.94 0.42 M26.89 40.81 C39.98 28.94, 50.35 16.05, 62.87 0.76 M34.86 39.7 C42.53 32.27, 49.52 21.61, 68.7 -0.51 M32.42 41.42 C43.82 28.76, 53.04 18.14, 67.83 0.36 M37.99 39.33 C45.48 33.3, 55.18 24.29, 73.1 1.66 M38.6 40.65 C47.46 32.08, 55.12 21.49, 74.79 -0.64 M44.54 41.92 C52.05 30.37, 58.89 21.93, 80.12 -1.26 M43.15 40.16 C50.45 31.95, 57.7 24.3, 78.58 0.99 M47.83 39.7 C62.62 26.7, 78.51 11.34, 86.23 -0.69 M49.83 40.36 C62.44 25.53, 75.71 12.59, 84.05 -0.03 M53.23 40.1 C63.83 30.63, 73.62 17.25, 90.28 -1.36 M53.7 39.89 C61.67 32.22, 70.48 23.21, 89.82 1.07 M57.92 39.81 C69.88 30.2, 81.76 16, 93.74 -1.39 M58.83 42.2 C67.57 32.32, 75.19 22.42, 95.48 0.62 M63.23 40.59 C71.01 31.27, 79.99 25.15, 100.55 1.69 M65.48 41.06 C78.07 26.77, 90.69 11.26, 101.3 -0.91 M70.48 39.31 C80.33 28.95, 87.55 20.17, 105.44 -1.15 M69.89 41.1 C82.55 25.13, 97.25 10.94, 105.47 0.56 M77.23 39.82 C88.25 28.21, 99.17 17.43, 109.71 -0.48 M75.44 41.34 C85.61 29.35, 96.08 16.37, 111.8 -0.72 M81.16 42.93 C91.44 32.52, 96.84 21.57, 116.9 0.22 M80.37 41.73 C94.95 25.93, 108.1 9.77, 116.3 -0.03 M88.32 42.32 C98.92 28.96, 110.49 14.66, 123.92 -1.18 M87.06 40.63 C92.96 32.38, 100.02 23.46, 122.15 0.55 M93.01 42.51 C103.83 24.18, 119.2 9.83, 126.07 -1.3 M91.66 41.43 C100.92 30.14, 111.25 19.15, 127.74 -0.02 M98.01 38.74 C112.69 24.55, 124.89 9.46, 130.76 -0.59 M97.38 39.99 C107.07 29.11, 115.38 18.92, 132.22 -0.49 M102.48 42.97 C111.2 30.72, 119.78 18.06, 138.66 1.4 M102.19 41.26 C112.08 31.14, 120.78 20.88, 137.53 0.97 M106.21 39.79 C116.17 31.32, 122.31 22.53, 135.33 6.96 M108.01 40.72 C113.64 33.26, 121.96 24.19, 138.03 6.29 M113.46 40.34 C118.49 35.16, 123.69 27.55, 136.93 14.57 M112.45 40.98 C121.94 30.36, 129.88 21.3, 137.03 13.53 M117.24 42.28 C124.98 35.37, 131.76 27.93, 139.33 19.95 M118.06 41.29 C122.53 35.82, 125.13 32.05, 137.87 18.4 M123.19 39.72 C127.62 36.97, 130.61 31.4, 136.58 26.69 M123.98 40.06 C127.59 36.65, 131.43 32.38, 137.23 24.6 M128.88 40.4 C130.72 37.3, 133.98 33.82, 137.93 32.45 M128.49 41.22 C130.79 39.32, 133.32 35.91, 136.76 31.21 M133.59 41.05 C134.52 39.61, 135.31 38.64, 136.92 36.79 M134.09 40.88 C134.59 39.83, 135.48 39.26, 137.15 37.3" stroke="#15aabf" stroke-width="0.5" fill="none"></path><path d="M-1.97 1.07 C27.43 -2.2, 56.76 -2.33, 136.81 1.68 M0.45 0.86 C53.44 -2.21, 106.02 -2.26, 137.14 -0.68 M137.95 0.47 C136.37 14.84, 136.93 28.74, 137.23 38.45 M136.77 -0.15 C136.6 14.14, 136.36 26.03, 135.58 39.23 M138.16 41.01 C86.7 39.32, 34.83 39.68, 0.31 40.1 M137.15 39.86 C93.98 40.54, 52.33 40.16, -0.06 40.42 M-1.95 40.04 C-1.02 31.33, -1.15 22.44, 0.07 0.33 M0.71 39.14 C-1.11 27.53, -0.29 14.04, 0.24 0.64" stroke="#000000" stroke-width="1" fill="none"></path></g><g transform="translate(123.96380853652187 630.7674852170373) rotate(0 36 12.5)"><text x="36" y="17" font-family="Virgil, Segoe UI Emoji" font-size="20px" fill="#000000" text-anchor="middle" style="white-space: pre;" direction="ltr">Explore</text></g><g stroke-linecap="round" transform="translate(148.81215957359296 677.9054020012061) rotate(0 68.16493092262098 30)"><path d="M0 0 C0 0, 0 0, 0 0 M0 0 C0 0, 0 0, 0 0 M-0.85 7.14 C0.56 5.51, 2.32 3.58, 5.13 0.96 M-0.15 6.16 C1.45 4.43, 3.75 2.14, 5.33 0.12 M0.85 13.39 C1.5 9.37, 7.19 5.29, 9.7 0.31 M-0.17 12.37 C4.4 7.87, 7.6 3.74, 10.4 -0.11 M-2.06 18.85 C7.47 12.12, 13.11 4.29, 16.41 0 M-0.47 18.26 C4.15 14.05, 8.67 7.89, 14.66 -0.65 M-1.1 23.34 C6.69 15.93, 17.83 6.68, 19.75 0.32 M0.79 24.16 C7.79 13.95, 17.18 4.22, 20.9 0.9 M1.27 31.7 C10.01 20.54, 18.42 10.06, 27.96 1.34 M-0.83 29.57 C6 22.52, 15.01 14.48, 26.18 -0.55 M0.37 37.02 C5.53 27.22, 13.24 18.14, 33.57 0.44 M0.71 36.1 C9.09 25.43, 20.52 13.47, 32.43 0.07 M-0.53 42.3 C13.04 29.29, 21.3 17.38, 37.87 -0.52 M0.34 41.76 C9.83 32.65, 17.82 20.99, 36.61 0.96 M1.77 47.74 C16.43 32.55, 30.34 13.08, 44.12 1.8 M-0.52 48.2 C11.78 36.05, 23.47 22.25, 42.59 -0.6 M-1.1 52.57 C11.62 43, 21.8 26.33, 46.16 -0.6 M1.15 55.41 C11.62 40.61, 23.02 27.29, 47.34 0.78 M0.25 61.36 C18.8 36.01, 42.13 11.85, 53.7 -2.15 M0.91 59.95 C18.51 39.65, 37.62 16.42, 52.76 0.47 M4.21 58.78 C18.84 42.7, 31.88 26.68, 56.92 -0.51 M6.64 60.63 C26.61 37.32, 44.4 14.96, 57.96 0.89 M10.21 58.57 C27.94 41.5, 43.78 23.58, 63.72 0.42 M12.23 59.31 C26.23 44.22, 38.53 28, 63.01 -0.6 M17.92 61.67 C29.1 44.01, 46.93 25.75, 68.35 1.57 M15.33 60.09 C31.26 43.21, 45.69 25.76, 69.27 -0.69 M21.13 61.37 C34.25 45.43, 47.41 30.12, 72.65 -2.22 M22.83 60.19 C41.47 38.56, 62.27 14.59, 75.12 -0.15 M26.42 60.39 C47.74 37.03, 64.85 16.79, 78.72 0.84 M26.18 60.06 C42.06 44.29, 55.79 28.51, 80.27 1.11 M32.4 61.86 C43.6 46.63, 52.53 36.55, 86.09 0.57 M32.15 60.22 C47.07 41.44, 64.31 25.37, 85.56 0.03 M36.39 58.48 C56.86 37.64, 78.61 14.13, 88.42 -0.09 M38.11 61.32 C48.34 46.82, 61.3 35.16, 89.18 -0.62 M41.55 59.51 C57.52 41.97, 75.03 24.75, 94.7 -0.12 M42.83 61.06 C60.55 39.96, 77.26 19.83, 96.51 -0.29 M47.63 59.88 C64.54 42.74, 78.44 24.85, 101.92 -1.21 M47.74 60.19 C59.87 46.27, 72.15 33.99, 100.39 0.3 M53.5 59.97 C65.42 48.55, 77.25 33.58, 108.26 1.18 M53.07 60.19 C71.53 38.84, 90.83 15.17, 106.87 -0.82 M59.06 58.94 C75.92 43.17, 92.2 23.71, 109.78 0.93 M58.39 59.53 C79.16 36.78, 100.07 13.2, 111.52 0.06 M65.26 62.05 C81.23 39.9, 97.69 21.56, 116.96 -0.91 M64.22 60.87 C75.75 45.12, 88.4 32.26, 116.56 1.07 M70.64 58.42 C89.49 36.89, 107.44 16.43, 122.67 -0.85 M69.09 59.77 C80.35 48.09, 91.34 33.99, 122.39 -0.07 M75.96 60.19 C94.16 41.41, 110.89 19.09, 128.09 0.39 M73.88 61.67 C94.2 39.2, 113.25 15.67, 126.18 0.25 M81.46 59.48 C91.8 48.31, 103.32 33.06, 133.33 1.68 M79.56 59.86 C101.68 37.13, 120.44 13.55, 132 -0.82 M83.49 59.52 C98.24 46.69, 110.7 32.29, 135.38 -0.71 M85.5 60.45 C97.31 45.91, 111.5 30.25, 137.42 0.19 M91.71 59.68 C103.82 41.48, 118.34 24.96, 136.71 4.97 M91.24 60.31 C101.59 45.35, 113.4 33.07, 137.69 6.97 M93.8 62.55 C104.22 51.66, 112.11 40.08, 135.78 13.45 M94.75 60.11 C107.41 49.82, 117.02 36.69, 136.8 13.94 M100.63 58.99 C113.93 45.36, 128.07 28.68, 137.07 20.56 M102.26 60.19 C113.37 47.21, 124.31 34.28, 137.18 18.18 M106.97 59.21 C113.4 51.32, 125.12 40.66, 138.38 27.05 M106.49 59.62 C117.07 48.02, 130.08 34.01, 137.55 24.23 M112.61 61.81 C121 50.11, 131.08 38.49, 137.37 30.38 M112.46 60.09 C119 53.16, 125.49 44.75, 137.04 31.72 M115.15 60.84 C122.91 55.31, 127.17 48.67, 137.5 38.01 M117.78 60.97 C121.88 55.08, 126.52 48.11, 137.77 37.64 M123.1 58.9 C125.78 56.11, 132.5 50.27, 136.05 42.77 M122.39 61.17 C127.58 55.66, 130.66 51.58, 136.41 43.56 M128.35 61.76 C128.33 58.51, 133.04 54.97, 136.79 48.78 M127.06 60.29 C130.39 57.25, 132.82 55.31, 137.31 48.54 M133.04 60.54 C133.85 59.39, 135.44 57.98, 137.31 55.07 M132.93 60.14 C134.27 58.98, 135.43 57.94, 137.01 55.43" stroke="#15aabf" stroke-width="0.5" fill="none"></path><path d="M0.28 1.48 C43.97 -1.09, 87.67 2.64, 135.73 -0.49 M-0.98 -0.41 C52.09 0.45, 102.19 0.13, 135.98 -0.5 M137.22 1.51 C137.56 18.98, 134.66 40.98, 135.99 61.52 M136.15 -0.38 C136.62 16.38, 135.77 31.9, 136.23 60.44 M136.85 59.74 C97.72 58.11, 62.76 60.18, -1.23 59.01 M136.32 59.99 C83.94 61.04, 30.61 60.76, 0.63 59.83 M0.48 58.46 C-1.77 41.76, -1.91 22.38, -1.46 -1.62 M-0.67 59.31 C-0.1 40.8, 0.35 19.84, -0.59 0.47" stroke="#000000" stroke-width="1" fill="none"></path></g><g transform="translate(155.47709049621432 682.9054020012061) rotate(0 61.5 25)"><text x="61.5" y="17" font-family="Virgil, Segoe UI Emoji" font-size="20px" fill="#000000" text-anchor="middle" style="white-space: pre;" direction="ltr">Bootstrap /</text><text x="61.5" y="42" font-family="Virgil, Segoe UI Emoji" font-size="20px" fill="#000000" text-anchor="middle" style="white-space: pre;" direction="ltr">Label Data</text></g><g stroke-linecap="round" transform="translate(664.1370505393854 870.4174684076456) rotate(0 68.16493092262095 30)"><path d="M0 0 C0 0, 0 0, 0 0 M0 0 C0 0, 0 0, 0 0 M-0.96 5.97 C0.24 4.55, 2.97 4.27, 5.1 0.15 M-0.47 6.54 C1.01 4.43, 2.45 3.08, 5.01 0.15 M-0.52 11.57 C4.49 8.52, 7.31 4.46, 11.83 -1.16 M0.15 11.55 C3.37 8.16, 5.46 5.49, 11.36 -0.28 M-1.7 19.94 C5.75 9.78, 9.2 6.8, 16.9 0.14 M-0.81 17.81 C5.72 12.97, 10.69 6.05, 16.1 -0.29 M-1.7 23.14 C8.23 16.04, 13.53 10.22, 19.75 0.99 M1.21 24.27 C5.95 16.7, 14.02 9.26, 21.39 -0.15 M1.24 31.83 C9.72 21.98, 16.07 12.96, 25.03 -0.61 M0.69 31.41 C9.29 19.2, 17.46 10.09, 26.46 0.93 M-0.69 35.93 C7.59 29.59, 17.79 18.57, 31.56 1.42 M0.33 36.23 C7.96 29.14, 14.32 19.65, 32.88 -0.75 M2.01 42.67 C8.39 31.14, 20.71 19.42, 38.42 0.94 M0.02 42.97 C10.77 31.3, 21.12 19.05, 37.53 0.17 M1.29 48.81 C12.39 32.95, 28.34 17.34, 43.29 1.5 M0.83 48.92 C10.65 35.61, 21 24.79, 42.8 0.56 M1.18 55.28 C16.43 36.61, 32.55 17.69, 48.24 0.28 M0.58 53.62 C10.6 43.33, 20.45 32.73, 47.29 0.36 M0.27 58.4 C16.16 41.04, 33.26 23.8, 54.05 -1.98 M1.22 59.7 C15.6 43.13, 29.82 25.83, 54.04 -0.86 M3.99 61.51 C23.59 43.24, 38.82 24.41, 58.04 -1.03 M5.02 61.13 C21.31 42.53, 39.13 21.78, 57.25 -0.4 M9.88 60.8 C33.57 36.97, 53 14.38, 64.36 0.82 M10.75 60.56 C25.18 44.92, 37.6 28.47, 64.49 0.1 M15.84 60.35 C31.66 39.25, 50.15 21.82, 69.8 -1.34 M15.82 61.03 C32.81 41.63, 51.38 21, 69.45 0.21 M23.13 62.12 C33.12 46.05, 46.6 33.69, 74.14 -1.13 M22.21 59.55 C35.78 43.88, 49.02 28.59, 74.11 -0.78 M28.27 59.91 C48.02 39.02, 65 16.8, 77.9 -0.88 M26.25 59.59 C42.45 43.04, 58.56 24.24, 79.5 -0.3 M31.28 59.25 C48.62 44.17, 64.4 25.03, 84.72 -1.77 M31.76 60.65 C51.55 37.11, 71.63 15.35, 85.9 0 M39.51 59.38 C58.44 36.66, 79.08 13.69, 91.13 0.18 M37.87 60.75 C55.44 40.12, 73.03 18.81, 89.56 -0.2 M43.97 61.15 C64.2 36.62, 81.6 16.09, 96.85 0.02 M44.12 60 C62.62 36.05, 82.75 14.65, 94.92 0.63 M47.15 61.01 C69.43 37.45, 86.73 13.69, 98.67 -0.2 M48.29 61.12 C69.4 37.68, 87.98 12.84, 101.32 -0.57 M54.63 59.65 C69.16 41.65, 85.96 24.03, 104.68 -1.51 M52.89 61.72 C71.22 40.08, 88.12 20.26, 107.25 -0.98 M58.23 60.18 C75.61 41.58, 91.02 24.66, 112.13 0 M58.18 61.06 C79.21 36.52, 98.07 13.68, 111.02 -0.29 M65.04 60.39 C77.24 44.03, 94.46 23.9, 117.08 -0.26 M64.18 59.88 C82.46 37.52, 102.25 16.18, 116.38 0.52 M71.16 59.34 C87.25 37.39, 107.05 16.23, 123.51 0.91 M70.23 59.61 C84.65 42.61, 99.8 25.17, 122.46 -1.02 M75.42 61.39 C89.64 40.16, 106.9 21.98, 126.35 0.66 M73.69 59.98 C89.03 46.13, 101.17 30.71, 126.81 -0.06 M81.78 62.05 C96.13 43.27, 111.03 23.95, 131.21 -1.25 M80.2 59.5 C97.28 41.94, 114.11 22.34, 131.97 -0.22 M85.06 59.99 C101.47 41.84, 120.51 19.72, 137.52 0.29 M84.33 61.01 C98.38 45.05, 112.38 28.83, 136.48 1.78 M89.33 58.93 C107.13 41.12, 124.89 19.04, 136.16 6.64 M89.88 60.19 C101.9 47.51, 113.72 34.33, 137.53 6.62 M97.65 59.63 C110.27 42.13, 126.95 24.29, 137.18 11.82 M96.54 61.13 C107.69 45.35, 121.05 30.97, 136.46 13.34 M102.45 61.74 C114.54 47.01, 126.94 30.96, 136.89 17.48 M102.13 60.83 C112.53 46.75, 124.11 33.39, 136.88 17.94 M107.29 59.84 C118.25 45.76, 128.73 35.89, 138.35 25.62 M105.32 60.73 C114.07 52.82, 120.66 43.3, 136.95 24.7 M113.2 61.3 C119.14 54.24, 125.2 48.68, 134.96 31.23 M111.83 59.26 C121.04 48.92, 132.63 38.64, 135.95 32.36 M116.48 62.27 C123.26 53.61, 131.68 42.48, 137.61 36.49 M117.2 61.38 C123.24 55.1, 129.1 48, 137.3 36.98 M123.03 61.55 C126.69 56.46, 127.94 54.25, 135.73 42.99 M122.93 61.06 C127.59 55.09, 131.22 49.6, 136.56 43.71 M126.49 60.6 C128.95 56.8, 133.84 55.66, 138.57 50.06 M127.35 60.79 C130.93 56.88, 135.43 51.33, 137.07 49.82 M133.09 60.55 C134.71 58.02, 136.41 57.45, 137.7 55.8 M133.27 60.25 C134.09 58.97, 134.78 58.25, 137.45 55.52" stroke="#7950f2" stroke-width="0.5" fill="none"></path><path d="M0.52 0.93 C45.3 0.03, 91.99 2.64, 136.15 -1.27 M-0.93 -0.28 C48.04 -0.68, 95.45 -0.17, 136.94 -0.94 M136.52 0.16 C135.26 23.46, 137.53 44.44, 137.14 58.53 M136.54 0.81 C136.97 13.23, 136.46 28.12, 136.54 59.8 M135.37 59.61 C89.1 60.29, 45.65 61.68, -1.63 60.36 M135.53 59.28 C102.08 58.55, 69.63 58.99, 0.35 59.7 M0.97 58.98 C1.44 46.03, -1.4 34.01, -0.56 0.77 M0.85 59.17 C1.03 38.42, -0.17 16.46, -0.92 -0.63" stroke="#000000" stroke-width="1" fill="none"></path></g><g transform="translate(691.3019814620068 875.4174684076456) rotate(0 41 25)"><text x="41" y="17" font-family="Virgil, Segoe UI Emoji" font-size="20px" fill="#000000" text-anchor="middle" style="white-space: pre;" direction="ltr">Retrain </text><text x="41" y="42" font-family="Virgil, Segoe UI Emoji" font-size="20px" fill="#000000" text-anchor="middle" style="white-space: pre;" direction="ltr">Model</text></g><g stroke-linecap="round" transform="translate(187.26198117581413 757.6548261489909) rotate(0 68.5 30.000000000000114)"><path d="M0 0 C0 0, 0 0, 0 0 M0 0 C0 0, 0 0, 0 0 M-0.36 6.21 C1.53 4.55, 2.31 4.06, 5.13 -0.04 M-0.21 6.62 C1.92 4.12, 3.83 1.73, 5.15 0.18 M0.75 11.92 C4.77 6.61, 6.93 4, 11.36 0.49 M-0.38 11.44 C4.52 7.73, 8.26 2.73, 10.31 -0.16 M1.84 20.16 C4.6 13.1, 10.24 7.17, 15.58 -1.55 M0.68 17.63 C5.81 12.84, 10.66 4.93, 15.32 -0.25 M-0.4 25.53 C7.06 16.27, 17.46 4.96, 19.43 -1.42 M0.92 23.6 C6.74 17.83, 12.19 10.47, 20.34 -0.36 M-0.06 30.62 C10.1 20.31, 21.11 7.39, 24.99 2.09 M-0.58 29.83 C11.32 18.9, 21.45 6.97, 25.44 0.11 M-0.39 37.6 C9.56 24.81, 21.87 9.39, 31.2 -1.55 M-0.76 37.63 C10.67 24.27, 21.48 12.42, 31.09 0.41 M0.27 41.55 C12.74 31.86, 19.3 18.65, 38.75 0.61 M-0.14 43.21 C12.5 28.04, 25.76 12.19, 36.32 -0.53 M0.53 49.78 C9.11 37.84, 16.91 27.73, 43.29 -1.97 M0.74 48.93 C9.19 36.84, 19.18 27, 42.53 -0.23 M0.41 55.61 C11.88 42.21, 22.8 28.33, 48.11 -0.24 M0.47 53.97 C10.98 41.68, 23.56 27.82, 47.73 0.39 M-1.25 60.7 C15.22 44.8, 28.38 27.62, 53.28 -0.5 M1.65 60.61 C14 46, 27.02 29.2, 52.39 -1.08 M4.29 61.83 C23.45 38.72, 42 16.44, 56.41 -1.32 M4.69 59.85 C22.7 40.59, 39.96 21.68, 57.64 0.46 M11.92 59.8 C31.14 36, 49.1 15.17, 61.79 -0.53 M11.55 60.27 C23.34 46.47, 35.91 32.17, 63.13 -0.41 M17.68 61.68 C28.61 45.82, 39.82 33.23, 69.09 -0.09 M15.41 61.15 C27.09 48.16, 39.41 34.78, 69.23 -0.67 M20.76 61.85 C42.09 36.9, 64.15 12.66, 74.57 -1.07 M22.21 59.43 C39.02 39.7, 56.36 20.92, 74.89 -0.91 M26.18 59.09 C46.21 40.86, 62.54 20.88, 79.7 -0.57 M25.95 59.75 C48.49 36.34, 69.21 14.07, 79.87 -0.32 M31.95 59.65 C43.67 42.59, 58.26 31.24, 84.44 1.3 M33.45 59.35 C47.77 41.49, 64.24 21.89, 84.53 -0.76 M35.76 62.33 C55.71 36.17, 75.95 15.99, 91.86 0.58 M37.63 60.07 C52.21 44.6, 64.96 27.13, 90.13 0.25 M42.22 61.47 C57.36 44.16, 71.7 28.67, 97.34 -1.6 M42.29 59.32 C54.8 45.13, 67.39 31.08, 96.61 -0.56 M49.47 60.1 C66.64 39.8, 85.71 18.54, 101.29 0.14 M47.42 60.04 C66.84 40.42, 84.42 20.37, 100.82 0.82 M51.77 61.69 C72.62 38.89, 95.45 13.54, 106.28 0.45 M53.28 60.44 C74.13 38.2, 92.95 14.65, 106.38 -0.39 M57.45 59.49 C76.68 39.07, 95.68 17.53, 109.8 -1.7 M59.02 60.17 C71.23 46.1, 82.71 32.54, 111.9 -0.77 M64.86 59.86 C83.81 36.04, 102.58 14.43, 116.72 -1.18 M64.18 61.6 C80.7 40.89, 97.02 22.99, 116.15 -0.01 M70.94 60.02 C85.36 43.24, 100.44 23.77, 123.31 0.62 M69.84 60.48 C81.3 46.2, 93.92 33.64, 121.58 0.34 M75.86 59.19 C86.81 46.01, 99.1 32.03, 127.18 1.06 M74.94 60.98 C86.45 47.81, 97.39 35.21, 126.91 1.09 M80.27 59.58 C102.07 36.79, 120.94 12.95, 133.82 0.1 M79.99 59.58 C100.79 36.92, 120.55 14.62, 133.24 -0.91 M85.9 61.54 C102.52 38.39, 120.75 17.97, 139.3 1.35 M85.4 60.08 C105.34 37.32, 123.88 15.44, 137.36 1.24 M88.86 60.51 C108.19 42.6, 123.89 21.48, 135.52 5.92 M91.26 59.59 C99.51 49.3, 108.89 38.04, 136.58 6.23 M96.21 62.19 C112.22 40.97, 125.53 27.28, 135.98 11.62 M95.59 61.44 C109.17 46.21, 121.16 34, 137.08 12.63 M103.23 59.52 C110.58 49.36, 120.28 36.96, 135.92 18.39 M102.16 61.19 C112.85 46.54, 124.3 32.14, 137.71 18.27 M106.09 59.8 C117.16 47.73, 125.35 38.29, 137.54 24.81 M106.75 59.61 C116.83 48.22, 126.77 36.44, 137.69 25.61 M111.01 61.73 C119.3 55.24, 124.73 48.69, 137.9 31.42 M112.92 60.62 C118.15 51.95, 126.48 44.83, 138.21 31 M114.97 62.47 C123.68 55.79, 128.73 45.76, 138.89 38.05 M116.32 60.25 C123.6 54.06, 129.52 45.06, 136.97 36.89 M122.89 58.69 C126.64 53.84, 131.72 52.3, 137.82 43.62 M122.45 60.64 C127.57 55.94, 131.67 50.83, 138.31 43.53 M128.14 61.4 C131.04 55.27, 135.83 53.75, 137.88 50.69 M127.1 60.89 C130.81 56.7, 134.59 52.44, 136.7 49.03 M133.65 59.61 C135.26 58.19, 136.44 56.84, 136.66 55.67 M133.26 59.98 C134.37 58.78, 135.72 56.93, 137.33 55.36" stroke="#15aabf" stroke-width="0.5" fill="none"></path><path d="M-0.48 -1.93 C48.75 -1.18, 96.27 0.47, 135.25 0.43 M-0.31 -0.7 C51.7 -1.62, 104.75 -0.97, 136.13 -0.43 M137.05 -1.22 C136.01 21.79, 139.03 47.56, 137.54 58.12 M137.95 -0.13 C138.21 13.96, 137.31 28.18, 137.17 59.51 M135.92 61.85 C109.63 59.01, 78.11 58.31, 1.68 61.32 M136.37 59.59 C103.37 59.59, 68.77 59.36, 0.91 60.06 M-0.13 61.68 C-0.75 45.97, -1.23 28.47, -1.12 -0.49 M-0.7 59.3 C0.51 42.8, 0.07 24.38, 0.95 0.71" stroke="#000000" stroke-width="1" fill="none"></path></g><g transform="translate(196.42691209843548 775.1548261489911) rotate(0 59 12.5)"><text x="59" y="17" font-family="Virgil, Segoe UI Emoji" font-size="20px" fill="#000000" text-anchor="middle" style="white-space: pre;" direction="ltr">Train Model</text></g><g stroke-linecap="round" transform="translate(448.1041670904545 762.7439487914494) rotate(0 84 30)"><path d="M0 0 C0 0, 0 0, 0 0 M0 0 C0 0, 0 0, 0 0 M-0.97 7.15 C1.02 3.48, 3.23 2.18, 5.72 0.56 M-0.23 6.24 C1.48 5.1, 2.29 3.05, 5.03 0.43 M-0.64 13.16 C2.89 9.36, 5.82 6.79, 11.97 -1.07 M-0.59 11.44 C2.2 8.89, 4.79 6.25, 11.38 -0.23 M1.17 18.11 C4.94 12.82, 10.69 6.88, 16.24 0.42 M-0.89 18.06 C5.72 12.51, 10.85 6.77, 15.78 1.1 M-1.12 24.98 C7.12 16.39, 17.53 5.33, 21.24 0.72 M0.39 23.73 C8.76 15.49, 15.38 5.97, 21.34 -0.11 M-1.35 29.58 C8.79 19.54, 18.6 8.58, 24.76 -1.43 M0.22 30.26 C6.24 23.29, 11.76 16.59, 26.86 -0.5 M0.82 35.98 C12.12 21.22, 23.04 8.64, 32.34 -1.66 M0.13 37.72 C10.08 24.48, 20.03 13.92, 31.77 -0.49 M1.64 42.18 C11.27 30.73, 21.61 16.71, 38.27 0.89 M0.55 42.65 C8.47 32.49, 17.49 24.06, 36.54 0.62 M1.32 47.39 C9.91 36.76, 19.92 25.4, 42.79 0.58 M0.4 49.18 C9.74 38.48, 18.52 28.36, 42.52 0.61 M0.47 53.82 C20.15 33.4, 36.93 11.96, 48.78 0.37 M0.2 53.82 C19 33.44, 36.74 13.47, 48.2 -0.64 M1.52 61.06 C18.13 37.91, 36.36 17.49, 54.91 0.87 M1.02 59.61 C20.95 36.84, 39.5 14.96, 52.98 0.76 M3.82 60.79 C25.23 40.48, 43 16.99, 56.39 -0.59 M6.22 59.86 C15.65 48.2, 26.21 35.59, 57.45 -0.29 M11.82 61.71 C31.57 36.05, 48.69 17.98, 62.09 -0.93 M11.21 60.96 C27.93 42.36, 42.94 26.67, 63.19 0.08 M18.19 59.79 C29.92 44.53, 44.16 26.91, 67.28 -0.2 M17.12 61.47 C33 40.57, 49.8 20.02, 69.07 -0.32 M21.71 59.32 C39.58 39.12, 54.75 21.65, 74.81 -0.58 M22.37 59.14 C39.47 39.36, 56.66 19.25, 74.95 0.23 M25.97 62.01 C40.38 48.67, 51.96 35.05, 79.75 0.75 M27.88 60.89 C40.28 44.01, 55.87 28.53, 80.07 0.33 M30.58 61.99 C48.03 44.87, 62.06 24.51, 86.65 0.59 M31.93 59.77 C49.36 41.71, 65.55 20.9, 84.74 -0.57 M37.85 58.97 C52.02 42.79, 67.13 29.71, 90.17 0.88 M37.4 60.92 C53.79 43.62, 69.01 25.72, 90.66 0.78 M43.95 61.2 C61.23 37.16, 81.31 19.41, 96.3 1.65 M42.55 60.53 C61.39 39.53, 80 18.22, 94.72 -0.57 M49.63 58.62 C70.11 36.65, 89.12 14.81, 99.02 0.2 M48.31 59.86 C64.83 40.91, 82.14 20.01, 101.25 -0.81 M54.74 62.61 C65.81 47.16, 76.02 35.33, 105.51 0.07 M52.41 60.9 C69.95 42.51, 86.48 21.41, 105.8 0.55 M60.21 59.31 C77.6 36.41, 98.62 16.57, 112.85 -1.85 M57.93 60.6 C70.2 46.22, 82.8 31.86, 111.44 -0.25 M63.98 60.99 C75.72 46.28, 88.74 32.61, 116.5 -1.53 M62.88 60.13 C76.58 45.52, 90.72 28.97, 115.89 -0.61 M69.57 59.79 C89.89 34.86, 110.55 11.49, 122.33 -0.45 M69.29 59.54 C86.42 40.88, 103.66 19.76, 121.06 -0.28 M74.78 58.82 C89.43 39.88, 105.75 21.58, 128.54 -0.35 M73.53 60.79 C93.68 38.18, 112.84 14.9, 127.61 0.84 M80.81 61.22 C96.39 40.38, 117.47 17.49, 132.21 0.64 M80.1 59.65 C96.86 41.24, 113.81 22.71, 133.11 0.4 M85.02 61.21 C99.85 43.54, 113.45 30.23, 136.01 1.04 M85.85 60.74 C106.36 37.04, 126.35 13.44, 137.29 -0.4 M90.08 61.16 C106.56 40.9, 123.23 19.81, 143.35 -0.92 M89.81 59.43 C106.59 40.66, 123.46 21.74, 142.82 0.13 M96.68 58.68 C106.41 45.92, 121.34 32.08, 149.07 1.75 M95.47 60.89 C107.19 47.17, 120.64 31.31, 148.63 0.17 M100.67 59.6 C113.44 44.98, 126.89 34.12, 154.67 -0.1 M100.55 59.95 C112.93 45.39, 125.65 30.09, 154.62 -0.69 M105.82 61.15 C120.15 41.97, 136.69 25.85, 158.95 1.28 M107.27 60.19 C124.09 41.13, 142.46 18.69, 159.03 0.59 M112.93 60.91 C124.94 46.76, 136.17 33.39, 165.22 1.57 M112.16 59.81 C124.43 47.87, 135.54 34.33, 165.13 -0.62 M116.6 59.96 C128.44 46.38, 139.91 34.95, 167.32 2.28 M116.31 60.65 C135.1 40.91, 152.19 20, 167.94 0.2 M122.33 59.88 C141.86 39.47, 160.89 18.17, 170.21 4.75 M123.17 60.15 C139.4 41.63, 155.08 21.72, 168.28 6.61 M127.27 61.85 C140.03 47.04, 151.71 29.88, 168.44 13.66 M126.85 60.32 C143.52 42.61, 158.16 23.64, 167.97 13.7 M133.4 59.69 C143.25 50.73, 150.04 37.57, 167.54 19.94 M133.84 59.68 C139.88 52.18, 147.68 43.4, 168.76 18.79 M140.19 58.96 C150.52 48.12, 162.52 33.16, 170.64 24.8 M137.37 60.28 C149.69 46.62, 161.92 32.57, 169.49 24.44 M145.8 61.95 C151.88 49.92, 163.74 40.03, 170.41 31.04 M143.12 59.63 C150.64 53.06, 156.83 44.54, 169.7 31.69 M147.79 58.84 C155.2 50.37, 164.46 45.23, 169.56 36.84 M149.54 59.69 C153.87 55.16, 159.43 49.56, 168.71 36.67 M156.26 60.66 C157.12 55.63, 160.31 49.84, 169.58 42.88 M153.64 60.81 C159.61 53.47, 164.64 47.65, 169.9 43.7 M158.86 59.05 C161.58 56.45, 166.89 53.44, 167.66 50.01 M159.3 60.65 C163.24 55.76, 166.99 52.86, 168.11 49.9 M164.96 60.1 C166.76 58.58, 167.95 56.84, 169.5 55.35 M165 60.19 C166.15 58.68, 167.88 57.27, 169.32 55.81" stroke="#7950f2" stroke-width="0.5" fill="none"></path><path d="M0.62 -0.37 C62.18 -2.95, 122.66 -1.56, 166.01 -0.33 M0.25 0.1 C38.45 1.01, 77.97 0.79, 167.34 -0.2 M169.4 1.15 C167.43 13.85, 166.25 29.68, 168.33 59.76 M167.12 0.62 C167.87 14.11, 168.6 27.32, 168.46 59.18 M166.84 61.71 C100.03 62.04, 34.29 61.85, 0.16 59.17 M168.29 59.3 C111.99 59.24, 56.04 60.53, 0.48 59.33 M-0.73 58.59 C1.49 40.82, 0 20.97, 0.3 -0.69 M-0.96 59.26 C0.92 35.63, 0.98 13.52, 0.47 -0.44" stroke="#000000" stroke-width="1" fill="none"></path></g><g transform="translate(456.1041670904545 767.7439487914494) rotate(0 76 25)"><text x="76" y="17" font-family="Virgil, Segoe UI Emoji" font-size="20px" fill="#000000" text-anchor="middle" style="white-space: pre;" direction="ltr">Promote/Deploy</text><text x="76" y="42" font-family="Virgil, Segoe UI Emoji" font-size="20px" fill="#000000" text-anchor="middle" style="white-space: pre;" direction="ltr">Model</text></g><g stroke-linecap="round" transform="translate(853.7906796290824 753.0291843804241) rotate(0 83.5 35.499999999999886)"><path d="M0 0 C0 0, 0 0, 0 0 M0 0 C0 0, 0 0, 0 0 M-0.4 6.15 C0.98 4.64, 2.08 4.09, 4.41 0.89 M-0.51 6.43 C1.59 4.51, 3.13 2.24, 4.65 0.06 M-0.07 11.8 C4.72 7.54, 9.3 2.75, 11.47 -1.52 M0.61 12.01 C3.92 8.25, 6.95 3.27, 9.93 -0.03 M-0.43 19.74 C4.44 14.08, 8.36 5.84, 15.15 0.98 M-0.85 18.21 C6.14 11.56, 11.07 3.76, 14.69 1.02 M0.45 23.62 C6.8 18.93, 9.92 9.99, 20.16 0.48 M0.9 23.61 C3.81 19.67, 8.64 14.32, 21.38 -0.68 M1.99 28.93 C10.61 20.06, 20.88 7.09, 27.86 0.05 M-0.83 30.25 C9.65 18.7, 20.05 6.76, 26.71 -0.3 M1.7 38.71 C10.4 23.55, 24.95 10.56, 33.53 -0.5 M-0.98 36.4 C8.52 27.51, 16.74 16.65, 32.82 0.15 M-0.91 40.88 C12.53 25.44, 27.78 13.42, 37.27 0.02 M0.85 41.74 C9.22 32.54, 18.87 22.22, 36.42 -0.15 M1.67 49.5 C9.22 36.19, 19.41 22.34, 43.2 -0.74 M-0.96 49.65 C14.73 31.15, 29.6 14.02, 43.51 0.09 M-0.59 52.57 C15.41 34.8, 35 16.7, 46.1 0.42 M0.05 54.85 C18.76 32.63, 37.32 13.3, 46.74 0.26 M-0.47 61.15 C21.28 38.55, 40.68 15, 54.67 -0.75 M-0.33 61.45 C16.72 41.38, 35.47 21.75, 54.1 0.81 M0.92 69.11 C15.18 47.09, 32.61 26.35, 58.15 1.19 M-0.8 66.59 C21.35 41.85, 43.5 18.11, 58.29 -0.76 M0.86 73.72 C12.69 57.83, 25.65 41.41, 65.55 0.37 M0.62 71.94 C24.88 44.05, 48.67 16.45, 63.43 -0.96 M6.21 71.21 C27.74 47.94, 46.74 25.27, 68.31 0.69 M5.46 71.18 C28.73 46.22, 53.32 19.9, 68.39 -0.32 M10.88 71.87 C34.43 44.94, 59.8 17.05, 75.52 -1.09 M10.84 71.99 C28.35 53.09, 44.23 34.97, 73.54 -0.46 M16.83 71.82 C31.52 55.93, 47.43 38.33, 80.57 1.67 M18.04 71.72 C31.31 55.81, 46.64 38.13, 80.07 -0.03 M20.85 70.56 C38.21 53.34, 55.88 31.97, 84.36 0.58 M21.93 71.88 C43.56 47.52, 64.88 23.82, 84.7 0.13 M25.74 70.05 C54.14 43.17, 77.81 14.74, 90.01 1.28 M27.69 71.12 C43.56 51.6, 60.13 32.7, 89.05 -0.92 M30.98 71.81 C52.23 51.65, 68.59 32.84, 93.97 -1.5 M32.08 71.16 C54.77 47.03, 74.81 23.07, 96.36 0.67 M39.94 71.9 C54.48 54.29, 70.15 35.26, 100.8 1.1 M38.29 71.79 C53.04 55.85, 66.73 38.44, 100.78 -0.47 M42.56 74.07 C61.61 51.69, 80.36 31.27, 106.3 -0.82 M43.16 72.87 C60.22 53.01, 77.78 32.55, 106.17 0.06 M50.54 72.75 C60.2 57.26, 74.97 41.39, 112.21 1.1 M49.96 71.22 C68.31 49.99, 87.06 28.87, 111.38 0.37 M52 70.18 C66.86 54.63, 83.1 37.93, 116.77 1.32 M53.72 72.66 C71.05 51.59, 89.47 32.33, 116.34 0.02 M58.72 71.41 C79.66 49.69, 99.97 26.94, 120.62 1.66 M59.98 70.92 C83.88 43.96, 106.81 17.68, 122.69 0.21 M64.78 73.41 C89.94 42.67, 115.74 15.9, 126.84 -1.28 M64.05 71.68 C87.35 45.26, 111.39 19.34, 127.26 1.04 M69.77 72.09 C89.31 49.44, 107.12 31.77, 133.47 1.57 M69.85 71.45 C91.73 47.82, 112.95 22.84, 133.25 0.18 M73.48 71.41 C89.26 54.42, 105.49 40.22, 138.13 -1.11 M75.14 71.64 C93.65 50.7, 111.17 29.28, 138.52 -0.09 M79.07 70.39 C103.18 42.81, 126.8 15.11, 143.31 0 M80.3 71.43 C93.3 57.21, 105.89 40.89, 143.31 -1 M87.78 72.24 C103.6 49.93, 126.96 25.82, 148.97 1.96 M85.65 71.81 C102.07 52.16, 118.07 33.17, 148.6 -0.25 M90.09 71.35 C109.82 47.67, 129.6 27.91, 153.79 -1.42 M92.21 72.51 C113.87 45.69, 136.66 19.79, 153.82 -0.1 M96.44 70.39 C115.47 52.84, 130.38 32.46, 159.8 -0.5 M96.98 71.99 C114.19 52.75, 129.02 34.96, 159.17 -0.32 M99.74 72.13 C116.96 52.52, 131.82 36.82, 165.64 -0.71 M101.05 73.15 C121.97 49.13, 141.39 26.25, 165.42 -0.32 M105.34 72.73 C124.22 54.12, 140.13 33.14, 170.51 1.21 M106.21 71.53 C125.57 51, 141.64 30.82, 169.47 0.66 M111 73.07 C131.65 50.44, 149.7 33.14, 168.14 6.09 M112.45 72.59 C134.34 46.95, 154.99 22.92, 168.91 7.22 M119.42 72.55 C130.11 59.78, 137.49 45.83, 169.88 14.78 M117.13 72.34 C134.28 52.79, 151.7 33.52, 168.71 14.23 M122.95 72.16 C136.36 57.79, 150.78 42.1, 168.84 20.79 M123.26 72.39 C139.39 52.8, 156.85 31.9, 167.97 20.38 M128.74 71.53 C142.89 54.34, 158.39 34.79, 167.79 25.14 M129.24 71.86 C136.96 61.35, 143.57 53.08, 169.35 24.86 M131.45 72.04 C147.12 56.9, 161.76 42.19, 167.69 30.08 M133.2 72.39 C145.63 59.93, 156.43 46.7, 168.29 32.07 M138.43 73.79 C146.43 63.58, 156.04 52.14, 168.39 38.24 M138.74 72.08 C147.67 61.13, 156.87 49.8, 169.21 38.62 M142.43 70.76 C148.74 65.96, 153.66 59.5, 169.15 42.35 M143.21 72.49 C151.82 63.31, 159.25 52.71, 168.69 44.02 M150.75 71.81 C156.32 64.31, 163.28 55.22, 168.6 48.64 M149.53 72.56 C155.37 64.72, 159.49 59.37, 168.99 49.9 M153.94 71.78 C157.17 68.15, 160.18 65.55, 166.73 58.11 M154.41 71.62 C159.83 66.06, 163.99 60.57, 168.64 56.25 M159.44 72.24 C162.28 67.95, 165.69 64.49, 167.89 62.19 M160.22 71.49 C163.31 68.86, 165.31 65.42, 168.64 61.4 M165.45 72.56 C165.51 71.39, 167.02 70.5, 168.66 68.38 M165.21 72.26 C166.64 70.47, 167.61 69.1, 168.73 68.38" stroke="#7950f2" stroke-width="0.5" fill="none"></path><path d="M-0.61 0.87 C54.03 -0.51, 108.53 -1.66, 167.17 -0.84 M-0.88 -0.86 C53.26 0.76, 107.19 1.38, 166.65 0.22 M168 -1.97 C166.08 17.72, 168.21 35.91, 167.9 72.48 M166.79 0.24 C166.26 17.62, 167.29 32.84, 167.46 70.9 M166.35 70.35 C129.51 70.72, 93.64 73.43, 0.86 71.02 M166.23 70.7 C125.93 71.41, 85.44 70.75, 0.82 70.44 M-0.5 71.54 C-1.77 49.24, -0.85 29.96, 0.15 1.04 M0.96 70.58 C-0.07 47.71, 0.36 21.64, 0.23 0.35" stroke="#000000" stroke-width="1" fill="none"></path></g><g transform="translate(891.7906796290824 763.5291843804241) rotate(0 45 24.999999999999886)"><text x="45" y="17" font-family="Virgil, Segoe UI Emoji" font-size="20px" fill="#000000" text-anchor="middle" style="white-space: pre;" direction="ltr">Collect </text><text x="45" y="42" font-family="Virgil, Segoe UI Emoji" font-size="20px" fill="#000000" text-anchor="middle" style="white-space: pre;" direction="ltr">Feedback</text></g><g stroke-linecap="round" transform="translate(645.8693865645173 605.4527843950061) rotate(0 83 35.5)"><path d="M0 0 C0 0, 0 0, 0 0 M0 0 C0 0, 0 0, 0 0 M0.21 7.1 C0.75 4.6, 2.36 2.47, 4.99 0.76 M-0.48 6.09 C1.73 3.96, 3.86 2.2, 5.05 -0.02 M0.18 13.22 C1.31 10.6, 3.02 7.42, 12.04 0.42 M-0.01 11.8 C3.92 7.18, 7.61 2.76, 10.35 -0.64 M-0.36 17.8 C5.79 12.22, 9.66 6.97, 15.16 0.86 M-1.11 17.77 C4.82 12.16, 12.35 5.46, 15.24 -0.15 M-0.28 23.75 C7.07 15.55, 15.99 6.58, 22.37 -0.92 M-0.33 23.86 C6.32 17.32, 11.36 11.68, 20.39 -0.28 M-0.24 30.48 C6.04 24.55, 13.41 16.77, 27.42 1.84 M0.97 30.38 C5.77 24.13, 12.42 16.44, 26.92 0.14 M-1.47 35.26 C7.42 27.91, 16.43 16.49, 31.21 0.75 M-0.38 36.59 C10.81 24.07, 21.99 12.03, 31.55 0.3 M-1.83 40.79 C16.19 25.51, 29.65 8.83, 36.85 1.46 M0.12 41.85 C9.41 30.46, 19.11 19.45, 35.9 -0.74 M-1.84 48.59 C13.65 34.67, 24.42 22.28, 40.82 -1.33 M-0.73 47.93 C15.06 31.71, 28.29 15.57, 43.21 0.84 M1.88 54.71 C12.59 41.36, 24.47 26.68, 47.65 1.28 M0.23 54.61 C11.54 42.6, 21.8 29.14, 47.63 -0.29 M-0.75 62.92 C15.44 43.84, 31.38 26.64, 53.15 -0.64 M-0.15 61.73 C14.23 44.86, 29.14 27.45, 53.02 0.23 M1.32 68.4 C10.18 53.85, 24.16 38.89, 59.06 1.28 M0.74 66.87 C17.89 47, 35.45 27.24, 58.23 0.55 M-1.15 70.36 C13.86 54.62, 30.26 37.74, 64.27 0.73 M0.57 72.83 C18.09 51.55, 36.7 32.08, 63.85 -0.56 M5.57 71.59 C26.51 49.86, 46.82 27.12, 67.47 1.84 M6.83 71.09 C30.73 44.14, 53.66 17.85, 69.54 0.38 M11.63 73.58 C37.06 42.53, 63.12 15.47, 74.35 -1.86 M10.9 71.85 C34.44 45.16, 58.73 18.95, 74.76 0.45 M16.62 72.26 C36.16 49.61, 53.97 31.95, 80.31 1.74 M16.7 71.63 C38.58 47.99, 59.8 23.01, 80.1 0.36 M20.33 71.58 C36.26 54.42, 52.65 40.05, 85.64 -1.69 M21.99 71.81 C40.69 50.65, 58.41 29, 86.02 -0.67 M25.92 70.57 C50.03 42.98, 73.65 15.29, 90.16 0.18 M27.15 71.6 C40.15 57.38, 52.74 41.06, 90.16 -0.83 M34.63 72.42 C50.66 49.87, 74.22 25.51, 96.47 1.38 M32.5 71.98 C49.09 52.13, 65.27 32.93, 96.1 -0.83 M36.94 71.52 C56.67 47.85, 76.45 28.08, 100.64 -1.25 M39.06 72.68 C60.72 45.86, 83.51 19.96, 100.67 0.08 M43.29 70.57 C62.5 52.8, 77.6 32.2, 107.31 -1.08 M43.82 72.16 C61.21 52.72, 76.21 34.74, 106.68 -0.9 M47.25 71.55 C64.3 52.13, 79 36.62, 112.49 -0.54 M48.56 72.56 C69.26 48.78, 88.47 26.14, 112.27 -0.15 M52.19 72.91 C71.25 54.09, 87.34 32.9, 118.02 0.63 M53.05 71.7 C72.6 50.96, 88.87 30.56, 116.97 0.07 M58.5 72.49 C81.04 47.77, 100.94 28.34, 121.55 -1.28 M59.95 72.01 C84.1 43.76, 107.03 17.11, 122.32 -0.16 M66.27 72.72 C79.53 57.11, 89.4 40.29, 128.54 1.37 M63.98 72.51 C85.06 48.57, 106.29 24.92, 127.37 0.82 M70.45 71.58 C88.84 51.65, 108.22 30.25, 132.75 1.34 M70.76 71.81 C93.04 45.22, 116.68 17.21, 131.87 0.93 M75.58 71.71 C98.31 44.59, 122.51 15.03, 136.94 -0.34 M76.09 72.03 C88.11 56.14, 99.22 42.69, 138.51 -0.63 M78.95 71.45 C105.04 44.25, 130.24 17.4, 142.09 -1.44 M80.71 71.81 C101.82 49.67, 121.14 26.64, 142.69 0.54 M85.28 73.96 C102.92 52.52, 122.35 29.79, 148.04 0.67 M85.59 72.26 C104.55 49.33, 123.88 26.35, 148.87 1.06 M89.94 70.17 C104.64 55.55, 118.06 39.32, 154.7 -2.01 M90.72 71.91 C112.22 48.14, 132.14 23.18, 154.25 -0.33 M97.59 71.98 C118.7 47.16, 140.97 20.45, 158.75 -1 M96.38 72.73 C114.02 50.63, 130.43 31.14, 159.14 0.26 M100.79 71.95 C114.14 56.55, 127.38 42.18, 162.78 1.68 M101.26 71.79 C124.03 46.65, 145.02 21.8, 164.69 -0.18 M105.86 72.69 C128.24 45.22, 152.04 18.55, 166.75 2.13 M107.05 71.53 C127.4 50.25, 145.88 27.24, 167.9 0.91 M112.94 74.14 C123.06 58.56, 138.86 43.8, 168.42 8.36 M111.98 72.95 C134.89 46.94, 155.51 22.21, 168.69 8.38 M116.5 71.39 C135.24 52.34, 152.66 29.38, 167.27 14.53 M117.93 72.31 C131.19 55.13, 145.33 40.56, 167.38 13.53 M121.97 73.76 C138.61 53.44, 151.55 36.08, 167.94 18.37 M122.75 72.15 C137.92 54.98, 152.33 39.69, 168.74 20.44 M127.03 73.81 C138.95 63.01, 146.14 51.01, 166.04 25.18 M128.01 71.23 C141.04 57.52, 155.2 42.47, 167.4 25.84 M134.19 70.49 C142.63 60.15, 149.93 53.33, 170.11 33.17 M133.3 71.49 C142.96 62.3, 151.55 51.92, 168.4 31.38 M140.07 70.09 C149.12 60.28, 158.94 52.23, 169.64 36.77 M138.01 72.03 C149.17 58.94, 161.23 45.97, 168.78 38.87 M144.01 73.41 C150.17 64.98, 157.51 55.7, 167.52 44.43 M143.59 72.09 C152.86 61.01, 162.68 51.77, 168.66 44.93 M149.32 72.75 C156.57 63.18, 159.87 56.15, 168.8 49.68 M149.35 70.99 C153.33 67.95, 156.77 62.27, 167.57 50.01 M155.93 71.02 C159.29 64.82, 164.72 60.56, 169.19 56.97 M154.75 73.12 C159.05 67.5, 162.04 62.17, 167.53 57.09 M161.05 71.14 C162.83 68.06, 164.47 67.78, 167.45 61.63 M160.79 71.84 C162.35 69.66, 164.82 66.73, 168.45 62.81" stroke="#7950f2" stroke-width="0.5" fill="none"></path><path d="M1.96 1.84 C61.03 0.03, 125.61 0.85, 167.64 -0.4 M-0.73 -0.48 C46.84 1.75, 92.87 1.33, 166.93 0.25 M164.96 -1.64 C164.69 24.42, 166.54 53.69, 166.39 70.76 M166.71 -0.78 C166.14 18.18, 166.64 36.09, 165.54 70.59 M167.79 71.58 C124.05 72.16, 82.5 70.48, 0.68 70.4 M165.16 71.73 C108.3 69.19, 50.45 69.15, 0.99 71.23 M-0.86 69.01 C-1.42 45.74, 1.55 21.78, -1.4 0.19 M-0.22 71.29 C0.17 42.69, 0.44 16.91, -0.77 0.04" stroke="#000000" stroke-width="1" fill="none"></path></g><g transform="translate(664.3693865645171 615.9527843950061) rotate(0 64.5 25)"><text x="64.5" y="17" font-family="Virgil, Segoe UI Emoji" font-size="20px" fill="#000000" text-anchor="middle" style="white-space: pre;" direction="ltr">Use Model - </text><text x="64.5" y="42" font-family="Virgil, Segoe UI Emoji" font-size="20px" fill="#000000" text-anchor="middle" style="white-space: pre;" direction="ltr">Inference</text></g><g transform="translate(653.0708354620763 730.7771599760179) rotate(0 82.5 17.5)"><text x="0" y="25" font-family="Virgil, Segoe UI Emoji" font-size="28px" fill="#000000" text-anchor="start" style="white-space: pre;" direction="ltr">Closed Loop</text></g><g stroke-linecap="round"><g transform="translate(102.57834356864555 582.7653049759931) rotate(0 429.42863176950266 -4.453997872431728)"><path d="M-0.37 -0.43 C142.91 -1.56, 716.04 -5.51, 859.23 -6.49 M1.64 -1.7 C144.88 -3.24, 716.01 -7.36, 858.77 -8.48" stroke="#000000" stroke-width="1" fill="none"></path></g><g transform="translate(102.57834356864555 582.7653049759931) rotate(0 429.42863176950266 -4.453997872431728)"><path d="M829.94 3.56 C838.48 0.09, 846.22 -2.22, 859.74 -7.93 M831.01 1.97 C840.66 -0.37, 849.07 -5.61, 859.63 -9.36" stroke="#000000" stroke-width="1" fill="none"></path></g><g transform="translate(102.57834356864555 582.7653049759931) rotate(0 429.42863176950266 -4.453997872431728)"><path d="M829.79 -16.96 C838.42 -15.02, 846.19 -11.92, 859.74 -7.93 M830.86 -18.55 C840.56 -14.19, 849.02 -12.74, 859.63 -9.36" stroke="#000000" stroke-width="1" fill="none"></path></g></g><g transform="translate(971.8251150424844 558.2547596041225) rotate(0 42.5 17.5)"><text x="0" y="25" font-family="Virgil, Segoe UI Emoji" font-size="28px" fill="#000000" text-anchor="start" style="white-space: pre;" direction="ltr">Action</text></g><g transform="translate(10 564.4105610789359) rotate(0 38.5 17.5)"><text x="0" y="25" font-family="Virgil, Segoe UI Emoji" font-size="28px" fill="#000000" text-anchor="start" style="white-space: pre;" direction="ltr">Data</text></g><g stroke-linecap="round"><g transform="translate(522.3416436976215 737.9291482349429) rotate(0 50.11840646930554 -45.235812815778104)"><path d="M-0.72 -0.68 C16.15 -15.86, 84.2 -76.97, 100.96 -92.05 M1.1 1.57 C17.86 -13.37, 83.3 -74.99, 100.17 -90.79" stroke="#000000" stroke-width="1" fill="none"></path></g><g transform="translate(522.3416436976215 737.9291482349429) rotate(0 50.11840646930554 -45.235812815778104)"><path d="M85.5 -63.51 C89.7 -72.68, 94.98 -77.04, 101.02 -89.38 M87.14 -64.36 C91.62 -72.74, 97.4 -82.95, 100.65 -91.67" stroke="#000000" stroke-width="1" fill="none"></path></g><g transform="translate(522.3416436976215 737.9291482349429) rotate(0 50.11840646930554 -45.235812815778104)"><path d="M71.46 -78.47 C79.42 -83.42, 88.6 -83.64, 101.02 -89.38 M73.1 -79.33 C82.58 -82.42, 93.41 -87.26, 100.65 -91.67" stroke="#000000" stroke-width="1" fill="none"></path></g></g><g stroke-linecap="round"><g transform="translate(834.4779457795264 645.406647512815) rotate(0 45.53970356553668 43.351188846070954)"><path d="M0.2 0.18 C15.76 14.63, 77.13 73.17, 92.23 87.47 M-1.15 -0.77 C14.41 13.3, 75.92 71.25, 91.66 85.9" stroke="#000000" stroke-width="1" fill="none"></path></g><g transform="translate(834.4779457795264 645.406647512815) rotate(0 45.53970356553668 43.351188846070954)"><path d="M64.38 75.32 C71.64 75.3, 74.92 77.96, 90.48 87.78 M64.93 73.55 C72.01 77.48, 77.91 80, 91.05 86.68" stroke="#000000" stroke-width="1" fill="none"></path></g><g transform="translate(834.4779457795264 645.406647512815) rotate(0 45.53970356553668 43.351188846070954)"><path d="M78.4 60.34 C82.84 63.46, 83.2 69.24, 90.48 87.78 M78.96 58.57 C82.46 66.43, 84.65 72.91, 91.05 86.68" stroke="#000000" stroke-width="1" fill="none"></path></g></g><g stroke-linecap="round"><g transform="translate(939.2011753205668 842.6523777759853) rotate(0 -57.91901507612914 29.304554185445113)"><path d="M0.21 -0.97 C-19.08 8.99, -97 49.74, -116.05 59.58 M-1.14 1.14 C-20.04 10.75, -95.07 48.14, -113.94 57.78" stroke="#000000" stroke-width="1" fill="none"></path></g><g transform="translate(939.2011753205668 842.6523777759853) rotate(0 -57.91901507612914 29.304554185445113)"><path d="M-94.99 34 C-97.97 43.27, -106.04 46.35, -114.49 59.24 M-94.38 35.04 C-100.6 43.47, -106.75 51.56, -114.76 58.56" stroke="#000000" stroke-width="1" fill="none"></path></g><g transform="translate(939.2011753205668 842.6523777759853) rotate(0 -57.91901507612914 29.304554185445113)"><path d="M-85.76 52.33 C-91.22 56.64, -101.8 54.75, -114.49 59.24 M-85.14 53.37 C-94.52 55.58, -103.83 57.41, -114.76 58.56" stroke="#000000" stroke-width="1" fill="none"></path></g></g><g stroke-linecap="round"><g transform="translate(639.2657385814457 909.7565910658091) rotate(0 -48.46922116967602 -29.653035984421194)"><path d="M-1.1 0.69 C-17.17 -9.12, -81.38 -49.84, -97.47 -59.99 M0.53 0 C-15.08 -9.5, -79.25 -48.61, -95.22 -58.46" stroke="#000000" stroke-width="1" fill="none"></path></g><g transform="translate(639.2657385814457 909.7565910658091) rotate(0 -48.46922116967602 -29.653035984421194)"><path d="M-64.68 -53.95 C-72.07 -55.74, -78.81 -56.39, -94.85 -59.81 M-66.24 -52.05 C-73.88 -54.67, -80.89 -55.21, -94.52 -58.2" stroke="#000000" stroke-width="1" fill="none"></path></g><g transform="translate(639.2657385814457 909.7565910658091) rotate(0 -48.46922116967602 -29.653035984421194)"><path d="M-75.4 -36.45 C-80.32 -41.9, -84.77 -46.3, -94.85 -59.81 M-76.96 -34.55 C-81.76 -41.94, -85.89 -47.2, -94.52 -58.2" stroke="#000000" stroke-width="1" fill="none"></path></g></g><g stroke-linecap="round"><g transform="translate(338.31347204784544 791.8158370423448) rotate(0 42.92206893901263 0.06511299798239634)"><path d="M0.58 0.03 C14.48 0.09, 70.14 0.08, 84.29 0.08 M-0.58 -1 C13.6 -0.79, 72.19 0.82, 86.42 1.13" stroke="#000000" stroke-width="1" fill="none"></path></g><g transform="translate(338.31347204784544 791.8158370423448) rotate(0 42.92206893901263 0.06511299798239634)"><path d="M58.04 8.83 C67.06 7.16, 77.57 4.85, 87.73 0.89 M57.59 11.5 C68.25 6.64, 79.06 3.55, 86.01 0.6" stroke="#000000" stroke-width="1" fill="none"></path></g><g transform="translate(338.31347204784544 791.8158370423448) rotate(0 42.92206893901263 0.06511299798239634)"><path d="M58.55 -11.68 C67.33 -5.7, 77.66 -0.35, 87.73 0.89 M58.09 -9.01 C68.42 -6.1, 79.04 -1.4, 86.01 0.6" stroke="#000000" stroke-width="1" fill="none"></path></g></g><g stroke-linecap="round" transform="translate(19.577593567662063 374.6603624676318) rotate(0 19.67338150265516 16.00252365737572)"><path d="M0 0 C0 0, 0 0, 0 0 M0 0 C0 0, 0 0, 0 0 M-0.88 6.44 C2.34 3.75, 3.54 1.61, 4.97 0.77 M-0.28 6.77 C1.47 4.29, 2.78 2.63, 4.64 -0.02 M1.6 12.87 C2.47 8.22, 7.24 4.09, 9.75 0.61 M-0.24 11.5 C2.99 7.65, 7.21 4.4, 10.21 -0.32 M0.27 18.1 C6.06 14.18, 11.54 7.39, 14.31 1.8 M-0.78 17.6 C3.23 13.78, 7.96 8.86, 16.61 0.5 M2.08 23.41 C6.02 15.72, 12.21 8.45, 20.36 -0.89 M0.61 24.5 C6.29 17.19, 11.66 9.87, 22.05 -0.35 M0.21 32.04 C9.96 20.63, 19.04 10.81, 26.18 -0.03 M-0.93 31.32 C7.95 21.71, 16.9 11.37, 26.58 0.22 M1.6 33.89 C11.35 26.26, 18.01 17.02, 29.95 -1.78 M2.05 33.39 C11.03 23.69, 18.77 14.56, 32.28 -0.53 M8.49 34.68 C19.97 22.04, 29.67 8.07, 35.38 2.2 M8.26 33.63 C15.27 24.48, 25.4 13.25, 35.9 0.29 M14.79 32.41 C25.62 20.46, 33.91 7.08, 40.74 2.21 M13 34.66 C18.91 27.11, 24.41 19.41, 41.77 1.27 M17.81 34.28 C24.2 25.17, 31.33 18.93, 40.59 6.45 M17.7 34.21 C22.81 27.04, 30.46 20.15, 40.47 8.2 M23.22 32.33 C28.62 27.8, 34.08 19.58, 40.04 13.87 M23.92 34.49 C29.07 25.8, 36.2 19.46, 40.97 13.54 M28.92 33.48 C29.45 31.35, 34.1 27.69, 41.99 18.29 M28.99 34.66 C33.27 29.31, 38.42 23.59, 40.88 20.06 M33.82 34.51 C36.85 30.52, 38.52 27.91, 40.89 26.19 M33.8 34.11 C36.44 31.23, 38.31 29.51, 41.31 25.9" stroke="#15aabf" stroke-width="0.5" fill="none"></path><path d="M-0.25 1.64 C16.59 -0.46, 27.68 -1.48, 37.54 0.58 M-0.99 0.44 C15.58 -0.09, 30.75 0.67, 39.51 0.45 M37.65 -1.03 C39.92 9.34, 38.8 21.71, 38.18 32.56 M39.52 -0.5 C39.18 7.57, 39.63 14.12, 38.4 32.68 M38.83 30.41 C25.01 32.01, 10.5 31.97, 0.7 31.39 M39.79 31.5 C25.27 31.2, 11.22 32.27, 0.83 31.47 M-1.42 31.37 C-1.16 23.18, -0.42 9.85, 1.35 -1.91 M-0.87 31.39 C-0.27 23.95, -0.55 15.16, 0.42 -0.02" stroke="#000000" stroke-width="1" fill="none"></path></g><g stroke-opacity="0.5" fill-opacity="0.5" transform="translate(71.97625533084084 381.36961873119935) rotate(0 276 12.5)"><text x="0" y="17" font-family="Virgil, Segoe UI Emoji" font-size="20px" fill="#000000" text-anchor="start" style="white-space: pre;" direction="ltr">Offline / Manual / Science Focused / Shorter Lifespan </text></g><g stroke-linecap="round" transform="translate(20.518555521811265 415.6860597068626) rotate(0 19.67338150265516 16.00252365737572)"><path d="M0 0 C0 0, 0 0, 0 0 M0 0 C0 0, 0 0, 0 0 M0.31 7.05 C0.76 5.16, 3.12 3.15, 4.49 1.15 M0.14 6.06 C0.73 5.08, 2.34 3.05, 5.32 0.04 M0.92 11.88 C3.22 9.87, 4.75 6.61, 12.02 -0.25 M0.62 12.23 C4.07 8.54, 6.52 4.08, 11.13 -0.81 M1.2 20.41 C7.06 13.52, 9.94 6.3, 14.55 -0.47 M-0.53 18.67 C6.51 10.93, 12.1 4.74, 15.24 1.27 M0.59 24.4 C3.74 18.87, 11.23 12.68, 22.87 1 M1 24.58 C5.78 16.52, 13.17 8.39, 20.91 0.02 M-0.93 31.92 C7.12 22.44, 16.12 12.11, 26.09 2.12 M-0.49 31.09 C10.46 19.75, 21.2 6.23, 27.17 -0.15 M1.37 32.07 C9.49 26.13, 14.39 18.17, 33.53 -0.36 M1.46 34.72 C13.72 22.02, 23.28 10, 31.99 -0.1 M8.36 34.02 C18.85 21.59, 31.31 6.65, 38.83 -0.97 M7.69 34.03 C15.39 22.83, 24.95 12.83, 36.07 0.34 M11.37 33.36 C23.74 25.12, 31.56 13.7, 42.96 -0.13 M13.69 34.64 C20.74 24.24, 30.01 16.39, 40.77 1.43 M17.94 35.08 C24.98 22.95, 36.05 13.12, 42.05 5.83 M18.22 33.74 C24.31 26.99, 30.17 19.06, 41.85 8.05 M22.79 35.21 C29.05 27.39, 33.11 19.97, 39.59 11.54 M24.2 34.36 C26.23 29.72, 30.64 25.85, 40.52 14.16 M29.65 32.88 C33.68 28.83, 37.5 21.9, 39.74 20.57 M29.46 34.88 C32.21 28.66, 36.67 24.43, 40.7 19.44 M34.02 32.81 C36.33 32.82, 36.73 30.5, 41.75 25.98 M34.67 33.76 C35.22 32.04, 37.38 29.95, 41.13 26.58" stroke="#7950f2" stroke-width="0.5" fill="none"></path><path d="M-1.17 -1.62 C15.81 0.36, 28.37 -2.3, 39.42 1.99 M-0.71 0.67 C11.21 -1.18, 22.47 -0.59, 39.77 -0.78 M41.01 -0.2 C41.14 10.35, 40.16 25.32, 39.14 31.46 M39.39 -0.13 C38.54 7.41, 39.02 14.04, 38.69 31.54 M39.4 30.15 C25.29 33.7, 12.13 30.93, 0.86 32.68 M38.62 31.57 C27.04 31.26, 13.58 31.27, 0.23 32.38 M1.4 30.77 C-2.21 24.89, -1.14 14.92, 0.26 -1.7 M-0.35 31.08 C0.27 20.49, -0.04 9.23, -0.8 0.94" stroke="#000000" stroke-width="1" fill="none"></path></g><g stroke-opacity="0.5" fill-opacity="0.5" transform="translate(70.91234822784435 417.4801163852776) rotate(0 286.5 12.5)"><text x="0" y="17" font-family="Virgil, Segoe UI Emoji" font-size="20px" fill="#000000" text-anchor="start" style="white-space: pre;" direction="ltr">Online / Automated / Engineering Focused / Long Lifespan</text></g></svg>