<svg version="1.1" xmlns="http://www.w3.org/2000/svg" viewBox="0 0 1104.2535078500468 523.6033883576356" width="1104.2535078500468" height="523.6033883576356">
  <!-- svg-source:excalidraw -->
  
  <defs>
    <style class="style-fonts">
      @font-face {
        font-family: "Virgil";
        src: url("https://excalidraw.com/Virgil.woff2");
      }
      @font-face {
        font-family: "Cascadia";
        src: url("https://excalidraw.com/Cascadia.woff2");
      }
    </style>
  </defs>
  <g transform="translate(434.15856109047854 10) rotate(0 127.5 22.5)"><text x="0" y="32" font-family="Virgil, Segoe UI Emoji" font-size="36px" fill="#000000" text-anchor="start" style="white-space: pre;" direction="ltr">Data Product</text></g><g stroke-linecap="round" transform="translate(129.22727042146346 142.96951889649904) rotate(0 68.16493092262098 19.862632089555404)"><path d="M0 0 C0 0, 0 0, 0 0 M0 0 C0 0, 0 0, 0 0 M0.47 6.69 C1.03 5.48, 3.07 3.94, 5.66 1.08 M-0.54 6.2 C1.01 4.86, 2.39 3.23, 4.8 0.54 M1.04 12.06 C2.81 9.37, 6.74 4.89, 9.88 0.19 M-0.65 12.84 C3.87 7.42, 8.63 2.37, 10.34 -0.82 M-0.11 17.72 C3.08 12.76, 8.36 8.62, 15.51 1.22 M-0.9 19.39 C5.49 12.44, 11.19 4.6, 16.11 0.15 M-0.54 25.32 C5.47 18.48, 10.66 11.74, 19.96 0.45 M0.92 24.62 C5.82 16.76, 13.34 10.56, 21.94 -0.08 M0.04 30.16 C8.97 21.09, 15.76 12.55, 24.44 0.77 M-0.93 30.29 C5.38 22.9, 12.28 17.72, 25.76 -0.38 M1.34 36.18 C5.86 29.05, 13.91 20.06, 32.24 0.38 M-0.01 37.15 C7.01 27.98, 14.28 21.75, 30.95 -0.25 M1.18 42.71 C11.42 28.25, 20.99 19.66, 36.38 -1.22 M1.38 41.36 C15.78 25.46, 30.31 8.38, 35.93 0.54 M6.57 42.66 C17.1 29.99, 23.47 20.67, 43.9 0.76 M7.25 41.32 C20.13 25.47, 34.85 8.8, 43.42 -0.52 M13.45 40.21 C23.2 26.94, 37.65 13.37, 47.68 -1.71 M12.57 40.98 C23.54 27.61, 34.3 14.83, 48.13 -0.12 M17.08 40.72 C25.38 27.38, 39.43 17.32, 54.74 -1.54 M17.49 42.32 C26.2 30.33, 37.33 20.23, 54 0.35 M24.32 39.18 C33.05 30.54, 45.73 16.01, 58.07 1.45 M22.66 41.37 C36.2 26.63, 47.87 12.22, 57.9 -0.64 M29.54 42.16 C35.49 30.87, 41.91 24.78, 64.94 0.42 M26.89 40.81 C39.98 28.94, 50.35 16.05, 62.87 0.76 M34.86 39.7 C42.53 32.27, 49.52 21.61, 68.7 -0.51 M32.42 41.42 C43.82 28.76, 53.04 18.14, 67.83 0.36 M37.99 39.33 C45.48 33.3, 55.18 24.29, 73.1 1.66 M38.6 40.65 C47.46 32.08, 55.12 21.49, 74.79 -0.64 M44.54 41.92 C52.05 30.37, 58.89 21.93, 80.12 -1.26 M43.15 40.16 C50.45 31.95, 57.7 24.3, 78.58 0.99 M47.83 39.7 C62.62 26.7, 78.51 11.34, 86.23 -0.69 M49.83 40.36 C62.44 25.53, 75.71 12.59, 84.05 -0.03 M53.23 40.1 C63.83 30.63, 73.62 17.25, 90.28 -1.36 M53.7 39.89 C61.67 32.22, 70.48 23.21, 89.82 1.07 M57.92 39.81 C69.88 30.2, 81.76 16, 93.74 -1.39 M58.83 42.2 C67.57 32.32, 75.19 22.42, 95.48 0.62 M63.23 40.59 C71.01 31.27, 79.99 25.15, 100.55 1.69 M65.48 41.06 C78.07 26.77, 90.69 11.26, 101.3 -0.91 M70.48 39.31 C80.33 28.95, 87.55 20.17, 105.44 -1.15 M69.89 41.1 C82.55 25.13, 97.25 10.94, 105.47 0.56 M77.23 39.82 C88.25 28.21, 99.17 17.43, 109.71 -0.48 M75.44 41.34 C85.61 29.35, 96.08 16.37, 111.8 -0.72 M81.16 42.93 C91.44 32.52, 96.84 21.57, 116.9 0.22 M80.37 41.73 C94.95 25.93, 108.1 9.77, 116.3 -0.03 M88.32 42.32 C98.92 28.96, 110.49 14.66, 123.92 -1.18 M87.06 40.63 C92.96 32.38, 100.02 23.46, 122.15 0.55 M93.01 42.51 C103.83 24.18, 119.2 9.83, 126.07 -1.3 M91.66 41.43 C100.92 30.14, 111.25 19.15, 127.74 -0.02 M98.01 38.74 C112.69 24.55, 124.89 9.46, 130.76 -0.59 M97.38 39.99 C107.07 29.11, 115.38 18.92, 132.22 -0.49 M102.48 42.97 C111.2 30.72, 119.78 18.06, 138.66 1.4 M102.19 41.26 C112.08 31.14, 120.78 20.88, 137.53 0.97 M106.21 39.79 C116.17 31.32, 122.31 22.53, 135.33 6.96 M108.01 40.72 C113.64 33.26, 121.96 24.19, 138.03 6.29 M113.46 40.34 C118.49 35.16, 123.69 27.55, 136.93 14.57 M112.45 40.98 C121.94 30.36, 129.88 21.3, 137.03 13.53 M117.24 42.28 C124.98 35.37, 131.76 27.93, 139.33 19.95 M118.06 41.29 C122.53 35.82, 125.13 32.05, 137.87 18.4 M123.19 39.72 C127.62 36.97, 130.61 31.4, 136.58 26.69 M123.98 40.06 C127.59 36.65, 131.43 32.38, 137.23 24.6 M128.88 40.4 C130.72 37.3, 133.98 33.82, 137.93 32.45 M128.49 41.22 C130.79 39.32, 133.32 35.91, 136.76 31.21 M133.59 41.05 C134.52 39.61, 135.31 38.64, 136.92 36.79 M134.09 40.88 C134.59 39.83, 135.48 39.26, 137.15 37.3" stroke="#15aabf" stroke-width="0.5" fill="none"></path><path d="M-1.97 1.07 C27.43 -2.2, 56.76 -2.33, 136.81 1.68 M0.45 0.86 C53.44 -2.21, 106.02 -2.26, 137.14 -0.68 M137.95 0.47 C136.37 14.84, 136.93 28.74, 137.23 38.45 M136.77 -0.15 C136.6 14.14, 136.36 26.03, 135.58 39.23 M138.16 41.01 C86.7 39.32, 34.83 39.68, 0.31 40.1 M137.15 39.86 C93.98 40.54, 52.33 40.16, -0.06 40.42 M-1.95 40.04 C-1.02 31.33, -1.15 22.44, 0.07 0.33 M0.71 39.14 C-1.11 27.53, -0.29 14.04, 0.24 0.64" stroke="#000000" stroke-width="1" fill="none"></path></g><g transform="translate(161.39220134408436 150.33215098605456) rotate(0 36 12.5)"><text x="36" y="17" font-family="Virgil, Segoe UI Emoji" font-size="20px" fill="#000000" text-anchor="middle" style="white-space: pre;" direction="ltr">Explore</text></g><g stroke-linecap="round" transform="translate(186.24055238115545 197.4700677702233) rotate(0 68.16493092262098 30)"><path d="M0 0 C0 0, 0 0, 0 0 M0 0 C0 0, 0 0, 0 0 M-0.85 7.14 C0.56 5.51, 2.32 3.58, 5.13 0.96 M-0.15 6.16 C1.45 4.43, 3.75 2.14, 5.33 0.12 M0.85 13.39 C1.5 9.37, 7.19 5.29, 9.7 0.31 M-0.17 12.37 C4.4 7.87, 7.6 3.74, 10.4 -0.11 M-2.06 18.85 C7.47 12.12, 13.11 4.29, 16.41 0 M-0.47 18.26 C4.15 14.05, 8.67 7.89, 14.66 -0.65 M-1.1 23.34 C6.69 15.93, 17.83 6.68, 19.75 0.32 M0.79 24.16 C7.79 13.95, 17.18 4.22, 20.9 0.9 M1.27 31.7 C10.01 20.54, 18.42 10.06, 27.96 1.34 M-0.83 29.57 C6 22.52, 15.01 14.48, 26.18 -0.55 M0.37 37.02 C5.53 27.22, 13.24 18.14, 33.57 0.44 M0.71 36.1 C9.09 25.43, 20.52 13.47, 32.43 0.07 M-0.53 42.3 C13.04 29.29, 21.3 17.38, 37.87 -0.52 M0.34 41.76 C9.83 32.65, 17.82 20.99, 36.61 0.96 M1.77 47.74 C16.43 32.55, 30.34 13.08, 44.12 1.8 M-0.52 48.2 C11.78 36.05, 23.47 22.25, 42.59 -0.6 M-1.1 52.57 C11.62 43, 21.8 26.33, 46.16 -0.6 M1.15 55.41 C11.62 40.61, 23.02 27.29, 47.34 0.78 M0.25 61.36 C18.8 36.01, 42.13 11.85, 53.7 -2.15 M0.91 59.95 C18.51 39.65, 37.62 16.42, 52.76 0.47 M4.21 58.78 C18.84 42.7, 31.88 26.68, 56.92 -0.51 M6.64 60.63 C26.61 37.32, 44.4 14.96, 57.96 0.89 M10.21 58.57 C27.94 41.5, 43.78 23.58, 63.72 0.42 M12.23 59.31 C26.23 44.22, 38.53 28, 63.01 -0.6 M17.92 61.67 C29.1 44.01, 46.93 25.75, 68.35 1.57 M15.33 60.09 C31.26 43.21, 45.69 25.76, 69.27 -0.69 M21.13 61.37 C34.25 45.43, 47.41 30.12, 72.65 -2.22 M22.83 60.19 C41.47 38.56, 62.27 14.59, 75.12 -0.15 M26.42 60.39 C47.74 37.03, 64.85 16.79, 78.72 0.84 M26.18 60.06 C42.06 44.29, 55.79 28.51, 80.27 1.11 M32.4 61.86 C43.6 46.63, 52.53 36.55, 86.09 0.57 M32.15 60.22 C47.07 41.44, 64.31 25.37, 85.56 0.03 M36.39 58.48 C56.86 37.64, 78.61 14.13, 88.42 -0.09 M38.11 61.32 C48.34 46.82, 61.3 35.16, 89.18 -0.62 M41.55 59.51 C57.52 41.97, 75.03 24.75, 94.7 -0.12 M42.83 61.06 C60.55 39.96, 77.26 19.83, 96.51 -0.29 M47.63 59.88 C64.54 42.74, 78.44 24.85, 101.92 -1.21 M47.74 60.19 C59.87 46.27, 72.15 33.99, 100.39 0.3 M53.5 59.97 C65.42 48.55, 77.25 33.58, 108.26 1.18 M53.07 60.19 C71.53 38.84, 90.83 15.17, 106.87 -0.82 M59.06 58.94 C75.92 43.17, 92.2 23.71, 109.78 0.93 M58.39 59.53 C79.16 36.78, 100.07 13.2, 111.52 0.06 M65.26 62.05 C81.23 39.9, 97.69 21.56, 116.96 -0.91 M64.22 60.87 C75.75 45.12, 88.4 32.26, 116.56 1.07 M70.64 58.42 C89.49 36.89, 107.44 16.43, 122.67 -0.85 M69.09 59.77 C80.35 48.09, 91.34 33.99, 122.39 -0.07 M75.96 60.19 C94.16 41.41, 110.89 19.09, 128.09 0.39 M73.88 61.67 C94.2 39.2, 113.25 15.67, 126.18 0.25 M81.46 59.48 C91.8 48.31, 103.32 33.06, 133.33 1.68 M79.56 59.86 C101.68 37.13, 120.44 13.55, 132 -0.82 M83.49 59.52 C98.24 46.69, 110.7 32.29, 135.38 -0.71 M85.5 60.45 C97.31 45.91, 111.5 30.25, 137.42 0.19 M91.71 59.68 C103.82 41.48, 118.34 24.96, 136.71 4.97 M91.24 60.31 C101.59 45.35, 113.4 33.07, 137.69 6.97 M93.8 62.55 C104.22 51.66, 112.11 40.08, 135.78 13.45 M94.75 60.11 C107.41 49.82, 117.02 36.69, 136.8 13.94 M100.63 58.99 C113.93 45.36, 128.07 28.68, 137.07 20.56 M102.26 60.19 C113.37 47.21, 124.31 34.28, 137.18 18.18 M106.97 59.21 C113.4 51.32, 125.12 40.66, 138.38 27.05 M106.49 59.62 C117.07 48.02, 130.08 34.01, 137.55 24.23 M112.61 61.81 C121 50.11, 131.08 38.49, 137.37 30.38 M112.46 60.09 C119 53.16, 125.49 44.75, 137.04 31.72 M115.15 60.84 C122.91 55.31, 127.17 48.67, 137.5 38.01 M117.78 60.97 C121.88 55.08, 126.52 48.11, 137.77 37.64 M123.1 58.9 C125.78 56.11, 132.5 50.27, 136.05 42.77 M122.39 61.17 C127.58 55.66, 130.66 51.58, 136.41 43.56 M128.35 61.76 C128.33 58.51, 133.04 54.97, 136.79 48.78 M127.06 60.29 C130.39 57.25, 132.82 55.31, 137.31 48.54 M133.04 60.54 C133.85 59.39, 135.44 57.98, 137.31 55.07 M132.93 60.14 C134.27 58.98, 135.43 57.94, 137.01 55.43" stroke="#15aabf" stroke-width="0.5" fill="none"></path><path d="M0.28 1.48 C43.97 -1.09, 87.67 2.64, 135.73 -0.49 M-0.98 -0.41 C52.09 0.45, 102.19 0.13, 135.98 -0.5 M137.22 1.51 C137.56 18.98, 134.66 40.98, 135.99 61.52 M136.15 -0.38 C136.62 16.38, 135.77 31.9, 136.23 60.44 M136.85 59.74 C97.72 58.11, 62.76 60.18, -1.23 59.01 M136.32 59.99 C83.94 61.04, 30.61 60.76, 0.63 59.83 M0.48 58.46 C-1.77 41.76, -1.91 22.38, -1.46 -1.62 M-0.67 59.31 C-0.1 40.8, 0.35 19.84, -0.59 0.47" stroke="#000000" stroke-width="1" fill="none"></path></g><g transform="translate(192.9054833037768 202.4700677702233) rotate(0 61.5 25)"><text x="61.5" y="17" font-family="Virgil, Segoe UI Emoji" font-size="20px" fill="#000000" text-anchor="middle" style="white-space: pre;" direction="ltr">Bootstrap /</text><text x="61.5" y="42" font-family="Virgil, Segoe UI Emoji" font-size="20px" fill="#000000" text-anchor="middle" style="white-space: pre;" direction="ltr">Label Data</text></g><g stroke-linecap="round" transform="translate(701.565443346948 389.98213417666284) rotate(0 68.16493092262095 30)"><path d="M0 0 C0 0, 0 0, 0 0 M0 0 C0 0, 0 0, 0 0 M-0.96 5.97 C0.24 4.55, 2.97 4.27, 5.1 0.15 M-0.47 6.54 C1.01 4.43, 2.45 3.08, 5.01 0.15 M-0.52 11.57 C4.49 8.52, 7.31 4.46, 11.83 -1.16 M0.15 11.55 C3.37 8.16, 5.46 5.49, 11.36 -0.28 M-1.7 19.94 C5.75 9.78, 9.2 6.8, 16.9 0.14 M-0.81 17.81 C5.72 12.97, 10.69 6.05, 16.1 -0.29 M-1.7 23.14 C8.23 16.04, 13.53 10.22, 19.75 0.99 M1.21 24.27 C5.95 16.7, 14.02 9.26, 21.39 -0.15 M1.24 31.83 C9.72 21.98, 16.07 12.96, 25.03 -0.61 M0.69 31.41 C9.29 19.2, 17.46 10.09, 26.46 0.93 M-0.69 35.93 C7.59 29.59, 17.79 18.57, 31.56 1.42 M0.33 36.23 C7.96 29.14, 14.32 19.65, 32.88 -0.75 M2.01 42.67 C8.39 31.14, 20.71 19.42, 38.42 0.94 M0.02 42.97 C10.77 31.3, 21.12 19.05, 37.53 0.17 M1.29 48.81 C12.39 32.95, 28.34 17.34, 43.29 1.5 M0.83 48.92 C10.65 35.61, 21 24.79, 42.8 0.56 M1.18 55.28 C16.43 36.61, 32.55 17.69, 48.24 0.28 M0.58 53.62 C10.6 43.33, 20.45 32.73, 47.29 0.36 M0.27 58.4 C16.16 41.04, 33.26 23.8, 54.05 -1.98 M1.22 59.7 C15.6 43.13, 29.82 25.83, 54.04 -0.86 M3.99 61.51 C23.59 43.24, 38.82 24.41, 58.04 -1.03 M5.02 61.13 C21.31 42.53, 39.13 21.78, 57.25 -0.4 M9.88 60.8 C33.57 36.97, 53 14.38, 64.36 0.82 M10.75 60.56 C25.18 44.92, 37.6 28.47, 64.49 0.1 M15.84 60.35 C31.66 39.25, 50.15 21.82, 69.8 -1.34 M15.82 61.03 C32.81 41.63, 51.38 21, 69.45 0.21 M23.13 62.12 C33.12 46.05, 46.6 33.69, 74.14 -1.13 M22.21 59.55 C35.78 43.88, 49.02 28.59, 74.11 -0.78 M28.27 59.91 C48.02 39.02, 65 16.8, 77.9 -0.88 M26.25 59.59 C42.45 43.04, 58.56 24.24, 79.5 -0.3 M31.28 59.25 C48.62 44.17, 64.4 25.03, 84.72 -1.77 M31.76 60.65 C51.55 37.11, 71.63 15.35, 85.9 0 M39.51 59.38 C58.44 36.66, 79.08 13.69, 91.13 0.18 M37.87 60.75 C55.44 40.12, 73.03 18.81, 89.56 -0.2 M43.97 61.15 C64.2 36.62, 81.6 16.09, 96.85 0.02 M44.12 60 C62.62 36.05, 82.75 14.65, 94.92 0.63 M47.15 61.01 C69.43 37.45, 86.73 13.69, 98.67 -0.2 M48.29 61.12 C69.4 37.68, 87.98 12.84, 101.32 -0.57 M54.63 59.65 C69.16 41.65, 85.96 24.03, 104.68 -1.51 M52.89 61.72 C71.22 40.08, 88.12 20.26, 107.25 -0.98 M58.23 60.18 C75.61 41.58, 91.02 24.66, 112.13 0 M58.18 61.06 C79.21 36.52, 98.07 13.68, 111.02 -0.29 M65.04 60.39 C77.24 44.03, 94.46 23.9, 117.08 -0.26 M64.18 59.88 C82.46 37.52, 102.25 16.18, 116.38 0.52 M71.16 59.34 C87.25 37.39, 107.05 16.23, 123.51 0.91 M70.23 59.61 C84.65 42.61, 99.8 25.17, 122.46 -1.02 M75.42 61.39 C89.64 40.16, 106.9 21.98, 126.35 0.66 M73.69 59.98 C89.03 46.13, 101.17 30.71, 126.81 -0.06 M81.78 62.05 C96.13 43.27, 111.03 23.95, 131.21 -1.25 M80.2 59.5 C97.28 41.94, 114.11 22.34, 131.97 -0.22 M85.06 59.99 C101.47 41.84, 120.51 19.72, 137.52 0.29 M84.33 61.01 C98.38 45.05, 112.38 28.83, 136.48 1.78 M89.33 58.93 C107.13 41.12, 124.89 19.04, 136.16 6.64 M89.88 60.19 C101.9 47.51, 113.72 34.33, 137.53 6.62 M97.65 59.63 C110.27 42.13, 126.95 24.29, 137.18 11.82 M96.54 61.13 C107.69 45.35, 121.05 30.97, 136.46 13.34 M102.45 61.74 C114.54 47.01, 126.94 30.96, 136.89 17.48 M102.13 60.83 C112.53 46.75, 124.11 33.39, 136.88 17.94 M107.29 59.84 C118.25 45.76, 128.73 35.89, 138.35 25.62 M105.32 60.73 C114.07 52.82, 120.66 43.3, 136.95 24.7 M113.2 61.3 C119.14 54.24, 125.2 48.68, 134.96 31.23 M111.83 59.26 C121.04 48.92, 132.63 38.64, 135.95 32.36 M116.48 62.27 C123.26 53.61, 131.68 42.48, 137.61 36.49 M117.2 61.38 C123.24 55.1, 129.1 48, 137.3 36.98 M123.03 61.55 C126.69 56.46, 127.94 54.25, 135.73 42.99 M122.93 61.06 C127.59 55.09, 131.22 49.6, 136.56 43.71 M126.49 60.6 C128.95 56.8, 133.84 55.66, 138.57 50.06 M127.35 60.79 C130.93 56.88, 135.43 51.33, 137.07 49.82 M133.09 60.55 C134.71 58.02, 136.41 57.45, 137.7 55.8 M133.27 60.25 C134.09 58.97, 134.78 58.25, 137.45 55.52" stroke="#7950f2" stroke-width="0.5" fill="none"></path><path d="M0.52 0.93 C45.3 0.03, 91.99 2.64, 136.15 -1.27 M-0.93 -0.28 C48.04 -0.68, 95.45 -0.17, 136.94 -0.94 M136.52 0.16 C135.26 23.46, 137.53 44.44, 137.14 58.53 M136.54 0.81 C136.97 13.23, 136.46 28.12, 136.54 59.8 M135.37 59.61 C89.1 60.29, 45.65 61.68, -1.63 60.36 M135.53 59.28 C102.08 58.55, 69.63 58.99, 0.35 59.7 M0.97 58.98 C1.44 46.03, -1.4 34.01, -0.56 0.77 M0.85 59.17 C1.03 38.42, -0.17 16.46, -0.92 -0.63" stroke="#000000" stroke-width="1" fill="none"></path></g><g transform="translate(728.7303742695693 394.98213417666284) rotate(0 41 25)"><text x="41" y="17" font-family="Virgil, Segoe UI Emoji" font-size="20px" fill="#000000" text-anchor="middle" style="white-space: pre;" direction="ltr">Retrain </text><text x="41" y="42" font-family="Virgil, Segoe UI Emoji" font-size="20px" fill="#000000" text-anchor="middle" style="white-space: pre;" direction="ltr">Model</text></g><g stroke-linecap="round" transform="translate(224.69037398337662 277.2194919180081) rotate(0 68.5 30.000000000000114)"><path d="M0 0 C0 0, 0 0, 0 0 M0 0 C0 0, 0 0, 0 0 M-0.36 6.21 C1.53 4.55, 2.31 4.06, 5.13 -0.04 M-0.21 6.62 C1.92 4.12, 3.83 1.73, 5.15 0.18 M0.75 11.92 C4.77 6.61, 6.93 4, 11.36 0.49 M-0.38 11.44 C4.52 7.73, 8.26 2.73, 10.31 -0.16 M1.84 20.16 C4.6 13.1, 10.24 7.17, 15.58 -1.55 M0.68 17.63 C5.81 12.84, 10.66 4.93, 15.32 -0.25 M-0.4 25.53 C7.06 16.27, 17.46 4.96, 19.43 -1.42 M0.92 23.6 C6.74 17.83, 12.19 10.47, 20.34 -0.36 M-0.06 30.62 C10.1 20.31, 21.11 7.39, 24.99 2.09 M-0.58 29.83 C11.32 18.9, 21.45 6.97, 25.44 0.11 M-0.39 37.6 C9.56 24.81, 21.87 9.39, 31.2 -1.55 M-0.76 37.63 C10.67 24.27, 21.48 12.42, 31.09 0.41 M0.27 41.55 C12.74 31.86, 19.3 18.65, 38.75 0.61 M-0.14 43.21 C12.5 28.04, 25.76 12.19, 36.32 -0.53 M0.53 49.78 C9.11 37.84, 16.91 27.73, 43.29 -1.97 M0.74 48.93 C9.19 36.84, 19.18 27, 42.53 -0.23 M0.41 55.61 C11.88 42.21, 22.8 28.33, 48.11 -0.24 M0.47 53.97 C10.98 41.68, 23.56 27.82, 47.73 0.39 M-1.25 60.7 C15.22 44.8, 28.38 27.62, 53.28 -0.5 M1.65 60.61 C14 46, 27.02 29.2, 52.39 -1.08 M4.29 61.83 C23.45 38.72, 42 16.44, 56.41 -1.32 M4.69 59.85 C22.7 40.59, 39.96 21.68, 57.64 0.46 M11.92 59.8 C31.14 36, 49.1 15.17, 61.79 -0.53 M11.55 60.27 C23.34 46.47, 35.91 32.17, 63.13 -0.41 M17.68 61.68 C28.61 45.82, 39.82 33.23, 69.09 -0.09 M15.41 61.15 C27.09 48.16, 39.41 34.78, 69.23 -0.67 M20.76 61.85 C42.09 36.9, 64.15 12.66, 74.57 -1.07 M22.21 59.43 C39.02 39.7, 56.36 20.92, 74.89 -0.91 M26.18 59.09 C46.21 40.86, 62.54 20.88, 79.7 -0.57 M25.95 59.75 C48.49 36.34, 69.21 14.07, 79.87 -0.32 M31.95 59.65 C43.67 42.59, 58.26 31.24, 84.44 1.3 M33.45 59.35 C47.77 41.49, 64.24 21.89, 84.53 -0.76 M35.76 62.33 C55.71 36.17, 75.95 15.99, 91.86 0.58 M37.63 60.07 C52.21 44.6, 64.96 27.13, 90.13 0.25 M42.22 61.47 C57.36 44.16, 71.7 28.67, 97.34 -1.6 M42.29 59.32 C54.8 45.13, 67.39 31.08, 96.61 -0.56 M49.47 60.1 C66.64 39.8, 85.71 18.54, 101.29 0.14 M47.42 60.04 C66.84 40.42, 84.42 20.37, 100.82 0.82 M51.77 61.69 C72.62 38.89, 95.45 13.54, 106.28 0.45 M53.28 60.44 C74.13 38.2, 92.95 14.65, 106.38 -0.39 M57.45 59.49 C76.68 39.07, 95.68 17.53, 109.8 -1.7 M59.02 60.17 C71.23 46.1, 82.71 32.54, 111.9 -0.77 M64.86 59.86 C83.81 36.04, 102.58 14.43, 116.72 -1.18 M64.18 61.6 C80.7 40.89, 97.02 22.99, 116.15 -0.01 M70.94 60.02 C85.36 43.24, 100.44 23.77, 123.31 0.62 M69.84 60.48 C81.3 46.2, 93.92 33.64, 121.58 0.34 M75.86 59.19 C86.81 46.01, 99.1 32.03, 127.18 1.06 M74.94 60.98 C86.45 47.81, 97.39 35.21, 126.91 1.09 M80.27 59.58 C102.07 36.79, 120.94 12.95, 133.82 0.1 M79.99 59.58 C100.79 36.92, 120.55 14.62, 133.24 -0.91 M85.9 61.54 C102.52 38.39, 120.75 17.97, 139.3 1.35 M85.4 60.08 C105.34 37.32, 123.88 15.44, 137.36 1.24 M88.86 60.51 C108.19 42.6, 123.89 21.48, 135.52 5.92 M91.26 59.59 C99.51 49.3, 108.89 38.04, 136.58 6.23 M96.21 62.19 C112.22 40.97, 125.53 27.28, 135.98 11.62 M95.59 61.44 C109.17 46.21, 121.16 34, 137.08 12.63 M103.23 59.52 C110.58 49.36, 120.28 36.96, 135.92 18.39 M102.16 61.19 C112.85 46.54, 124.3 32.14, 137.71 18.27 M106.09 59.8 C117.16 47.73, 125.35 38.29, 137.54 24.81 M106.75 59.61 C116.83 48.22, 126.77 36.44, 137.69 25.61 M111.01 61.73 C119.3 55.24, 124.73 48.69, 137.9 31.42 M112.92 60.62 C118.15 51.95, 126.48 44.83, 138.21 31 M114.97 62.47 C123.68 55.79, 128.73 45.76, 138.89 38.05 M116.32 60.25 C123.6 54.06, 129.52 45.06, 136.97 36.89 M122.89 58.69 C126.64 53.84, 131.72 52.3, 137.82 43.62 M122.45 60.64 C127.57 55.94, 131.67 50.83, 138.31 43.53 M128.14 61.4 C131.04 55.27, 135.83 53.75, 137.88 50.69 M127.1 60.89 C130.81 56.7, 134.59 52.44, 136.7 49.03 M133.65 59.61 C135.26 58.19, 136.44 56.84, 136.66 55.67 M133.26 59.98 C134.37 58.78, 135.72 56.93, 137.33 55.36" stroke="#15aabf" stroke-width="0.5" fill="none"></path><path d="M-0.48 -1.93 C48.75 -1.18, 96.27 0.47, 135.25 0.43 M-0.31 -0.7 C51.7 -1.62, 104.75 -0.97, 136.13 -0.43 M137.05 -1.22 C136.01 21.79, 139.03 47.56, 137.54 58.12 M137.95 -0.13 C138.21 13.96, 137.31 28.18, 137.17 59.51 M135.92 61.85 C109.63 59.01, 78.11 58.31, 1.68 61.32 M136.37 59.59 C103.37 59.59, 68.77 59.36, 0.91 60.06 M-0.13 61.68 C-0.75 45.97, -1.23 28.47, -1.12 -0.49 M-0.7 59.3 C0.51 42.8, 0.07 24.38, 0.95 0.71" stroke="#000000" stroke-width="1" fill="none"></path></g><g transform="translate(233.85530490599797 294.7194919180083) rotate(0 59 12.5)"><text x="59" y="17" font-family="Virgil, Segoe UI Emoji" font-size="20px" fill="#000000" text-anchor="middle" style="white-space: pre;" direction="ltr">Train Model</text></g><g stroke-linecap="round" transform="translate(485.532559898017 282.3086145604666) rotate(0 84 30)"><path d="M0 0 C0 0, 0 0, 0 0 M0 0 C0 0, 0 0, 0 0 M-0.97 7.15 C1.02 3.48, 3.23 2.18, 5.72 0.56 M-0.23 6.24 C1.48 5.1, 2.29 3.05, 5.03 0.43 M-0.64 13.16 C2.89 9.36, 5.82 6.79, 11.97 -1.07 M-0.59 11.44 C2.2 8.89, 4.79 6.25, 11.38 -0.23 M1.17 18.11 C4.94 12.82, 10.69 6.88, 16.24 0.42 M-0.89 18.06 C5.72 12.51, 10.85 6.77, 15.78 1.1 M-1.12 24.98 C7.12 16.39, 17.53 5.33, 21.24 0.72 M0.39 23.73 C8.76 15.49, 15.38 5.97, 21.34 -0.11 M-1.35 29.58 C8.79 19.54, 18.6 8.58, 24.76 -1.43 M0.22 30.26 C6.24 23.29, 11.76 16.59, 26.86 -0.5 M0.82 35.98 C12.12 21.22, 23.04 8.64, 32.34 -1.66 M0.13 37.72 C10.08 24.48, 20.03 13.92, 31.77 -0.49 M1.64 42.18 C11.27 30.73, 21.61 16.71, 38.27 0.89 M0.55 42.65 C8.47 32.49, 17.49 24.06, 36.54 0.62 M1.32 47.39 C9.91 36.76, 19.92 25.4, 42.79 0.58 M0.4 49.18 C9.74 38.48, 18.52 28.36, 42.52 0.61 M0.47 53.82 C20.15 33.4, 36.93 11.96, 48.78 0.37 M0.2 53.82 C19 33.44, 36.74 13.47, 48.2 -0.64 M1.52 61.06 C18.13 37.91, 36.36 17.49, 54.91 0.87 M1.02 59.61 C20.95 36.84, 39.5 14.96, 52.98 0.76 M3.82 60.79 C25.23 40.48, 43 16.99, 56.39 -0.59 M6.22 59.86 C15.65 48.2, 26.21 35.59, 57.45 -0.29 M11.82 61.71 C31.57 36.05, 48.69 17.98, 62.09 -0.93 M11.21 60.96 C27.93 42.36, 42.94 26.67, 63.19 0.08 M18.19 59.79 C29.92 44.53, 44.16 26.91, 67.28 -0.2 M17.12 61.47 C33 40.57, 49.8 20.02, 69.07 -0.32 M21.71 59.32 C39.58 39.12, 54.75 21.65, 74.81 -0.58 M22.37 59.14 C39.47 39.36, 56.66 19.25, 74.95 0.23 M25.97 62.01 C40.38 48.67, 51.96 35.05, 79.75 0.75 M27.88 60.89 C40.28 44.01, 55.87 28.53, 80.07 0.33 M30.58 61.99 C48.03 44.87, 62.06 24.51, 86.65 0.59 M31.93 59.77 C49.36 41.71, 65.55 20.9, 84.74 -0.57 M37.85 58.97 C52.02 42.79, 67.13 29.71, 90.17 0.88 M37.4 60.92 C53.79 43.62, 69.01 25.72, 90.66 0.78 M43.95 61.2 C61.23 37.16, 81.31 19.41, 96.3 1.65 M42.55 60.53 C61.39 39.53, 80 18.22, 94.72 -0.57 M49.63 58.62 C70.11 36.65, 89.12 14.81, 99.02 0.2 M48.31 59.86 C64.83 40.91, 82.14 20.01, 101.25 -0.81 M54.74 62.61 C65.81 47.16, 76.02 35.33, 105.51 0.07 M52.41 60.9 C69.95 42.51, 86.48 21.41, 105.8 0.55 M60.21 59.31 C77.6 36.41, 98.62 16.57, 112.85 -1.85 M57.93 60.6 C70.2 46.22, 82.8 31.86, 111.44 -0.25 M63.98 60.99 C75.72 46.28, 88.74 32.61, 116.5 -1.53 M62.88 60.13 C76.58 45.52, 90.72 28.97, 115.89 -0.61 M69.57 59.79 C89.89 34.86, 110.55 11.49, 122.33 -0.45 M69.29 59.54 C86.42 40.88, 103.66 19.76, 121.06 -0.28 M74.78 58.82 C89.43 39.88, 105.75 21.58, 128.54 -0.35 M73.53 60.79 C93.68 38.18, 112.84 14.9, 127.61 0.84 M80.81 61.22 C96.39 40.38, 117.47 17.49, 132.21 0.64 M80.1 59.65 C96.86 41.24, 113.81 22.71, 133.11 0.4 M85.02 61.21 C99.85 43.54, 113.45 30.23, 136.01 1.04 M85.85 60.74 C106.36 37.04, 126.35 13.44, 137.29 -0.4 M90.08 61.16 C106.56 40.9, 123.23 19.81, 143.35 -0.92 M89.81 59.43 C106.59 40.66, 123.46 21.74, 142.82 0.13 M96.68 58.68 C106.41 45.92, 121.34 32.08, 149.07 1.75 M95.47 60.89 C107.19 47.17, 120.64 31.31, 148.63 0.17 M100.67 59.6 C113.44 44.98, 126.89 34.12, 154.67 -0.1 M100.55 59.95 C112.93 45.39, 125.65 30.09, 154.62 -0.69 M105.82 61.15 C120.15 41.97, 136.69 25.85, 158.95 1.28 M107.27 60.19 C124.09 41.13, 142.46 18.69, 159.03 0.59 M112.93 60.91 C124.94 46.76, 136.17 33.39, 165.22 1.57 M112.16 59.81 C124.43 47.87, 135.54 34.33, 165.13 -0.62 M116.6 59.96 C128.44 46.38, 139.91 34.95, 167.32 2.28 M116.31 60.65 C135.1 40.91, 152.19 20, 167.94 0.2 M122.33 59.88 C141.86 39.47, 160.89 18.17, 170.21 4.75 M123.17 60.15 C139.4 41.63, 155.08 21.72, 168.28 6.61 M127.27 61.85 C140.03 47.04, 151.71 29.88, 168.44 13.66 M126.85 60.32 C143.52 42.61, 158.16 23.64, 167.97 13.7 M133.4 59.69 C143.25 50.73, 150.04 37.57, 167.54 19.94 M133.84 59.68 C139.88 52.18, 147.68 43.4, 168.76 18.79 M140.19 58.96 C150.52 48.12, 162.52 33.16, 170.64 24.8 M137.37 60.28 C149.69 46.62, 161.92 32.57, 169.49 24.44 M145.8 61.95 C151.88 49.92, 163.74 40.03, 170.41 31.04 M143.12 59.63 C150.64 53.06, 156.83 44.54, 169.7 31.69 M147.79 58.84 C155.2 50.37, 164.46 45.23, 169.56 36.84 M149.54 59.69 C153.87 55.16, 159.43 49.56, 168.71 36.67 M156.26 60.66 C157.12 55.63, 160.31 49.84, 169.58 42.88 M153.64 60.81 C159.61 53.47, 164.64 47.65, 169.9 43.7 M158.86 59.05 C161.58 56.45, 166.89 53.44, 167.66 50.01 M159.3 60.65 C163.24 55.76, 166.99 52.86, 168.11 49.9 M164.96 60.1 C166.76 58.58, 167.95 56.84, 169.5 55.35 M165 60.19 C166.15 58.68, 167.88 57.27, 169.32 55.81" stroke="#7950f2" stroke-width="0.5" fill="none"></path><path d="M0.62 -0.37 C62.18 -2.95, 122.66 -1.56, 166.01 -0.33 M0.25 0.1 C38.45 1.01, 77.97 0.79, 167.34 -0.2 M169.4 1.15 C167.43 13.85, 166.25 29.68, 168.33 59.76 M167.12 0.62 C167.87 14.11, 168.6 27.32, 168.46 59.18 M166.84 61.71 C100.03 62.04, 34.29 61.85, 0.16 59.17 M168.29 59.3 C111.99 59.24, 56.04 60.53, 0.48 59.33 M-0.73 58.59 C1.49 40.82, 0 20.97, 0.3 -0.69 M-0.96 59.26 C0.92 35.63, 0.98 13.52, 0.47 -0.44" stroke="#000000" stroke-width="1" fill="none"></path></g><g transform="translate(493.532559898017 287.3086145604666) rotate(0 76 25)"><text x="76" y="17" font-family="Virgil, Segoe UI Emoji" font-size="20px" fill="#000000" text-anchor="middle" style="white-space: pre;" direction="ltr">Promote/Deploy</text><text x="76" y="42" font-family="Virgil, Segoe UI Emoji" font-size="20px" fill="#000000" text-anchor="middle" style="white-space: pre;" direction="ltr">Model</text></g><g stroke-linecap="round" transform="translate(891.2190724366449 272.5938501494413) rotate(0 83.5 35.499999999999886)"><path d="M0 0 C0 0, 0 0, 0 0 M0 0 C0 0, 0 0, 0 0 M-0.4 6.15 C0.98 4.64, 2.08 4.09, 4.41 0.89 M-0.51 6.43 C1.59 4.51, 3.13 2.24, 4.65 0.06 M-0.07 11.8 C4.72 7.54, 9.3 2.75, 11.47 -1.52 M0.61 12.01 C3.92 8.25, 6.95 3.27, 9.93 -0.03 M-0.43 19.74 C4.44 14.08, 8.36 5.84, 15.15 0.98 M-0.85 18.21 C6.14 11.56, 11.07 3.76, 14.69 1.02 M0.45 23.62 C6.8 18.93, 9.92 9.99, 20.16 0.48 M0.9 23.61 C3.81 19.67, 8.64 14.32, 21.38 -0.68 M1.99 28.93 C10.61 20.06, 20.88 7.09, 27.86 0.05 M-0.83 30.25 C9.65 18.7, 20.05 6.76, 26.71 -0.3 M1.7 38.71 C10.4 23.55, 24.95 10.56, 33.53 -0.5 M-0.98 36.4 C8.52 27.51, 16.74 16.65, 32.82 0.15 M-0.91 40.88 C12.53 25.44, 27.78 13.42, 37.27 0.02 M0.85 41.74 C9.22 32.54, 18.87 22.22, 36.42 -0.15 M1.67 49.5 C9.22 36.19, 19.41 22.34, 43.2 -0.74 M-0.96 49.65 C14.73 31.15, 29.6 14.02, 43.51 0.09 M-0.59 52.57 C15.41 34.8, 35 16.7, 46.1 0.42 M0.05 54.85 C18.76 32.63, 37.32 13.3, 46.74 0.26 M-0.47 61.15 C21.28 38.55, 40.68 15, 54.67 -0.75 M-0.33 61.45 C16.72 41.38, 35.47 21.75, 54.1 0.81 M0.92 69.11 C15.18 47.09, 32.61 26.35, 58.15 1.19 M-0.8 66.59 C21.35 41.85, 43.5 18.11, 58.29 -0.76 M0.86 73.72 C12.69 57.83, 25.65 41.41, 65.55 0.37 M0.62 71.94 C24.88 44.05, 48.67 16.45, 63.43 -0.96 M6.21 71.21 C27.74 47.94, 46.74 25.27, 68.31 0.69 M5.46 71.18 C28.73 46.22, 53.32 19.9, 68.39 -0.32 M10.88 71.87 C34.43 44.94, 59.8 17.05, 75.52 -1.09 M10.84 71.99 C28.35 53.09, 44.23 34.97, 73.54 -0.46 M16.83 71.82 C31.52 55.93, 47.43 38.33, 80.57 1.67 M18.04 71.72 C31.31 55.81, 46.64 38.13, 80.07 -0.03 M20.85 70.56 C38.21 53.34, 55.88 31.97, 84.36 0.58 M21.93 71.88 C43.56 47.52, 64.88 23.82, 84.7 0.13 M25.74 70.05 C54.14 43.17, 77.81 14.74, 90.01 1.28 M27.69 71.12 C43.56 51.6, 60.13 32.7, 89.05 -0.92 M30.98 71.81 C52.23 51.65, 68.59 32.84, 93.97 -1.5 M32.08 71.16 C54.77 47.03, 74.81 23.07, 96.36 0.67 M39.94 71.9 C54.48 54.29, 70.15 35.26, 100.8 1.1 M38.29 71.79 C53.04 55.85, 66.73 38.44, 100.78 -0.47 M42.56 74.07 C61.61 51.69, 80.36 31.27, 106.3 -0.82 M43.16 72.87 C60.22 53.01, 77.78 32.55, 106.17 0.06 M50.54 72.75 C60.2 57.26, 74.97 41.39, 112.21 1.1 M49.96 71.22 C68.31 49.99, 87.06 28.87, 111.38 0.37 M52 70.18 C66.86 54.63, 83.1 37.93, 116.77 1.32 M53.72 72.66 C71.05 51.59, 89.47 32.33, 116.34 0.02 M58.72 71.41 C79.66 49.69, 99.97 26.94, 120.62 1.66 M59.98 70.92 C83.88 43.96, 106.81 17.68, 122.69 0.21 M64.78 73.41 C89.94 42.67, 115.74 15.9, 126.84 -1.28 M64.05 71.68 C87.35 45.26, 111.39 19.34, 127.26 1.04 M69.77 72.09 C89.31 49.44, 107.12 31.77, 133.47 1.57 M69.85 71.45 C91.73 47.82, 112.95 22.84, 133.25 0.18 M73.48 71.41 C89.26 54.42, 105.49 40.22, 138.13 -1.11 M75.14 71.64 C93.65 50.7, 111.17 29.28, 138.52 -0.09 M79.07 70.39 C103.18 42.81, 126.8 15.11, 143.31 0 M80.3 71.43 C93.3 57.21, 105.89 40.89, 143.31 -1 M87.78 72.24 C103.6 49.93, 126.96 25.82, 148.97 1.96 M85.65 71.81 C102.07 52.16, 118.07 33.17, 148.6 -0.25 M90.09 71.35 C109.82 47.67, 129.6 27.91, 153.79 -1.42 M92.21 72.51 C113.87 45.69, 136.66 19.79, 153.82 -0.1 M96.44 70.39 C115.47 52.84, 130.38 32.46, 159.8 -0.5 M96.98 71.99 C114.19 52.75, 129.02 34.96, 159.17 -0.32 M99.74 72.13 C116.96 52.52, 131.82 36.82, 165.64 -0.71 M101.05 73.15 C121.97 49.13, 141.39 26.25, 165.42 -0.32 M105.34 72.73 C124.22 54.12, 140.13 33.14, 170.51 1.21 M106.21 71.53 C125.57 51, 141.64 30.82, 169.47 0.66 M111 73.07 C131.65 50.44, 149.7 33.14, 168.14 6.09 M112.45 72.59 C134.34 46.95, 154.99 22.92, 168.91 7.22 M119.42 72.55 C130.11 59.78, 137.49 45.83, 169.88 14.78 M117.13 72.34 C134.28 52.79, 151.7 33.52, 168.71 14.23 M122.95 72.16 C136.36 57.79, 150.78 42.1, 168.84 20.79 M123.26 72.39 C139.39 52.8, 156.85 31.9, 167.97 20.38 M128.74 71.53 C142.89 54.34, 158.39 34.79, 167.79 25.14 M129.24 71.86 C136.96 61.35, 143.57 53.08, 169.35 24.86 M131.45 72.04 C147.12 56.9, 161.76 42.19, 167.69 30.08 M133.2 72.39 C145.63 59.93, 156.43 46.7, 168.29 32.07 M138.43 73.79 C146.43 63.58, 156.04 52.14, 168.39 38.24 M138.74 72.08 C147.67 61.13, 156.87 49.8, 169.21 38.62 M142.43 70.76 C148.74 65.96, 153.66 59.5, 169.15 42.35 M143.21 72.49 C151.82 63.31, 159.25 52.71, 168.69 44.02 M150.75 71.81 C156.32 64.31, 163.28 55.22, 168.6 48.64 M149.53 72.56 C155.37 64.72, 159.49 59.37, 168.99 49.9 M153.94 71.78 C157.17 68.15, 160.18 65.55, 166.73 58.11 M154.41 71.62 C159.83 66.06, 163.99 60.57, 168.64 56.25 M159.44 72.24 C162.28 67.95, 165.69 64.49, 167.89 62.19 M160.22 71.49 C163.31 68.86, 165.31 65.42, 168.64 61.4 M165.45 72.56 C165.51 71.39, 167.02 70.5, 168.66 68.38 M165.21 72.26 C166.64 70.47, 167.61 69.1, 168.73 68.38" stroke="#7950f2" stroke-width="0.5" fill="none"></path><path d="M-0.61 0.87 C54.03 -0.51, 108.53 -1.66, 167.17 -0.84 M-0.88 -0.86 C53.26 0.76, 107.19 1.38, 166.65 0.22 M168 -1.97 C166.08 17.72, 168.21 35.91, 167.9 72.48 M166.79 0.24 C166.26 17.62, 167.29 32.84, 167.46 70.9 M166.35 70.35 C129.51 70.72, 93.64 73.43, 0.86 71.02 M166.23 70.7 C125.93 71.41, 85.44 70.75, 0.82 70.44 M-0.5 71.54 C-1.77 49.24, -0.85 29.96, 0.15 1.04 M0.96 70.58 C-0.07 47.71, 0.36 21.64, 0.23 0.35" stroke="#000000" stroke-width="1" fill="none"></path></g><g transform="translate(929.2190724366449 283.0938501494413) rotate(0 45 24.999999999999886)"><text x="45" y="17" font-family="Virgil, Segoe UI Emoji" font-size="20px" fill="#000000" text-anchor="middle" style="white-space: pre;" direction="ltr">Collect </text><text x="45" y="42" font-family="Virgil, Segoe UI Emoji" font-size="20px" fill="#000000" text-anchor="middle" style="white-space: pre;" direction="ltr">Feedback</text></g><g stroke-linecap="round" transform="translate(683.2977793720798 125.01745016402333) rotate(0 83 35.5)"><path d="M0 0 C0 0, 0 0, 0 0 M0 0 C0 0, 0 0, 0 0 M0.21 7.1 C0.75 4.6, 2.36 2.47, 4.99 0.76 M-0.48 6.09 C1.73 3.96, 3.86 2.2, 5.05 -0.02 M0.18 13.22 C1.31 10.6, 3.02 7.42, 12.04 0.42 M-0.01 11.8 C3.92 7.18, 7.61 2.76, 10.35 -0.64 M-0.36 17.8 C5.79 12.22, 9.66 6.97, 15.16 0.86 M-1.11 17.77 C4.82 12.16, 12.35 5.46, 15.24 -0.15 M-0.28 23.75 C7.07 15.55, 15.99 6.58, 22.37 -0.92 M-0.33 23.86 C6.32 17.32, 11.36 11.68, 20.39 -0.28 M-0.24 30.48 C6.04 24.55, 13.41 16.77, 27.42 1.84 M0.97 30.38 C5.77 24.13, 12.42 16.44, 26.92 0.14 M-1.47 35.26 C7.42 27.91, 16.43 16.49, 31.21 0.75 M-0.38 36.59 C10.81 24.07, 21.99 12.03, 31.55 0.3 M-1.83 40.79 C16.19 25.51, 29.65 8.83, 36.85 1.46 M0.12 41.85 C9.41 30.46, 19.11 19.45, 35.9 -0.74 M-1.84 48.59 C13.65 34.67, 24.42 22.28, 40.82 -1.33 M-0.73 47.93 C15.06 31.71, 28.29 15.57, 43.21 0.84 M1.88 54.71 C12.59 41.36, 24.47 26.68, 47.65 1.28 M0.23 54.61 C11.54 42.6, 21.8 29.14, 47.63 -0.29 M-0.75 62.92 C15.44 43.84, 31.38 26.64, 53.15 -0.64 M-0.15 61.73 C14.23 44.86, 29.14 27.45, 53.02 0.23 M1.32 68.4 C10.18 53.85, 24.16 38.89, 59.06 1.28 M0.74 66.87 C17.89 47, 35.45 27.24, 58.23 0.55 M-1.15 70.36 C13.86 54.62, 30.26 37.74, 64.27 0.73 M0.57 72.83 C18.09 51.55, 36.7 32.08, 63.85 -0.56 M5.57 71.59 C26.51 49.86, 46.82 27.12, 67.47 1.84 M6.83 71.09 C30.73 44.14, 53.66 17.85, 69.54 0.38 M11.63 73.58 C37.06 42.53, 63.12 15.47, 74.35 -1.86 M10.9 71.85 C34.44 45.16, 58.73 18.95, 74.76 0.45 M16.62 72.26 C36.16 49.61, 53.97 31.95, 80.31 1.74 M16.7 71.63 C38.58 47.99, 59.8 23.01, 80.1 0.36 M20.33 71.58 C36.26 54.42, 52.65 40.05, 85.64 -1.69 M21.99 71.81 C40.69 50.65, 58.41 29, 86.02 -0.67 M25.92 70.57 C50.03 42.98, 73.65 15.29, 90.16 0.18 M27.15 71.6 C40.15 57.38, 52.74 41.06, 90.16 -0.83 M34.63 72.42 C50.66 49.87, 74.22 25.51, 96.47 1.38 M32.5 71.98 C49.09 52.13, 65.27 32.93, 96.1 -0.83 M36.94 71.52 C56.67 47.85, 76.45 28.08, 100.64 -1.25 M39.06 72.68 C60.72 45.86, 83.51 19.96, 100.67 0.08 M43.29 70.57 C62.5 52.8, 77.6 32.2, 107.31 -1.08 M43.82 72.16 C61.21 52.72, 76.21 34.74, 106.68 -0.9 M47.25 71.55 C64.3 52.13, 79 36.62, 112.49 -0.54 M48.56 72.56 C69.26 48.78, 88.47 26.14, 112.27 -0.15 M52.19 72.91 C71.25 54.09, 87.34 32.9, 118.02 0.63 M53.05 71.7 C72.6 50.96, 88.87 30.56, 116.97 0.07 M58.5 72.49 C81.04 47.77, 100.94 28.34, 121.55 -1.28 M59.95 72.01 C84.1 43.76, 107.03 17.11, 122.32 -0.16 M66.27 72.72 C79.53 57.11, 89.4 40.29, 128.54 1.37 M63.98 72.51 C85.06 48.57, 106.29 24.92, 127.37 0.82 M70.45 71.58 C88.84 51.65, 108.22 30.25, 132.75 1.34 M70.76 71.81 C93.04 45.22, 116.68 17.21, 131.87 0.93 M75.58 71.71 C98.31 44.59, 122.51 15.03, 136.94 -0.34 M76.09 72.03 C88.11 56.14, 99.22 42.69, 138.51 -0.63 M78.95 71.45 C105.04 44.25, 130.24 17.4, 142.09 -1.44 M80.71 71.81 C101.82 49.67, 121.14 26.64, 142.69 0.54 M85.28 73.96 C102.92 52.52, 122.35 29.79, 148.04 0.67 M85.59 72.26 C104.55 49.33, 123.88 26.35, 148.87 1.06 M89.94 70.17 C104.64 55.55, 118.06 39.32, 154.7 -2.01 M90.72 71.91 C112.22 48.14, 132.14 23.18, 154.25 -0.33 M97.59 71.98 C118.7 47.16, 140.97 20.45, 158.75 -1 M96.38 72.73 C114.02 50.63, 130.43 31.14, 159.14 0.26 M100.79 71.95 C114.14 56.55, 127.38 42.18, 162.78 1.68 M101.26 71.79 C124.03 46.65, 145.02 21.8, 164.69 -0.18 M105.86 72.69 C128.24 45.22, 152.04 18.55, 166.75 2.13 M107.05 71.53 C127.4 50.25, 145.88 27.24, 167.9 0.91 M112.94 74.14 C123.06 58.56, 138.86 43.8, 168.42 8.36 M111.98 72.95 C134.89 46.94, 155.51 22.21, 168.69 8.38 M116.5 71.39 C135.24 52.34, 152.66 29.38, 167.27 14.53 M117.93 72.31 C131.19 55.13, 145.33 40.56, 167.38 13.53 M121.97 73.76 C138.61 53.44, 151.55 36.08, 167.94 18.37 M122.75 72.15 C137.92 54.98, 152.33 39.69, 168.74 20.44 M127.03 73.81 C138.95 63.01, 146.14 51.01, 166.04 25.18 M128.01 71.23 C141.04 57.52, 155.2 42.47, 167.4 25.84 M134.19 70.49 C142.63 60.15, 149.93 53.33, 170.11 33.17 M133.3 71.49 C142.96 62.3, 151.55 51.92, 168.4 31.38 M140.07 70.09 C149.12 60.28, 158.94 52.23, 169.64 36.77 M138.01 72.03 C149.17 58.94, 161.23 45.97, 168.78 38.87 M144.01 73.41 C150.17 64.98, 157.51 55.7, 167.52 44.43 M143.59 72.09 C152.86 61.01, 162.68 51.77, 168.66 44.93 M149.32 72.75 C156.57 63.18, 159.87 56.15, 168.8 49.68 M149.35 70.99 C153.33 67.95, 156.77 62.27, 167.57 50.01 M155.93 71.02 C159.29 64.82, 164.72 60.56, 169.19 56.97 M154.75 73.12 C159.05 67.5, 162.04 62.17, 167.53 57.09 M161.05 71.14 C162.83 68.06, 164.47 67.78, 167.45 61.63 M160.79 71.84 C162.35 69.66, 164.82 66.73, 168.45 62.81" stroke="#7950f2" stroke-width="0.5" fill="none"></path><path d="M1.96 1.84 C61.03 0.03, 125.61 0.85, 167.64 -0.4 M-0.73 -0.48 C46.84 1.75, 92.87 1.33, 166.93 0.25 M164.96 -1.64 C164.69 24.42, 166.54 53.69, 166.39 70.76 M166.71 -0.78 C166.14 18.18, 166.64 36.09, 165.54 70.59 M167.79 71.58 C124.05 72.16, 82.5 70.48, 0.68 70.4 M165.16 71.73 C108.3 69.19, 50.45 69.15, 0.99 71.23 M-0.86 69.01 C-1.42 45.74, 1.55 21.78, -1.4 0.19 M-0.22 71.29 C0.17 42.69, 0.44 16.91, -0.77 0.04" stroke="#000000" stroke-width="1" fill="none"></path></g><g transform="translate(701.7977793720796 135.51745016402333) rotate(0 64.5 25)"><text x="64.5" y="17" font-family="Virgil, Segoe UI Emoji" font-size="20px" fill="#000000" text-anchor="middle" style="white-space: pre;" direction="ltr">Use Model - </text><text x="64.5" y="42" font-family="Virgil, Segoe UI Emoji" font-size="20px" fill="#000000" text-anchor="middle" style="white-space: pre;" direction="ltr">Inference</text></g><g transform="translate(690.4992282696388 250.34182574503507) rotate(0 82.5 17.5)"><text x="0" y="25" font-family="Virgil, Segoe UI Emoji" font-size="28px" fill="#000000" text-anchor="start" style="white-space: pre;" direction="ltr">Closed Loop</text></g><g stroke-linecap="round"><g transform="translate(140.00673637620804 102.32997074501031) rotate(0 429.42863176950266 -4.453997872431728)"><path d="M-0.37 -0.43 C142.91 -1.56, 716.04 -5.51, 859.23 -6.49 M1.64 -1.7 C144.88 -3.24, 716.01 -7.36, 858.77 -8.48" stroke="#000000" stroke-width="1" fill="none"></path></g><g transform="translate(140.00673637620804 102.32997074501031) rotate(0 429.42863176950266 -4.453997872431728)"><path d="M829.94 3.56 C838.48 0.09, 846.22 -2.22, 859.74 -7.93 M831.01 1.97 C840.66 -0.37, 849.07 -5.61, 859.63 -9.36" stroke="#000000" stroke-width="1" fill="none"></path></g><g transform="translate(140.00673637620804 102.32997074501031) rotate(0 429.42863176950266 -4.453997872431728)"><path d="M829.79 -16.96 C838.42 -15.02, 846.19 -11.92, 859.74 -7.93 M830.86 -18.55 C840.56 -14.19, 849.02 -12.74, 859.63 -9.36" stroke="#000000" stroke-width="1" fill="none"></path></g></g><g transform="translate(1009.253507850047 77.81942537313967) rotate(0 42.5 17.5)"><text x="0" y="25" font-family="Virgil, Segoe UI Emoji" font-size="28px" fill="#000000" text-anchor="start" style="white-space: pre;" direction="ltr">Action</text></g><g transform="translate(47.42839280756249 83.97522684795308) rotate(0 38.5 17.5)"><text x="0" y="25" font-family="Virgil, Segoe UI Emoji" font-size="28px" fill="#000000" text-anchor="start" style="white-space: pre;" direction="ltr">Data</text></g><g stroke-linecap="round"><g transform="translate(559.7700365051841 257.4938140039601) rotate(0 50.11840646930554 -45.235812815778104)"><path d="M-0.72 -0.68 C16.15 -15.86, 84.2 -76.97, 100.96 -92.05 M1.1 1.57 C17.86 -13.37, 83.3 -74.99, 100.17 -90.79" stroke="#000000" stroke-width="1" fill="none"></path></g><g transform="translate(559.7700365051841 257.4938140039601) rotate(0 50.11840646930554 -45.235812815778104)"><path d="M85.5 -63.51 C89.7 -72.68, 94.98 -77.04, 101.02 -89.38 M87.14 -64.36 C91.62 -72.74, 97.4 -82.95, 100.65 -91.67" stroke="#000000" stroke-width="1" fill="none"></path></g><g transform="translate(559.7700365051841 257.4938140039601) rotate(0 50.11840646930554 -45.235812815778104)"><path d="M71.46 -78.47 C79.42 -83.42, 88.6 -83.64, 101.02 -89.38 M73.1 -79.33 C82.58 -82.42, 93.41 -87.26, 100.65 -91.67" stroke="#000000" stroke-width="1" fill="none"></path></g></g><g stroke-linecap="round"><g transform="translate(871.9063385870888 164.97131328183218) rotate(0 45.53970356553668 43.351188846070954)"><path d="M0.2 0.18 C15.76 14.63, 77.13 73.17, 92.23 87.47 M-1.15 -0.77 C14.41 13.3, 75.92 71.25, 91.66 85.9" stroke="#000000" stroke-width="1" fill="none"></path></g><g transform="translate(871.9063385870888 164.97131328183218) rotate(0 45.53970356553668 43.351188846070954)"><path d="M64.38 75.32 C71.64 75.3, 74.92 77.96, 90.48 87.78 M64.93 73.55 C72.01 77.48, 77.91 80, 91.05 86.68" stroke="#000000" stroke-width="1" fill="none"></path></g><g transform="translate(871.9063385870888 164.97131328183218) rotate(0 45.53970356553668 43.351188846070954)"><path d="M78.4 60.34 C82.84 63.46, 83.2 69.24, 90.48 87.78 M78.96 58.57 C82.46 66.43, 84.65 72.91, 91.05 86.68" stroke="#000000" stroke-width="1" fill="none"></path></g></g><g stroke-linecap="round"><g transform="translate(976.6295681281292 362.2170435450025) rotate(0 -57.91901507612914 29.304554185445113)"><path d="M0.21 -0.97 C-19.08 8.99, -97 49.74, -116.05 59.58 M-1.14 1.14 C-20.04 10.75, -95.07 48.14, -113.94 57.78" stroke="#000000" stroke-width="1" fill="none"></path></g><g transform="translate(976.6295681281292 362.2170435450025) rotate(0 -57.91901507612914 29.304554185445113)"><path d="M-94.99 34 C-97.97 43.27, -106.04 46.35, -114.49 59.24 M-94.38 35.04 C-100.6 43.47, -106.75 51.56, -114.76 58.56" stroke="#000000" stroke-width="1" fill="none"></path></g><g transform="translate(976.6295681281292 362.2170435450025) rotate(0 -57.91901507612914 29.304554185445113)"><path d="M-85.76 52.33 C-91.22 56.64, -101.8 54.75, -114.49 59.24 M-85.14 53.37 C-94.52 55.58, -103.83 57.41, -114.76 58.56" stroke="#000000" stroke-width="1" fill="none"></path></g></g><g stroke-linecap="round"><g transform="translate(676.6941313890082 429.3212568348263) rotate(0 -48.46922116967602 -29.653035984421194)"><path d="M-1.1 0.69 C-17.17 -9.12, -81.38 -49.84, -97.47 -59.99 M0.53 0 C-15.08 -9.5, -79.25 -48.61, -95.22 -58.46" stroke="#000000" stroke-width="1" fill="none"></path></g><g transform="translate(676.6941313890082 429.3212568348263) rotate(0 -48.46922116967602 -29.653035984421194)"><path d="M-64.68 -53.95 C-72.07 -55.74, -78.81 -56.39, -94.85 -59.81 M-66.24 -52.05 C-73.88 -54.67, -80.89 -55.21, -94.52 -58.2" stroke="#000000" stroke-width="1" fill="none"></path></g><g transform="translate(676.6941313890082 429.3212568348263) rotate(0 -48.46922116967602 -29.653035984421194)"><path d="M-75.4 -36.45 C-80.32 -41.9, -84.77 -46.3, -94.85 -59.81 M-76.96 -34.55 C-81.76 -41.94, -85.89 -47.2, -94.52 -58.2" stroke="#000000" stroke-width="1" fill="none"></path></g></g><g stroke-linecap="round"><g transform="translate(375.7418648554079 311.380502811362) rotate(0 42.92206893901263 0.06511299798239634)"><path d="M0.58 0.03 C14.48 0.09, 70.14 0.08, 84.29 0.08 M-0.58 -1 C13.6 -0.79, 72.19 0.82, 86.42 1.13" stroke="#000000" stroke-width="1" fill="none"></path></g><g transform="translate(375.7418648554079 311.380502811362) rotate(0 42.92206893901263 0.06511299798239634)"><path d="M58.04 8.83 C67.06 7.16, 77.57 4.85, 87.73 0.89 M57.59 11.5 C68.25 6.64, 79.06 3.55, 86.01 0.6" stroke="#000000" stroke-width="1" fill="none"></path></g><g transform="translate(375.7418648554079 311.380502811362) rotate(0 42.92206893901263 0.06511299798239634)"><path d="M58.55 -11.68 C67.33 -5.7, 77.66 -0.35, 87.73 0.89 M58.09 -9.01 C68.42 -6.1, 79.04 -1.4, 86.01 0.6" stroke="#000000" stroke-width="1" fill="none"></path></g></g><g stroke-linecap="round" transform="translate(10 440.5726438036536) rotate(0 19.67338150265516 16.002523657375605)"><path d="M0 0 C0 0, 0 0, 0 0 M0 0 C0 0, 0 0, 0 0 M-0.87 6.73 C0.79 4.05, 3.39 2.36, 4.94 0.48 M-0.56 6.12 C1.4 4, 3.65 2.14, 5.29 0.38 M1.54 11.11 C2.61 8.54, 6.03 7.42, 9.24 -0.99 M0.29 11.98 C3.54 7.74, 8.89 2.19, 10.54 0.34 M-1.22 18.76 C6.7 12.41, 10.58 4.57, 13.7 1.81 M-0.54 18.94 C6.02 11.83, 10.68 6.17, 14.7 0.58 M-0.54 25.21 C6.74 15.76, 12.03 9.98, 23.06 -1.96 M-0.02 24.88 C6.28 15.17, 14.79 7.44, 21.09 0.6 M0.71 30.14 C11.03 17.8, 20.83 6.82, 25.28 1.9 M-0.4 30.89 C8.59 20.63, 17 11.36, 25.9 0.31 M1.58 32.8 C11.74 25.56, 19.03 16.3, 33.52 -0.05 M1.43 33.06 C9.75 26.82, 14.77 19.42, 30.98 -0.96 M6.54 32.88 C15.68 24.1, 25.93 13.97, 37.36 -0.96 M7.06 35.07 C14.51 25.22, 21.22 18.77, 36.68 0.13 M11.67 35.09 C24.26 23.61, 32.72 9.62, 41.77 1.81 M12 33.06 C22.89 22.87, 32.86 12.06, 40.79 1.86 M18.26 34.19 C26.72 27.02, 30.51 18.85, 42.72 6.81 M17.26 34.15 C26.66 24.95, 35.24 13.51, 41.29 7.94 M23.67 34.8 C26.03 27.54, 33.31 26.4, 43.31 13.44 M23.4 34.6 C29.42 27.69, 35.9 20.18, 40.54 13.96 M27.16 33.5 C31.12 29.51, 33.57 28.59, 42.82 18.22 M28.28 33.38 C31.03 31.48, 33.98 27.76, 41.54 19.86 M34.95 34.25 C36.03 32.15, 37.3 30.61, 40.74 25.42 M34.28 34.06 C36.43 31.37, 38.78 28.74, 41.21 25.95" stroke="#15aabf" stroke-width="0.5" fill="none"></path><path d="M-1.91 -0.29 C9.15 1.14, 17.44 1.38, 39.8 -1.96 M-0.33 -0.67 C14.44 0.82, 29.36 0.54, 40.12 0.38 M40.71 0.82 C39.75 11.21, 38.32 20.5, 40.09 33.79 M40.02 -0.8 C40.06 8.74, 39.36 18.6, 40.17 31.09 M38.44 32.36 C25.52 33.75, 14.55 33.09, -0.1 33.34 M40.16 31.31 C25.21 33.15, 10.06 32.22, -0.1 31.16 M0.67 30.34 C-0.55 19.16, -2.16 12.01, -1.71 1.83 M0.11 32.29 C1.08 22.71, 1 13.95, -0.18 -0.36" stroke="#000000" stroke-width="1" fill="none"></path></g><g stroke-opacity="0.5" fill-opacity="0.5" transform="translate(62.39866176317878 447.28190006722116) rotate(0 226.5 12.5)"><text x="0" y="17" font-family="Virgil, Segoe UI Emoji" font-size="20px" fill="#000000" text-anchor="start" style="white-space: pre;" direction="ltr">Manual / Science Focused / Short Lived Code</text></g><g stroke-linecap="round" transform="translate(10.940961954149202 481.5983410428844) rotate(0 19.67338150265516 16.002523657375605)"><path d="M0 0 C0 0, 0 0, 0 0 M0 0 C0 0, 0 0, 0 0 M-0.91 5.99 C1.72 4.3, 3.07 2.67, 5.51 -0.07 M-0.55 6.23 C1.61 4.56, 3.67 2.34, 4.69 0.48 M0.27 11.29 C4.58 9.08, 5.35 3.42, 11.99 1.11 M-0.41 12.36 C3.78 8.12, 5.83 5.73, 10.99 -0.26 M1.21 18.53 C3.13 13.03, 4.8 12.14, 16.35 -0.48 M0.65 17.97 C5.31 12.32, 9.49 6.57, 15.75 -0.16 M0.04 23.44 C6.15 16.71, 16.79 5.25, 22.03 1.02 M-0.69 23.44 C7.95 15.46, 14.52 8.07, 22.01 -0.85 M0.96 29.35 C11.08 17.94, 19.43 8.55, 26.45 -0.37 M0.35 29.95 C8.18 21.38, 14.66 13.27, 26.09 0.12 M3.3 35.29 C12.08 24.63, 23.6 11.66, 30.28 -0.6 M3.18 34.07 C8.69 26.71, 15.08 17.93, 32.01 0.16 M6.55 34.94 C18.93 22.71, 30.43 7.38, 35.49 0.84 M7.8 33.27 C18.74 21.81, 29.16 8.65, 37.38 1.09 M14.66 35.2 C24.29 19.94, 35.41 9.2, 42.21 2.46 M13.2 33.97 C19.45 28.01, 24.57 21.1, 41.28 1.1 M19.6 35.16 C23.47 26.86, 34.08 16.71, 42.4 6.84 M17.98 34.91 C26.24 24.07, 34.59 15.87, 40.15 8.23 M22.21 31.99 C30.44 29.67, 35.31 22.55, 41.95 11.62 M23.38 34.42 C29.27 27.5, 33.3 22.19, 40.88 13.74 M28.01 33.04 C30.05 32.76, 35.76 26.5, 39.92 19.66 M28.04 34.85 C31.27 30.97, 35.54 26.92, 40.14 19.72 M34.7 33.67 C36.64 31.27, 38.22 28.23, 41.24 26.75 M34.23 33.98 C36.46 31.42, 38.93 28.53, 40.78 25.96" stroke="#7950f2" stroke-width="0.5" fill="none"></path><path d="M-0.43 1.29 C11.61 1.59, 27.1 -1.9, 40.69 -0.8 M-0.01 0.65 C10.56 0.63, 20.96 0.64, 39.3 -0.44 M39.89 1.76 C38.68 14.36, 40.3 27.31, 39.42 31.6 M40.13 -0.98 C39.64 6.51, 40.38 13.76, 39.51 32.14 M37.95 33.87 C28.75 33.27, 17.9 33.41, 1.43 32.16 M39.84 32.99 C25.97 31.79, 12.57 30.88, 0.41 32.8 M-0.29 30.08 C-2.02 25.55, -1.81 17.23, -0.34 -1.81 M0.79 31.77 C0.68 25.28, -0.21 18.07, -0.99 -0.16" stroke="#000000" stroke-width="1" fill="none"></path></g><g stroke-opacity="0.5" fill-opacity="0.5" transform="translate(61.334754660182284 483.3923977212994) rotate(0 326 12.5)"><text x="0" y="17" font-family="Virgil, Segoe UI Emoji" font-size="20px" fill="#000000" text-anchor="start" style="white-space: pre;" direction="ltr">Automated / Engineering Focused / Long Lived &amp; Maintained Code</text></g></svg>