<svg version="1.1" xmlns="http://www.w3.org/2000/svg" viewBox="0 0 674.5199880061027 401.91506933977803" width="674.5199880061027" height="401.91506933977803">
  <!-- svg-source:excalidraw -->
  
  <defs>
    <style class="style-fonts">
      @font-face {
        font-family: "Virgil";
        src: url("https://excalidraw.com/Virgil.woff2");
      }
      @font-face {
        font-family: "Cascadia";
        src: url("https://excalidraw.com/Cascadia.woff2");
      }
    </style>
  </defs>
  <g transform="translate(167.8188756595245 10) rotate(0 140 22.5)"><text x="0" y="32" font-family="Virgil, Segoe UI Emoji" font-size="36px" fill="#000000" text-anchor="start" style="white-space: pre;" direction="ltr">Decision Science</text></g><g transform="translate(10 86.93625272482836) rotate(0 38.5 17.5)"><text x="0" y="25" font-family="Virgil, Segoe UI Emoji" font-size="28px" fill="#000000" text-anchor="start" style="white-space: pre;" direction="ltr">Data</text></g><g stroke-linecap="round"><g transform="translate(99.01482601975579 104.07516355442658) rotate(0 223.59884045298534 -0.039196956034970754)"><path d="M0.01 0.73 C74.96 0.48, 373.89 -0.68, 448.63 -0.81 M-1.44 0.07 C73.43 -0.1, 372.8 0.11, 447.64 0.31" stroke="#000000" stroke-width="1" fill="none"></path></g><g transform="translate(99.01482601975579 104.07516355442658) rotate(0 223.59884045298534 -0.039196956034970754)"><path d="M420.65 10.39 C424.06 7.99, 431.32 5.7, 448.11 1.07 M419.75 11.13 C427.03 7.19, 434.03 4.68, 446.71 0.15" stroke="#000000" stroke-width="1" fill="none"></path></g><g transform="translate(99.01482601975579 104.07516355442658) rotate(0 223.59884045298534 -0.039196956034970754)"><path d="M420.68 -10.13 C424.19 -8.15, 431.45 -6.07, 448.11 1.07 M419.78 -9.4 C426.9 -8.06, 433.89 -5.3, 446.71 0.15" stroke="#000000" stroke-width="1" fill="none"></path></g></g><g transform="translate(569.5199880061027 87.84907154117195) rotate(0 47.5 17.5)"><text x="0" y="25" font-family="Virgil, Segoe UI Emoji" font-size="28px" fill="#000000" text-anchor="start" style="white-space: pre;" direction="ltr">Insight</text></g><g stroke-linecap="round" transform="translate(100.82051433553875 120.32638870444453) rotate(0 68.16493092262098 19.862632089555404)"><path d="M0 0 C0 0, 0 0, 0 0 M0 0 C0 0, 0 0, 0 0 M-0.77 6.17 C1.48 4.67, 2.79 3.66, 5.72 0.89 M-0.52 6.72 C2.09 4.01, 3.84 2.04, 4.91 0.45 M1.25 11.5 C2.48 10.46, 4.79 4.92, 11.95 0.98 M0.44 11.4 C3.43 7.21, 7.21 2.11, 10.54 -0.7 M-1.34 19.49 C4.97 11.38, 12.64 4.97, 14.33 1.57 M-0.52 19.38 C4.96 11.71, 11.22 6.05, 16.06 1.17 M1.54 25.74 C7.57 15.57, 12.93 6.14, 20.57 1.93 M0.44 23.67 C5.07 17.86, 8.99 13.78, 20.44 0.65 M-0.44 32.22 C7.9 21.66, 18.33 10.44, 27.77 -0.38 M0.99 29.83 C5.9 22.54, 13.55 15.55, 26.58 0.9 M-1.65 35.37 C12.72 25.64, 23.26 10.52, 31 -0.89 M-0.07 36.84 C6.82 28.41, 13.33 21.93, 31.06 0.51 M3.02 41.74 C10.7 30.82, 14.5 22.32, 36.35 -0.91 M1.18 41.74 C9.76 31.43, 18.77 21.87, 36.4 0.33 M6.18 43.36 C18.97 26.14, 31.07 13.29, 42.08 1.51 M7.33 40.79 C15.41 30.93, 23.12 22.2, 42.88 -0.59 M12.55 40.57 C18.97 29.25, 27.53 21.7, 47.38 -1.34 M12.88 41.29 C21.08 31.45, 29.61 22.22, 46.76 0.02 M18.19 41.04 C31.29 24.02, 44.92 9.25, 53.44 -1.77 M17.04 40.44 C29.5 25.3, 44.15 10.81, 54.11 -0.44 M23.71 41.3 C32.92 29.59, 45.48 17.78, 56.27 -1.6 M23.55 41.84 C30.92 32.82, 37.05 24.63, 59.08 -0.4 M26.98 41.88 C36.17 31.63, 44.74 23.06, 63.78 0.83 M26.99 40.5 C38.55 28.81, 47.89 18.65, 63.67 -0.24 M32.32 40.32 C42.55 29.97, 53.05 14.74, 68.53 1.81 M32.54 40.73 C42.11 30.61, 52.6 18.75, 68.02 0.75 M39.18 42.25 C52.99 26.73, 66.42 9.22, 72.9 1.24 M38.27 41.2 C48.56 29.51, 60.49 15.54, 74.18 0.31 M43.31 42.46 C53.84 30.75, 64.17 21.09, 77.76 1.78 M44.91 40.84 C56.98 24.79, 71.61 9.53, 78.41 0.18 M49.5 39.93 C62.07 24.35, 78.62 9.23, 83.68 -2.19 M48.16 41.84 C57.92 32.63, 66.53 21.69, 84.96 0.08 M52.71 38.93 C64.36 33, 70.05 20.19, 91.64 -1.39 M54.43 41.61 C64.19 29.07, 76.57 16.17, 90.32 0.67 M58.78 40.08 C70.76 31.07, 78.99 19.6, 96.13 1.3 M59.15 41.75 C69.59 28.59, 80.85 16.05, 95.03 -0.5 M65.62 41.38 C79.61 24.04, 91.15 7.78, 101.96 2.01 M64.55 40.01 C79.05 24.72, 93.3 9.25, 99.98 0.03 M71.91 41.3 C81.02 27.5, 94.19 10.52, 105.33 0.86 M69.93 41.29 C76.95 31.87, 84.73 22.85, 106.13 -0.47 M74.25 39.83 C87.42 29.01, 98.7 12.05, 110.6 1.1 M75.44 41.56 C89.72 25.2, 103.14 10.32, 110.86 0.12 M79.9 41.56 C91.99 28.93, 102.48 16.41, 114.78 -1.17 M80.38 40.89 C92.58 27.95, 105.35 14.8, 117.04 -0.58 M87.91 40.72 C99.24 26.18, 110.04 11.93, 123.52 -1.61 M86.97 41.35 C96.96 28.41, 106.54 17.51, 122.62 -0.16 M89.85 40.27 C103.63 28.46, 117.14 12.06, 125.08 1.65 M90.61 42.02 C100.83 31.29, 109.21 22.3, 127.19 0.73 M98.98 40.91 C106.42 30.93, 110.91 22.1, 132.81 -0.19 M97.71 40.98 C105.09 29.82, 114.48 20.72, 132.11 0.15 M102.94 40.22 C112.54 28.04, 124.46 14.75, 135.27 -0.78 M101.92 40.21 C109.82 31.48, 118.49 23.27, 137.11 1.58 M108.95 41.65 C117.99 32, 125.34 18.44, 136.71 7.48 M107.94 41.62 C115.62 30.92, 123.89 22.13, 136.49 5.86 M112.47 41.62 C121.88 33.23, 126.02 23.96, 135.62 12.9 M111.8 42.01 C122.48 30.4, 131.16 18.51, 136.17 13.66 M118.4 42.59 C124.45 31.82, 133.54 23.75, 138.78 18.64 M118.64 40.99 C123.71 33.27, 130.65 26.69, 137.36 19.48 M121.8 40.1 C129 36.88, 132.71 30.53, 136.53 26.55 M122.97 40.03 C128.48 35.6, 131.43 30.19, 136.44 24.37 M128.36 40.84 C132.68 37.49, 135.92 34.86, 137.17 32.43 M128.01 41.19 C132.12 38.15, 134.6 34.65, 137.03 31.58 M134.1 40.88 C135.04 39.82, 135.57 38.95, 137.37 37.33 M134.08 41.2 C134.61 40.31, 135.69 39.5, 137.18 37.12" stroke="#15aabf" stroke-width="0.5" fill="none"></path><path d="M0.46 -0.92 C30.88 -1.61, 59.31 0.58, 135.08 -1.18 M0.71 0.7 C42.12 1.22, 84.86 0.87, 135.9 0.03 M138.25 0.78 C135.61 9.15, 136.84 15.35, 135.7 39.57 M137.11 -0.74 C136.87 15.07, 136.08 30.85, 136.52 40.27 M135.43 38.4 C108.03 39.56, 80.76 39.5, 0.16 40.1 M135.95 39.96 C87.79 39.58, 40.89 37.9, -0.17 39.87 M-0.12 37.87 C-1.36 25.53, 1.16 10.59, 1.72 1.66 M-0.31 39.5 C0.14 31.09, 0.72 21.18, 0.6 -0.73" stroke="#000000" stroke-width="1" fill="none"></path></g><g transform="translate(118.4854452581597 127.68902079399982) rotate(0 50.5 12.5)"><text x="50.5" y="17" font-family="Virgil, Segoe UI Emoji" font-size="20px" fill="#000000" text-anchor="middle" style="white-space: pre;" direction="ltr">Processing</text></g><g stroke-linecap="round" transform="translate(138.64983306025164 168.89958018524067) rotate(0 68.16493092262098 19.862632089555404)"><path d="M0 0 C0 0, 0 0, 0 0 M0 0 C0 0, 0 0, 0 0 M-0.99 6.72 C1.55 4.29, 4.08 1.4, 5.51 0.19 M-0.54 6.63 C1 4.28, 3.04 2.52, 4.87 0.67 M-1.03 12.2 C2.35 8.09, 4.92 6.02, 9.34 -1.59 M-0.29 12.39 C2.42 8.45, 5.33 5.73, 10.69 -0.18 M0.18 18.31 C4.15 15.23, 8.05 11.17, 16.73 -0.63 M-0.12 17.89 C3.21 14.3, 5.86 11.2, 15.44 0.1 M-1.52 24.38 C5.29 19.07, 12.17 11.2, 22.92 1.1 M0.75 24.97 C5.59 18.61, 8.7 13.4, 21.64 0.5 M0.82 30.43 C5.82 22.85, 9.65 17.52, 27.69 0.94 M-0.48 29.85 C5.59 24.27, 13 17.29, 27.16 -0.54 M0.19 37.28 C7.09 24.41, 19.99 17.21, 31 -1.78 M-0.08 36.71 C12.08 23.58, 23.56 9.09, 32.76 -0.48 M2.57 42.37 C12.05 26.61, 26.29 15.51, 37.28 1.03 M2.08 40.49 C12.13 28.37, 23.3 14.5, 36.43 0.2 M6.92 43.13 C15.43 31.8, 24.1 21, 40.68 -0.8 M6.03 42.16 C18.52 25.12, 32.37 10.66, 43.13 -0.02 M13.82 39.79 C22.01 31.42, 26.63 22.99, 45.69 -0.56 M12.96 40.42 C20.44 31.17, 29.08 20.12, 47.08 -0.69 M16.69 42.4 C25.73 28.52, 37.31 19.65, 52.42 -1.68 M18.02 40.67 C26 30.81, 36.59 18.89, 53.53 0.54 M23 40.39 C30.83 30.82, 40.79 20.62, 57.21 1.39 M22.16 41.44 C30.54 31.42, 38.82 22.9, 59.09 0.88 M26.98 41.69 C43.08 25.46, 55.17 9.96, 61.83 0.22 M28.41 41.41 C42.23 26.15, 55.89 9.37, 63.43 0.41 M34.81 41.71 C44.86 24.85, 59.78 12.22, 70.2 -0.52 M33.62 41.33 C39.6 33.55, 48.84 24.21, 69.66 1.01 M37.3 42.49 C51.86 28.2, 63.73 13.11, 73.57 -2.03 M38.83 41.04 C50.24 28.72, 60.15 14.8, 74.03 0.35 M43.06 41.68 C53.78 29.53, 61.06 19.95, 79.16 -0.27 M44.95 41.4 C51.93 31.33, 60.02 23.02, 80.22 0.86 M47.24 39.69 C61.61 28.72, 72.56 16.31, 83.4 -0.95 M49.13 41.28 C58.79 31.01, 68.31 18.28, 85.19 -0.33 M52.64 40.66 C62.53 32.4, 72.33 23.23, 88.63 -0.42 M54.47 41.52 C61.87 32.1, 71.16 22.22, 89.37 -0.37 M58.48 39.6 C67.16 33.92, 73.61 22.38, 96.21 -0.66 M60.36 41.91 C73.17 26.24, 85.92 10.01, 96.52 -0.78 M65.54 39.4 C73.81 27.57, 86.1 18.42, 99.28 1.85 M66.21 41.12 C74.09 28.78, 84.83 18.55, 99.93 -0.43 M68.83 41.92 C78.83 30.58, 88.7 21.64, 107.93 1.12 M69.77 41.73 C81.01 27.34, 94.09 14.88, 106.29 0.4 M74.83 41.05 C87.66 27.39, 98.92 14.46, 109.86 0.78 M74.9 40.15 C87.35 29.04, 97.59 15.86, 111.91 1 M82.15 41.77 C92.07 29.69, 97.69 21.51, 114.96 -0.16 M81.83 41.61 C92.41 28.01, 105.87 12.31, 115.86 0.92 M86.7 41.2 C95.21 28.32, 103.63 18.51, 123.23 0.02 M86.97 40.12 C93.57 32.84, 101.53 22.71, 121.54 -0.76 M90.41 39.67 C103.88 26.65, 117.59 9.22, 126.77 -0.91 M91.18 41.45 C102.48 28.7, 111.32 18.57, 127.23 0.75 M98.41 41.8 C109.51 25.51, 119.84 14.43, 132.32 -1.38 M97.55 41.09 C108.86 26.6, 122.05 11.98, 132.23 -0.31 M103.69 39.55 C110.57 30.79, 121.38 19.16, 135.27 1.87 M101.68 41.22 C110.42 31.21, 120.08 20.23, 137.49 0.46 M108.33 41.25 C113.88 33.4, 120.21 25.28, 136.26 7.83 M107.48 40.66 C119.11 27.41, 129.26 14.65, 137.72 7.59 M112.14 42.72 C120.54 29.6, 128.36 23.04, 135.62 14.68 M113.41 41.9 C116.89 36.09, 122.48 30.65, 136.55 12.18 M117.91 40.31 C124.68 36.26, 126.57 32.38, 135.49 18 M118.3 40.99 C123.85 33.95, 129.21 28.43, 138.14 17.91 M124.02 41.95 C127.95 36.58, 129.8 30.01, 139.07 26.5 M123.63 40.56 C128.23 36.17, 133.05 29.29, 137.07 25.74 M128.8 41.09 C130.13 39.03, 133.13 35.63, 137.07 30.46 M128.52 40.81 C131.59 38.39, 133.92 35.07, 136.61 31.61 M134.42 40.56 C134.93 39.71, 136.14 38.61, 137.5 36.9 M133.95 41.04 C135.13 39.38, 136.6 38.06, 137.1 37.09" stroke="#15aabf" stroke-width="0.5" fill="none"></path><path d="M0.16 0.22 C31.14 1.96, 61.01 -0.38, 134.56 -1.57 M-0.75 0.32 C37 1.55, 74.06 1.11, 136.36 0.5 M135.11 0.46 C136.1 12.03, 137.14 18.16, 137.71 38.18 M136.92 0.14 C137.55 10.47, 137.42 21.44, 136.35 40.05 M136.84 39.63 C91.03 38.55, 43.17 37.11, -1.66 40.24 M135.71 38.79 C97.13 39.23, 56.55 38.87, 0.21 40.26 M-1.93 38.56 C1.2 30.49, 0.2 20.09, 0.04 -0.77 M0.3 38.87 C0.29 26.33, -0.64 13.93, 0.17 0.25" stroke="#000000" stroke-width="1" fill="none"></path></g><g transform="translate(151.31476398287253 176.26221227479596) rotate(0 55.5 12.5)"><text x="55.5" y="17" font-family="Virgil, Segoe UI Emoji" font-size="20px" fill="#000000" text-anchor="middle" style="white-space: pre;" direction="ltr">Exploration</text></g><g stroke-linecap="round" transform="translate(322.3791798886388 215.03510153212073) rotate(0 79 22)"><path d="M0 0 C0 0, 0 0, 0 0 M0 0 C0 0, 0 0, 0 0 M-0.52 7.03 C1.31 5, 3.15 3.76, 4.33 1.02 M0.12 6.39 C1.54 4.02, 3.93 1.9, 4.59 0.39 M0.57 11 C3.49 6.84, 9.5 3.06, 9.54 -1.56 M-0.5 12.53 C3.01 9.87, 5.71 5.93, 10.56 0.25 M-2.02 16.53 C5.12 15.89, 6.24 8.33, 17.23 -1.15 M-0.3 19.21 C3.62 13.4, 10.12 7.27, 15.9 0.91 M-0.54 22.96 C7.51 18.68, 11.73 11.84, 21.72 1.54 M-0.17 24.63 C5.78 16.68, 12.45 9.42, 20.62 -0.25 M0.4 31.05 C10.79 17.95, 18.73 5.85, 27.55 2.25 M-0.68 29.68 C10.24 18.54, 20.95 7.13, 25.57 0.27 M1.43 37.01 C9.16 24.83, 20.9 9.49, 30.92 1.1 M-0.55 37 C5.68 28.52, 12.63 20.46, 31.72 -0.23 M-1.47 41.58 C12.14 30.26, 23.85 12.8, 36.18 1.34 M-0.28 43.31 C14.48 26.38, 28.42 10.92, 36.45 0.36 M1.55 46.33 C15.1 32.03, 27.06 17.81, 41.03 -1.69 M2.04 45.66 C15.77 30.96, 30.06 16.07, 43.28 -1.09 M8.9 46.24 C21.9 29.81, 34.34 13.66, 49.11 -1.37 M7.97 46.87 C19.26 32.39, 30.18 19.95, 48.2 0.08 M11.5 45.04 C26.83 31.38, 41.94 13.15, 51.32 1.14 M12.27 46.79 C23.56 34.77, 33.04 24.53, 53.43 0.22 M19.97 46.43 C28.38 35.35, 33.81 25.45, 58.4 0.05 M18.71 46.5 C27.22 34.01, 37.78 23.58, 57.7 0.4 M24.59 44.99 C35.92 30.84, 49.52 15.61, 62.17 -2.04 M23.57 44.98 C32.62 34.84, 42.49 25.24, 64.01 0.31 M29.94 47.17 C42.46 33.73, 53.18 16.3, 68.2 0.93 M28.94 47.15 C39.45 33.16, 50.58 21.09, 67.99 -0.69 M34.12 46.39 C48.38 32.63, 57.2 17.99, 73.02 -0.44 M33.46 46.78 C50.33 27.96, 65.18 8.97, 73.57 0.32 M39.4 48.12 C53.59 28.3, 70.68 11.02, 80.77 0.02 M39.64 46.52 C50.92 31.29, 64.25 17.35, 79.35 0.86 M43.45 44.87 C60.83 30.06, 74.77 11.95, 84.43 1.13 M44.62 44.8 C58.35 30.49, 69.82 15.28, 84.34 -1.05 M50.02 45.34 C67.04 28.4, 82.17 12.67, 90.46 1.45 M49.48 45.88 C65.71 29.8, 79.31 13.16, 90.25 0.15 M56.07 45.43 C67.82 32.15, 77.77 19.63, 96.04 0.28 M55.98 46.71 C64.53 36.25, 74.99 25.93, 95.27 -0.55 M62.56 45.31 C71.58 32.74, 84.83 15.74, 101.71 0.78 M59.86 47.03 C69.01 35.58, 77.02 26.6, 100.36 0.32 M65.54 44.5 C78.81 28.97, 96.45 12.38, 104.58 -1 M65.64 46.21 C74.2 35.38, 82.49 25.86, 107.01 0.6 M70.9 46.91 C85.66 28.85, 99.29 12.97, 111.04 -1.04 M71.86 45.32 C81.9 33.82, 94.25 20.42, 111.56 -0.45 M76.86 44.67 C88.53 31.49, 102.19 14.42, 117.24 -1.54 M75.26 46.8 C91.14 28.71, 106.21 10.96, 116.27 0.5 M79.98 47.43 C88.42 38.43, 96.74 27.8, 121.1 0.37 M81.27 46.67 C95.61 30.46, 109.69 14.3, 120.94 0.1 M87.1 45.67 C95.37 35.05, 101.79 28.92, 128.26 1.97 M87.67 45.77 C101.34 29.11, 115.95 14.49, 127.41 0.53 M91.87 44.55 C106.52 29.96, 121.67 12.25, 130.6 -1.24 M91.6 46.5 C100.5 36.54, 108.86 25.03, 131.76 -0.77 M99.45 46.91 C110.92 32.18, 123.1 14.15, 136.98 1.51 M97.93 45.73 C112.41 29.62, 126.82 12.54, 137.54 0.87 M103.69 46.37 C115.35 28.15, 133.12 14.69, 144.36 -0.68 M103.02 46.82 C114.63 32.17, 126.67 19.45, 142.53 0.28 M107.84 46.42 C125.1 26.54, 140.07 8.14, 148.54 0.7 M108.98 46.57 C120.56 32.44, 132.21 18.44, 148.11 0.49 M113.7 45.4 C127.95 30.07, 141.6 13.68, 155.29 0.62 M113.45 45.17 C123.5 35.04, 131.13 24.73, 153.93 -0.37 M118.32 47.67 C132.85 29.48, 147.52 10.55, 159.12 1.59 M117.93 47.22 C131.57 31.28, 144.79 14.13, 159.29 0.93 M123.22 44.56 C135.57 32.37, 151.36 17.23, 160.49 7.46 M123.5 45.63 C137.04 30.93, 152.09 14.63, 157.95 6.48 M131.02 45.52 C138.77 32.17, 149.67 21.32, 158.89 11.44 M129.12 46.67 C137.17 37.1, 145.66 26.53, 157.81 12.08 M134.67 47.15 C140.64 40.04, 144.94 31.52, 160.36 17.71 M135.45 45.85 C140.51 38.56, 147.51 31.9, 158 18.81 M138.14 44.25 C142.18 43.5, 148.91 38.22, 160.04 25.51 M139.08 46.96 C147.3 38.52, 154.22 29.05, 158.04 25.99 M145.58 46.89 C149.99 43.87, 153.65 37.2, 160.69 28.89 M146.34 45.99 C147.69 42.83, 150.71 39.36, 157.97 30.85 M150.28 46.98 C151.69 44.26, 154.42 40.94, 159.06 37.54 M151.2 46.16 C153.58 42.88, 156.95 39.1, 157.98 36.78 M156.05 45.8 C156.97 44.86, 157.66 44.3, 158.25 43.28 M156.39 45.78 C157.03 44.95, 157.41 44.31, 158.34 43.57" stroke="#15aabf" stroke-width="0.5" fill="none"></path><path d="M1.12 -0.3 C60.12 -0.84, 120.06 0.15, 158.29 -1.6 M-0.03 -0.9 C58.22 0.55, 118.52 1.6, 158.96 -0.26 M159 0.36 C156.79 14.3, 158.65 28.1, 156.13 42.21 M158.84 0.9 C159.03 9.69, 157.71 19.33, 158.94 43.41 M157.28 44.58 C124.8 43.94, 92.08 44.2, 0 45.04 M157.29 43.2 C114.27 44.22, 69.3 45.68, -0.11 43.96 M-1.02 43.41 C-1.28 32.13, -1.29 15.94, -0.24 1.65 M-0.8 43.82 C-0.7 32.99, 0.3 20.26, -0.75 0.6" stroke="#000000" stroke-width="1" fill="none"></path></g><g transform="translate(355.3791798886388 224.53510153212073) rotate(0 46 12.5)"><text x="46" y="17" font-family="Virgil, Segoe UI Emoji" font-size="20px" fill="#000000" text-anchor="middle" style="white-space: pre;" direction="ltr">Data Viz</text></g><g stroke-linecap="round" transform="translate(157.15824437492637 224.07870158934747) rotate(0 74.5 42.5)"><path d="M0 0 C0 0, 0 0, 0 0 M0 0 C0 0, 0 0, 0 0 M-0.8 6.38 C1.72 5.34, 2.27 3.57, 5.04 -0.4 M-0.46 6.64 C1.32 4.61, 3.33 1.98, 5.04 0.14 M-0.13 11.84 C3.11 9.04, 5.89 5.27, 9.87 -0.24 M-0.14 12.47 C5.03 8.09, 7.98 2.19, 11.26 0.44 M-0.98 18.64 C4.74 13.38, 8.37 6.9, 16.05 0.22 M-0.88 17.66 C5.54 11.72, 11.03 5.72, 15.38 0.16 M1.79 22.18 C8.38 14.96, 14.79 8.83, 21.25 -0.14 M1.07 23.28 C6.82 17.38, 13.41 9.79, 21.87 0.34 M1.4 30.2 C7.88 23.91, 14.61 12.92, 25.42 0.48 M-0.91 31.13 C9.17 19.36, 20.18 6.72, 27.18 1.28 M0.31 37.67 C7.41 24.15, 20.49 15.61, 32.1 1.78 M-0.13 36.81 C7.06 28.89, 14.92 20.21, 32.17 -0.91 M-0.75 42.94 C9.41 31.42, 18.45 23.19, 36.04 -0.69 M-0.67 41.6 C10.52 30.88, 22.78 17.01, 36.03 0.39 M0.34 49.95 C11.72 33.27, 21.6 22.57, 43.5 0.34 M-0.41 49.31 C17.05 29.61, 34.43 10.01, 43.48 -0.23 M-1.29 52.87 C11.95 39.03, 23.65 27.12, 48.11 1.88 M-0.42 54.46 C16.85 36.98, 31.88 18.6, 48.49 0.41 M-1.68 62.08 C20.58 38.76, 35.91 18.54, 55.11 -1.48 M0.7 60.91 C14.18 45.39, 29.13 28.43, 53.51 -0.47 M-0.35 68.83 C15.26 51.51, 26.33 33.21, 57.24 0.47 M-0.56 68.06 C23.71 41.06, 47.04 12.92, 57.18 0.98 M-1.27 71.45 C19.99 51.48, 36.97 32.43, 63 1.39 M0.36 73.68 C18.67 50.83, 37.08 29.48, 63.54 0.74 M0.32 79.52 C24.82 48.97, 50.39 21.53, 68.47 0.44 M0.06 79.69 C19.99 54.87, 40.34 32.85, 69.75 -0.55 M-0.53 84.56 C28.22 53.36, 56.45 21.74, 73.63 -1.9 M0.8 85.4 C28.25 53.7, 57.84 19.43, 75.35 -0.04 M4.66 85.93 C26.14 63.01, 44.67 39.86, 78.2 -1.76 M4.4 85.07 C26.05 60.27, 48.58 33.56, 79.91 -0.15 M12.33 86.9 C27.84 66.5, 41.09 49.2, 85.9 -0.09 M10.78 84.48 C27.7 65.7, 45.16 47.14, 84.31 -1.04 M16.44 84.44 C44.9 53.37, 74.05 19.71, 88.29 -0.58 M16.38 84.41 C40.95 58.5, 64.69 29.29, 90.42 -0.07 M21.53 85.23 C42.05 61.38, 64.38 32.53, 97.08 -1.83 M21.13 85.16 C51.4 51.1, 80 17.76, 96.32 -0.29 M24.56 85.57 C46.5 60.49, 71.55 34.27, 99.95 0.64 M27.2 86.15 C42.43 67.48, 56.79 51.38, 100.05 0.13 M33.18 85.32 C49.08 65.63, 64.88 47.51, 104.86 -1.69 M31.19 84.34 C60.81 51.76, 91.47 16.9, 106.82 -0.62 M35.59 83.87 C66.14 53.59, 92.72 24.08, 111.85 -0.38 M36.88 85.9 C66.45 53.39, 94.15 21.78, 110.68 0.61 M42.8 86.03 C64.03 62.24, 84.74 38.19, 116.7 -1.38 M43.39 84.61 C58.86 65.2, 75.39 45.34, 117.15 0.11 M46.5 86 C69.7 62.6, 87.27 38.71, 122.03 1.19 M47.97 85.48 C64.21 67.19, 79.78 48.82, 122.18 0.21 M53.31 85.31 C76.31 61.49, 95.59 34.77, 126.4 1.23 M54.17 85.24 C72.7 61.63, 94.17 38.03, 126.16 0.97 M58.67 84.73 C79.85 65.05, 97.5 40.73, 133.94 -0.7 M58.58 85.9 C83.66 58.19, 108.35 28.6, 133.49 -0.5 M65.06 86.22 C94.77 53.55, 121.16 18.75, 136.21 -1.39 M65.03 85.25 C91.76 53.06, 117.33 20.83, 137.29 -0.5 M67.88 84.89 C93.86 59.11, 117.44 31.57, 142.46 -1.06 M69.35 84.4 C84.62 68.44, 100.89 49.55, 143.61 -0.26 M73.77 82.9 C98.94 56.5, 125.63 25.59, 149.47 0.58 M75.53 84.32 C97.89 58.36, 121.36 32.23, 148.17 -0.33 M78.34 85.43 C95.71 65.87, 115.84 41.78, 149.88 0.5 M80.49 85.38 C108.31 51.32, 135.21 18.77, 152.59 2.15 M83.93 87.35 C106.31 58.66, 130.02 34.55, 152.66 9.34 M85.61 84.61 C109.96 56.12, 138.21 25.13, 151.76 7.99 M88.63 85.38 C109.2 63.13, 131.66 38.92, 153.32 12.74 M90.74 85.48 C111.56 61.51, 132.13 39.46, 151.96 13.95 M93.42 84.37 C115.59 65.07, 131.85 39.45, 151.87 20.38 M95.21 84.71 C110.32 68.35, 125.54 51.75, 151.73 21.32 M101.77 85.88 C114.12 73.34, 126.35 58.2, 149.74 28.89 M100.38 84.53 C114.87 68.86, 130.27 49.98, 150.71 27.44 M107.52 86.17 C119.9 66.25, 135.79 51.21, 150.9 34.02 M105.37 85.2 C117.05 74.01, 126.41 60.77, 151.63 33.47 M111.16 84.14 C126.27 66.27, 139.51 50.11, 152.93 40.84 M112.26 84.56 C123.88 71.19, 133.97 57.71, 151.33 39.2 M115.61 87.25 C129.24 71.31, 136.76 61.61, 150.69 44.44 M115.83 84.57 C129.86 69.87, 143.17 54.44, 151.3 45.26 M122.61 83.47 C130.82 71.39, 142.3 60.79, 152.13 51.84 M122.77 84.81 C130.73 75.26, 140.81 64.15, 151.39 51.75 M128.46 87.23 C130.95 77.83, 140.23 69.98, 149.95 58.69 M127.37 85.04 C133.97 76.78, 141.01 68.37, 152.43 58.43 M132.36 83.3 C138.45 79.56, 144.92 72.27, 152.65 63.46 M132.82 84.72 C138.37 77.74, 143.89 72.3, 151.15 63.57 M136.24 84.81 C142.38 77.98, 146.14 72.9, 149.72 67.64 M136.83 85.53 C142.58 81.13, 145.77 76.48, 152.26 69.69 M144.48 85.06 C146.54 81.63, 147.5 80.1, 152.77 74.65 M143.1 84.93 C146.22 81.6, 149.82 77.63, 151.95 74.95 M147.96 84.93 C148.74 83.98, 149.46 83.79, 151.67 81.28 M148.35 85.15 C149.45 83.94, 150.64 82.65, 151.94 81.7" stroke="#15aabf" stroke-width="0.5" fill="none"></path><path d="M-0.47 1.1 C57.18 -1.46, 116.4 -0.32, 150.58 0.42 M-0.82 0.83 C48.45 -0.39, 96.03 0.07, 148.97 -0.52 M147.03 0.13 C151.19 26.56, 149.28 52.03, 147.7 84.09 M148.32 -0.96 C148.9 22.63, 148.99 45.43, 149.61 85.52 M148.83 85.72 C93.35 84.22, 40.82 81.88, -1.91 86.63 M149.8 84.26 C91.74 83.93, 34.34 83.58, 0.77 84.08 M0.58 86.18 C-1.41 57.67, 0.62 27.3, -1.12 1.79 M0.23 85.8 C-0.13 55.12, -0.69 23.53, 0.55 -0.72" stroke="#000000" stroke-width="1" fill="none"></path></g><g transform="translate(163.65824437492637 229.07870158934747) rotate(0 67 37.5)"><text x="67" y="17" font-family="Virgil, Segoe UI Emoji" font-size="20px" fill="#000000" text-anchor="middle" style="white-space: pre;" direction="ltr">Clustering,</text><text x="67" y="42" font-family="Virgil, Segoe UI Emoji" font-size="20px" fill="#000000" text-anchor="middle" style="white-space: pre;" direction="ltr">Unsupervised </text><text x="67" y="67" font-family="Virgil, Segoe UI Emoji" font-size="20px" fill="#000000" text-anchor="middle" style="white-space: pre;" direction="ltr">Learning</text></g><g stroke-linecap="round" transform="translate(363.91025361541796 121.96672122131008) rotate(0 68.5 42.5)"><path d="M0 0 C0 0, 0 0, 0 0 M0 0 C0 0, 0 0, 0 0 M0.06 6.7 C0.44 5, 2.58 3.71, 4.37 1.06 M-0.59 6.29 C1.03 4.46, 2.93 3.46, 5.22 -0.02 M0.64 13.05 C3.2 9.18, 7.27 4, 9.34 0.01 M0.88 12.12 C4.67 6.75, 8.23 2.91, 10 0.21 M-0.98 19.23 C5.91 14.62, 8.69 7.61, 17.02 0.05 M0.8 18.1 C6.38 12.41, 11.55 4.79, 16.03 -0.59 M1.89 23.64 C4.52 20.75, 6.92 14.62, 21.95 0.55 M0.15 23.52 C8.73 15.16, 17.21 5.83, 20.73 0.25 M1.62 31.74 C8.59 18.95, 20.14 9.92, 27.44 1.96 M0.24 29.55 C7.1 20.74, 15.77 12, 26.41 -0.47 M-1.27 35.07 C10.31 24.73, 21.96 9.5, 31.44 -0.11 M-0.55 36.61 C11.53 24.34, 22.24 11.25, 31.22 -0.71 M-0.11 40.85 C12.88 30.12, 23.73 14.45, 34.91 0.13 M-0.04 42.68 C12.16 28.6, 24.38 15.2, 37.25 -0.19 M-2.04 47.24 C10.69 35.68, 22.69 25.14, 43.01 -0.24 M-0.73 48.49 C13.74 32.14, 28.86 15.77, 42.32 -0.42 M0.47 53.18 C12.2 38.94, 23.58 25.72, 45.76 2.21 M-0.59 54.23 C15.73 36.23, 31.96 18.55, 48.28 0.3 M-1.64 61.45 C16.03 41.87, 29.95 25.81, 51.27 -1.71 M-0.87 60.55 C21.36 36.53, 41.3 12.71, 52.75 -1.17 M-1.56 68.48 C18.2 49.96, 34.97 27.89, 58.4 1.3 M-0.91 67.24 C13.22 52.18, 27.29 35.95, 57.44 0.16 M-0.55 71.65 C24.74 46.15, 49.47 15.25, 61.94 0.03 M-0.6 72.48 C20.33 49.29, 40.5 26.3, 63.92 -0.66 M-2.05 78.65 C25.36 51.09, 50.12 23.44, 69.32 1.88 M0.17 79.05 C20.69 57.3, 39.51 34.83, 67.88 0.53 M-1.12 83.21 C28.24 54.63, 52.78 21.57, 73.8 -2.1 M-0.34 86.03 C14.89 66.83, 31.66 49.32, 74.95 -1.09 M3.51 84.23 C30.27 55.27, 58.84 21.76, 79.13 1.86 M4.79 84.76 C22.03 67.02, 38.63 47.07, 78.95 -0.34 M12.86 86.83 C40.17 53.35, 65.89 21.66, 84.76 -0.73 M10.19 85.89 C39.13 52.09, 69.11 19.09, 85.67 -0.08 M14.14 85.43 C30.23 69.62, 45.77 52.16, 90.52 -1.48 M15.21 85.29 C39.34 57.47, 64.01 30.41, 89.19 -0.2 M22.7 84.75 C43.68 60.22, 63.16 35.5, 93.81 -0.12 M21.48 84.98 C40.66 62.09, 60.93 40.03, 95.6 0.29 M24.71 84.94 C45.64 59.33, 69.25 33.19, 102.27 -1.42 M26.15 85.16 C49.9 58.6, 73.63 30.73, 101.35 0.27 M32.33 84.57 C54.92 59.64, 80.36 29.75, 107.01 -2.11 M32.72 85.16 C53.21 62.15, 73.91 37.53, 106.97 0.47 M38.42 85.77 C55.34 63.76, 79.4 37.19, 111.26 0.16 M36.28 85.4 C60.49 60.28, 81.25 33.79, 111.39 0.43 M43.73 85.26 C67.46 56.71, 94.91 27.14, 114.9 0.63 M42.31 84.37 C67.41 54.99, 92.33 27.37, 117.05 1.23 M47.57 83.38 C70.8 57.37, 94.5 30.22, 122.46 -1.24 M47.96 84.59 C64.13 68.02, 77.62 49.92, 121.47 0.69 M55.01 83.22 C70.36 63.64, 87.34 46.18, 125.06 -0.44 M52.84 85.57 C80.75 50.78, 111.81 18.17, 127.8 -0.38 M59.56 83.61 C87.06 53.48, 116.14 19.54, 130.94 1.33 M58.27 85.83 C83.05 56.64, 108.47 26.96, 132.95 -0.5 M62.36 86.25 C85.74 56.93, 110.14 29.64, 136.19 0.81 M64.1 85.78 C84.77 61.29, 103.95 37.31, 136.89 0.49 M70.88 84.72 C96.89 52.37, 124.34 23.9, 137.96 6.98 M69.98 85.79 C85.47 65.35, 102.27 46.96, 137.5 7.16 M74.07 83.57 C94.28 63.99, 110.26 42.67, 136.25 12.25 M74.11 85.07 C87.95 68.3, 102.39 52.98, 136.87 12.58 M81.1 83.37 C95.74 68.32, 109.27 47.53, 138.07 17.94 M80.57 85.7 C92.95 68.7, 108.17 51.28, 137.18 19.71 M83.85 84.53 C100.54 67.71, 119.51 46.94, 138.63 26.74 M85.4 86.3 C104.86 62.98, 124.56 37.9, 136.33 24.75 M90.9 84.62 C101.45 70.55, 113.34 60.71, 137.22 30.08 M91.22 84.3 C104.82 69.44, 118.51 53.99, 137.56 30.45 M95.49 85.66 C110.08 67.16, 124.44 49.44, 135.28 37.38 M94.71 85.12 C109.45 71.04, 121.48 54.42, 138.01 36.25 M100.06 83.95 C114.92 70.55, 128.41 52.35, 138.85 43.94 M101.82 84.9 C111.76 71.53, 122.82 58.73, 136.82 42.03 M104.9 85.13 C117.06 71.35, 129.95 56.64, 137.3 47.93 M105.99 85.48 C114.42 74.55, 123.44 64.6, 136.43 50.11 M113.42 85.23 C118.59 78.69, 125.5 70.95, 137.84 54.24 M111.95 84.36 C116.97 77.24, 123.48 70.46, 136.68 54.9 M116.75 85.77 C119.57 80.3, 124.57 75.11, 139.51 59.78 M116.04 85.65 C122.75 77.05, 129.62 69.57, 137.43 61.18 M122.96 86.76 C125.84 78.67, 130.5 73.75, 137.13 68.83 M121.92 84.07 C125.73 81.18, 130.52 76.25, 138.04 67.28 M126.06 85.73 C129.98 82.45, 132.54 79.86, 137.81 74.48 M126.95 85.81 C130.12 82.4, 131.85 79.82, 138.39 73.73 M133.14 84.37 C133.98 84.16, 134.4 83.01, 137.55 79.54 M133.13 84.99 C134.45 83.64, 135.21 81.64, 137.62 79.36" stroke="#15aabf" stroke-width="0.5" fill="none"></path><path d="M-0.14 -1.94 C32.36 1.85, 64.31 -1.32, 135.09 -1.89 M0.78 -0.51 C41.33 -1.68, 83.77 -0.24, 137.52 -0.98 M138.7 1.21 C136.63 26.31, 137.82 52.59, 137.66 86.7 M137.82 0.25 C136.74 20.76, 136.68 39.78, 137.61 84.39 M137.86 83.14 C95.99 86.46, 55.44 83.17, -1.12 83.51 M136.85 85.1 C104.94 85.78, 70.97 86.65, -0.01 85.47 M0.1 86.36 C1.04 54.25, -0.22 23.16, 0.22 0.9 M-0.08 85.62 C-0.08 57.04, 0.29 29.36, 0.37 0.12" stroke="#000000" stroke-width="1" fill="none"></path></g><g transform="translate(379.07518453803885 126.96672122131008) rotate(0 53 37.5)"><text x="53" y="17" font-family="Virgil, Segoe UI Emoji" font-size="20px" fill="#000000" text-anchor="middle" style="white-space: pre;" direction="ltr">Generate </text><text x="53" y="42" font-family="Virgil, Segoe UI Emoji" font-size="20px" fill="#000000" text-anchor="middle" style="white-space: pre;" direction="ltr">Report or</text><text x="53" y="67" font-family="Virgil, Segoe UI Emoji" font-size="20px" fill="#000000" text-anchor="middle" style="white-space: pre;" direction="ltr">Dashboard</text></g><g stroke-linecap="round" transform="translate(321.02408054702 272.9369761993594) rotate(0 79.5 30)"><path d="M0 0 C0 0, 0 0, 0 0 M0 0 C0 0, 0 0, 0 0 M-0.92 6.09 C1.25 3.99, 2.87 2.26, 4.78 0.14 M-0.32 6.26 C0.83 4.91, 1.78 4.17, 4.66 0.51 M0.17 11.5 C4.16 9.51, 7.92 4.63, 10.77 0.38 M-0.66 12.12 C2.83 9.42, 4.67 5.8, 10.34 0.66 M1.34 16.57 C7.43 11.24, 11.1 4.26, 14.47 0.15 M0.46 18.99 C5.89 11.33, 11.8 5.74, 15.43 -0.15 M-1.43 22.49 C6.96 17.03, 11.49 12.25, 20.94 -1.51 M0.21 23.43 C6.68 16.95, 14.17 9.07, 21.29 -0.09 M-1.96 32.25 C5.24 24.13, 13.58 18.81, 26.42 0.5 M0.35 29.79 C9.62 18.72, 21.27 7.19, 25.55 -0.58 M-1.19 35.44 C7.1 27.04, 18.68 17.02, 32.24 -1.7 M0.73 36.14 C10.35 25.47, 19.67 12.77, 32.13 -0.42 M-0.1 42.34 C8 33.11, 17.38 25.84, 38.61 -0.79 M0.06 43.1 C9.24 31.41, 18.81 20.79, 35.93 -0.1 M1.38 48.16 C14.36 32.58, 29.6 13.23, 42.96 -0.44 M-0.04 49.65 C13.65 31.6, 29.2 14.92, 43.06 0.78 M2.04 55.62 C9.84 42.89, 24.85 29.57, 45.74 0.73 M0.45 54.33 C17.31 35.39, 34.95 16.7, 47.52 0.98 M1.85 58.22 C19.79 37.94, 41.19 15.59, 52.74 -0.99 M1.41 60.09 C15.97 43.6, 29.31 27.47, 53.44 0.17 M6.23 59.89 C17.81 50.11, 27.39 34.97, 56.9 1.6 M4.69 60.51 C23.33 40.65, 39.62 20.83, 57.8 0.51 M11.36 60.73 C31.76 38.12, 50.31 14.93, 64.62 0.48 M10.33 59.2 C30.56 39.06, 47.75 18.45, 64.65 -0.89 M16.39 60.13 C29.65 46.07, 39.15 31.75, 69.59 0.43 M16.71 61.45 C27.93 47.01, 38.55 34.12, 67.82 -0.4 M22.47 58.74 C39.47 36.15, 62.21 17.25, 75.07 0.9 M22.48 59.82 C32.85 47.07, 43.34 35.98, 75.14 0.64 M28.6 60.41 C48.45 37.03, 69.98 14.24, 79.73 -0.04 M26.28 60.67 C40.97 44.08, 56.77 26.55, 79.17 -0.49 M31.95 60.11 C47.17 41.7, 63.76 25.97, 83.95 0.27 M32 59.67 C53.2 36.13, 73.37 11.35, 85.39 0.54 M35.61 61.89 C50.99 42.99, 64.52 29.92, 91.64 1 M38.45 60.36 C57.11 37.17, 78.25 13.4, 90.97 0.74 M44.99 58.79 C58.46 43.96, 70.86 28.62, 96.53 -0.27 M42.6 59.67 C60.3 40.84, 76 22.69, 94.94 0.26 M47.56 58.8 C63.81 41.43, 82.32 23.12, 100.03 0.45 M47.31 60.44 C62.63 44.37, 76.24 28.02, 100.92 -0.03 M52.55 61.55 C70.22 42.66, 86.97 21.83, 105.49 -0.53 M53.87 61.71 C65.63 46.13, 79.16 32.21, 105.36 -0.04 M58.01 60.47 C76.61 39.42, 93.95 21.73, 112.04 1.33 M59 59.5 C70.18 45.16, 82.79 32.26, 112.24 -0.9 M63.93 59.02 C78.48 40.94, 94.55 23.34, 116.25 1.54 M62.89 60.61 C81.65 42.06, 98.18 22.31, 116.63 0.28 M69.9 61.33 C89.41 36.69, 105.9 17.89, 121.21 -1.27 M68.72 59.86 C81.91 46.9, 94.66 31.24, 122.71 0.23 M72.89 60.18 C94.84 37.48, 115.92 15.64, 127.61 0.84 M75.37 61.66 C93.27 38.19, 113.62 14.21, 126.73 0.28 M81.6 58.89 C93.99 44.31, 105.33 32.96, 133.46 1.83 M79.69 60.51 C92.42 46.3, 104.01 32.71, 131.64 0.65 M86.25 59.33 C101.02 43.1, 116.92 23.16, 137.82 -0.39 M85.17 60.58 C101.97 42.61, 115.54 24.66, 136.73 0.98 M88.89 59.77 C102.12 48.04, 115.47 34.45, 145.16 -0.07 M90.2 60.18 C102.83 47.99, 113.71 35.59, 142.91 -0.13 M97.23 58.9 C109.41 44.08, 127.75 24.11, 149.17 -1.58 M94.74 61.33 C107.16 47.26, 119.41 32.21, 148.39 -0.63 M102.94 61.68 C118.53 42.01, 137.41 20.13, 153.06 0.41 M100.59 60.28 C120.82 37.97, 140.59 15.42, 153.93 0.58 M107.46 59.38 C119 45.4, 131.48 32.21, 157.37 -1.05 M106.06 61.05 C117.51 47.75, 129.01 33.46, 158.53 0.13 M112.33 59.42 C123.12 44.67, 136.25 33.36, 159.07 4.76 M112.22 59.93 C127.71 41.31, 144.03 22.38, 159.42 5.75 M116.97 61.37 C130.91 47.62, 141.06 31.14, 159.04 14.05 M117.63 61.07 C132.34 43.21, 147.81 25.1, 159.51 12.71 M121.05 58.87 C135.2 44.35, 149.1 29.71, 158.75 18.57 M122.53 60.95 C136.99 44.73, 151.34 27.81, 158.88 17.47 M126.22 59.57 C134.25 52.87, 143.15 42.41, 157.2 25.51 M127.55 59.96 C135.17 53.93, 140.41 45.02, 159.73 24.14 M134.49 59.03 C140.19 51.1, 147.05 43.9, 158.67 30.2 M133.97 60.87 C141.5 50.46, 151.89 39.96, 158.97 30.78 M138.03 60.75 C144.35 50.59, 154.76 44.1, 159.77 38.28 M138.42 60.45 C141.94 54.99, 146.28 50.02, 159.16 36.2 M145.46 61.98 C146.82 57.54, 151.25 49.69, 158.53 41.9 M143.08 59.92 C148.1 54.69, 153.6 49.54, 158.59 43.7 M147.91 61.53 C151.56 55.04, 156.71 52.31, 159.93 46.8 M148.5 60.51 C152.34 57.8, 155.52 54.2, 158.9 48.38 M155.07 59.67 C156.3 58.67, 156.86 56.02, 158.85 54.61 M154.8 60.06 C155.79 58.75, 156.23 57.88, 159.13 54.76" stroke="#15aabf" stroke-width="0.5" fill="none"></path><path d="M0.81 -0.89 C63.39 1.53, 126.85 -2.11, 160.42 -0.79 M-0.67 0.25 C40.96 0.7, 83 1.09, 159.95 0.16 M157.71 0.38 C160.44 17.33, 159.79 40.28, 158.53 59.87 M159.34 0.14 C158.55 15.23, 158.28 30.68, 159.6 59.51 M159.44 60.91 C120.1 59.38, 81.25 60.69, -1.23 60.76 M158.29 59.95 C111.18 59.56, 65.37 59, 0.27 59.15 M-1.59 60.47 C-0.28 43.02, 0.42 24.99, -1.79 0.86 M0.33 59.6 C-0.14 39.33, 0.43 17.97, 0.54 -0.61" stroke="#000000" stroke-width="1" fill="none"></path></g><g transform="translate(340.52408054702 277.9369761993594) rotate(0 59.5 25)"><text x="59.5" y="17" font-family="Virgil, Segoe UI Emoji" font-size="20px" fill="#000000" text-anchor="middle" style="white-space: pre;" direction="ltr">Statistical </text><text x="59.5" y="42" font-family="Virgil, Segoe UI Emoji" font-size="20px" fill="#000000" text-anchor="middle" style="white-space: pre;" direction="ltr">Analysis</text></g><g stroke-linecap="round" transform="translate(26.99820977129849 359.9100220250266) rotate(0 19.67338150265516 16.00252365737572)"><path d="M0 0 C0 0, 0 0, 0 0 M0 0 C0 0, 0 0, 0 0 M-0.88 6.44 C2.34 3.75, 3.54 1.61, 4.97 0.77 M-0.28 6.77 C1.47 4.29, 2.78 2.63, 4.64 -0.02 M1.6 12.87 C2.47 8.22, 7.24 4.09, 9.75 0.61 M-0.24 11.5 C2.99 7.65, 7.21 4.4, 10.21 -0.32 M0.27 18.1 C6.06 14.18, 11.54 7.39, 14.31 1.8 M-0.78 17.6 C3.23 13.78, 7.96 8.86, 16.61 0.5 M2.08 23.41 C6.02 15.72, 12.21 8.45, 20.36 -0.89 M0.61 24.5 C6.29 17.19, 11.66 9.87, 22.05 -0.35 M0.21 32.04 C9.96 20.63, 19.04 10.81, 26.18 -0.03 M-0.93 31.32 C7.95 21.71, 16.9 11.37, 26.58 0.22 M1.6 33.89 C11.35 26.26, 18.01 17.02, 29.95 -1.78 M2.05 33.39 C11.03 23.69, 18.77 14.56, 32.28 -0.53 M8.49 34.68 C19.97 22.04, 29.67 8.07, 35.38 2.2 M8.26 33.63 C15.27 24.48, 25.4 13.25, 35.9 0.29 M14.79 32.41 C25.62 20.46, 33.91 7.08, 40.74 2.21 M13 34.66 C18.91 27.11, 24.41 19.41, 41.77 1.27 M17.81 34.28 C24.2 25.17, 31.33 18.93, 40.59 6.45 M17.7 34.21 C22.81 27.04, 30.46 20.15, 40.47 8.2 M23.22 32.33 C28.62 27.8, 34.08 19.58, 40.04 13.87 M23.92 34.49 C29.07 25.8, 36.2 19.46, 40.97 13.54 M28.92 33.48 C29.45 31.35, 34.1 27.69, 41.99 18.29 M28.99 34.66 C33.27 29.31, 38.42 23.59, 40.88 20.06 M33.82 34.51 C36.85 30.52, 38.52 27.91, 40.89 26.19 M33.8 34.11 C36.44 31.23, 38.31 29.51, 41.31 25.9" stroke="#15aabf" stroke-width="0.5" fill="none"></path><path d="M-0.25 1.64 C16.59 -0.46, 27.68 -1.48, 37.54 0.58 M-0.99 0.44 C15.58 -0.09, 30.75 0.67, 39.51 0.45 M37.65 -1.03 C39.92 9.34, 38.8 21.71, 38.18 32.56 M39.52 -0.5 C39.18 7.57, 39.63 14.12, 38.4 32.68 M38.83 30.41 C25.01 32.01, 10.5 31.97, 0.7 31.39 M39.79 31.5 C25.27 31.2, 11.22 32.27, 0.83 31.47 M-1.42 31.37 C-1.16 23.18, -0.42 9.85, 1.35 -1.91 M-0.87 31.39 C-0.27 23.95, -0.55 15.16, 0.42 -0.02" stroke="#000000" stroke-width="1" fill="none"></path></g><g stroke-opacity="0.5" fill-opacity="0.5" transform="translate(79.39687153447727 366.61927828859416) rotate(0 231.5 12.5)"><text x="0" y="17" font-family="Virgil, Segoe UI Emoji" font-size="20px" fill="#000000" text-anchor="start" style="white-space: pre;" direction="ltr">Manual / Science Focused / Short Lived Code </text></g></svg>