<svg version="1.1" xmlns="http://www.w3.org/2000/svg" viewBox="0 0 1526.330929060051 708.8992255556377" width="1526.330929060051" height="708.8992255556377">
  <!-- svg-source:excalidraw -->
  
  <defs>
    <style class="style-fonts">
      @font-face {
        font-family: "Virgil";
        src: url("https://excalidraw.com/Virgil.woff2");
      }
      @font-face {
        font-family: "Cascadia";
        src: url("https://excalidraw.com/Cascadia.woff2");
      }
    </style>
  </defs>
  <g stroke-linecap="round" transform="translate(708.354012608685 492.67264735855724) rotate(0 83 35.5)"><path d="M0 0 C0 0, 0 0, 0 0 M0 0 C0 0, 0 0, 0 0 M-0.47 6.23 C1.58 5.22, 3.44 3.08, 4.87 0.48 M0.01 6.08 C0.71 4.89, 1.95 3.68, 5.18 0.75 M-1.41 11.62 C4.15 8.46, 5.54 4.17, 11.92 -0.95 M-0.27 11.28 C2.51 8.54, 5.55 4.87, 10.32 0.02 M-0.2 19.52 C5 10.85, 9.77 5.42, 17.39 1.63 M-0.91 18.38 C2.91 12.82, 7.21 8.57, 16.15 1.12 M1.82 25.56 C3.53 18.29, 8.85 13.61, 21.02 1.52 M-0.38 24.29 C6.47 15.36, 14.15 7.11, 21.24 0.02 M-0.61 31.96 C5.85 23.83, 14.59 17.64, 24.87 -0.88 M0.84 31.18 C7.87 20.58, 15.84 10.32, 26.05 -0.55 M-1.44 38.47 C8.64 29.21, 16.28 16.94, 31.78 -0.83 M0.69 36.19 C11.17 25.44, 21.43 12.03, 32.85 -1.08 M1.39 42.5 C11.51 30.53, 22.44 15.71, 37.62 0.5 M-0.51 43.04 C11.56 28.93, 22.46 15.96, 37.34 -0.64 M1.09 49.26 C16.9 31.39, 33.29 11.36, 43.47 -0.06 M-1.12 48.81 C11.57 34.78, 24.9 21.44, 41.89 0.53 M1.62 56.47 C11.1 41.13, 18.51 30.88, 47.54 -1.73 M0.44 54.21 C17.07 36.38, 33.16 18.64, 47.24 -0.35 M1.53 60.29 C10.51 46.43, 21.21 33.42, 53.42 0.14 M-0.67 60.11 C12.98 45.66, 26.95 30.42, 53.72 -1.15 M1.64 68.02 C23.83 41.15, 45.5 18.09, 57.93 0.02 M-1.05 67.86 C12.42 51.37, 28.22 35.92, 59 -0.21 M0.72 71.51 C20.03 49.1, 36.81 27.79, 63.4 -1.87 M0.52 71.25 C17.12 53.65, 33.13 34.52, 63.27 -0.91 M7.95 71.61 C20.67 56.82, 31.76 43.02, 69.51 -1.6 M6.38 72.59 C23.75 51.96, 39.9 32.14, 68.96 0.96 M13.42 74.16 C30.45 52.65, 46.99 28.43, 73.57 0.38 M10.5 71.28 C24.83 56.68, 36.66 42.54, 73.99 0.65 M18.31 70.6 C33.61 52.23, 46.46 35.71, 78.37 1.2 M17.48 72.01 C29.81 58, 42.59 43.47, 79.47 1.04 M22.77 72.45 C44.38 44.61, 64.49 22.91, 84.48 -0.53 M22.37 71.85 C44.38 46.29, 68.07 18.99, 84.9 0.14 M26.23 71.21 C51.73 46.27, 76.58 17.4, 90.05 1.28 M27.88 71.71 C43.21 55.16, 57.85 38.74, 89.93 -0.37 M31.18 72.37 C54.04 45.88, 77.18 21.35, 95.13 0.05 M32.09 72.98 C49.57 52.66, 67.48 32.17, 95.55 0.38 M39.55 71.24 C52.64 55.05, 68.73 34.5, 101.47 -1.42 M37.69 70.94 C56.02 52.72, 70.87 33.06, 99.81 1.02 M44.45 71 C58.49 54.33, 70.19 39.85, 104.88 0.88 M43.68 71.4 C60.14 52.33, 75.97 32.47, 107.05 -0.61 M50.53 70.55 C66.99 53, 83.7 30.97, 110.96 -1.83 M48.59 72.14 C64.28 54.39, 80.57 36.03, 111.6 -0.81 M53.77 70.51 C69.02 52.19, 86.05 34.36, 114.86 1.56 M54.2 71.54 C74.02 50.07, 92.34 30.09, 116.38 0.15 M57.82 73.12 C71.44 55.25, 83.97 42.41, 120.27 0.19 M58.78 71.99 C73.71 56.28, 87.52 40.47, 121.86 0.86 M65.78 72.19 C79.16 54.71, 94.75 37.78, 128.58 1.51 M64.78 72.54 C85.26 47.32, 106.74 22.91, 126.06 0.56 M68.51 73.02 C95.81 44.12, 117.86 17.17, 132.53 1.87 M70.04 72.34 C86.87 52.66, 104.93 31.47, 132.17 0.41 M76.48 70.38 C88.86 56.96, 105.44 38.76, 137.98 -1.46 M75.55 71.24 C87.36 57.98, 100.65 42.68, 137.18 1.01 M80.05 72.4 C95.15 56.96, 110.13 39.89, 142.29 -0.45 M80.65 71.26 C104.09 42.82, 129.26 14.28, 142.18 -1.05 M85.3 70.54 C99.41 54.19, 114.68 37.41, 148.07 -0.24 M86.73 71.17 C104.41 52.59, 122.34 32.14, 149.03 0.34 M90.33 71.52 C114.8 43.53, 141.89 14.19, 153.52 -1.35 M92.48 72 C115.49 43.01, 142.15 13.58, 154.58 -0.7 M97.08 71.23 C116.15 49.88, 135.77 27.94, 158.25 0.4 M95.58 71.59 C111.85 55.06, 126.49 37.29, 159.44 -0.44 M102.97 71.48 C117.92 54.87, 134.53 34.7, 165.58 -0.31 M101.27 72.81 C114.94 56.76, 129.05 39.94, 164.11 -1.05 M108.05 70.09 C121.99 53.58, 136.67 36.83, 167.04 3.28 M107.38 72.43 C126.89 48.85, 147.15 26.72, 168.48 2.44 M111.99 73.21 C131.22 49.16, 152.06 25.21, 168.02 8.59 M112.28 72.85 C124.56 58.01, 138.29 42.2, 167.33 7.43 M115.86 73.86 C136.28 46.36, 156.02 23.14, 168.77 14.88 M118.48 71.36 C128.98 58.39, 141.17 46.57, 168.22 14.46 M123.82 72 C139.98 52.5, 156.5 33.83, 168.96 21.52 M123.35 71.74 C136.64 56.03, 148.98 42.1, 168.01 20.11 M129.55 72.37 C139.45 57.03, 151.84 44.88, 166.62 24.88 M129.29 72.72 C135.92 62.61, 144.84 52.58, 168.67 27.46 M133.97 72.48 C145.63 57.67, 154.84 46.56, 169.25 32.51 M132.51 71.56 C143.2 61.11, 153.54 48.32, 168.3 32.86 M139.6 72.53 C147.42 62.19, 158.43 49.39, 166.92 39.37 M139.23 72.57 C146.9 62.76, 153.19 54.95, 167.15 37.77 M144.35 71.37 C151.34 65.01, 156.85 56.85, 169.89 42.45 M144.36 72.61 C150.29 64.82, 157.39 56.89, 169.13 43.99 M147.86 72.39 C155.07 65.9, 159.21 61.03, 166.46 48.8 M149.79 71.66 C153.89 66.35, 157.95 61.98, 168.59 51.2 M153.28 71.49 C157.41 66.38, 160.26 62.29, 168.62 58.1 M155.03 72.36 C158.93 67.39, 160.82 64.69, 167.82 56.27 M161.06 71.31 C162.11 68.72, 166.1 65.93, 168.71 62.83 M159.8 72.18 C163.13 68.94, 165.64 65.19, 168.71 62.87" stroke="#fab005" stroke-width="0.5" fill="none"></path><path d="M-0.25 -0.69 C65.48 -1.7, 127.69 1.46, 165.72 1.77 M-0.34 0.75 C63.57 -1.33, 125.56 -0.11, 165.11 -0.52 M165.93 -1.22 C167.55 15.45, 165.68 30.28, 167.04 70.67 M165.19 -0.31 C165.66 15.12, 165.59 31.33, 166.54 70.09 M164.02 72.17 C120.9 69.19, 75.44 71.27, -0.48 72.9 M165.27 70.07 C119.98 70.78, 74.35 69.97, 0.13 71.55 M1 72.82 C-1.58 49.48, 1.52 26.83, 1.36 -0.52 M-0.09 70.66 C-0.87 52.01, -0.77 33.17, -0.5 -0.72" stroke="#000000" stroke-width="1" fill="none"></path></g><g transform="translate(763.3540126086848 515.6726473585572) rotate(0 28 12.5)"><text x="28" y="17" font-family="Virgil, Segoe UI Emoji" font-size="20px" fill="#000000" text-anchor="middle" style="white-space: pre;" direction="ltr">Model</text></g><g stroke-opacity="0.5" fill-opacity="0.5" transform="translate(687.5607200090847 148.8235854713662) rotate(0 95 22.5)"><text x="0" y="32" font-family="Virgil, Segoe UI Emoji" font-size="36px" fill="#000000" text-anchor="start" style="white-space: pre;" direction="ltr">Train/Eval</text></g><g stroke-opacity="0.5" fill-opacity="0.5" transform="translate(640.319642648737 413.16865196677236) rotate(0 161 22.5)"><text x="0" y="32" font-family="Virgil, Segoe UI Emoji" font-size="36px" fill="#000000" text-anchor="start" style="white-space: pre;" direction="ltr">Production/Serving</text></g><g stroke-linecap="round" transform="translate(704.4619078623721 212.43104479198018) rotate(0 83 35.5)"><path d="M0 0 C0 0, 0 0, 0 0 M0 0 C0 0, 0 0, 0 0 M0.29 6.32 C0.92 4.53, 4.14 1.55, 5.22 -0.36 M-0.28 6.43 C0.78 4.85, 2.61 3.46, 4.73 0.18 M-1.2 10.65 C2.87 9.33, 6.82 7.47, 9.37 0.76 M0.86 12.29 C2.31 9.26, 6.12 5.45, 10.81 -0.44 M0.19 18.44 C2.29 13.3, 4.62 9.59, 14.16 1.71 M0.54 18.59 C3.09 15.32, 7.03 10.91, 15.25 0.88 M1.05 22.97 C6.06 15.56, 15.95 8.39, 22.34 -1.89 M-0.55 23.55 C6.35 17.6, 12.23 10.46, 21.96 -0.19 M-1.77 30.07 C7.85 18.1, 19.15 10.29, 24.9 0.82 M-0.24 29.58 C5.89 22.48, 12.92 14.65, 26.94 -0.4 M-2.09 35.48 C13.53 23.32, 25.03 8.61, 32.23 -1.15 M0.32 36.7 C9.16 26.47, 18.38 14.19, 31.42 -0.78 M1.21 41.83 C7.38 32.78, 16.67 25.07, 38.45 -1.27 M-0.62 42.85 C7.66 33.8, 16.67 23.63, 36.22 0.3 M0.15 50.01 C13.54 32.98, 27.89 16.12, 42.65 1.46 M0.21 49.11 C11.75 36.25, 22.22 22.83, 43.51 -0.93 M2.21 52.89 C12.78 39.76, 23.48 28.39, 45.55 1.67 M0.14 54.37 C13.65 39.86, 25.72 25.27, 47.11 -0.7 M-1.01 62.45 C18.75 41.44, 37 19.79, 54.67 0.63 M0.93 60.39 C20 38.45, 38.82 15.1, 52.24 0.31 M-1.25 67.57 C13.49 53.39, 24.05 36.97, 57.06 1.3 M-0.19 66.4 C14.63 50.82, 28.39 35.03, 57.84 -0.08 M-0.94 72.56 C15.94 54.25, 32.87 36.79, 64.44 1.45 M1.78 71.69 C18.89 52.46, 36.9 31.35, 64.31 0.43 M7.98 70.78 C27.62 49.09, 44.9 24.76, 69.91 0.67 M7.4 71.94 C27.47 48.09, 47.31 25.14, 67.82 -0.43 M11.6 73.7 C36.18 45.49, 58.92 18.44, 73.17 1.43 M11.83 72.4 C29.68 50.35, 50.88 28.14, 74.1 0.48 M16.98 72.67 C35.83 54.26, 50.5 34.22, 81.15 0.22 M16.47 72.37 C40.48 43.74, 65.34 14.3, 78.69 0.69 M20.94 70.52 C40.78 52.92, 56.1 35.24, 85.22 0.49 M21.28 72.84 C45.89 44.3, 71.65 16.16, 84.73 0.04 M27.26 70.57 C53 43.71, 74.94 17.94, 89.9 -0.17 M28.61 72.36 C42.3 56.48, 56.07 39.84, 89.27 -0.25 M31.34 71.76 C49.51 52.8, 64.28 36.08, 94 -1.06 M33.41 72.07 C55.8 47.93, 76.66 21.28, 95 0.26 M37.39 73.65 C55.66 49.65, 75.76 30.71, 99.37 0.76 M39.08 71.62 C55.52 52.75, 72.41 31.49, 100.6 0.3 M43.13 71.56 C63.43 49.43, 82.51 28, 108.04 -0.5 M43.7 72.18 C58.7 53.97, 76.73 34.12, 106.43 -1.2 M48.99 73.53 C67.76 52.19, 85.56 29.69, 110.9 -0.3 M49.82 72.38 C70.14 45.52, 91.99 20.26, 110.91 -0.09 M54.76 71.48 C69.59 54.99, 84.55 34.5, 116.28 2.05 M54.8 71.31 C70.65 53.86, 87.4 35.13, 115.57 -0.35 M60.81 70.2 C83.04 46.44, 106.3 18.14, 121.88 -1.28 M60.49 72.44 C80.08 47.25, 101.24 23.22, 122.64 -0.8 M64.77 70.48 C80.65 52.41, 98.5 37.47, 128.76 -1.37 M63.6 72.64 C84.75 50.33, 102.92 28.17, 127.64 1.09 M70.69 70.08 C87.66 51.25, 110.16 26.9, 131.83 -0.69 M69.44 72.13 C83.35 54.32, 99.82 36.79, 133.45 0.87 M73.77 70.91 C98.87 46.45, 122.42 17.65, 138.6 -0.07 M76.19 71.43 C91.54 53.32, 108.06 36.11, 137.62 1.17 M81.54 71.98 C100.38 50.96, 114.89 32.37, 144.33 0.37 M80.72 71.34 C101.79 47.47, 120.61 24, 143.16 0.61 M86.5 72.55 C103.13 53.34, 117.35 32.84, 146.71 -1.71 M86.83 71.94 C108.1 45.74, 131.08 20.12, 147.82 -0.22 M91.38 73.12 C113.69 41.81, 142.24 12.37, 153.08 0.2 M91.09 72.5 C106.33 54.76, 120.85 37.92, 152.83 0.21 M97.77 70.57 C119.51 42.44, 146.78 14.56, 159.08 -1.52 M97.03 72.51 C110.58 56.19, 123.42 39.41, 158.26 0.33 M102.68 71.9 C123.01 47.36, 144.22 21.18, 163.87 -1.5 M102.36 72.35 C117.86 53.98, 134.2 34.77, 163.72 0.47 M106.49 73.57 C123.28 52.98, 135.93 37.39, 167.47 1.16 M106.47 72.52 C130.94 45.26, 155.97 18.22, 168.38 2.3 M110.95 70.83 C124.47 56.49, 138.29 42.07, 169.35 6.7 M113.02 71.89 C123.55 57.78, 136.3 44.42, 167.07 8.56 M117.67 73.51 C136.09 50.25, 153.24 31.49, 170.19 14.96 M118.04 71.38 C136.34 52.93, 152.02 31.55, 168.72 14.24 M122.83 71.11 C133.17 59.73, 144.75 46.46, 169.43 20.78 M123.26 71.96 C132.7 62.08, 141.29 50.77, 167.46 19.85 M128.39 71.81 C134.68 61.71, 144.57 51.11, 169.03 28.03 M128.84 71.58 C142.98 55.23, 158.23 37.87, 166.95 26.4 M132.72 71.59 C139.04 64.06, 148.52 55.94, 169.46 32.9 M132.68 73.18 C143.12 60.07, 153.79 47.88, 168.03 32.54 M137.85 73.26 C143.86 62.31, 152 55.34, 167.67 37.25 M139.17 71.62 C147.01 63.79, 152.94 55.68, 167.22 38.88 M144.11 71.53 C149.87 62.99, 159.07 53.88, 167.61 44.38 M144.53 71.7 C152.26 62.19, 161.12 52.92, 168.86 43.62 M149.34 72.07 C157.05 62.93, 162.62 58.5, 166.91 52.15 M149.53 71.08 C156.59 63.86, 163.39 55.33, 168.42 50.58 M155.58 72.58 C157.48 68.13, 163.11 62.29, 167.46 56.73 M154.8 72.25 C158.28 68.24, 162.17 63.14, 168.56 56.89 M160.24 70.6 C163.4 68.56, 165.87 65.98, 168.83 62.23 M159.87 71.62 C161.87 69.34, 164.65 66.98, 167.92 62.99" stroke="#fab005" stroke-width="0.5" fill="none"></path><path d="M0.16 -1.11 C55.73 -1.47, 108.2 -0.24, 166.81 0.14 M-0.67 -0.45 C47.2 -0.29, 93.46 -1.47, 166.51 0.77 M165.85 -1.47 C166.63 26.38, 165.57 54.78, 164.92 72.45 M165.11 -0.42 C167.1 16.56, 166.7 31.87, 165.88 70.94 M167.57 71.46 C127.38 68.5, 88.42 71.17, 0.5 69.24 M166.73 71.55 C102.76 72.13, 39.61 72.08, -0.34 70.96 M0.48 69.62 C2.02 49.12, 0.84 26.76, 0.2 1.57 M-0.68 71.99 C0.27 43.74, -0.79 15.72, -0.76 -0.95" stroke="#000000" stroke-width="1" fill="none"></path></g><g transform="translate(759.4619078623718 235.43104479198018) rotate(0 28 12.5)"><text x="28" y="17" font-family="Virgil, Segoe UI Emoji" font-size="20px" fill="#000000" text-anchor="middle" style="white-space: pre;" direction="ltr">Model</text></g><g stroke-opacity="0.5" fill-opacity="0.5" transform="translate(11.132831442132328 489.91427629098143) rotate(0 110 17.5)"><text x="0" y="25" font-family="Virgil, Segoe UI Emoji" font-size="28px" fill="#000000" text-anchor="start" style="white-space: pre;" direction="ltr">Live/Prod Data</text></g><g stroke-opacity="0.5" fill-opacity="0.5" transform="translate(10 205.00174733768245) rotate(0 120 35.5)"><text x="0" y="24.5" font-family="Virgil, Segoe UI Emoji" font-size="28px" fill="#000000" text-anchor="start" style="white-space: pre;" direction="ltr">Offline Dataset </text><text x="0" y="60" font-family="Virgil, Segoe UI Emoji" font-size="28px" fill="#000000" text-anchor="start" style="white-space: pre;" direction="ltr">(Train/Val)</text></g><g stroke-opacity="0.5" fill-opacity="0.5" transform="translate(523.3079241901917 627.8992255556377) rotate(0 102.5 35.5)"><text x="102.5" y="24.5" font-family="Virgil, Segoe UI Emoji" font-size="28px" fill="#000000" text-anchor="middle" style="white-space: pre;" direction="ltr">Pre-processed </text><text x="102.5" y="60" font-family="Virgil, Segoe UI Emoji" font-size="28px" fill="#000000" text-anchor="middle" style="white-space: pre;" direction="ltr">Data</text></g><g stroke-opacity="0.5" fill-opacity="0.5" transform="translate(82.9651651755301 627.1207087889265) rotate(0 38.5 35.5)"><text x="38.5" y="24.5" font-family="Virgil, Segoe UI Emoji" font-size="28px" fill="#000000" text-anchor="middle" style="white-space: pre;" direction="ltr">Raw</text><text x="38.5" y="60" font-family="Virgil, Segoe UI Emoji" font-size="28px" fill="#000000" text-anchor="middle" style="white-space: pre;" direction="ltr">Data</text></g><g stroke-opacity="0.5" fill-opacity="0.5" transform="translate(1263.7990480749663 609.9592143354794) rotate(0 107.5 35.5)"><text x="107.5" y="24.5" font-family="Virgil, Segoe UI Emoji" font-size="28px" fill="#000000" text-anchor="middle" style="white-space: pre;" direction="ltr">Post-Processed</text><text x="107.5" y="60" font-family="Virgil, Segoe UI Emoji" font-size="28px" fill="#000000" text-anchor="middle" style="white-space: pre;" direction="ltr">Predictions</text></g><g stroke-opacity="0.5" fill-opacity="0.5" transform="translate(83.72416317803942 10) rotate(0 321 45.5)"><text x="321" y="31.5" font-family="Virgil, Segoe UI Emoji" font-size="36px" fill="#000000" text-anchor="middle" style="white-space: pre;" direction="ltr">Use the Same Pre/Post Processing </text><text x="321" y="77" font-family="Virgil, Segoe UI Emoji" font-size="36px" fill="#000000" text-anchor="middle" style="white-space: pre;" direction="ltr">Across Training And Serving</text></g><g stroke-opacity="0.5" fill-opacity="0.5" stroke-linecap="round" transform="translate(347.63786966961374 192.95293862723383) rotate(0 103.5 186)"><path d="M0 0 C0 0, 0 0, 0 0 M0 0 C0 0, 0 0, 0 0 M-0.46 6.05 C1.1 5.12, 3 3.51, 5.78 -0.44 M-0.4 6.67 C1.78 4.2, 2.94 2.25, 4.87 0.75 M-0.4 10.83 C5.64 7.55, 8.32 3.57, 9.49 0.83 M0.63 12.84 C4.51 7.18, 8.4 3.86, 10.75 -0.56 M-0.02 17.04 C7.16 12.3, 11.11 5.05, 14.91 0.68 M0.41 17.89 C5.2 12.33, 12.04 4.41, 14.86 0.97 M0.98 25.77 C5.71 18.09, 9.53 11.61, 19.78 -0.92 M0.93 24.53 C6.27 17.33, 9.93 12.75, 21.76 0.89 M1.46 31.87 C11.04 19.69, 21.02 7.4, 27.73 2.06 M0.96 30.03 C5.65 23.18, 13.46 15.4, 26.18 0.53 M-0.31 38.77 C10.75 27.23, 17.15 15.86, 30.05 -1.46 M0.34 36.25 C8.44 25.36, 19.39 15.25, 31.46 -0.86 M1.18 41.49 C9.78 34.28, 17.16 24.04, 36.11 1.57 M-0.32 43.17 C9.33 32.44, 19.26 23.32, 36.84 -0.22 M0.7 47.95 C14.17 33.1, 28.23 15.35, 44.5 -0.56 M-1.08 49.01 C9.13 36.13, 19.93 24.39, 42.27 0.22 M0.74 54.79 C16.82 33.68, 35.63 11.54, 45.8 0.7 M-0.57 54.03 C14.25 40.08, 25.85 25.65, 47.7 1.01 M-1.74 60.42 C19.08 38.45, 41.85 13.07, 53.69 1.22 M-0.67 60.44 C16.55 40.28, 36.35 20.43, 53.82 0.34 M-0.82 68.84 C24.09 40.05, 46.95 16.14, 59.68 1.31 M-0.41 68.14 C20.45 43.58, 41.54 21.14, 57.37 0.08 M0.36 74.93 C22.79 47.43, 43.4 22.1, 64.28 0.7 M0.6 72.95 C20.99 49.05, 41.58 25.64, 63.91 0.74 M1.59 79.83 C26.66 49.64, 53.18 18.78, 67.69 -0.31 M-0.27 79.8 C20.74 56.12, 41.45 32.26, 69.13 -0.6 M2.08 84.65 C29.87 52.34, 59.73 19.42, 73.02 -1.87 M0.46 85.49 C21.71 60.91, 41.94 36.99, 73.57 0.72 M1.19 89.62 C28.61 55.64, 58.18 25.22, 80.9 0.54 M0.65 91.63 C17.36 71.1, 36.65 48.62, 79.97 0.9 M-1.07 95.88 C29.94 63.48, 58.5 26.87, 84.75 -0.85 M-0.32 97.35 C29.69 62.03, 61.22 28.03, 86.01 0.63 M-0.04 104.75 C28.03 72.57, 53.67 41.17, 89.44 -1.05 M0.01 102.54 C26.13 74.27, 50.69 44.44, 89.6 -0.91 M-0.5 111.1 C30.32 72.39, 64.78 33.63, 94.43 0.8 M-0.28 110.06 C22.14 84.34, 43.55 59.62, 95.67 -1.13 M1.95 115.13 C23.43 91.38, 42.38 69.33, 100.55 -1.56 M0.66 115.47 C29.52 84.2, 56.93 51.27, 101.42 -0.01 M-0.5 123.44 C38.82 75.98, 77.09 33.86, 105.09 1.55 M-0.26 120.98 C23.8 91.99, 49.31 61.58, 107.16 -1.14 M-1.31 128.85 C34.32 88.79, 65.62 53.51, 112.56 0.9 M-0.97 129.19 C29.93 96.35, 57.96 61.88, 111.52 0.21 M-1.62 135.69 C28.58 100, 59.24 65.78, 117.19 0.02 M0.31 133.27 C34.23 95.29, 69.28 55.9, 115.66 0.86 M1.72 139.15 C31.37 102.24, 64.56 65.98, 120.9 0.65 M0.67 140.23 C44.69 88.15, 90.56 35.67, 121.73 -0.12 M0.68 147.04 C46.27 95.61, 89 47.65, 125.27 1.97 M-0.36 145.61 C46.07 92.63, 92.22 41.34, 126.51 -0.12 M0.67 151.07 C43.05 101.81, 85.59 54.66, 132.13 -1.42 M-0.51 152.44 C45.97 102.33, 91.88 48.84, 132.53 -0.31 M1.22 159.71 C27.06 127.37, 56.68 93.1, 136.18 -1 M0.02 158.1 C47.26 105.03, 93.37 51.38, 138.22 1.15 M0.2 163.8 C31.73 130.25, 63.97 92.07, 141.92 -0.58 M0.85 164.92 C31.69 126.86, 67.04 87.16, 144.03 -0.18 M-1.21 170.62 C50.71 112.15, 100.48 51.47, 148.68 -1.1 M-0.45 171.62 C58.53 104.72, 115.59 38.63, 148.43 0.57 M0.57 178.16 C35.34 138.19, 68.48 99.35, 152.74 -0.9 M1 176.1 C47.16 123.21, 94.09 70.2, 153.57 -0.79 M-0.45 184.17 C41.43 138.15, 80.58 88.95, 157.39 0.86 M0.56 182.91 C37.64 138.83, 75.13 95.91, 159.52 -0.25 M-0.05 188.51 C45.66 133.54, 94.82 77.58, 164.34 0.94 M0.27 188.7 C48.62 132.31, 99.97 73.22, 165.09 -0.19 M0.72 194.36 C64.59 122.53, 127 51.38, 170.36 -1.01 M0.54 194.51 C44.19 143.92, 88.48 94.16, 168.86 0.89 M-1.34 201.52 C65.94 127.11, 129.91 55.66, 175.77 0.27 M-0.56 200.58 C35.63 158.89, 71.08 117.08, 174.72 -0.94 M-0.82 207.11 C61.71 135.43, 121.57 64.31, 180.72 0.08 M0.95 207.49 C68.93 127.74, 138.55 48.41, 179.78 -0.26 M-0.14 212.39 C41.01 164.03, 86.18 113.83, 187.03 -0.57 M-0.18 213.51 C52.15 155.18, 103.22 96.5, 184.96 0.43 M-1.62 219.66 C65.95 143.19, 129.52 67.71, 191.57 -0.85 M-0.81 220.21 C73.43 132.08, 148.39 47.67, 190.8 0.88 M1.01 226.19 C49.41 165.99, 101.31 108.11, 197.46 -0.69 M0.32 224.7 C74.59 140.17, 148.37 54.64, 197.01 0.02 M-0.37 232.06 C72.15 148.31, 145.44 64.44, 201.32 0.08 M-0.25 232.36 C45.59 182.05, 89.7 131.17, 201.52 -0.36 M1.42 238.36 C58.4 170.02, 117.83 101.77, 207.26 0.93 M0.86 237.49 C65.34 164.46, 128.31 90.88, 207.44 -0.22 M0.25 243.92 C66.16 170.88, 129.91 97.01, 209.49 1.12 M0.31 244.03 C54.51 180.52, 110.43 115.68, 209.76 1.96 M-0.12 249.37 C70.43 168.82, 138.72 90.13, 210.9 7.65 M-0.53 250.73 C49.97 194.04, 99.84 136.38, 210.03 8.09 M0.58 255.86 C65.29 181.74, 130.88 105.01, 209.52 14.03 M-0.1 256.37 C56.18 190.02, 114.96 122.8, 209.58 14.56 M-1.45 262.48 C54.54 199.53, 109.96 137.19, 211.04 19.38 M-0.23 262.62 C53.86 201.28, 107.74 139.54, 209.88 20.73 M1.69 268.75 C49.33 214.22, 97.73 159.38, 209.39 26.49 M0.12 267.39 C53.78 207.09, 107.97 147.18, 209.59 26.99 M0.46 272.98 C69.64 193.04, 140.54 113.09, 209.91 32.22 M-0.64 274.31 C54.88 214.2, 108.06 151.96, 209.99 32.69 M0.5 280.31 C70.24 202.21, 138.53 121.03, 209.18 38.9 M-0.41 280.44 C72.43 195.3, 146.98 109.23, 209.89 39.18 M-0.44 286.19 C55.38 224.43, 108.77 160.52, 210.7 45.61 M0.13 286.22 C48.72 231.13, 98.1 174.56, 210.54 44.44 M-0.49 291.88 C43.13 241.21, 87.19 190.97, 209.88 52.13 M0.11 292.09 C82.31 197.69, 164.94 104.98, 210.14 51.25 M1.09 297.22 C70.28 215.41, 143.2 133.39, 209.71 58.63 M-0.07 298.11 C82.55 203.07, 166.2 107.95, 210.14 57.63 M1.4 305.95 C57.87 240.16, 117.48 172.93, 209.01 63.05 M0.59 304.36 C68.19 224.78, 136.56 146.13, 210.14 62.61 M-0.11 309.95 C68.11 231.15, 135.64 152.46, 208.76 68.36 M-0.44 310.54 C50.19 252.36, 102.05 193.98, 209.14 69.88 M-0.92 316.12 C54.51 253.03, 108.47 190.52, 209.73 75.15 M0.38 316.8 C82.6 222.26, 164.28 128.4, 209.78 74.77 M1.23 324.13 C74.75 236.76, 149.51 152.66, 209.89 81.45 M0.56 323.91 C59.34 252.9, 121.07 182.73, 209.25 81.49 M1.62 328.9 C66.8 247.95, 135.57 168.34, 210.43 89.42 M0.75 329.34 C73.11 242.88, 145.9 158.52, 209.17 88.68 M-1.31 335.79 C46.44 282.28, 94.18 228.93, 210.92 92.87 M0.54 335.35 C74.63 251.58, 147.49 167.18, 209.79 93.08 M-1.42 340.63 C70.2 259.46, 142 177.24, 208.73 99.99 M-0.72 342.34 C50.3 283.22, 100.48 224.85, 209.11 99.5 M0.55 346.77 C63.92 272.41, 129.3 198.3, 209.1 104.88 M0.71 347.54 C51.09 289.36, 101.92 231.07, 210.61 105.66 M0.5 352.67 C41.15 305.96, 84.02 256.62, 210.14 111.25 M0.22 354.29 C53.09 295.34, 104.74 235.8, 209.3 111.74 M-0.22 358.52 C50.8 301.29, 99.17 242.93, 210.12 117.98 M0.31 359.01 C64.01 288.4, 126.46 216.65, 209.28 119.26 M-0.13 366.12 C68.45 288.82, 132.64 212.71, 209.69 125 M0.06 365.63 C42.01 314.42, 86.52 264.16, 210.22 124.24 M-0.05 371.42 C49.13 315.29, 101.59 255.29, 209.86 129.27 M-0.54 372.57 C51.74 313.1, 101.72 254.41, 210.01 130.64 M3.06 374.4 C69.3 299.52, 137.23 222.24, 209.5 137.04 M3.23 374.8 C70.67 296.9, 136.96 221.35, 210.39 135.91 M8.17 373.3 C86.22 283.32, 166.43 191.44, 208.52 144.06 M8.25 374.81 C72.15 302.54, 135.18 231.02, 209.25 142.7 M14.25 373.76 C84.12 289.69, 158.96 206.32, 208.21 147.62 M13.81 374.06 C58.97 323.14, 104.45 270.28, 209.2 148.52 M20.29 375.65 C83.2 299.33, 149.26 224.34, 209.25 154.41 M18.4 373.98 C84.05 298.09, 149.81 222.78, 210.26 155.22 M23.67 374.58 C69.03 320.12, 116.27 266.53, 211.07 160.12 M24.64 374.06 C87.29 300.66, 152.51 227.1, 210.38 161.73 M30.14 374.57 C68.47 328.11, 106.1 283.95, 210.34 166.99 M29.23 373.88 C80.11 316.26, 129.79 258.71, 210.37 166.03 M33.22 375.54 C77.55 325.73, 120.48 277.49, 209.34 172.63 M34.73 374.65 C89.94 307.64, 146.68 242.65, 209.92 173.73 M39.41 373.78 C91.34 312.95, 144.09 254.33, 208.42 179.34 M40.75 373.87 C88.19 319.81, 135.36 266.47, 209.58 180.3 M44.29 373.82 C89.82 323.49, 135.71 272.05, 208.55 184.82 M45.15 374.5 C108.48 303.69, 169.84 233.79, 209.86 184.89 M51.79 373.71 C112.56 306.23, 170.59 238.54, 209.28 193.2 M50.67 374.96 C109.9 304.74, 169.82 236.06, 209.77 191.21 M56.03 373.33 C109.97 308.81, 166.5 244.7, 211.72 197.51 M55.21 375.05 C114.98 307.68, 171.3 242.26, 209.32 196.53 M60.59 373.38 C113.22 310.75, 168.57 248.85, 209.69 204.82 M61.04 374.76 C97.75 332, 135.27 288.44, 209.77 204.22 M66.68 373.61 C122.38 308.38, 177.25 245.74, 209.52 208.4 M66.46 374.97 C115.21 319.38, 162.9 264.2, 209.42 209.19 M72.73 375.88 C108.59 334.99, 144.61 292.12, 211.26 216.53 M71.99 375.33 C106.1 334.81, 139.8 294.4, 210.53 215.44 M78.81 374.52 C119.24 325.56, 160.84 278.11, 211.47 220.97 M76.78 374.1 C124.19 322.92, 168.85 271.03, 210.1 222.06 M83.17 373.74 C116.72 336.13, 147.9 297.37, 211.44 229.67 M81.68 375.16 C128.16 322.91, 173.66 271.42, 210.12 228.29 M87.02 374.42 C128.88 328.96, 170.65 277.64, 209.59 233.62 M88.19 374.67 C115.32 341.53, 142.53 311.1, 210.28 234.95 M92.26 376.42 C138.4 319.51, 186.2 267.75, 211.11 238.57 M91.92 375.4 C118.17 344.19, 145.06 316.05, 209.13 241.17 M97.95 375.73 C142.15 324.36, 184.01 277.65, 211.12 245.12 M98.73 374.9 C128.79 338.97, 158.17 304.7, 209.52 245.57 M105.13 375.57 C132.91 340.19, 163.2 304.69, 208.86 253.92 M102.91 374.52 C138.2 332.37, 175.05 291.97, 209.16 252.53 M110.04 375.42 C146.2 330.18, 185.08 284.89, 210.2 257.41 M109 375.29 C142.83 336.84, 174.19 298.26, 210.79 257.82 M112.83 374.11 C133.44 352.85, 153.45 328.54, 210.3 264.97 M114.02 374.97 C141.69 344.92, 167.16 315.62, 209.44 264.67 M118.68 374.87 C155.92 333.77, 192.08 290.68, 208.21 270.68 M119.33 373.95 C144.8 345.16, 171.16 315.91, 210.56 271.39 M126.53 376.39 C145.24 353.83, 165.13 332.41, 208.75 278.64 M124.82 374.26 C144.35 352.44, 164.11 331.28, 210.58 275.67 M130.3 373.87 C154.3 346.24, 176.28 319.52, 210.58 282.3 M130.76 373.52 C160.36 340.15, 190.66 304.3, 210.48 283.76 M135.49 374.13 C155.97 350.18, 173.82 328.94, 210.64 290.25 M136.06 373.94 C156.51 349.75, 177.75 325.17, 210.89 289.18 M140.46 372.6 C163.4 351.76, 183.5 329.55, 208.89 293.3 M140.05 374.21 C165.13 347.98, 188.95 318.63, 210.42 295.71 M145.05 376.48 C159.52 357.52, 171.38 345.18, 208.83 302.28 M146.73 374.59 C168.15 350.01, 190.53 323.4, 208.72 302.12 M151.81 373.68 C175.69 347.42, 196.36 320.21, 209.46 307.34 M152.63 374.76 C164.08 359.43, 178.45 342.93, 210.11 307.33 M154.65 375.99 C169.28 358.54, 181.46 344, 211.24 315.33 M157 374.87 C167.13 362.56, 178.27 350.74, 210.1 312.71 M164.08 376.09 C179.94 355.49, 196.61 335.44, 210.68 317.52 M161.65 373.46 C178.64 355.57, 195.16 336.87, 209.5 319.73 M167.83 374.63 C178.48 358.21, 191.21 345.53, 210.93 326.72 M167.23 374.46 C178.39 361.07, 190.98 348.16, 209.77 325.99 M172.1 373.26 C185.19 359.98, 193.71 349.51, 208.41 333.07 M172.98 375.14 C186.33 358.16, 199.13 344.6, 209.08 332.86 M178.22 373.75 C188.68 361, 202.22 346.52, 210.7 337.36 M177.03 375.09 C186.97 364.16, 193.08 355.15, 210.88 337.77 M183.15 375.75 C192.27 363.93, 201.88 351.92, 208.56 342.38 M183.51 374.94 C188.57 369.39, 193.42 362.26, 209.5 343.42 M187.53 376.13 C192.45 366.53, 198.77 359.96, 208.43 350.63 M188.16 373.56 C194.77 367.43, 200.33 362.54, 209.23 350.43 M193.55 374.28 C200.01 366.97, 206.83 360.43, 209.16 355.5 M192.81 374.3 C198.67 368.23, 205.39 360.75, 210.65 356.42 M199.49 375.65 C202.35 372.3, 204.6 370.84, 210.3 362.9 M199.52 374.65 C202.44 370.56, 206.47 366.76, 209.69 362.6 M203.52 374.59 C205.68 373.2, 206.68 371.39, 209.57 367.66 M204.16 374.68 C206.11 372.96, 208.65 370.02, 209.7 367.69" stroke="#7950f2" stroke-width="0.5" fill="none"></path><path d="M0.66 1.34 C66.91 -0.4, 135.66 -0.43, 208.45 0.29 M-0.72 -0.47 C79.21 -2.3, 159.57 -1.83, 207.29 0.57 M206.36 -0.53 C206.49 125.26, 205.53 247.77, 206.22 370.95 M207.57 -0.2 C204.93 130.4, 205.29 261.36, 207.51 371.43 M205.6 371.39 C164.09 373.71, 121.96 372.72, -1.45 370.37 M206.33 371.97 C161.8 371.11, 117.45 369.91, -0.03 371.76 M0.13 371.3 C1.21 228.12, 0.27 83.43, -0.03 0.05 M0.53 371.77 C1.83 249, 2.06 125.62, 0.5 0.61" stroke="#000000" stroke-width="1" fill="none"></path></g><g stroke-opacity="0.5" fill-opacity="0.5" transform="translate(380.63786966961374 343.95293862723383) rotate(0 70.5 35)"><text x="70.5" y="24" font-family="Virgil, Segoe UI Emoji" font-size="28px" fill="#000000" text-anchor="middle" style="white-space: pre;" direction="ltr">Data</text><text x="70.5" y="59" font-family="Virgil, Segoe UI Emoji" font-size="28px" fill="#000000" text-anchor="middle" style="white-space: pre;" direction="ltr">Processing</text></g><g stroke-opacity="0.5" fill-opacity="0.5" stroke-linecap="round" transform="translate(1011.0066277407263 199.92661212195844) rotate(0 100.99999999999994 181)"><path d="M0 0 C0 0, 0 0, 0 0 M0 0 C0 0, 0 0, 0 0 M0.45 5.98 C1.82 3.87, 4.55 1.35, 4.32 0.45 M-0.17 6.35 C1.5 3.94, 3.4 2.57, 5.32 0.5 M-0.96 12.02 C3.84 9.93, 6.16 5.3, 9.63 -0.58 M-0.47 11.4 C4.71 7.11, 8.3 2.68, 11.4 0.31 M1.19 17.26 C3.57 10.07, 10.32 6.73, 15.45 -0.16 M-0.61 18.82 C6.25 10.55, 12.72 3.48, 15.61 0.58 M-0.15 22.84 C7.38 18.94, 10.22 10.5, 20.03 -1.5 M0.63 24.83 C6.14 17.56, 13.43 9.6, 20.5 -0.15 M0.48 29.91 C6.28 21.25, 13.28 12.77, 27.84 0.34 M0.79 31.31 C7.04 22.88, 12.54 14.62, 25.72 0.81 M1.14 37.65 C13.63 21.65, 22.23 8.52, 30.12 -0.83 M0.25 37.78 C12.34 22.91, 24.36 8.55, 32.75 -0.46 M1.26 43.54 C12.9 25.12, 28.16 10.82, 36.44 -0.49 M0.03 43.01 C11.49 28.45, 24.72 15.24, 36.84 0.21 M0.79 49.49 C9.99 38.88, 19.29 27.39, 43.05 0.5 M0.82 49.83 C11.44 34.43, 25.52 20.02, 42.19 0.52 M-0.19 54.51 C12.01 42.95, 22.83 28.88, 48.62 1.86 M-0.48 55.39 C16.77 34.26, 36.43 13.29, 47.71 0.3 M-1.62 60.74 C22.82 35.72, 42.52 13.81, 54.64 -0.19 M0.97 61.69 C12.18 45.93, 27.31 29.27, 52.21 -0.99 M0.17 66.02 C12.49 51.85, 24.32 39.74, 57.15 1.02 M0.53 67.87 C19.33 44.89, 38.46 21.64, 58.12 0.28 M-0.44 74.15 C15.75 56.7, 29.67 38.8, 63.12 -1.47 M1.05 73 C24.44 44.29, 47.09 18.54, 64.73 -0.55 M-1.25 79.07 C23.53 54.86, 45.51 25.4, 70.21 1.69 M-1.12 79.83 C19.38 57.22, 37.58 36.46, 67.89 0.08 M1.39 83.54 C21.55 62.76, 43.26 36.54, 75.11 0.14 M-0.55 84.12 C23.22 57.36, 48.38 30.2, 75.24 -0.51 M-1.6 91.07 C22.29 64.31, 45.88 38.76, 81.37 1.68 M-0.04 92.11 C25.42 61.83, 48.93 34.64, 79.9 -0.69 M1.65 96.61 C27.36 69.52, 52.07 35.02, 83.66 0.24 M-1.04 97.86 C22.05 72.4, 42.01 49.25, 85.75 -1.02 M1.03 102.73 C21.59 75.41, 42.85 52.67, 91.62 1.86 M0.35 102.98 C21.84 77.9, 44.73 51.69, 89.08 0.3 M-0.46 109.85 C27.37 76.46, 55.3 44.91, 94.19 0.54 M0.37 109.47 C24.24 81.87, 49.89 52.19, 95.84 -1.04 M0.95 116.87 C40.03 71.42, 82.27 24.18, 99.37 0.24 M0.18 115.93 C34.36 75.52, 69.57 37.82, 101.39 -0.93 M1.65 123.14 C37.56 80.44, 73.43 36.27, 106.57 -1.2 M-0.44 122.17 C35.81 78.35, 74.78 34.76, 105.64 -1.32 M-1.76 129.15 C20.65 100.26, 43.9 76.02, 110.41 1.89 M-0.52 127.41 C37.66 85.35, 74.51 44.76, 110.85 0.34 M-1.33 134.68 C34 94.8, 71.24 52.64, 116.39 -0.33 M1.1 133.12 C33.19 95.79, 66.49 57.58, 116.14 1.36 M-0.67 139.06 C46.74 89.12, 90.89 40.33, 119.95 0.99 M-0.21 140.79 C49.96 84.33, 96.89 27.7, 122.52 0.56 M-1.32 147.78 C37.12 103.74, 74.1 62.65, 127.62 1.6 M0.64 145.2 C31.71 106.22, 66.44 69.16, 126.88 0.14 M-0.8 152.46 C33.66 112.15, 71.19 72.55, 130.81 -1.08 M-0.69 151.99 C32.66 115.31, 64.46 78.86, 133.42 0.76 M0.43 157.71 C46.36 108.55, 91.22 57.2, 138.54 -0.47 M-0.76 158.73 C42.11 108.74, 83.47 60.5, 137.02 -0.28 M1.33 164.53 C45.06 115.62, 87.19 65.94, 142.5 1.47 M0.13 165.05 C56.77 99.41, 113.15 34.52, 143.9 0.05 M-1.4 170.16 C51.79 108.38, 106.54 46.09, 147.19 -0.56 M0.63 171.38 C37.56 126.47, 77.23 80.88, 148.6 -0.02 M0.78 174.89 C55.92 112.14, 110.42 45.08, 154.6 -0.74 M-0.51 176.85 C44.2 128.71, 85.27 80.12, 154.13 -0.24 M-0.06 184.25 C34.89 143.28, 70.61 104.2, 158.59 1.26 M-0.43 182.29 C60.8 113, 121.92 41.7, 158.04 0.26 M-0.6 188.83 C61.52 117.4, 124.55 45.66, 164.48 1.33 M0.47 189.62 C57.99 123.33, 115.5 55.82, 165.15 -0.76 M-0.9 196.36 C46.64 144.63, 88.86 93.19, 169.51 -1.34 M0.96 194.58 C62.39 122.85, 125.38 50.35, 169.08 0.15 M-0.56 202.59 C59.25 131, 118.25 62.54, 175.69 -0.89 M0.2 201.79 C36.93 157.36, 74.35 114.16, 174.75 0.05 M0.27 205.72 C56.79 139.56, 114.95 76.02, 180.53 0.19 M-0.19 206.88 C54.79 143.69, 108.72 82.73, 179.98 0.19 M1.35 213.48 C47.29 157.19, 98.52 100.47, 186.31 1.2 M0.11 213.4 C45.23 159.39, 91.85 106.24, 186.4 0.27 M-1.52 219.25 C70.84 138.64, 140.6 58.34, 190.97 1.32 M-0.62 219.99 C60.76 149.97, 122.21 78.89, 191.11 -0.46 M-0.96 224.47 C53.55 161.54, 106.54 101.97, 197.18 -0.31 M-0.5 225.48 C75.75 138.67, 151.23 52.58, 195.75 0.22 M-0.45 231.46 C51.67 174.43, 99.17 119.65, 200.51 -0.33 M0.1 231.52 C71.92 151.19, 141.8 70.78, 201.03 -0.24 M-1.12 236.8 C59.01 167.46, 118.18 100.58, 205.19 2.13 M0.27 236.93 C71.95 153.9, 145.48 71.57, 204.93 2.23 M-0.65 243.17 C67.04 164.22, 136.43 84.77, 203.35 7.08 M-0.14 244.07 C76.21 154.97, 153.81 65.43, 204.46 7.86 M-0.82 249.61 C69.5 168.56, 138.87 89.59, 204.51 15.3 M-0.34 250.45 C45.88 197.22, 92.34 144.4, 204.84 15.15 M-0.14 256.64 C60.57 189.91, 116.91 122.19, 205.03 20.96 M0.14 255.6 C75.51 169.8, 148.85 85.25, 205.38 20.4 M0.69 261.36 C54.98 198.7, 107.7 138.27, 204.43 27.26 M-0.5 261.62 C55.17 196.63, 111.68 130.61, 204.3 26.56 M1.21 269.19 C58.63 200.59, 118.92 131.27, 203.64 31.07 M0.31 268.2 C66.83 189.37, 134.75 110.71, 204.73 31.94 M1.04 275.69 C80.73 182.26, 159.33 91.06, 203.35 37.49 M0.02 274.14 C64.78 199.38, 129.63 126.72, 204.48 39.46 M-0.46 281.11 C81.62 188.48, 163.53 93.2, 205.05 44.56 M-0.91 280.91 C58.66 213.47, 116.82 144.89, 204.85 45.32 M-1.17 285.55 C53.48 225.74, 106.35 162.52, 204.17 51.18 M0.37 286.1 C71.65 203.82, 142.63 121.03, 205.11 50.2 M-0.27 294.02 C45.28 241.13, 92.37 187.22, 204.53 57.88 M-0.65 293.15 C59.75 223.62, 121.08 154.27, 204.77 56.94 M0.03 298.25 C67.66 221.18, 136.38 143.24, 203.69 64.35 M0.07 298.61 C69.63 220.03, 139.46 139.09, 204.55 62.76 M1.36 305.51 C47.73 251.45, 95.17 197.43, 204.22 68.33 M0.61 304.25 C42.52 257.51, 83.41 210.92, 204.04 69.21 M-1.12 311.9 C49.29 250.15, 102.27 192.82, 204.74 74.52 M-0.91 311.5 C50.46 255.11, 98.49 198.33, 204.07 75.93 M0 315.99 C45.39 265.08, 89.98 213.27, 205.82 81.12 M-0.49 316.87 C64.99 244.8, 129.1 170.68, 204.73 81.06 M-1.02 322.44 C77.8 236.05, 153.81 150.29, 205.98 87.74 M-0.23 322.52 C65.94 244.37, 134.06 165.78, 204.11 88.21 M-0.66 328.12 C58.25 260.28, 118.42 194.73, 205.57 94.38 M-0.16 328.45 C62.74 257.55, 125.27 183.93, 205.7 93.7 M-0.59 335.26 C51.49 273.03, 104.71 213.42, 205.14 98.83 M0.72 335.38 C65.68 261.48, 131.45 185.76, 205.3 100.11 M0.56 340.37 C49.33 286.97, 97.09 229.06, 203.66 107.06 M-0.21 341.26 C69.07 259.8, 139.14 179.12, 204.12 106.39 M-1.22 346.5 C77.47 260.32, 153.42 172.75, 205.86 112.6 M0.18 347.47 C46.02 292.46, 92.86 239.25, 204.69 111.91 M0.69 354 C73.88 269.86, 149.98 183.37, 205.35 117.33 M-0.45 354.36 C68.1 274.5, 136.36 194.47, 204.53 118.42 M1.68 359.51 C79.6 268.84, 159.88 178.8, 203.56 124.02 M0.34 359.89 C61.84 290.04, 122.9 219.01, 203.7 124.43 M0.59 362.5 C60.31 296.31, 120.92 226.49, 204.27 131.43 M1.47 363.78 C58.5 299.19, 115.61 235.06, 204.17 130.05 M6.7 364.47 C63.54 301.35, 117.94 235.45, 203.79 136.52 M7.49 363.49 C67.55 295.34, 126.41 226.11, 204.32 136.73 M11.68 364.14 C74.62 291.13, 137.19 218.84, 203.49 142.01 M13.25 362.82 C76.28 288.71, 140.49 215.08, 204.9 141.63 M17.87 363.53 C62.89 312.96, 104.51 262.99, 205.5 148.03 M16.92 363.39 C56.83 316.42, 96.75 270.74, 204.47 148.47 M22.76 363.78 C76.77 304.98, 127.97 242.96, 204.52 153.97 M23.84 363.46 C84.37 294.49, 144.06 224.8, 204 154.46 M28.05 363.41 C84.54 300.31, 143.21 233.33, 204.73 160.9 M29 363.55 C88.22 292.61, 149.82 221.82, 204.15 160.52 M33.54 364.6 C84.64 304.7, 136.45 246.62, 205.1 165.84 M33.61 363.99 C79.53 308.57, 127.91 254.39, 204.83 167.03 M40.46 365.05 C79.75 317.67, 117.82 273.29, 204.59 172.22 M38.52 364.3 C75.9 320.21, 112.51 277.37, 204.19 172.03 M44.81 364.55 C76.59 325.1, 109.03 287.62, 205.77 178.46 M43.84 363.86 C83.86 320.59, 121.84 274.33, 204.56 178.59 M50.69 362.9 C110.94 294.94, 170.08 226.32, 204.11 185.39 M50.1 364.47 C95.97 312.96, 140 260.49, 204.94 185.05 M53.57 363.92 C100.89 308.87, 148.16 256.44, 204.84 190.32 M54.34 363.01 C97.18 316.32, 137.74 270.63, 205.46 191.88 M60.99 362.86 C111.59 305.59, 161.81 247.11, 205.46 199.37 M59.92 363.82 C88.98 328.82, 119.79 293.85, 204.54 197.55 M64.72 364.04 C104.29 314.95, 144.77 268.92, 206.02 203.29 M65.79 362.93 C103.44 318.7, 142.47 273.88, 205.3 203.13 M72.53 364.56 C102.69 327.06, 135.23 288.77, 204.84 211.06 M71.3 364.02 C118.47 306.25, 167.56 250.36, 204.16 210.3 M75.28 362.54 C110.87 328.07, 142.02 290.75, 206.14 214.77 M76.61 364.94 C118.44 313.86, 162.14 263.3, 204.11 215.33 M79.47 361.99 C126.52 311.89, 170.44 259.58, 203.63 220.72 M82.07 364.46 C126.36 310.65, 172.55 258.42, 204.99 221.18 M85.37 363.45 C118.04 326.91, 149.18 291.28, 205.29 227.5 M85.82 363.76 C112 334.94, 138.55 304.97, 204.58 228.06 M93.41 364.23 C130.71 321.68, 168.27 275.59, 203.05 231.84 M92.02 364.41 C133.96 318.89, 173.79 272.27, 204.55 234.36 M96.24 364.46 C126.5 330.06, 155.23 298.08, 206.6 240.74 M96.66 362.96 C124.13 333.37, 148.27 303.79, 205.09 240.22 M103.05 363.02 C139.88 318.57, 179.53 276.33, 205.06 246.14 M102.75 364.49 C127.77 334.09, 153.94 303.76, 204.49 246.81 M107.35 363.49 C141.65 327.76, 174.86 286.56, 204.09 253.09 M108.06 363.1 C144.54 318.42, 184.31 276.57, 205.16 252.14 M115.31 362.08 C149.42 321.78, 185.32 280.42, 204.97 257.99 M112.34 363.48 C143.98 325.56, 175.96 289.47, 204.57 257.83 M117.56 365.56 C138.59 340.23, 158.12 317.52, 204.23 265.23 M119.02 363.44 C140.01 340.15, 160.28 314.97, 205.86 263.37 M125.51 363.22 C152.58 331.52, 178.53 300.97, 205.51 269.14 M124.44 363.38 C149.43 332.94, 175.26 303.29, 205.58 270.7 M127.15 364.79 C156.49 328.7, 186.31 295.27, 203.18 278.7 M129.56 362.93 C145.93 344.78, 163.23 325.26, 204.17 276.42 M135.37 364.37 C148.83 346.66, 163.97 330.57, 205.48 283.68 M135.21 364.37 C160.2 335, 186.88 304.39, 205.04 282.65 M139.78 362.38 C154.98 349.42, 169.37 333.26, 203.53 290.88 M139.77 363.25 C163.12 338.5, 184.06 312.26, 204.55 288.74 M147.02 361.51 C162.48 343.42, 177.18 327.56, 205.09 294.78 M144.39 363.85 C164.63 339.52, 185.19 318.57, 205.53 294.61 M148.55 364.63 C170.44 340.15, 189.81 315.49, 204.28 301.49 M150.76 363.76 C166.47 345.86, 181.65 327.96, 204.06 300.24 M156.99 362.75 C166.49 351.26, 178.88 336.15, 203.3 307.46 M156.26 363.4 C173.19 344.37, 189.95 323.08, 204.99 306.97 M161.93 364.94 C171.42 352.6, 180.89 342.56, 205.49 311.6 M161.72 364.54 C172.69 348.37, 186.04 334.21, 203.97 313.28 M166.23 362.28 C176.27 352.61, 186.27 339.51, 206.44 317.57 M166.63 363.83 C174.25 354.41, 183.15 344.82, 204.4 319.56 M169.83 361.79 C182.8 350.89, 192.91 340.95, 205.63 326.36 M170.87 363.36 C181.24 352.44, 189.14 343.76, 204.07 324.42 M178.08 362.38 C184.48 357.3, 189.98 346.18, 206.28 330.33 M177.88 364.15 C188.18 350.27, 198.22 338.68, 204.8 331.18 M181.54 364.77 C189 353.45, 195.93 345.03, 202.94 337.79 M182.46 362.71 C189.65 355.82, 196.63 347.98, 205.07 338.19 M187.64 364.18 C191.61 358.11, 201.08 349.04, 204.65 343.29 M187.27 363.31 C193.36 356.93, 200.32 347.72, 204.95 343.57 M191.87 364.45 C194.55 358.35, 199.44 355.35, 204.06 351.56 M191.92 362.84 C197.52 357.65, 202.09 352.48, 204.21 349.15 M198.08 363.26 C199.42 362.71, 202.07 359.97, 205.95 356.45 M198.17 364.11 C199.16 361.46, 201.13 359.69, 205.32 355.41" stroke="#7950f2" stroke-width="0.5" fill="none"></path><path d="M1.63 1.66 C79.78 -1.72, 160.58 -1.33, 203.16 -0.5 M-0.64 -0.58 C66.93 -0.9, 135.11 -0.95, 202.08 0.14 M200.75 0.54 C202.23 141.14, 201.38 285.02, 202.82 361.48 M202.61 0.4 C201.15 74.61, 201.54 148.45, 202.62 361.97 M202.97 363.19 C136.3 359.54, 70.69 362.5, 1.27 360.87 M201.41 362.44 C125.75 362.05, 50.12 361.65, 0.77 362.07 M0.22 363.04 C0.65 251.12, 1.55 137.83, -0.92 1.18 M0.4 361.53 C0.18 250.02, 0.38 138.59, 0.23 -0.18" stroke="#000000" stroke-width="1" fill="none"></path></g><g stroke-opacity="0.5" fill-opacity="0.5" transform="translate(1041.5066277407263 345.92661212195844) rotate(0 70.49999999999994 35)"><text x="70.5" y="24" font-family="Virgil, Segoe UI Emoji" font-size="28px" fill="#000000" text-anchor="middle" style="white-space: pre;" direction="ltr">Data</text><text x="70.5" y="59" font-family="Virgil, Segoe UI Emoji" font-size="28px" fill="#000000" text-anchor="middle" style="white-space: pre;" direction="ltr">Processing</text></g><g stroke-opacity="0.5" fill-opacity="0.5" transform="translate(845.8287707481081 639.6700273562956) rotate(0 109 17.5)"><text x="109" y="25" font-family="Virgil, Segoe UI Emoji" font-size="28px" fill="#000000" text-anchor="middle" style="white-space: pre;" direction="ltr">Raw Predictions</text></g><g stroke-linecap="round"><g stroke-opacity="0.5" fill-opacity="0.5" transform="translate(80.37025446444608 581.4965381028387) rotate(0 717.8188498542435 -3.6641799758847355)"><path d="M-0.32 0.08 C238.89 -1, 1196.88 -6.3, 1435.96 -7.41 M1.71 -0.92 C240.79 -1.79, 1196.39 -5.63, 1435.55 -6.35" stroke="#000000" stroke-width="1" fill="none"></path></g><g stroke-opacity="0.5" fill-opacity="0.5" transform="translate(80.37025446444608 581.4965381028387) rotate(0 717.8188498542435 -3.6641799758847355)"><path d="M1407.53 5.71 C1415.98 -0.87, 1427.45 -4.67, 1434.66 -4.93 M1406.68 4.45 C1416.56 0.18, 1426.95 -3.63, 1435.84 -6.37" stroke="#000000" stroke-width="1" fill="none"></path></g><g stroke-opacity="0.5" fill-opacity="0.5" transform="translate(80.37025446444608 581.4965381028387) rotate(0 717.8188498542435 -3.6641799758847355)"><path d="M1407.45 -14.81 C1415.77 -14.08, 1427.26 -10.56, 1434.66 -4.93 M1406.61 -16.07 C1416.51 -13, 1426.92 -9.47, 1435.84 -6.37" stroke="#000000" stroke-width="1" fill="none"></path></g></g><g stroke-linecap="round"><g stroke-opacity="0.5" fill-opacity="0.5" transform="translate(613.3094671626586 371.6148903014059) rotate(0 171.65389888940246 -0.8996690295457483)"><path d="M-0.19 -0.25 C57.23 -0.36, 286.25 -1.07, 343.5 -1.55" stroke="#000000" stroke-width="1.5" fill="none" stroke-dasharray="8 9"></path></g></g><g stroke-linecap="round"><g stroke-opacity="0.5" fill-opacity="0.5" transform="translate(119.2927827426816 619.1216110255318) rotate(0 2.2267819338726227 -30.214930486953563)"><path d="M0.89 -1 C1.63 -10.81, 3.21 -49.59, 3.56 -59.43" stroke="#000000" stroke-width="1.5" fill="none" stroke-dasharray="8 9"></path></g></g><g stroke-linecap="round"><g stroke-opacity="0.5" fill-opacity="0.5" transform="translate(625.2848663988041 615.2293320656772) rotate(0 0.6471914320363794 -25.238134187000014)"><path d="M1.03 -0.09 C1.04 -8.67, 0.32 -41.77, 0.27 -50.38" stroke="#000000" stroke-width="1.5" fill="none" stroke-dasharray="8 9"></path></g></g><g stroke-linecap="round"><g stroke-opacity="0.5" fill-opacity="0.5" transform="translate(954.8285094277946 625.6087135896996) rotate(0 -0.5785226472816589 -31.42203675734845)"><path d="M0.76 0.42 C0.46 -10.18, -1.6 -52.42, -1.92 -63.27" stroke="#000000" stroke-width="1.5" fill="none" stroke-dasharray="8 9"></path></g></g><g stroke-linecap="round"><g stroke-opacity="0.5" fill-opacity="0.5" transform="translate(1359.6222111954012 602.2552140441126) rotate(0 0.1918141383899865 -25.764808768318744)"><path d="M0.36 -1.18 C0.34 -9.71, -0.06 -41.91, 0.04 -50.35" stroke="#000000" stroke-width="1.5" fill="none" stroke-dasharray="8 9"></path></g></g><g stroke-linecap="round"><g stroke-opacity="0.5" fill-opacity="0.5" transform="translate(258.11623755389127 258.4400411914012) rotate(0 39.785946618764854 0.07554734971131438)"><path d="M-0.77 0.56 C12.44 0.49, 66.77 -0.63, 80.35 -0.55 M1.02 -0.19 C13.98 -0.09, 66.17 0.79, 79.35 0.7" stroke="#000000" stroke-width="2" fill="none"></path></g><g stroke-opacity="0.5" fill-opacity="0.5" transform="translate(258.11623755389127 258.4400411914012) rotate(0 39.785946618764854 0.07554734971131438)"><path d="M52.02 10.62 C61.14 7.48, 74.74 3.76, 79.23 -1.12 M51.01 10.7 C59.48 8.03, 69.64 5.05, 79.49 0.04" stroke="#000000" stroke-width="2" fill="none"></path></g><g stroke-opacity="0.5" fill-opacity="0.5" transform="translate(258.11623755389127 258.4400411914012) rotate(0 39.785946618764854 0.07554734971131438)"><path d="M52.15 -9.9 C61.2 -5.08, 74.75 -0.85, 79.23 -1.12 M51.14 -9.82 C59.51 -6.1, 69.63 -2.7, 79.49 0.04" stroke="#000000" stroke-width="2" fill="none"></path></g></g><g stroke-linecap="round"><g stroke-opacity="0.5" fill-opacity="0.5" transform="translate(561.7115574329816 258.4400411914012) rotate(0 68.05315936465675 0.25387060244565873)"><path d="M0.82 0.37 C23.23 0.69, 111.79 0.92, 134.07 1.04 M-0.22 -0.48 C22.61 -0.4, 114.04 -0.51, 136.32 -0.53" stroke="#000000" stroke-width="2" fill="none"></path></g><g stroke-opacity="0.5" fill-opacity="0.5" transform="translate(561.7115574329816 258.4400411914012) rotate(0 68.05315936465675 0.25387060244565873)"><path d="M108.76 8.31 C117.41 6.09, 124.99 2.2, 134.34 -1.72 M108.8 10.12 C115.19 7.09, 120.6 5.7, 137.01 0.23" stroke="#000000" stroke-width="2" fill="none"></path></g><g stroke-opacity="0.5" fill-opacity="0.5" transform="translate(561.7115574329816 258.4400411914012) rotate(0 68.05315936465675 0.25387060244565873)"><path d="M108.73 -12.21 C117.24 -9, 124.83 -7.46, 134.34 -1.72 M108.77 -10.4 C115.08 -8.84, 120.49 -5.63, 137.01 0.23" stroke="#000000" stroke-width="2" fill="none"></path></g></g><g stroke-linecap="round"><g stroke-opacity="0.5" fill-opacity="0.5" transform="translate(879.5783635824075 253.25039398277568) rotate(0 60.29200005405545 0.7597215310422598)"><path d="M0.91 0.18 C20.73 0.55, 98.51 1.92, 118.44 2.29 M-0.08 -0.77 C20.16 -0.73, 100.6 0.45, 120.66 0.69" stroke="#000000" stroke-width="2" fill="none"></path></g><g stroke-opacity="0.5" fill-opacity="0.5" transform="translate(879.5783635824075 253.25039398277568) rotate(0 60.29200005405545 0.7597215310422598)"><path d="M92.64 9.03 C101.27 9.64, 108.76 3.64, 121.69 1.24 M92 11.48 C100.1 8.23, 109.71 4.24, 120.76 -0.31" stroke="#000000" stroke-width="2" fill="none"></path></g><g stroke-opacity="0.5" fill-opacity="0.5" transform="translate(879.5783635824075 253.25039398277568) rotate(0 60.29200005405545 0.7597215310422598)"><path d="M92.91 -11.49 C101.48 -5.6, 108.9 -6.33, 121.69 1.24 M92.27 -9.04 C100.23 -6.25, 109.76 -4.19, 120.76 -0.31" stroke="#000000" stroke-width="2" fill="none"></path></g></g><g stroke-linecap="round"><g stroke-opacity="0.5" fill-opacity="0.5" transform="translate(1222.0961246329625 246.76329141860788) rotate(0 88.92898688695891 -0.39217812918104755)"><path d="M-0.66 -0.04 C29.16 0.1, 148.72 0.7, 178.51 0.55 M1.2 -1.1 C30.95 -1.3, 148.58 -1.45, 177.97 -1.29" stroke="#000000" stroke-width="2" fill="none"></path></g><g stroke-opacity="0.5" fill-opacity="0.5" transform="translate(1222.0961246329625 246.76329141860788) rotate(0 88.92898688695891 -0.39217812918104755)"><path d="M149.7 10.21 C158.32 6.96, 163.41 4.99, 176.24 -2.01 M149.44 8.81 C159.21 6.34, 169.69 2.9, 177.45 -1.49" stroke="#000000" stroke-width="2" fill="none"></path></g><g stroke-opacity="0.5" fill-opacity="0.5" transform="translate(1222.0961246329625 246.76329141860788) rotate(0 88.92898688695891 -0.39217812918104755)"><path d="M149.73 -10.31 C158.29 -8.02, 163.37 -4.45, 176.24 -2.01 M149.47 -11.71 C159.21 -7.29, 169.68 -3.83, 177.45 -1.49" stroke="#000000" stroke-width="2" fill="none"></path></g></g><g stroke-linecap="round"><g stroke-opacity="0.5" fill-opacity="0.5" transform="translate(259.41660874769303 525.2159373356017) rotate(0 39.88846100494192 0.6072126028689127)"><path d="M-1.12 -0.81 C12.48 -0.59, 67.23 -0.05, 80.9 0.16 M0.49 1.38 C14.04 1.92, 66.88 2.29, 80.19 1.78" stroke="#000000" stroke-width="2" fill="none"></path></g><g stroke-opacity="0.5" fill-opacity="0.5" transform="translate(259.41660874769303 525.2159373356017) rotate(0 39.88846100494192 0.6072126028689127)"><path d="M50.77 13.14 C59.25 10.87, 66.47 7.52, 80.66 2.46 M52.85 12.68 C58.77 9.2, 65.94 8.26, 80.3 1.75" stroke="#000000" stroke-width="2" fill="none"></path></g><g stroke-opacity="0.5" fill-opacity="0.5" transform="translate(259.41660874769303 525.2159373356017) rotate(0 39.88846100494192 0.6072126028689127)"><path d="M50.53 -7.38 C58.87 -4.71, 66.14 -3.13, 80.66 2.46 M52.62 -7.84 C58.65 -6.51, 65.87 -2.65, 80.3 1.75" stroke="#000000" stroke-width="2" fill="none"></path></g></g><g stroke-linecap="round"><g stroke-opacity="0.5" fill-opacity="0.5" transform="translate(563.0119286267834 525.2159373356017) rotate(0 64.5465916358985 -0.42052901200372617)"><path d="M-0.81 0.46 C21.03 0.72, 108.07 0.55, 129.9 0.47 M0.96 -0.35 C22.76 -0.35, 107.59 -1.68, 129.04 -1.4" stroke="#000000" stroke-width="2" fill="none"></path></g><g stroke-opacity="0.5" fill-opacity="0.5" transform="translate(563.0119286267834 525.2159373356017) rotate(0 64.5465916358985 -0.42052901200372617)"><path d="M101.65 9.22 C107.51 7.77, 112.44 5.39, 129.72 -2.72 M101.19 9.05 C109.39 6.04, 120.17 2.06, 129 -1.75" stroke="#000000" stroke-width="2" fill="none"></path></g><g stroke-opacity="0.5" fill-opacity="0.5" transform="translate(563.0119286267834 525.2159373356017) rotate(0 64.5465916358985 -0.42052901200372617)"><path d="M101.58 -11.3 C107.26 -8.57, 112.21 -6.77, 129.72 -2.72 M101.13 -11.47 C109.31 -7.75, 120.1 -5, 129 -1.75" stroke="#000000" stroke-width="2" fill="none"></path></g></g><g stroke-linecap="round"><g stroke-opacity="0.5" fill-opacity="0.5" transform="translate(875.6889133540415 520.0093119793673) rotate(0 62.13204514989263 0.48369322541975635)"><path d="M0.46 0.16 C21.48 0.59, 104.34 1.53, 125.02 1.77 M-0.76 -0.8 C20.25 -0.66, 103.57 -0.77, 124.32 -0.12" stroke="#000000" stroke-width="2" fill="none"></path></g><g stroke-opacity="0.5" fill-opacity="0.5" transform="translate(875.6889133540415 520.0093119793673) rotate(0 62.13204514989263 0.48369322541975635)"><path d="M96.28 10.57 C102.66 7.61, 108.23 6.26, 123.01 0.44 M96.11 9.03 C104.56 7.71, 111.9 4.11, 123.98 0.64" stroke="#000000" stroke-width="2" fill="none"></path></g><g stroke-opacity="0.5" fill-opacity="0.5" transform="translate(875.6889133540415 520.0093119793673) rotate(0 62.13204514989263 0.48369322541975635)"><path d="M96.53 -9.95 C102.72 -8.67, 108.25 -5.78, 123.01 0.44 M96.37 -11.49 C104.89 -7.06, 112.17 -4.92, 123.98 0.64" stroke="#000000" stroke-width="2" fill="none"></path></g></g><g stroke-linecap="round"><g stroke-opacity="0.5" fill-opacity="0.5" transform="translate(1223.3964958267643 513.5391875628084) rotate(0 88.48852732410217 0.6048366853640346)"><path d="M0.16 0.47 C30 0.39, 148.54 0, 178.19 -0.01 M-1.21 -0.33 C28.57 -0.24, 147.7 1.75, 177.47 1.52" stroke="#000000" stroke-width="2" fill="none"></path></g><g stroke-opacity="0.5" fill-opacity="0.5" transform="translate(1223.3964958267643 513.5391875628084) rotate(0 88.48852732410217 0.6048366853640346)"><path d="M150.01 12.35 C155.73 9.69, 163 5.56, 178.03 1.12 M148.47 12.3 C160.53 7.92, 170.24 3.7, 178.24 1.26" stroke="#000000" stroke-width="2" fill="none"></path></g><g stroke-opacity="0.5" fill-opacity="0.5" transform="translate(1223.3964958267643 513.5391875628084) rotate(0 88.48852732410217 0.6048366853640346)"><path d="M150.13 -8.18 C155.9 -6.06, 163.14 -5.42, 178.03 1.12 M148.6 -8.22 C160.67 -4.94, 170.34 -1.5, 178.24 1.26" stroke="#000000" stroke-width="2" fill="none"></path></g></g></svg>