<svg version="1.1" xmlns="http://www.w3.org/2000/svg" viewBox="0 0 903.3804617058895 343.5902142866896" width="903.3804617058895" height="343.5902142866896">
  <!-- svg-source:excalidraw -->
  
  <defs>
    <style class="style-fonts">
      @font-face {
        font-family: "Virgil";
        src: url("https://excalidraw.com/Virgil.woff2");
      }
      @font-face {
        font-family: "Cascadia";
        src: url("https://excalidraw.com/Cascadia.woff2");
      }
    </style>
  </defs>
  <g stroke-linecap="round" transform="translate(150.44664128513762 119.21113281974101) rotate(0 174.5 30.5)"><path d="M0 0 C0 0, 0 0, 0 0 M0 0 C0 0, 0 0, 0 0 M0.18 6.18 C2.38 4.35, 3.56 2.39, 5.34 0.63 M-0.02 6.51 C1.08 4.04, 3.22 2.65, 4.74 0.7 M1.37 11.29 C3.28 9.01, 7.9 4.45, 11.42 0.87 M0.9 11.76 C4.64 6.94, 7.28 3.74, 10.05 0.42 M-1.39 17.69 C4.01 11.39, 10.61 7.1, 17.29 0.9 M0.23 18.3 C4.87 12.57, 10.58 6.35, 16.1 0.83 M-0.04 24.81 C9.86 15.88, 14.88 4.96, 20.97 -1.49 M-0.31 23.69 C4.3 18.35, 9.49 13.66, 22.06 0.09 M1.05 29.92 C7.66 22.5, 15.74 13.23, 25.17 -0.23 M-0.6 31.36 C8.25 22.38, 14.63 13.18, 26.63 -0.67 M0.76 38.45 C10.05 24, 24.49 8.55, 32.03 1.37 M0.32 37.75 C6.69 27.26, 14.98 18.41, 31.15 -0.53 M1.47 43.2 C16.42 25.53, 29.07 8.86, 38.01 -0.1 M0.09 43.46 C11.46 28.63, 22.77 16.17, 36.75 -0.64 M-0.97 49.63 C11.16 35.7, 20.28 22.43, 41.07 -1.11 M-0.49 49.57 C11.52 36.58, 21.42 23.2, 43.16 0.73 M1.29 55.64 C13.02 39.69, 26.44 25.9, 47.37 1.93 M0.73 55.22 C12.98 38.85, 26.26 24.4, 47.94 0.15 M-1.2 60.66 C20.08 37.85, 38.88 13.62, 54.46 -0.33 M0.51 61.7 C12.26 47.65, 22.58 33.24, 53.31 0 M2.63 61.69 C21.59 42.18, 41.06 18.18, 57.94 -1.06 M3.6 64.29 C14.78 48.1, 26.52 33.6, 57.38 0.45 M9.76 64.41 C22.54 48.7, 33.99 32.68, 62.68 1.75 M8.81 64.39 C28.93 41.56, 49.94 16.6, 63 0.42 M14.34 62.22 C26.5 46.19, 40.61 31.19, 69.49 -1.59 M13.78 64.36 C31.09 41.63, 50.84 20.29, 68.96 -0.44 M19.55 63.27 C37.8 44.44, 53.39 23.25, 74.3 -1.45 M19.49 63.56 C32.26 47.93, 47.46 30.95, 74.84 -0.8 M26.23 64.57 C48.14 38.04, 66.99 13.87, 78.87 0.21 M24.45 64.25 C42.53 41.92, 60.4 22.29, 80.26 0.34 M27.53 65.02 C45.35 43.63, 61.64 26.03, 85.97 0.89 M29.95 63.63 C45.01 43.44, 63.24 23.79, 85.65 0.59 M36.1 64.47 C48.02 50.29, 61.39 36.16, 90.05 -1.38 M34.87 62.77 C53.46 42.92, 69.73 22.3, 89.57 0.19 M38.78 64.81 C61.72 42.27, 78.96 19.52, 96.45 -0.98 M38.93 64.58 C56 43.71, 74.37 24.16, 95.45 -1.1 M43.81 65.02 C57.39 48.91, 70.7 36.51, 100.08 0.35 M45.49 62.78 C64.08 43.04, 81.42 22.02, 100.89 0.06 M51.48 62.22 C65.51 45.71, 81.86 25.34, 104.59 0.58 M50.84 63.91 C68.75 43.48, 84.37 24.38, 106.46 -0.53 M57.35 62.74 C68.71 45.68, 85.35 30.11, 113.09 -1.52 M56.97 64.2 C78.45 38.9, 99.69 13.57, 110.92 -0.57 M62.9 63.21 C79.08 45.46, 94.85 27.57, 114.67 1.38 M60.83 63.67 C78.78 45.66, 93.52 26.57, 115.44 0.44 M66.78 61.56 C81.26 46.25, 95.44 28.58, 122.34 -1.48 M67.17 62.98 C79.66 48.47, 92.99 33.65, 122.06 -0.64 M71.41 62.16 C88.04 47.07, 103.72 28.53, 125.03 0.37 M71.74 63.47 C89.03 44.65, 104.66 24.67, 127.33 0.74 M78.25 62.81 C96.9 42.3, 116.03 21.76, 132.14 0.39 M78.15 64.11 C97.98 38.14, 120.83 12.86, 133.41 -0.57 M82.44 63.86 C103.57 41.43, 124.43 17.57, 138.16 2.16 M83.1 63.47 C100.59 42.38, 121.16 20.22, 138.32 -0.38 M88.02 63.23 C102.23 46.52, 117.8 28.38, 143.92 0.39 M87.19 62.65 C105.15 43.44, 121.31 24.86, 143.77 0.77 M94.57 65.51 C115.7 39.96, 137.55 13.05, 149.27 0.03 M92.16 63.35 C108.54 46.28, 122.07 29.77, 147.42 0.6 M100.44 64.97 C113.49 47.15, 122.42 34.28, 154.21 1.26 M97.75 62.7 C111.04 48.12, 122.51 35.06, 154.66 -0.94 M105.43 62.7 C117.73 46.36, 129.05 31.34, 159.67 -1.35 M102.88 63.36 C118.97 44.15, 136.49 26.21, 158.89 -0.72 M109.95 61.58 C130.97 37.19, 152.51 12.58, 164.62 -1.88 M108.5 62.39 C125.18 44.78, 140.4 26.21, 165.3 -0.46 M113.75 63.43 C129.52 44.57, 149.13 23.06, 170.78 0.1 M114.88 63.3 C129.25 45.55, 143.28 28.61, 169.15 0.26 M118.43 64.76 C137.23 42.87, 159.5 20.3, 175.84 0.51 M119.68 63.68 C134.81 46.88, 148.58 29.31, 175.59 -0.03 M125.38 62.11 C147.85 37.52, 169.99 13.58, 178.11 1.87 M124.55 63.49 C136.74 49.05, 151.33 33.73, 179.86 0.24 M131.81 63.38 C150.35 40.75, 171.58 18.05, 185.69 -1.64 M130.67 64.27 C141.51 50.84, 152.71 38.16, 185.15 -0.32 M135.24 61.57 C147.21 49.36, 158.09 37.51, 189.24 -1.13 M135.92 63.83 C150.13 48.1, 163.36 32.28, 190.85 0.93 M142.17 61.95 C158.17 42.84, 172.63 27.47, 195.06 0.04 M141.1 63.23 C162.22 39.44, 183.32 15.55, 196.32 0.55 M145.34 63.02 C165.22 42.85, 185.29 19.12, 201.87 1.38 M145.76 62.74 C164.55 42.49, 185.52 18.61, 201.18 0.09 M152.32 63.66 C171.21 37.26, 196.15 15.43, 205.93 -1.72 M150.45 62.86 C170.42 41.86, 192.03 18.02, 207.11 -0.03 M158.79 64.1 C168.84 49.37, 182.25 34.69, 213.78 1.12 M156.53 64.21 C168.23 48.94, 181.55 34.45, 212.1 0.54 M161.17 65.08 C180.94 40.92, 198.54 21, 219.39 0.26 M162.42 64.56 C178.6 44.17, 194.7 24.69, 218.26 -0.07 M165.82 64.84 C189.91 37.85, 209.76 12.4, 220.86 1.2 M167.4 62.76 C183.89 44.86, 200.75 26.86, 222.06 -0.86 M173.72 62.21 C190.4 42.86, 206.91 24.18, 229.61 1.54 M171.89 63.74 C188.8 44.72, 204.91 25.59, 228.19 -0.08 M177.7 61.68 C190.88 48, 200.7 34.65, 235.07 -1.86 M177.24 62.45 C192.25 46.86, 206.87 29.87, 233.73 -0.2 M183.07 64.45 C203.54 42.48, 220.46 16.52, 237.2 0.85 M183.97 62.87 C195.84 49.78, 209.5 33.86, 237.38 0.76 M188.85 61.47 C208.84 41.54, 226.86 19.48, 242.48 -0.14 M189.62 63.92 C208.59 38.95, 230.28 14.18, 242.96 0.47 M192.42 64.58 C210.7 46.42, 224.09 28.11, 249.84 -0.95 M192.95 64.48 C209.74 46.18, 225.38 27.68, 247.99 0.54 M198.74 63.47 C216.75 41.85, 237.37 22.05, 253.25 -0.29 M199.81 63.32 C219.2 41.83, 237.8 18.33, 253.82 0.16 M205.04 64.82 C219.43 47.36, 232.81 31.24, 260.33 1.69 M205.34 64.12 C218.5 47.95, 232.59 30.66, 258.9 0.17 M209.96 61.33 C227.87 41.45, 244.89 22.33, 263.63 -1.59 M209.8 63.38 C222.08 50.07, 235.02 34.69, 265.57 -0.08 M214.31 62.79 C229.11 46.47, 247.46 29.67, 271.23 1.96 M214.84 63.41 C228.72 47.25, 242.27 33.52, 269.35 -0.66 M222.19 65.12 C236.69 45.62, 248.86 29.79, 273.97 -1.88 M221.27 62.34 C238.91 44.25, 256.72 24.03, 275.69 -0.17 M225.71 65.49 C245.57 41.43, 262.71 20.6, 280.16 -0.54 M225.36 63.01 C243.97 42.32, 262.28 21.23, 281.29 0.3 M229.53 64.07 C243.47 48.95, 255.79 36.04, 286.72 0.37 M229.94 63.76 C246.2 45.62, 262.67 26.95, 286.86 0.05 M234.8 63.37 C252.78 43.36, 269.23 25.83, 289.88 -1.81 M236 63.61 C254.26 41.79, 274.13 18.39, 290.38 0.83 M241.16 65.56 C255.7 47.17, 267.59 34.42, 296.4 0.15 M241.22 64.5 C257.09 46.69, 271.23 27.67, 297.94 -0.24 M245.25 64.25 C269.97 40.02, 290.37 11.37, 302.21 0.56 M246.09 62.98 C264.13 44.58, 280.66 25.42, 302.96 -0.71 M251.39 65.61 C274.46 38.03, 294.41 13.41, 307.64 -0.21 M251.24 64.21 C270.52 43.18, 290.2 20.26, 307.02 0.19 M258.8 63.37 C276.46 43.76, 293.34 24.4, 312.08 1.39 M258.15 62.91 C272.97 45.97, 290.81 26.93, 313.1 -0.46 M264.25 63.93 C274.1 50.73, 285.69 34.92, 317.18 -0.92 M262.49 63.34 C275.51 49.9, 287.52 34.73, 318.39 -0.36 M269.3 65.38 C285.85 39.63, 308.09 19.6, 321.51 1.9 M268.89 64.24 C282.48 46.43, 296.59 31.66, 323.55 0.02 M274.91 62.61 C291.82 41.49, 307.65 21.4, 327.81 1.2 M272.18 62.87 C294.76 38.48, 316.39 12.04, 329.52 0.42 M280.69 62.32 C291.82 46.73, 304.45 34.33, 333.61 -0.27 M278.24 63.87 C291 49.04, 301.91 36.76, 334.77 0.72 M283.59 64.15 C298.71 48.54, 309.19 33.64, 338.46 -1.28 M283.2 63.35 C295.33 50.4, 307.98 36.94, 340.11 -0.08 M289.02 63.66 C306.33 47.77, 318.96 28.37, 342.59 -1.09 M290.32 63.74 C310.91 40.03, 331.48 14.11, 343.94 0.15 M293.62 65.46 C310.81 43.77, 326.69 28.63, 349.46 0.38 M295.16 63.87 C314.42 40.61, 334.42 17.56, 350.4 0.32 M300.4 62.25 C311.93 47.73, 325.11 34.06, 349.84 6.66 M300.47 63.83 C315.79 44.46, 330.53 27.12, 350.01 7.18 M305.43 63.87 C320.4 47.91, 336.08 29.41, 348.74 14.16 M305.37 63.06 C323.49 42.97, 340.33 22.79, 350.29 12.65 M309.06 64.38 C323.21 49.46, 334.46 36.36, 351.07 20.34 M310.21 63.18 C324.64 47.93, 337.36 31.17, 349.88 18.92 M314.55 63.1 C325.23 53.09, 333.51 46.17, 349.32 25.52 M315.83 64.1 C322.39 56.26, 329.52 46.96, 349.93 24.1 M319.31 63.7 C329.62 53.63, 340.18 45.49, 350.35 29.91 M320.3 62.87 C329.9 53.11, 338.95 43.14, 349.41 30.25 M325.58 63.27 C332.65 58.08, 335.97 54.98, 349.84 37.43 M326.25 63.72 C333.93 53.97, 343.4 43.83, 349.17 37.01 M331.57 63.32 C337.38 53.26, 345.95 48.35, 350.28 41.03 M331.65 63.01 C337.32 58.06, 341.46 52.12, 350.57 43.88 M338.16 62.96 C339.73 61.6, 341.07 54.74, 348.99 49.97 M337.05 63.22 C342.36 57.98, 345.96 52.09, 349.03 49.45 M343.53 62.4 C344.12 61.4, 347.08 59.96, 350.18 55.4 M342.48 63.54 C344.86 60.41, 347.54 56.98, 349.37 54.46" stroke="#7950f2" stroke-width="0.5" fill="none"></path><path d="M-0.94 -0.05 C80.82 -0.24, 161.55 -0.5, 349.98 -0.98 M-0.61 0.32 C87.97 1.69, 174.87 0.82, 348.53 -0.13 M348.05 1.35 C347.63 21.37, 348.28 39.94, 347.21 61.86 M349.98 0.4 C349.07 17.25, 349.91 34.43, 349.07 61.2 M348.91 61.5 C253.6 59.51, 156.01 60.47, 1.26 60.21 M349.48 60.64 C222.91 61.35, 97.77 61.58, -0.65 61.55 M0.92 59.78 C1.55 47.85, 0.77 34.51, 1.16 1.91 M-0.92 61.62 C0.71 41.97, 0.2 22.61, 0.05 0.93" stroke="#000000" stroke-width="1" fill="none"></path></g><g transform="translate(296.9466412851376 137.211132819741) rotate(0 28 12.5)"><text x="28" y="17" font-family="Virgil, Segoe UI Emoji" font-size="20px" fill="#000000" text-anchor="middle" style="white-space: pre;" direction="ltr">Model</text></g><g transform="translate(25.37877677453804 139.11497528242933) rotate(0 52.49999999999997 12.5)"><text x="0" y="17" font-family="Virgil, Segoe UI Emoji" font-size="20px" fill="#000000" text-anchor="start" style="white-space: pre;" direction="ltr">Raw Data</text></g><g transform="translate(521.8400404694074 129.89815272596525) rotate(0 48.00000000000006 24.5)"><text x="0" y="17.5" font-family="Virgil, Segoe UI Emoji" font-size="20px" fill="#000000" text-anchor="start" style="white-space: pre;" direction="ltr">Simplified </text><text x="0" y="42" font-family="Virgil, Segoe UI Emoji" font-size="20px" fill="#000000" text-anchor="start" style="white-space: pre;" direction="ltr">Data</text></g><g stroke-linecap="round" transform="translate(688.1743906169861 133.15757161203283) rotate(0 53.5 60)"><path d="M55.71 -0.28 C73.54 19.83, 91.5 43.52, 106.11 60.04 M53.93 0.85 C66.96 13, 78.49 28.08, 106.87 60.96 M106.85 59.5 C97.75 72.39, 86.19 86.84, 55.7 120.36 M107.17 61.59 C94.79 74.08, 82.99 86.32, 53.34 120.64 M52.76 118.52 C43.83 108.41, 31.44 95.49, -0.34 59.45 M54.26 119.4 C42.69 107.38, 32.52 94.79, 0.42 61.17 M1.96 62.3 C11.42 45.1, 28.08 32.34, 53.94 1.32 M0.62 60.51 C20.41 40.09, 40.24 16.3, 53.56 -0.47" stroke="#000000" stroke-width="1" fill="none"></path></g><g transform="translate(702.1743906169861 180.65757161203283) rotate(0 39.5 12.5)"><text x="39.5" y="17" font-family="Virgil, Segoe UI Emoji" font-size="20px" fill="#000000" text-anchor="middle" style="white-space: pre;" direction="ltr">Decision</text></g><g transform="translate(800.6656664900217 123.74529820845362) rotate(0 30.5 12.5)"><text x="0" y="17" font-family="Virgil, Segoe UI Emoji" font-size="20px" fill="#000000" text-anchor="start" style="white-space: pre;" direction="ltr">Action</text></g><g transform="translate(823.6630819565078 180.83716898562204) rotate(0 30.5 12.5)"><text x="0" y="17" font-family="Virgil, Segoe UI Emoji" font-size="20px" fill="#000000" text-anchor="start" style="white-space: pre;" direction="ltr">Action</text></g><g transform="translate(808.0270416956507 231.9331841050324) rotate(0 30.5 12.5)"><text x="0" y="17" font-family="Virgil, Segoe UI Emoji" font-size="20px" fill="#000000" text-anchor="start" style="white-space: pre;" direction="ltr">Action</text></g><g stroke-linecap="round"><g transform="translate(634.095960326853 74.14420555871584) rotate(0 -0.42895277890750094 97.37441889506215)"><path d="M-0.88 0.73 C-0.75 32.95, 0.1 161.69, 0.01 194.02" stroke="#000000" stroke-width="1.5" fill="none" stroke-dasharray="8 9"></path></g></g><g transform="translate(591.254683930865 284.5902142866896) rotate(0 48 24.5)"><text x="0" y="17.5" font-family="Virgil, Segoe UI Emoji" font-size="20px" fill="#000000" text-anchor="start" style="white-space: pre;" direction="ltr">Simplicity</text><text x="0" y="42" font-family="Virgil, Segoe UI Emoji" font-size="20px" fill="#000000" text-anchor="start" style="white-space: pre;" direction="ltr">Threshold</text></g><g stroke-linecap="round"><g transform="translate(11.053845837339736 195.84659355067834) rotate(0 331.9071092007648 -0.8462552382697481)"><path d="M-1.05 0.21 C109.95 -0.28, 553.96 -1.56, 664.87 -1.9 M0.59 -0.73 C111.57 -0.58, 553.62 -0.84, 664.12 -0.89" stroke="#000000" stroke-width="1" fill="none"></path></g><g transform="translate(11.053845837339736 195.84659355067834) rotate(0 331.9071092007648 -0.8462552382697481)"><path d="M636.28 10.01 C639.93 7.39, 645.81 5.59, 662.42 -0.71 M636.39 8.56 C641.12 7.06, 648.18 4.1, 664.12 -0.03" stroke="#000000" stroke-width="1" fill="none"></path></g><g transform="translate(11.053845837339736 195.84659355067834) rotate(0 331.9071092007648 -0.8462552382697481)"><path d="M636.27 -10.51 C640.1 -8.95, 645.98 -6.56, 662.42 -0.71 M636.38 -11.96 C641.1 -9.08, 648.16 -7.65, 664.12 -0.03" stroke="#000000" stroke-width="1" fill="none"></path></g></g><g transform="translate(278.27302421757474 10) rotate(0 56 12.5)"><text x="0" y="17" font-family="Virgil, Segoe UI Emoji" font-size="20px" fill="#000000" text-anchor="start" style="white-space: pre;" direction="ltr">Data Land</text></g><g transform="translate(683.3804617058895 10.09028744658633) rotate(0 105 12.5)"><text x="0" y="17" font-family="Virgil, Segoe UI Emoji" font-size="20px" fill="#000000" text-anchor="start" style="white-space: pre;" direction="ltr">Traditional Software</text></g></svg>