<svg version="1.1" xmlns="http://www.w3.org/2000/svg" viewBox="0 0 979.2906573007731 602.3181198664811" width="979.2906573007731" height="602.3181198664811">
  <!-- svg-source:excalidraw -->
  
  <defs>
    <style class="style-fonts">
      @font-face {
        font-family: "Virgil";
        src: url("https://excalidraw.com/Virgil.woff2");
      }
      @font-face {
        font-family: "Cascadia";
        src: url("https://excalidraw.com/Cascadia.woff2");
      }
    </style>
  </defs>
  <g stroke-opacity="0.5" fill-opacity="0.5" stroke-linecap="round" transform="translate(600.2906573007731 223.20080045673672) rotate(0 184.5 175.5)"><path d="M36.74 69.04 C36.74 69.04, 36.74 69.04, 36.74 69.04 M36.74 69.04 C36.74 69.04, 36.74 69.04, 36.74 69.04 M19.58 101.27 C34.48 83.8, 47.56 69.86, 76.08 36.63 M19.47 102.67 C31.27 87.02, 45.35 71.72, 77.27 35.44 M17.48 117.48 C44.01 85.06, 71.4 51.1, 97 25.85 M17.91 115.01 C43.91 85.19, 70.61 54.02, 95.45 24.83 M13.29 133.73 C48.82 89.31, 87.47 48.52, 114.96 13.15 M13.32 133.84 C48.89 92.32, 85.04 49.27, 116.63 14.39 M7.42 151.75 C41.1 110.1, 77.75 72.18, 125.38 14.33 M7.61 150.06 C54.49 98.82, 100.45 46.15, 127.28 15.11 M6 166.98 C35.52 132.47, 65.98 94.83, 139.59 12.26 M5.87 166.19 C44.04 122.38, 82.02 78.42, 140.01 11.63 M5.62 179.11 C64.45 109.13, 120.35 42.66, 151.1 7.94 M6.07 177.08 C53.95 122.22, 101.35 66.72, 152.06 9.93 M7.12 189.39 C39.94 149.1, 73.78 112.23, 166.48 6.75 M7.41 188.23 C57.13 132.11, 106.41 75.66, 165.7 6.38 M8.63 201.3 C66.35 133.39, 126.31 67.65, 178.75 6.21 M7.99 200.28 C47.61 153.44, 88.34 106.71, 178.03 4.97 M5.52 214.53 C68.35 144.77, 126.48 77.4, 186.96 4.36 M6.16 214.63 C49.85 163.72, 94.85 110.57, 187.54 4.7 M10.31 221.5 C65.86 157.07, 120.82 91.87, 198.89 6.16 M8.7 222.04 C56.54 167.35, 105.73 112.1, 197.57 6.52 M12.62 231.01 C78.41 153.92, 143.82 79.59, 208.13 6.65 M12.62 230.73 C77.23 156.86, 140.94 82.95, 206.44 7.61 M16.72 239.76 C61.5 184.24, 108.57 132.98, 217.04 9.61 M16 239.48 C76.13 171.06, 134.82 102.77, 216.52 8.89 M20.33 247.65 C67.97 189.89, 120.39 135.13, 229.18 7.5 M19.56 247.96 C87.83 169.3, 156.35 91.32, 229.2 7.02 M20.91 256.78 C65.93 204.71, 110.59 152.52, 235.58 10.37 M21.58 256.31 C96.49 168.93, 172.21 82.1, 237.16 9.75 M27.49 263.39 C108.7 170.44, 190.27 75.33, 243.21 13.89 M27.46 262.22 C77.08 203.43, 129.18 144.78, 243.61 12.96 M31.61 268.74 C92.21 197.67, 155.36 126.95, 251.87 15.18 M32.28 269.18 C77.85 217.75, 122.62 165.77, 251.7 15.98 M36.28 275.23 C113.65 186.51, 190.88 96.25, 260.43 19.64 M37.55 275.44 C80.21 224.04, 125.75 172.6, 260.5 19.13 M41.8 281.38 C87.61 229.89, 136.52 176.22, 268.71 21.75 M41.88 281.57 C115.06 200.18, 186.54 118.06, 268.36 21.79 M48.38 289.62 C115.38 211.37, 180.45 135.7, 274.83 26.02 M47.66 288.32 C133.12 192.07, 217.8 94.17, 276.29 24.73 M53.57 294.45 C128.77 205.2, 204.75 118.81, 283.57 29.92 M52.47 294.32 C125.92 209.49, 200.3 124.32, 283.31 29.91 M56.08 302.36 C145.01 198.19, 235.47 95.3, 290.11 33.9 M56.99 302.53 C112.08 239.08, 166.95 174.44, 289.14 33.76 M62.9 306.91 C132.2 227.28, 202.96 146.99, 296.27 38.05 M63.75 307.35 C139.57 217.87, 218.35 127.51, 296.09 39.03 M70.99 310.99 C154.66 213.54, 238.53 118.25, 301.94 44.54 M70.55 311.24 C146.09 226.36, 220.93 139.34, 302.68 43.36 M77.16 314.9 C160.74 223.8, 241.15 128.07, 309.62 47.42 M77.06 315.71 C134.05 246.55, 193.85 178.63, 309.42 47.87 M81.73 320.26 C175.25 218.02, 267.07 112.49, 317.29 51.86 M82.23 320.93 C147.22 248.23, 211.56 174.12, 316.29 52.34 M89.21 325.67 C140.44 268.59, 190.52 210.31, 322.24 57.01 M89.44 325.55 C151.21 256.4, 210.9 187.3, 322.73 58.21 M96.01 328.73 C188.97 223.73, 280.74 118.42, 328.07 63.51 M95.62 329.59 C183.18 232.54, 268.71 133.48, 327.68 63.51 M105.24 333.18 C158.72 272.81, 210.73 211.12, 333.12 69.14 M104.1 332.83 C172.01 253.63, 240.17 174.28, 332.18 69.69 M111.69 335.34 C190.66 243.74, 268.85 156.18, 336.82 77.17 M112.4 335.13 C163.24 278.7, 212.37 222.32, 337.47 77.34 M119.46 336.86 C169.34 285.47, 217.82 231.29, 343 84.92 M121.31 337.72 C169.69 283.51, 217.95 228.57, 341.7 83.39 M128.24 342.01 C201.27 255.71, 276.23 167.57, 345.9 88.61 M128.99 341.3 C186.2 275.94, 242.47 210.65, 347.88 90.47 M136.35 343.15 C220.17 248.68, 303.53 153.99, 350.87 97.5 M136.31 343.93 C183.03 289.29, 232.18 234.07, 352.65 96.21 M143.49 347.1 C219.16 264.67, 291.43 179.99, 355.63 105.78 M144.28 346.68 C197.91 284.42, 252.19 222.01, 354.86 106.18 M153.37 347.04 C208.82 284.81, 262.51 220.44, 358.48 112.57 M154.63 347.67 C198.32 297.1, 242.94 246.82, 357.63 113.98 M164.43 348.64 C213.29 291.37, 265.9 232.56, 359.54 121.67 M164.55 348.39 C206.47 300.11, 247.75 251.35, 360.55 122.99 M172.57 351.51 C245.37 270.57, 315.91 191.58, 364.14 131.12 M173.35 349.41 C225.65 291.92, 277.51 233.47, 364 131.57 M182.86 350.99 C223.63 304.78, 260.81 259.56, 364.99 142.02 M184.06 350.79 C229.65 299.3, 275.08 247.15, 365.54 142.25 M194.64 350.39 C240.96 294.71, 292.72 235.89, 367.12 152.42 M193.38 350.94 C250.58 284.07, 307.94 218.02, 367.11 153.8 M200.1 355.3 C254.15 293.42, 306.69 229.93, 369.49 163.82 M201.73 355.36 C254.44 291.93, 310.69 228.53, 367.97 162.94 M213.54 354.29 C248.79 310.75, 285.02 270.88, 367.42 174.63 M214.76 353.34 C268.26 292.73, 323.39 230.13, 369.19 175.05 M227.96 352.32 C271.6 302.35, 314.82 252.2, 368.06 186.1 M226.79 350.97 C274.42 296.59, 323.06 240.56, 370.4 186.33 M239.93 348 C279 303.57, 318.37 254.47, 373.33 196.08 M239.48 348.94 C283.29 296.87, 325.88 247.5, 373.6 194.67 M251.18 346.48 C283.88 311.05, 312.73 276.73, 369.28 209.15 M253.06 345.56 C296.53 293.07, 342.22 241.89, 369.6 211.14 M270.76 334.62 C306.32 294.53, 344.49 252.93, 366.99 227.84 M271.57 336.18 C296.82 307.14, 321.55 279.47, 366.04 226.2 M295.89 318.93 C316.33 295.73, 334.66 277.43, 360.39 244.19 M296.4 318.48 C317.62 295.02, 338.62 270.62, 363.23 243.73" stroke="#228be6" stroke-width="1" fill="none"></path><path d="M225.65 4.51 C242.21 5.49, 259.07 15.11, 274.2 23.06 C289.33 31.01, 304.21 40.5, 316.42 52.19 C328.62 63.88, 339.46 78.58, 347.42 93.22 C355.38 107.85, 360.7 123.85, 364.17 140 C367.65 156.14, 369.36 173.59, 368.28 190.09 C367.2 206.59, 363.84 223.79, 357.69 239 C351.53 254.21, 341.85 268.32, 331.34 281.35 C320.83 294.38, 308.55 307.23, 294.65 317.18 C280.75 327.14, 264.41 335.56, 247.94 341.1 C231.47 346.64, 213.23 349.56, 195.81 350.42 C178.38 351.27, 160.09 349.73, 143.4 346.22 C126.71 342.71, 110.62 337.17, 95.66 329.35 C80.69 321.52, 65.95 311.18, 53.6 299.26 C41.25 287.34, 29.91 272.36, 21.57 257.83 C13.22 243.3, 7.04 228.08, 3.54 212.06 C0.04 196.05, -1.05 178.41, 0.55 161.72 C2.16 145.04, 7.08 127.43, 13.15 111.94 C19.22 96.45, 26.59 81.8, 36.96 68.79 C47.33 55.77, 61.31 43.67, 75.37 33.86 C89.42 24.05, 105.18 15.64, 121.28 9.92 C137.38 4.2, 151.74 -0.4, 171.95 -0.47 C192.17 -0.53, 228.07 6.32, 242.58 9.54 C257.1 12.76, 260.05 16.02, 259.06 18.84" stroke="#000000" stroke-width="2.5" fill="none" stroke-dasharray="8 10"></path></g><g stroke-opacity="0.5" fill-opacity="0.5" stroke-linecap="round" transform="translate(440.49517183885496 10) rotate(0 176.5000000000001 175.5)"><path d="M54.4 49.94 C54.4 49.94, 54.4 49.94, 54.4 49.94 M54.4 49.94 C54.4 49.94, 54.4 49.94, 54.4 49.94 M26.85 93.25 C45.05 72.3, 61.24 56.55, 83.64 29.7 M28.08 92.08 C44.33 73.33, 58.96 57.01, 82.7 28 M19 116.43 C45.02 83.44, 71.64 52.32, 98.82 23.46 M19.78 114.02 C51.36 79.17, 81.65 43.95, 99.27 24.24 M10.37 137.89 C49.98 91.24, 90.81 47.36, 113.99 17.56 M9.67 139.1 C32.91 111.18, 55.6 84.97, 114.43 17.37 M6.87 152.29 C39.31 119.89, 66.06 86.19, 131.04 13.47 M9.18 150.8 C43.3 111.21, 79.02 70.73, 128.85 12.05 M7 165.51 C48.58 114.08, 92.09 66.32, 145.92 4.68 M6.61 165.6 C40.41 123.84, 76.21 85.44, 145.27 5.48 M7.02 178.56 C65.27 110.66, 122.78 44.72, 157.64 5.32 M5.71 179.8 C47.95 127.28, 93.16 76.28, 157.45 4.73 M5.09 189.97 C45.53 145.65, 84.47 101.63, 168.18 5.93 M5.46 190.81 C54.04 137.32, 101.9 82, 168.25 4.36 M7.69 200.68 C50.47 152.26, 89.79 104.01, 178.84 3.75 M8.06 201.67 C68.01 130.98, 129.26 59.95, 179.64 3.33 M8.76 211.55 C62.38 148.79, 117.25 84.68, 193.55 1.09 M9.76 210.61 C80.62 132.44, 149.68 52.93, 192.69 0.07 M13.19 220.83 C71.34 149.49, 134.68 77.95, 200.8 3.57 M12.44 220.45 C49.62 177.13, 87.84 134.28, 200.81 2.06 M11.41 234.8 C87.43 142.77, 168.15 52.2, 208.95 4.91 M10.92 233.79 C79.27 155.69, 145.61 77.93, 210.42 4.82 M14.72 243.47 C90.81 159.54, 162.07 73.68, 219.42 6.98 M14.07 243.28 C92.71 150.94, 171.36 61.57, 218.16 7.76 M18.55 249.37 C63.29 200.29, 105.94 149.37, 226.69 8.56 M17.6 250.11 C79.37 179.71, 140.64 108.18, 227.54 8.38 M20.89 256.48 C92.36 176.67, 161.93 97.28, 237.08 10.55 M21.7 258.09 C68.07 205.97, 113.67 151.87, 236.39 11.52 M26.46 263.91 C75.07 209.36, 123.64 152.56, 243.75 12.9 M25.95 264.64 C107.49 172.5, 186.52 81.01, 244.17 14.39 M29.64 273.02 C114.76 172.16, 200.74 72.48, 251.31 18.76 M29.69 272.7 C82.69 209.53, 138.59 146.91, 251.63 18.02 M35.02 281.23 C91.38 215.84, 149.88 149.76, 259.84 23.23 M33.71 280.5 C113.69 188.2, 194.53 95.41, 258.34 21.91 M39.8 286.58 C85.52 232.43, 131.06 177.75, 266.6 26.89 M39.79 286.84 C123.45 187.4, 208.32 89.1, 265.8 25.51 M45.31 290.74 C129.15 196.66, 210.81 104.13, 273.96 30.63 M45.16 291.55 C111.95 218.4, 175.19 145.2, 272.99 30.51 M50.34 298.01 C142.57 192.64, 233.07 89.85, 279.48 35.25 M51.35 297.93 C129.67 207.17, 209.91 115.26, 280.06 34.02 M58.41 303.1 C128.32 219.53, 202.23 137.43, 287.13 39.62 M57.22 303.13 C111.73 238.84, 168.05 175.06, 287.29 39.06 M62.15 308.23 C127.69 236.95, 189.9 164.49, 291.69 43.22 M62.61 309.39 C117.58 243.84, 173.88 179.31, 292.8 44.23 M68.13 313.72 C144.73 224.31, 220.56 136.56, 298.28 50.88 M68.62 313.51 C145.35 225.32, 221.98 137.06, 298.68 50.42 M73.42 319.52 C145.02 235.15, 219.86 150.85, 304.23 54.98 M74.64 320.69 C120.82 264.64, 167.66 210.11, 304.86 54.76 M81.28 324.71 C161.42 229.57, 241.7 136.88, 310.82 61.38 M81.28 323.33 C162.72 230.87, 244.88 137.35, 309.99 61.71 M87.49 327.54 C159.24 247.43, 227.69 166.61, 316.79 67.1 M88.04 327.83 C157.86 248.92, 226.7 168.75, 315.69 65.92 M96.12 330.19 C171.46 242.37, 249.29 153.19, 320.97 72.15 M96.28 330.7 C160.93 254.75, 226.32 179.23, 320.99 72.71 M104.46 333.89 C184.85 237.32, 270.46 140.64, 323.67 81.07 M102.93 335.3 C162.43 266.7, 221.43 198.16, 323.9 81.27 M109.5 338.18 C155.25 289.16, 201.24 237.68, 328.07 88.51 M111.35 339.34 C160.84 280.1, 209.56 223.23, 329.05 88.01 M118.98 341.44 C195.49 253.53, 270.91 164.87, 331.62 94.68 M117.69 342.81 C197.61 249.09, 276.99 158.37, 332.64 95.67 M126.9 344.12 C183.71 281.02, 238 215.12, 335.38 104.41 M127.3 344.49 C177.14 286.28, 226.85 227.16, 336.89 103.38 M134.09 345.74 C190.17 285, 244.01 222.54, 338.77 111.27 M135.49 346.63 C200.69 272.91, 265.49 198.15, 339.51 111.59 M142.84 347.9 C221.78 263.81, 297.52 174.29, 345.71 119.48 M144.14 349.65 C206.48 277.6, 268.94 206.68, 344.91 118.25 M152.67 350.91 C221.57 269.01, 292.7 186.12, 345.93 127.67 M153.11 350.79 C226.55 268.64, 298.29 184.52, 347.58 128.09 M163.66 350.61 C207.32 299.59, 252.97 248.73, 347.8 138.11 M163.89 351.27 C201.16 308.25, 239.13 263.46, 348.28 138.19 M174.07 351.1 C236.13 281.76, 294.39 210.98, 349.76 146.78 M175.44 350.75 C220.04 300.35, 262.09 250.13, 350.7 148.62 M185.57 351.01 C232.13 299.05, 276.27 247.15, 351.2 159.24 M184.68 350 C250.68 275.83, 314.88 201.37, 352.69 157.85 M196.38 350.54 C246.5 289.66, 301.68 231.47, 353.97 168.63 M196.79 349.8 C256.57 278.76, 318.37 210.57, 355.55 167.55 M207.84 349.56 C250.16 299.31, 295.36 249.67, 352.93 182.23 M208.08 348.96 C255.65 293.53, 303.42 238.58, 354.08 181.45 M218.21 351.62 C252.03 312.17, 287.67 272.36, 353.44 193.27 M216.81 350.76 C254.12 307.29, 291.92 264.2, 352.78 194.97 M230.7 347.53 C271.44 301.61, 310.19 258.38, 350.88 206.92 M232.69 346.67 C274.99 295.72, 318.98 245.42, 350.2 208.52 M248.04 339.69 C280.16 302.1, 315.94 262.5, 353.09 219.65 M246.4 340.41 C286.16 295.04, 325.27 249.41, 353.15 218.3 M264.36 334.12 C288.97 304.2, 317.14 270.69, 344.05 241.63 M263.9 333.33 C284.79 308.05, 305.32 282.77, 344.45 240.4" stroke="#fa5252" stroke-width="1" fill="none"></path><path d="M142.74 3.25 C157.39 -2.67, 174.98 -1.39, 191.48 0.01 C207.97 1.41, 226.15 5.61, 241.7 11.65 C257.25 17.69, 271.64 26.15, 284.77 36.24 C297.89 46.32, 310.72 58.72, 320.44 72.18 C330.17 85.64, 337.7 101.5, 343.12 116.99 C348.54 132.48, 352.16 148.82, 352.95 165.12 C353.75 181.42, 351.61 198.66, 347.9 214.82 C344.19 230.98, 338.89 247.62, 330.7 262.08 C322.51 276.53, 310.72 290.15, 298.77 301.54 C286.81 312.92, 273.54 322.78, 258.96 330.39 C244.37 338.01, 227.51 343.99, 211.27 347.23 C195.03 350.48, 177.92 351.4, 161.52 349.85 C145.12 348.29, 128.38 343.78, 112.87 337.91 C97.36 332.03, 81.79 324.4, 68.48 314.6 C55.18 304.8, 42.89 292.53, 33.05 279.11 C23.22 265.7, 14.89 249.62, 9.45 234.12 C4 218.61, 1.09 202.66, 0.37 186.07 C-0.34 169.48, 1.29 150.82, 5.14 134.57 C9 118.32, 15.26 102.72, 23.5 88.58 C31.74 74.44, 42.68 61.06, 54.58 49.73 C66.48 38.4, 77.87 28.6, 94.9 20.59 C111.93 12.58, 143.81 4.36, 156.78 1.66 C169.75 -1.03, 172.44 1.48, 172.72 4.41" stroke="#000000" stroke-width="2.5" fill="none" stroke-dasharray="8 10"></path></g><g stroke-opacity="0.5" fill-opacity="0.5" stroke-linecap="round" transform="translate(332.1678495460717 242.31811986648108) rotate(0 181.9999999999999 175)"><path d="M45.84 59.73 C45.84 59.73, 45.84 59.73, 45.84 59.73 M45.84 59.73 C45.84 59.73, 45.84 59.73, 45.84 59.73 M20.8 102.72 C34.47 84.51, 51.17 69.16, 83.91 28.77 M19.05 102.7 C35.96 83.71, 52.91 62.65, 84.06 28.18 M12.29 120.34 C44.49 85.88, 73.85 50.82, 89.05 33.96 M11.8 121.61 C44.06 87.97, 73.28 51.87, 90.92 33.28 M8.14 140.97 C44.08 99.13, 82.17 54.92, 107.8 26.51 M5.31 141.65 C42.15 99.54, 79.62 56.76, 107.33 25.46 M8.94 151.73 C42.92 115.3, 75.34 78.15, 134.09 5.26 M7.37 153.16 C47.82 107.71, 85.41 64.43, 133.69 6.2 M8.71 163.98 C60.62 101.31, 115.23 40.64, 146.59 7.27 M8 164.92 C49.66 114.9, 92.57 65.4, 145.54 6.47 M7.24 177.95 C66.96 108.81, 126.05 42.93, 158.85 3.12 M8.5 176.73 C45.61 134.65, 82.61 90.69, 157.76 5.27 M6.85 189.08 C57.84 130.28, 108.57 71.46, 167.81 3.14 M8.27 187.8 C49.71 140.61, 91.04 90.82, 170.27 3.68 M5.78 202.3 C63.94 136.53, 120.2 68.9, 181.37 1.77 M7.61 202.15 C69.26 130.1, 134.26 56.27, 181.23 1.32 M11.07 211.71 C46.31 165.29, 87.37 120.66, 190.71 4.05 M9.48 210.55 C74.45 135.77, 138.92 61.03, 188.71 4.28 M12.95 220.62 C55.08 170.39, 98.11 119.96, 198.66 6.91 M12.23 220.73 C55.45 171.43, 98.32 121.88, 198.92 5.68 M14.68 228.81 C70.89 167.9, 126.35 104.37, 206.79 7.73 M14.75 230.49 C62.11 174.77, 109.18 121.77, 207.46 7.4 M18.13 239 C83.15 164.32, 146.1 89.55, 218.29 7.46 M17.48 238.56 C89.79 156.88, 161.79 74.63, 218.02 9.26 M17.99 248.88 C90.42 165.4, 163.55 83.76, 225.94 11.57 M18.07 249.67 C91.37 169, 161.46 86.99, 226.36 10.02 M22.96 255.85 C66.81 204.65, 109.98 157.06, 238.1 10.65 M23.22 256.72 C95.78 174.9, 164.96 94.11, 236.65 10.75 M28.95 263.4 C105.93 172.06, 184.54 84.3, 246.36 14.44 M28.25 263.3 C109.93 167.25, 192.11 72.23, 245.71 12.58 M33.42 269.17 C110.82 183.18, 187.72 94.85, 252.42 15.64 M33.47 269.38 C87.93 208.08, 142.03 146.37, 253.32 17.11 M38.83 276.07 C108.01 198.51, 174.78 119.77, 261.29 20.12 M37.14 277.09 C101.1 202.48, 163.97 129.48, 260.77 20.2 M41.9 282.08 C93.12 223.93, 143.49 166.06, 267.25 24 M41.8 282.71 C103.01 212.47, 163.74 143.74, 267.84 23.17 M47.64 291.06 C117.29 211.35, 184.87 130.76, 274.65 27.94 M45.89 290.18 C108.9 216.45, 172.44 144.58, 275.59 27.45 M52.19 295.55 C139.86 195.29, 228.66 95.44, 283.83 30.67 M52.65 295.85 C122.34 216.78, 192.91 136.65, 283.5 30.9 M57.33 300.98 C127.39 223.67, 195.36 145.09, 288.18 35.95 M58.68 301 C141.16 202.04, 226.22 105.17, 289.76 35.63 M63.96 305.57 C139.65 217.21, 217.79 130.81, 296.17 40.25 M64.02 306.85 C134.26 228.27, 203.04 149.34, 295.49 40.83 M71.55 312.37 C153.82 217.48, 236.61 124.47, 301.56 46.11 M70.45 312.3 C132.66 241.07, 194.1 170.46, 301.78 46.48 M75.54 316.89 C139.41 244.86, 203.66 171.56, 307.41 51.37 M76.05 316.56 C155.97 224.9, 237.15 133.09, 308.03 51.75 M82.31 321.16 C171.49 219.99, 258.18 119.46, 313.18 57.62 M83.82 321.64 C147.46 248.5, 210.4 175.93, 312.95 56.32 M89.77 325.57 C138.47 273.34, 183.47 220.66, 318.65 61.65 M91.07 324.82 C179.08 219.69, 269.95 116.25, 320 62.33 M99.08 328.06 C146.07 272.06, 196.1 213.92, 326.56 66.51 M97.39 328.39 C189 224.04, 280.22 119.81, 325.41 66.62 M105.54 333.77 C186.13 238.24, 267.78 146, 329.6 74.51 M105.73 332.98 C174.94 250.47, 247.35 168.67, 330.12 73.33 M112.36 336.69 C186.02 254.55, 257 171.91, 335.34 80.65 M112.85 336.32 C163.29 278.56, 213.8 220.05, 335.63 80.23 M120.98 340.58 C167.23 288.12, 213.85 237.38, 339.97 86.96 M120.09 339.14 C175.09 275.6, 231.04 211.45, 340.27 87.92 M126.95 342.74 C189.2 270.73, 251.95 199.85, 345.57 93.78 M128.54 343.57 C182.54 280.23, 239.53 215.94, 344.15 94.26 M133.48 347.71 C187.47 287.45, 239.97 225.99, 347.31 102.36 M134.52 348.76 C191.36 281.22, 248.58 215.15, 348.9 101.21 M144.49 349.75 C213.86 266.85, 284.59 185.62, 352.58 107.04 M144.58 349.6 C219.49 259.54, 297.87 170.46, 353.1 107.84 M154.36 351.47 C233.27 258.93, 310.91 168.25, 357.38 117.88 M154.03 350.79 C214.57 283.03, 274.97 213.06, 356.3 117.85 M162.12 350.38 C207.73 302.15, 247.89 253.59, 360.05 126.45 M162.85 350.74 C231.72 273.51, 299.53 194.7, 358.85 126.85 M171.95 352.62 C213.38 306.57, 252.19 261.01, 361.97 135.05 M172.67 353.06 C247.12 266.95, 321.26 182.03, 361.27 134.86 M183.69 353 C240.54 286.53, 298.5 217.79, 364.02 143.85 M183.38 352.27 C249.39 276.77, 316.68 199.9, 364.54 144.32 M196.67 350.16 C244 296.62, 288.98 241.7, 366.86 154.51 M195.26 350.27 C241.06 295.05, 287.59 241.35, 366.01 154.84 M205.99 350.99 C261.37 288.22, 316.79 224.22, 366.54 168.65 M207.32 349.78 C255.23 295.3, 303.51 239.98, 365.6 168.53 M218.11 349.27 C248.38 312.53, 278.34 279.56, 364.16 181.37 M219.27 348.05 C275.99 281.24, 334.49 215.1, 364.96 180.57 M233.91 343.65 C264.26 306.6, 295.85 270.29, 366 193.11 M232.53 343.96 C262.64 313.15, 290.85 280.62, 364.75 191.98 M250.78 336.51 C277.16 306.16, 306.53 276, 364.41 205.76 M249.39 337.19 C280.51 301.4, 310.02 266.23, 365.14 203.95 M264.79 329.13 C294.38 299.82, 318.6 270.31, 358.62 223.85 M265.4 330.42 C291.88 301.81, 317.46 272.44, 359.53 224.36 M280.32 324.58 C299.51 303.67, 318.85 282.18, 352.55 241.19 M280.06 326.55 C303.06 299.01, 326.66 272.82, 354.49 241.81" stroke="#40c057" stroke-width="1" fill="none"></path><path d="M235.1 7.87 C251.44 9.56, 266.67 19.41, 280.92 28.49 C295.16 37.57, 309.44 49.9, 320.59 62.33 C331.74 74.76, 340.74 88.08, 347.79 103.06 C354.85 118.03, 360.69 135.7, 362.92 152.18 C365.15 168.67, 363.74 185.78, 361.18 201.96 C358.63 218.15, 354.64 234.51, 347.6 249.29 C340.55 264.06, 330.44 278.18, 318.9 290.61 C307.36 303.04, 292.93 315.08, 278.35 323.86 C263.78 332.63, 247.74 339.04, 231.45 343.28 C215.15 347.51, 197.72 349.3, 180.58 349.28 C163.44 349.25, 145.13 347.9, 128.62 343.12 C112.1 338.33, 95.64 329.68, 81.5 320.57 C67.35 311.46, 54.81 300.87, 43.76 288.46 C32.71 276.05, 22.08 261.23, 15.2 246.11 C8.31 230.98, 4.69 214.12, 2.45 197.72 C0.21 181.32, -0.63 163.83, 1.76 147.7 C4.16 131.57, 9.51 115.54, 16.81 100.93 C24.11 86.32, 34.31 72.25, 45.57 60.05 C56.82 47.84, 69.8 36.73, 84.35 27.7 C98.9 18.67, 116.2 10.45, 132.89 5.89 C149.58 1.33, 166.47 -0.31, 184.5 0.34 C202.53 0.99, 230.87 7.26, 241.07 9.76 C251.28 12.27, 246.65 12.82, 245.73 15.37" stroke="#000000" stroke-width="2.5" fill="none" stroke-dasharray="8 10"></path></g><g stroke-opacity="0.5" fill-opacity="0.5" transform="translate(711.7906573007726 376.2008004567367) rotate(0 73 22.5)"><text x="73" y="31" font-family="Virgil, Segoe UI Emoji" font-size="36px" fill="#000000" text-anchor="middle" style="white-space: pre;" direction="ltr">Compute</text></g><g stroke-opacity="0.5" fill-opacity="0.5" transform="translate(465.1678495460717 394.8181198664811) rotate(0 49 22.5)"><text x="49" y="31" font-family="Virgil, Segoe UI Emoji" font-size="36px" fill="#000000" text-anchor="middle" style="white-space: pre;" direction="ltr">Data</text></g><g stroke-opacity="0.5" fill-opacity="0.5" transform="translate(453.49517183885496 140.5) rotate(0 163.5000000000001 45)"><text x="163.5" y="31" font-family="Virgil, Segoe UI Emoji" font-size="36px" fill="#000000" text-anchor="middle" style="white-space: pre;" direction="ltr">Algorithms / Model</text><text x="163.5" y="76" font-family="Virgil, Segoe UI Emoji" font-size="36px" fill="#000000" text-anchor="middle" style="white-space: pre;" direction="ltr">Architecture</text></g><g stroke-linecap="round"><g stroke-opacity="0.5" fill-opacity="0.5" transform="translate(304.05453306057393 164.87880159534961) rotate(0 170.63218863249483 82.92859250192771)"><path d="M-1.1 0.66 C55.94 28.13, 285.24 138.39, 342.37 165.89 M0.52 -0.04 C57.46 27.64, 285.03 137.07, 341.76 164.39" stroke="#000000" stroke-width="4" fill="none"></path></g><g stroke-opacity="0.5" fill-opacity="0.5" transform="translate(304.05453306057393 164.87880159534961) rotate(0 170.63218863249483 82.92859250192771)"><path d="M313.01 162.5 C323.11 162.55, 332 164.49, 341.82 163.76 M311.45 160.92 C319.28 163.13, 326.4 162.9, 341.52 165.38" stroke="#000000" stroke-width="4" fill="none"></path></g><g stroke-opacity="0.5" fill-opacity="0.5" transform="translate(304.05453306057393 164.87880159534961) rotate(0 170.63218863249483 82.92859250192771)"><path d="M321.91 144.01 C329.43 149.68, 335.58 157.32, 341.82 163.76 M320.35 142.43 C325.93 149.11, 330.88 153.39, 341.52 165.38" stroke="#000000" stroke-width="4" fill="none"></path></g></g><g stroke-opacity="0.5" fill-opacity="0.5" transform="translate(10 109.05289477929682) rotate(0 186.5 22.5)"><text x="186.5" y="32" font-family="Virgil, Segoe UI Emoji" font-size="36px" fill="#000000" text-anchor="middle" style="white-space: pre;" direction="ltr">Really Amazing Stuff</text></g></svg>