<svg version="1.1" xmlns="http://www.w3.org/2000/svg" viewBox="0 0 1513.9869043925219 540.5842137335476" width="1513.9869043925219" height="540.5842137335476">
  <!-- svg-source:excalidraw -->
  
  <defs>
    <style class="style-fonts">
      @font-face {
        font-family: "Virgil";
        src: url("https://excalidraw.com/Virgil.woff2");
      }
      @font-face {
        font-family: "Cascadia";
        src: url("https://excalidraw.com/Cascadia.woff2");
      }
    </style>
  </defs>
  <g stroke-opacity="0.5" fill-opacity="0.5" stroke-linecap="round" transform="translate(270.8033958196288 129.37235922220134) rotate(0 126 69.5)"><path d="M0 0 C0 0, 0 0, 0 0 M0 0 C0 0, 0 0, 0 0 M-0.28 6.5 C2.27 3.57, 2.83 1.16, 4.63 0.63 M-0.02 6.66 C1.36 4.17, 3.24 2.27, 4.8 0.18 M1.59 12.34 C3 6.49, 8.88 2.61, 10.41 -1.59 M0.5 12.59 C2.99 9.2, 5.34 5.53, 11.25 0.48 M1.47 16.7 C2.22 15.93, 4.82 10.28, 16.65 -0.67 M-0.59 18.18 C3.28 13.44, 6.82 10.49, 15.43 1.31 M-1.09 24.62 C4.48 17.61, 10.68 13.66, 22.44 -0.83 M-0.73 23.39 C4.9 17.37, 10.78 11.46, 20.39 0.46 M1.98 30.28 C9.07 18.9, 18.62 10.43, 25.79 2.19 M0.56 30.78 C6.6 23.72, 11.37 17.59, 25.74 0.72 M-0.95 35.48 C8.19 23.74, 21.24 15.34, 31.66 -0.55 M-0.89 36.39 C7.67 27.99, 13.71 20.59, 31.76 0.4 M0.3 41.91 C8.04 33.67, 17.1 22.14, 35.71 -1.69 M0.26 41.74 C8.61 32.64, 18.21 21.8, 37.3 0.08 M0.74 49.33 C11.42 35.94, 21.63 24.89, 40.64 -1.61 M-0.2 48.57 C9.88 36.32, 20.24 26.25, 42.99 0.06 M-0.07 56.23 C16.46 34.89, 35.27 15.97, 47.98 1.49 M0.56 55.13 C16.5 35.04, 32.18 15.69, 46.98 0.99 M1.77 61.84 C15.79 42.96, 30.38 24.1, 54.42 -0.43 M0.12 60.73 C12.65 46.32, 26.3 31.92, 54.11 -0.71 M-1.86 66.72 C14.75 48.06, 30.31 31.05, 59.6 0.63 M-0.61 68 C21.36 43.02, 42.75 16.2, 57.69 -0.22 M0.02 71.03 C19.23 48.91, 40.44 27.16, 62.45 0.68 M-0.43 73.65 C23.63 46.75, 45.2 19.77, 64.68 -0.86 M-1.44 78.68 C22.64 53.87, 46.21 24.75, 68.96 1.7 M0.19 80.32 C24.79 50.92, 48.96 22.41, 69.41 0.48 M-1.25 84.02 C15.38 70.32, 29.98 50.73, 72.56 -0.48 M0.67 85.78 C27.78 53.66, 54.48 23.3, 74.82 -1.14 M1.24 91.78 C21.5 68.59, 40.95 43.39, 77.87 1.8 M1 90.54 C19.74 67.84, 41.75 44.22, 80.16 -0.18 M-0.02 99.76 C30.25 60.82, 60.82 27.92, 85.03 -0.04 M-0.65 97.05 C15.59 78.96, 33.22 59.04, 84.2 -1.1 M-0.68 103.02 C29.25 69.7, 56.87 36.69, 89.52 -0.9 M0.04 103.54 C23.88 76.64, 45.09 50.34, 90.99 0.22 M1.1 108.06 C30.99 71.16, 66.4 32.09, 94.49 -2.03 M0.55 110.81 C28.44 75.91, 58.46 39.36, 95.04 -0.07 M0.33 117.5 C31.47 77.69, 65.19 41.7, 102.54 -1.13 M0.08 116.43 C23.59 87.97, 47.54 60.42, 101.03 0.82 M0.95 120.05 C39.89 77.45, 77.38 32.3, 108.04 -0.38 M-0.72 121.39 C32.32 86.05, 64.73 48.51, 107.09 -0.2 M-0.44 127.16 C25.84 96.78, 50.33 68.06, 112.94 -0.53 M-1.21 128.26 C38.38 85.28, 75.73 42.95, 110.43 0.46 M0.43 135.22 C43.52 84.24, 87.29 34.45, 114.47 -0.19 M0.26 134.07 C24.93 104.64, 50.43 76.68, 116 1.34 M1.33 141.02 C46.37 85.86, 88.24 35.44, 120.15 -1.65 M1.01 139.27 C46.19 85.83, 91.35 34.09, 121.4 0.68 M5.74 137.37 C53.75 85.96, 101.65 31.08, 124.98 1.31 M6.18 140.03 C41.48 96.51, 78.95 54.65, 126.94 0.3 M12.91 138.66 C38.61 106.76, 63.62 75.32, 133.01 -1.92 M11.68 139.35 C39.95 106.96, 68.38 75.52, 133.18 0.73 M17.27 139.67 C62.54 87.4, 109.75 33.97, 139.2 1.2 M17.52 138.47 C47.51 103.77, 80.04 65.56, 137.65 0.9 M21.64 140.85 C46.71 106.88, 74.92 76.72, 143.74 0.28 M21.93 139.72 C54.94 101.45, 88.95 61.89, 143.08 0.55 M26.9 138.94 C72.53 89.4, 119 34.18, 149.83 1.93 M26.91 139.8 C73.18 85.87, 121.29 32.3, 148.08 -0.16 M33.07 139.18 C77.99 84.14, 124.53 29.99, 154 -0.29 M32.26 139.51 C71.13 96.93, 108.71 52.9, 153.43 -0.2 M38.44 141.53 C78.41 90.02, 123.93 42.14, 159.96 2.04 M36.55 140.61 C63.26 110.39, 89.49 80.9, 158.73 -0.03 M43.18 141.3 C66.65 108.15, 92.66 79.27, 164.84 -1.82 M43.73 140.03 C75.67 105.08, 105.63 67, 164.64 0.82 M49.18 139.15 C86.42 94.3, 128.97 47.79, 169.09 2.15 M48.76 140.45 C80.8 101.04, 112.43 64.94, 169.63 -0.62 M52.35 140.96 C79.68 105.78, 109.17 74.73, 174.72 -1.37 M52.94 139.79 C84.62 103.87, 115.8 69.67, 174.14 -0.32 M58.44 139.85 C95.22 95.21, 136.25 48.6, 179.14 -1.02 M59.53 139.8 C95.96 95.51, 134.8 49.58, 179.37 0.35 M63.36 140.02 C99.87 99.51, 130.4 60.22, 185.49 -0.92 M65.04 139.52 C108.58 89.26, 152.7 37.02, 185.42 -0.87 M68.97 138.77 C115.01 88.88, 157.06 38.58, 192.42 -0.65 M68.91 139.86 C111.92 91.17, 155.48 43.36, 190.09 0.38 M75.41 138.4 C118.52 87.24, 164.99 35.4, 196.43 -1.37 M74.74 139.13 C108.21 103.71, 140.27 66.17, 197.01 -0.36 M80.91 140.15 C107.37 104.61, 139.31 72.13, 201.66 -1.83 M80 139.54 C125.21 86.55, 169.74 35.67, 200.46 -0.86 M86.09 140.15 C116.05 103.3, 149.9 66.64, 206.22 -0.5 M85.27 138.76 C129.02 89.1, 173.21 38.56, 207.49 0.37 M89.81 139.33 C116.79 112.59, 139.97 82.08, 211.99 0.44 M89.94 140.44 C139.91 82.32, 189.27 27.7, 212.72 -0.46 M97.41 139.39 C129.54 100.88, 167.11 59.73, 218.93 0.99 M95.43 139.74 C128.82 100.52, 162.44 63.24, 218.49 0.19 M100.62 140.72 C135.46 98.46, 169 59.95, 222.93 -0.73 M100.92 139.87 C137.97 97.81, 172.41 56.89, 221.64 0.67 M105.78 138.35 C144.95 95.14, 182.37 52.54, 230.07 1.48 M106.55 139.6 C148.27 90.05, 191.6 39.16, 227.68 -1.32 M113.72 139.86 C150.51 95.09, 188.61 49.8, 234.44 1.83 M111.16 139.83 C146.25 99.8, 179.87 59.93, 233.55 0.83 M116.02 137.34 C157.31 90.61, 202.14 41.06, 239.85 1.23 M117.51 139.07 C161.58 89.33, 203.84 41.53, 239.13 -0.13 M122.87 141.34 C161.74 92.52, 203.46 44.23, 244.86 -0.57 M121.97 140.04 C158.77 95.22, 195.96 53.19, 243.3 0.51 M127.34 140.77 C173.31 84.31, 220.58 31.29, 249.91 1.29 M127.76 139.1 C171.96 88.47, 215.33 40.02, 248.91 0.22 M133.24 140.88 C156.75 110.65, 183.14 83.32, 251.64 2.93 M132.66 138.91 C157.66 107.91, 185.75 77.94, 254.01 0.94 M139.39 139.15 C184.58 89.63, 225.6 37.17, 255.38 8.91 M138.26 139.83 C170.75 102.74, 200.87 68.59, 254.28 6.96 M143.43 139.28 C180.95 93.65, 222.19 46.58, 252.05 14.88 M143.62 138.57 C185.81 89.74, 229.26 41.18, 252.77 13.08 M149.53 139.82 C187.97 92.13, 228.94 47.82, 254.69 17.33 M147.89 140.36 C182.01 102.78, 214.8 65.72, 254.41 18.98 M155.42 140.42 C181.84 110.11, 206.84 80.21, 252.86 24.27 M155.27 139.83 C185.83 103.45, 217.3 65.47, 253.27 25.48 M157.52 137.98 C186.6 108.4, 211.42 79.66, 254.3 33.89 M159.03 140.73 C190.15 104.79, 221.65 68.28, 254.15 31.82 M164.6 141.31 C198.15 101.55, 228.84 65.54, 254.03 38.76 M165.07 139.23 C183.7 118.04, 203.24 94.92, 252.56 37.44 M171.56 139.15 C189.89 116.01, 209.65 91.97, 253.45 44.04 M170.64 139.45 C196.11 110.43, 221.19 81.45, 253.76 44.78 M173.77 138.02 C202.76 106.94, 232.61 74.29, 251.95 48.11 M176.54 139.99 C193.35 118.19, 212.52 94.74, 253.25 49.5 M180.89 138.22 C197.13 118.27, 214.59 96.71, 254.81 56.58 M179.89 139.47 C209.74 107.64, 237.3 75.02, 252.58 55.09 M187.15 139.72 C204.39 119.01, 222.2 98.64, 252.75 62.91 M186.26 139.04 C200.33 122.03, 215.47 104.7, 253.84 63.12 M193.19 138.15 C214.21 111.41, 238.35 87.03, 253.12 66.65 M190.49 139.95 C210.71 116.76, 228.76 95.69, 252.68 67.97 M196.35 138.69 C208.36 126.43, 223.12 109.58, 252.93 73.6 M196.83 140.02 C217.9 117.09, 237.19 92.68, 252.33 74.71 M200.51 140.03 C220.34 119.26, 233.39 100.31, 252.53 78.5 M201.7 139.25 C220.94 116.14, 241.61 94.49, 253.14 80.3 M206.38 140.29 C220.09 125.15, 228.98 114.39, 253.42 84.98 M207.9 140.27 C223.03 121.34, 237.62 104.81, 253.31 87.17 M213.33 140.99 C223.86 126.84, 233.98 113.35, 251.93 92.21 M213.33 139.94 C223.05 126.89, 233.21 114.88, 252.45 92.45 M217.67 140.97 C228.75 129.21, 236.99 119.73, 252.24 99.15 M217.19 139.82 C230.67 124.13, 245.33 108.87, 253.57 97.81 M222.52 140.3 C230.47 129.88, 237.18 122.26, 253.59 106.7 M222.73 139.78 C228.7 132.89, 234.99 124.86, 254.11 104.22 M228.07 138.28 C237.59 128.44, 245.13 120.15, 253.8 110.36 M229.44 138.43 C234.2 133.28, 240.37 127.57, 254.45 110.18 M233.39 141.31 C241.42 131.96, 248.1 126.29, 253.22 118.24 M233.8 138.74 C241.03 130.38, 248.82 121.85, 253.69 116.36 M238.79 140.87 C243.72 132.37, 251.21 128.72, 254.26 123.67 M239.46 138.53 C243.33 133.84, 248.56 129.95, 252.18 123.77 M243.84 140.89 C247.5 137, 248.96 134.78, 252.88 127.9 M244.11 139.88 C246.77 136.4, 249.71 134.29, 254.22 128.72 M249.64 139 C250.57 138.34, 252.21 136.62, 253.52 135.04 M249.79 138.95 C250.6 138.3, 251.52 137.2, 253.35 135.55" stroke="#7950f2" stroke-width="0.5" fill="none"></path><path d="M-0.85 -0.46 C62.27 2.89, 120.88 1.42, 253.62 1.44 M0.32 -0.56 C67.97 -0.07, 137.77 0.41, 252.32 -0.77 M250.41 -0.84 C249.91 44.01, 249.81 90.2, 251.41 139.29 M252.64 -0.56 C252.29 52, 252.13 105.55, 251.11 138.61 M250.79 138.93 C201.36 138.26, 149.44 138.5, 1.42 138.67 M252.34 138.42 C198.68 138.68, 147.21 138.73, 0.01 138.62 M0.31 138.34 C-1.75 104.39, 1.12 68.27, 1.03 1.27 M-0.24 139.38 C1.13 104.14, 0.36 70.81, 0.87 0.93" stroke="#000000" stroke-width="1" fill="none"></path></g><g stroke-opacity="0.5" fill-opacity="0.5" transform="translate(282.3033958196288 163.87235922220134) rotate(0 114.5 35)"><text x="114.5" y="24" font-family="Virgil, Segoe UI Emoji" font-size="28px" fill="#000000" text-anchor="middle" style="white-space: pre;" direction="ltr">Data Processing</text><text x="114.5" y="59" font-family="Virgil, Segoe UI Emoji" font-size="28px" fill="#000000" text-anchor="middle" style="white-space: pre;" direction="ltr">(Training Code)</text></g><g stroke-opacity="0.5" fill-opacity="0.5" stroke-linecap="round" transform="translate(279.8153910188555 386.5842137335476) rotate(0 123.5 72)"><path d="M0 0 C0 0, 0 0, 0 0 M0 0 C0 0, 0 0, 0 0 M-0.52 6.11 C0.55 4.64, 2.21 3.9, 5.16 0.97 M0 6.44 C1.93 4.03, 3.21 1.84, 4.83 0.42 M-1.44 11.34 C2.37 8.44, 6.76 3.36, 11.34 0.88 M0.65 12.69 C3.66 8.12, 6.21 5.4, 10.11 0.27 M-0.84 17.85 C5.49 12.84, 7.86 8, 17.17 1.55 M0.79 18.38 C4.71 12.39, 9.36 8.57, 15.95 -0.65 M-0.76 24.49 C9.32 16.19, 13.99 6.24, 21.02 1.05 M1.01 24.43 C3.93 19.54, 8.38 14.2, 20.36 -0.44 M0.35 30.31 C6.71 22.13, 11.28 15.64, 27.93 -0.48 M-0.9 29.54 C8.25 21.23, 16.6 12.34, 25.95 0.92 M1.67 36.8 C9.34 23.72, 23.06 11.58, 32.13 -2.1 M-1.05 36.05 C11.07 24.04, 21.83 10.79, 31.07 0.15 M-0.32 43.03 C13.69 26.31, 27.57 11.62, 35.9 -0.65 M0.2 43.4 C10.81 29, 21.93 17.99, 37.01 0.76 M-1.94 47.01 C14.46 31.6, 28.78 13.41, 40.8 0.18 M0.81 48.29 C17.58 28.38, 32.69 9.18, 42.76 0.01 M2.25 53.42 C10.26 42.73, 21.75 30.8, 46.33 -0.99 M1.18 54.43 C17.25 35.3, 33.99 16.74, 48.28 0.9 M-1.86 62.74 C20.62 37.43, 40.84 15.54, 53.11 -0.2 M-0.52 60.52 C12.26 48.35, 22.74 35.61, 53.29 -0.9 M-1.41 67.03 C10.69 51.4, 24.04 39.46, 57.59 0.89 M-0.31 67.92 C13.8 51.86, 28.9 33.9, 58.58 0.96 M1.4 71.24 C13.4 56.3, 26.88 41.5, 63.22 -1.9 M0.25 72.9 C19.44 50.67, 39.94 27.35, 64.74 0.43 M1.3 80.56 C15.54 57.05, 34.14 35.46, 67.14 1.77 M-0.45 79.9 C25.27 48.55, 52.75 18.63, 69.47 1.09 M-1.56 86.17 C29.3 54.77, 56.84 19.31, 75.38 -0.18 M1.1 84.15 C24.37 56.86, 49.1 28.76, 74.37 -0.96 M-0.9 92.37 C30.08 53.56, 61.31 20.4, 77.53 -1.16 M-0.21 90.75 C19.45 67.91, 40.29 47.27, 80.18 0.97 M0.25 98.34 C35.17 60.1, 68.94 21.86, 85.94 -0.89 M-0.95 97.28 C34.93 58.3, 67.5 20.56, 85.64 -0.97 M1.47 101.49 C33.87 62.42, 70.13 25.48, 90.4 -0.3 M0.34 103.12 C32.03 67.38, 62.59 32.23, 90.67 0.87 M-1.06 110.73 C37.96 70.06, 71.35 29.12, 97.33 1.52 M-0.21 109.59 C34.84 70.51, 70.33 30.51, 95.23 0.54 M-0.03 114.33 C29.12 78.85, 59.14 45.53, 100.49 0.36 M0.3 115.72 C30.42 82.17, 59.14 49.3, 100.58 0.56 M1.69 120.97 C35.86 81.15, 73.65 38.1, 108.1 -2 M0.77 122.19 C38.63 79.55, 77.21 35.88, 106.03 -1.24 M1.6 127.5 C40.84 78.43, 84.36 29.82, 109.63 -0.78 M0.32 129.05 C33.15 90.6, 62.78 55.62, 112.27 0.38 M-0.52 132.34 C43.87 84.91, 86.49 36.06, 118.22 -0.33 M0.78 133.97 C27.86 98.53, 58.38 65.09, 115.45 -0.32 M1.43 138.72 C38.51 94.79, 79.88 48.4, 120.74 -0.89 M0.25 139.41 C30.2 105.97, 61.73 71.47, 121.79 0.23 M1 143.77 C52.21 87.65, 101.26 28.67, 125.72 0.79 M0.95 144.63 C50.82 86.69, 99.09 30.38, 127.09 0.08 M7.2 145.83 C30.74 113.89, 55.63 85.58, 131.85 1.24 M6.71 144.85 C45.03 100.54, 81.31 57.09, 131.9 0.52 M10.59 146.82 C41.96 109.47, 73.06 74.72, 136.75 1.3 M11.68 144.6 C42.93 110.69, 74.84 74.07, 137.78 1.03 M16.25 143.92 C62.18 93.14, 107.35 41.2, 142.07 -0.76 M16.98 145.28 C52.57 106.64, 85.8 68.5, 143.07 -0.76 M22.63 143.28 C48.27 113.24, 77.09 78.82, 146.24 1.78 M22.02 145.73 C66.79 92.46, 113.67 39.9, 147.21 -0.08 M28.66 142.97 C65.94 101.68, 103.38 58.47, 153.61 1.15 M27.28 145.16 C76.13 90.7, 124.1 35.93, 154.47 -1.08 M32.47 146.09 C68.29 106.03, 100.15 67.85, 159.18 2.21 M33.59 145.12 C59.9 113.62, 89.87 80.15, 158.27 0.17 M38.57 143.83 C91.57 87.06, 141.78 29.43, 165.76 -0.58 M38.92 144.48 C85.38 91.66, 133.62 39.47, 164.96 -0.37 M44.53 144.55 C69.4 111.91, 98.23 80.28, 168.66 -0.01 M43.68 145.4 C67.44 115.6, 92.56 85.57, 170.07 0.25 M48.2 144.79 C76.04 113.02, 104.57 81.51, 176.91 0.89 M49.45 144.28 C96.96 90.13, 143.22 34.73, 174.11 -0.03 M54.33 146.39 C100.94 90.35, 147.25 36.06, 181.89 -0.08 M54.3 145.75 C103.03 89.42, 151.9 34.54, 180.89 0.68 M57.85 143.51 C110.14 89.3, 159.39 32.04, 186.57 0.81 M59.58 145.63 C90.16 109.16, 122.69 73.1, 185.21 0.13 M66.48 143.74 C104.01 98.87, 142.23 54.68, 190.15 0.22 M65.18 144.91 C104.74 97.33, 147.31 48.2, 191.24 1.01 M71.95 143.09 C107.92 99.75, 147.24 57.69, 197.3 0.84 M70.28 144.67 C98.09 112, 128.17 77.99, 196.23 -1.18 M76.68 143.13 C107.3 107.34, 140.95 69.08, 202.81 -1.52 M74.71 144.13 C119.74 93.73, 165.87 40.96, 200.82 0.87 M80.33 146.75 C107.55 112.88, 132.01 84.45, 208.79 -0.94 M81.02 146.31 C114.24 105.87, 150.62 65.86, 206.84 0.28 M85.74 143.5 C127.5 96.71, 168.12 45.84, 213.35 1.74 M85.04 144.26 C114.71 110.74, 145 74.5, 211.55 0.91 M90.92 144.9 C134.84 92.99, 182.17 41.84, 215.8 -0.06 M91.46 146.28 C135.79 96.96, 180.26 46.59, 217.45 -0.67 M97.56 146.21 C137.82 98.23, 178.2 51.88, 221.33 0.42 M96.97 144.65 C133.39 101.13, 168.51 59.25, 222.54 -0.17 M99.74 145.58 C130.29 110.5, 162.02 78.11, 230.19 0.35 M102.49 144.59 C140.66 101.73, 177.98 60.11, 228.13 0.33 M109.11 145.01 C141.18 104.3, 176.66 67.8, 234.41 -1.65 M107.03 144.22 C144.81 102.43, 180.34 59.91, 233.09 -0.6 M111.57 145.5 C153.05 96.02, 193.95 47.9, 238.27 0.33 M111.88 145.56 C136.52 115.75, 161.52 86.57, 239.01 0.93 M116.48 144.05 C154.33 105.08, 190.35 60.08, 242.34 -1.23 M118.45 144.44 C164.25 90.2, 208.87 36.36, 243.73 -0.61 M121.31 144.78 C169.63 88.81, 216.71 35.33, 248.75 2.83 M122.56 145.54 C151.65 112.73, 180.22 79.19, 247.26 0.81 M128.85 143.91 C152.62 115.37, 177.22 88.83, 248.42 5.88 M128.17 144.31 C165.92 101.26, 203.3 58.61, 248.63 8.21 M131.91 144.93 C167.01 103.63, 205.1 61.61, 246.91 13.26 M133.7 145.95 C173.54 98.45, 215.58 50.61, 248.23 12.3 M138.48 143.56 C165.84 116.78, 188.81 85.67, 247.21 20.69 M139.81 145.39 C170.08 110.24, 198.73 75.42, 248.31 19.74 M144.44 146.89 C173.25 108.67, 204.19 74.18, 246.86 26.8 M143.67 144.24 C171.14 113.03, 200.31 80.26, 248.66 24.61 M150.74 146.38 C183.32 104.44, 220.4 65.07, 246.67 32.16 M150.72 144.78 C172.98 117.11, 197.12 90.8, 248.86 31.38 M156.07 144.98 C182.51 112.04, 209.34 81.11, 247.25 37.12 M155.02 144.92 C176.83 117.22, 200 90.48, 247.49 37.59 M162.09 146.14 C191.13 111.37, 221.84 75.85, 248.94 45.13 M160.94 144.14 C191.64 110.32, 223 73.62, 247.6 43.11 M166.05 144.94 C191.97 113.09, 220.22 83.21, 249.83 48.03 M165.53 144.53 C189.52 117.84, 212.14 91.82, 247.35 50.36 M170.07 145.06 C191.32 119.89, 214.07 95.89, 248.24 53.88 M170.21 144.66 C189.89 123.85, 208.67 102.58, 248.06 55.98 M177.72 145.92 C190.53 129.42, 206.96 111.51, 249.46 64.01 M175.16 144.66 C203.4 113.13, 231.23 82.4, 247.58 62.86 M183.32 143.71 C200.27 123.51, 222.34 100.71, 248.23 68.84 M180.98 144.08 C197.38 126.37, 214.64 106.64, 248.33 67.81 M188.53 146.47 C209.5 118.88, 233.21 90.7, 246.75 73.18 M187.09 144.96 C200.02 130.03, 214.79 114.12, 247.91 73.81 M190.94 143.87 C205.4 131.95, 216 116.01, 246.63 79.58 M190.75 144.46 C213.75 120.31, 234.93 96.1, 248.65 81.23 M196.01 146.55 C212.81 129.78, 227.94 110.04, 249.41 86.08 M196.7 144.12 C213.73 125.75, 230.41 105.79, 248.75 86.5 M203.06 143.44 C217.59 128.33, 233.71 107.29, 249.28 93.35 M201.67 146.11 C214 132.97, 224.42 119.98, 248.52 93.16 M207.79 145.52 C219.53 132.22, 227.13 119.9, 249.59 98.41 M208.56 144.88 C220.93 131.25, 233.42 116.95, 247.56 98.49 M212.96 146.97 C219.46 137.71, 228.68 128.34, 246.79 106.04 M213.66 145.18 C220.54 135.45, 227.82 127.26, 248.28 104.82 M219.59 144.15 C230.19 134.01, 237.84 121.63, 248.48 110.01 M219.46 145.01 C230.31 132.09, 240.13 119.76, 248.48 111.66 M221.64 144.71 C231.19 138.15, 238.55 129.33, 247.85 116.95 M223.96 145.6 C232.21 136.17, 238.75 128.15, 247.47 117.47 M229.22 146.62 C235.73 137.42, 240.47 133.63, 246.43 123.38 M229.4 144.35 C234.32 139.78, 238.99 134.85, 247.37 123.66 M235.24 143.28 C237.77 138.36, 242.84 133.67, 248.58 127.54 M233.55 144.84 C239.67 140.64, 244.66 134.18, 247.2 130.2 M239.02 145.93 C242.32 142.83, 245.24 139.68, 247.79 134.81 M240.28 145.45 C241.21 143.3, 242.97 141.09, 247.76 135.63 M244.32 144.83 C246.31 144.14, 246.39 142.46, 248.34 141.18 M244.61 145.14 C245.89 143.98, 246.99 142.93, 247.98 141.54" stroke="#82c91e" stroke-width="0.5" fill="none"></path><path d="M-1.15 -1.43 C67.72 1.7, 139.11 0.51, 246.63 -1.23 M-0.4 0.4 C61.21 0.7, 123.74 1.18, 247.42 -0.42 M246.39 -1.09 C250.2 46.55, 249.17 94.23, 245.06 142.75 M246.22 -0.2 C248.75 45.55, 247.95 90.21, 246.82 143.36 M247.34 145.21 C172.2 146.22, 99.08 143.33, -1.21 143.05 M246.71 144.08 C151.63 143.95, 58.5 144.23, 0.17 144.49 M1.67 142.83 C0.42 110.63, 1.07 76.47, 1.27 0.94 M0.57 144.16 C-1.62 91.38, -2.11 39.33, 0.77 0.07" stroke="#000000" stroke-width="1" fill="none"></path></g><g stroke-opacity="0.5" fill-opacity="0.5" transform="translate(288.8153910188555 423.5842137335476) rotate(0 114.5 35)"><text x="114.5" y="24" font-family="Virgil, Segoe UI Emoji" font-size="28px" fill="#000000" text-anchor="middle" style="white-space: pre;" direction="ltr">Data Processing</text><text x="114.5" y="59" font-family="Virgil, Segoe UI Emoji" font-size="28px" fill="#000000" text-anchor="middle" style="white-space: pre;" direction="ltr">(Serving Code)</text></g><g stroke-opacity="0.5" fill-opacity="0.5" transform="translate(10 167.38639883747192) rotate(0 46 35.5)"><text x="0" y="24.5" font-family="Virgil, Segoe UI Emoji" font-size="28px" fill="#000000" text-anchor="start" style="white-space: pre;" direction="ltr">Data </text><text x="0" y="60" font-family="Virgil, Segoe UI Emoji" font-size="28px" fill="#000000" text-anchor="start" style="white-space: pre;" direction="ltr">Sample</text></g><g stroke-linecap="round" transform="translate(670.5381417041547 163.36450500222054) rotate(0 83 35.5)"><path d="M0 0 C0 0, 0 0, 0 0 M0 0 C0 0, 0 0, 0 0 M0.32 7.01 C0.84 5.36, 2.91 4.19, 4.77 0.96 M-0.35 6.58 C1.7 4.84, 3.42 2.79, 5.28 0.27 M1.61 12.83 C4.07 9.13, 6.48 2.78, 9.13 -0.31 M0 12.55 C2.98 9.06, 5.04 5.2, 11.01 -0.12 M0.56 20.29 C2.76 12.17, 7.98 7.2, 16.03 1.48 M0.54 19.1 C5.31 13.48, 10.5 8.15, 16.17 0.93 M0.8 24.92 C8.37 15.18, 12.86 6.68, 20.75 0.91 M-0.57 24.51 C8.97 14.33, 16.79 5.91, 22.02 0.1 M0.9 28.81 C6.53 21.8, 15.09 10.11, 25.28 1.57 M0.56 31.39 C8.25 20.58, 16.46 11.74, 26.24 0.99 M1.07 37.23 C9.8 28.82, 15.76 18.69, 30.22 -0.86 M0.17 36.51 C9.77 23.81, 20.52 12.78, 31.1 0.55 M-1.41 41.01 C6.31 31.61, 14.37 24.44, 36.16 1.34 M-0.18 41.75 C14.83 26.86, 28.56 9.05, 36.26 0.62 M0.93 48.75 C9.17 38.44, 22.17 23.74, 42.07 1.81 M0.38 49.9 C11.01 35.93, 22.1 23.71, 43.05 0.46 M-0.6 53.49 C17.4 34.5, 35.31 10.4, 47.02 0.08 M-0.39 53.9 C10.58 41.16, 21.74 29.39, 47.11 0.3 M-1.06 60.65 C10.99 47.18, 23.87 33.62, 52.59 -0.51 M0.84 60.38 C13.05 45.36, 26.25 32.56, 52.65 -0.18 M-0.16 66.72 C15.85 47.18, 34.24 27.37, 56.6 -0.85 M0.6 66.99 C19.29 45.98, 38.25 23.81, 57.19 -0.25 M-0.61 70.68 C20.73 49.32, 43.33 23.92, 63.49 -0.14 M1.19 71.34 C24.84 45.35, 49.04 16.31, 63.72 0.32 M6.37 72.45 C20.02 55.84, 32.05 41.9, 70.07 0.04 M7.03 72.1 C20.16 56.34, 34.82 39.63, 69.47 0.88 M9.5 70.87 C27.43 53.54, 41.62 34.37, 75.89 1.69 M12.12 72.55 C31.45 49.38, 51.45 26.53, 74.1 0.34 M17.69 70.33 C41.2 44.53, 63.54 19.35, 81 -1.69 M18.06 71.81 C32.15 55.07, 46.78 36.48, 78.46 0.79 M21.87 73.23 C39.34 53.61, 55.5 31.12, 84.31 0.85 M22.88 72.89 C39.1 52.68, 57.38 32.23, 84.72 -0.04 M29.28 69.89 C40.09 57.05, 54.29 43.47, 89.36 1.62 M27.21 71.19 C52.62 44.17, 75.43 18.43, 89.21 0.8 M33.34 70.55 C56.16 45.36, 75.47 23.19, 94.67 0.28 M33.07 72.1 C45.94 55.93, 61.17 38.34, 96.53 -0.02 M39.92 71.21 C52.14 54.87, 68.16 38.51, 99.52 -0.27 M38.01 71.47 C61.79 43.33, 87.87 14.65, 100.33 -0.56 M45.17 73.7 C60.54 54.56, 77.67 32.69, 106.3 0.04 M43.88 71.15 C65.59 46.71, 87.02 20.27, 105.52 -1.11 M49.83 71.47 C68.09 50.79, 87.07 31.28, 110.28 -1.53 M49.02 71.56 C69.66 48.38, 90.27 26.62, 110.97 -0.59 M53.02 73.65 C73.79 49.51, 91.49 28.92, 117.29 0.04 M53.01 71.19 C76.81 44.42, 100.28 17.73, 117.09 0.65 M58.61 70.92 C76.39 51.38, 93.05 31.45, 120.82 1.79 M58.85 71.12 C80.52 45.94, 104.27 19.83, 121.82 0.65 M64.97 71.48 C88.88 43.99, 108.65 19.67, 125.1 -1.01 M63.71 72.59 C89.37 43.79, 113.06 14.05, 127.65 0.64 M71.3 70.94 C86.65 55.68, 97.94 39.07, 132.75 1.73 M71.15 71.47 C93.88 43.83, 118.65 16.16, 132.14 -0.72 M75.47 72.34 C90.01 56.29, 104.68 37.57, 136.62 0.98 M75.8 71.9 C92.18 52.06, 108.83 31.46, 137.68 1.22 M80.31 71.99 C97.02 51.74, 116.55 32.31, 144.07 0.42 M81.63 70.67 C95.67 55.42, 109.24 38.67, 142.7 0.63 M87.42 71.48 C102.44 49.39, 121.06 29.43, 148.81 -1.56 M86.63 72.89 C102.98 51.42, 120.85 32.3, 147.38 -0.29 M91.48 71.6 C107.05 53.53, 124.75 33.81, 155.19 0.07 M91.05 72.44 C105.45 54.73, 119.35 38.8, 152.85 0.23 M98.09 72.26 C113.42 52.25, 132.9 30.88, 158.02 -1.11 M96.1 71.55 C120.54 44.66, 144.48 17, 158.97 0.1 M101.39 71.18 C123.71 47.69, 144.97 21.36, 162.92 1 M101.55 72.01 C116.07 55.34, 131.46 37.72, 163.48 0.83 M105.18 72.11 C121.97 52.97, 138.94 33.08, 168.73 0.45 M107.66 71.03 C119.85 57.22, 131.84 43.73, 168.44 1.63 M114 70.97 C131.36 50.86, 149.55 28.99, 167.27 7.92 M112.27 72 C125.17 57.17, 139.44 41.95, 168.79 7.66 M116.79 72.57 C134.22 56.08, 147.94 37.94, 170.23 11.88 M117.3 72.72 C130.52 57.08, 143.55 41.01, 169.23 13.77 M122.7 72.54 C134.11 61.15, 143.59 49.74, 167.81 18.82 M122.47 72.02 C138.32 53.71, 153.7 35.24, 167.7 20.34 M129.42 73.26 C144.22 56.48, 159.35 38.41, 169.64 28.17 M128.56 71.2 C141.57 58.07, 153.23 44.34, 168.25 26.82 M134.95 73.82 C141.45 61.13, 152.45 51.8, 169.86 32.51 M133.08 72.63 C144.88 57.49, 158.14 45.12, 169.02 31.44 M137.98 69.91 C145.44 62.89, 151.87 55.1, 166.25 39.71 M139.53 71.25 C144.56 64.48, 150.85 58.18, 167.25 38.09 M145.62 71.83 C152.78 61.76, 161.04 49.29, 167.85 45.68 M143.08 73.1 C148.54 66.14, 153.49 59.95, 167.82 44.51 M149.79 72.34 C157.58 64.36, 163.3 56.19, 166.8 52.24 M149.84 70.86 C153.49 66.18, 158.06 61.4, 167.02 50.87 M154.97 72.68 C157 67.67, 161.91 64.05, 165.98 55.87 M154.51 72.39 C159.1 65.73, 164.76 61.23, 167.06 56.05 M159.24 70.96 C161.88 70.31, 164.77 67.08, 169.31 62.17 M159.9 72.02 C161.5 69.83, 164.04 67.4, 168.71 62.51" stroke="#fab005" stroke-width="0.5" fill="none"></path><path d="M0.37 -0.42 C46.43 0.09, 95.12 -0.87, 165.05 -1.09 M-0.22 0.41 C34.64 -0.98, 70.69 -0.28, 165.08 -0.97 M165.5 0.74 C165.37 20.23, 167.19 43.59, 164.9 70.4 M165.34 0.71 C166.5 27.98, 165.99 55.58, 165.45 70.69 M165.57 70.43 C119.8 71.21, 75.26 68.41, 1.29 72.38 M166.16 70.36 C103.1 70.97, 41.07 70.29, -0.26 71.34 M-1.76 71.94 C0.59 41.81, -0.47 14.39, 0.68 1.26 M-0.27 70.01 C0.56 50.83, -0.33 32.39, -0.21 -0.91" stroke="#000000" stroke-width="1" fill="none"></path></g><g transform="translate(725.5381417041544 186.36450500222054) rotate(0 28 12.5)"><text x="28" y="17" font-family="Virgil, Segoe UI Emoji" font-size="20px" fill="#000000" text-anchor="middle" style="white-space: pre;" direction="ltr">Model</text></g><g stroke-linecap="round"><g stroke-opacity="0.5" fill-opacity="0.5" transform="translate(128.18364960901238 207.42736192171242) rotate(0 68.26162396695815 -1.067323984919085)"><path d="M-1.06 0.11 C21.91 -0.15, 114.69 -1.78, 137.58 -2.24 M0.59 -0.88 C23.5 -0.93, 114.69 -0.9, 137.16 -1.07" stroke="#000000" stroke-width="2" fill="none"></path></g><g stroke-opacity="0.5" fill-opacity="0.5" transform="translate(128.18364960901238 207.42736192171242) rotate(0 68.26162396695815 -1.067323984919085)"><path d="M109.18 10.95 C115.88 6.15, 123.18 4.18, 138.99 -2.06 M108.34 9.32 C117.11 5.23, 125.99 2.28, 137.78 -1.83" stroke="#000000" stroke-width="2" fill="none"></path></g><g stroke-opacity="0.5" fill-opacity="0.5" transform="translate(128.18364960901238 207.42736192171242) rotate(0 68.26162396695815 -1.067323984919085)"><path d="M109.11 -9.57 C115.71 -8.56, 123.03 -4.73, 138.99 -2.06 M108.28 -11.2 C117.09 -9.14, 125.99 -5.94, 137.78 -1.83" stroke="#000000" stroke-width="2" fill="none"></path></g></g><g stroke-linecap="round"><g stroke-opacity="0.5" fill-opacity="0.5" transform="translate(538.1669985852445 200.94025935754507) rotate(0 59.09257363097797 0.02825093706132975)"><path d="M-0.71 0.49 C18.94 0.24, 99.22 -0.34, 118.89 -0.59 M1.12 -0.3 C20.6 -0.48, 98.6 0.63, 118.38 0.64" stroke="#000000" stroke-width="2" fill="none"></path></g><g stroke-opacity="0.5" fill-opacity="0.5" transform="translate(538.1669985852445 200.94025935754507) rotate(0 59.09257363097797 0.02825093706132975)"><path d="M90.92 12.06 C99.86 5.76, 109.96 3.34, 118.74 2.11 M89.53 11.41 C99.85 7.93, 107.98 4.12, 118.54 1.41" stroke="#000000" stroke-width="2" fill="none"></path></g><g stroke-opacity="0.5" fill-opacity="0.5" transform="translate(538.1669985852445 200.94025935754507) rotate(0 59.09257363097797 0.02825093706132975)"><path d="M91.08 -8.46 C100.12 -6.92, 110.15 -1.49, 118.74 2.11 M89.7 -9.11 C100.16 -5.77, 108.23 -2.78, 118.54 1.41" stroke="#000000" stroke-width="2" fill="none"></path></g></g><g stroke-linecap="round"><g stroke-opacity="0.5" fill-opacity="0.5" transform="translate(539.1447351202823 450.66458607323193) rotate(0 59.71623889980893 0.20654558533715317)"><path d="M1.15 0.96 C20.7 1.07, 97.55 -0.59, 116.99 -0.55 M0.29 0.42 C20.23 0.79, 99.71 0.86, 119.14 0.69" stroke="#000000" stroke-width="2" fill="none"></path></g><g stroke-opacity="0.5" fill-opacity="0.5" transform="translate(539.1447351202823 450.66458607323193) rotate(0 59.71623889980893 0.20654558533715317)"><path d="M92.58 9.24 C97.83 7.48, 108.38 4.54, 117.72 2.65 M90.67 10.48 C101.1 8.25, 110.73 3.97, 119.64 0.96" stroke="#000000" stroke-width="2" fill="none"></path></g><g stroke-opacity="0.5" fill-opacity="0.5" transform="translate(539.1447351202823 450.66458607323193) rotate(0 59.71623889980893 0.20654558533715317)"><path d="M92.53 -11.28 C97.58 -7.46, 108.15 -4.81, 117.72 2.65 M90.62 -10.04 C101.06 -5.25, 110.71 -2.5, 119.64 0.96" stroke="#000000" stroke-width="2" fill="none"></path></g></g><g stroke-linecap="round" transform="translate(680.6576837299842 412.5980134059805) rotate(0 83 35.5)"><path d="M0 0 C0 0, 0 0, 0 0 M0 0 C0 0, 0 0, 0 0 M0.24 6.4 C1.06 5.32, 2.44 4.21, 4.34 0.93 M-0.44 6.74 C0.82 5.23, 1.91 3.64, 5.06 0.35 M1.05 12.72 C2.29 7.18, 5.14 5.17, 11.8 -1.31 M0.09 11.65 C2.52 7.99, 5.34 5.99, 10.1 -0.52 M1.03 18.79 C3.6 15.3, 9.59 10.17, 16.69 -1.22 M-0.72 19.26 C4.45 13.31, 8.43 8.92, 14.75 -0.34 M1.97 25.16 C8.66 17.39, 16.22 8.27, 23 0.91 M0.79 23.22 C8.61 15.03, 14.65 6.85, 21.57 -0.83 M1.66 30.31 C6.66 20.27, 16.03 15.67, 26.24 -0.71 M-0.52 31.06 C4.51 25.14, 10.84 18.11, 26.19 -0.55 M1.17 38.38 C8.82 26.37, 13.58 21.8, 33.37 -1 M-0.22 37.51 C11.88 22.51, 24.3 8.51, 32.34 0.11 M0.13 41.61 C14.08 25.87, 25.36 10.49, 36.84 -0.35 M0.69 43.12 C10.47 31.29, 21.32 19.78, 36.39 0.45 M-2.12 48.49 C10.14 36.3, 21.39 22.14, 40.97 1.26 M-0.21 48.1 C15.21 33.31, 28.6 15.26, 41.58 -0.1 M-0.92 54.43 C11.9 40.87, 22.07 26.52, 47.72 0.26 M0.76 53.57 C12.41 41.61, 24.19 28.71, 46.77 -0.4 M-0.45 61.76 C10.66 47.2, 24.92 30.55, 55 -0.61 M0.15 61.11 C18.14 38.48, 38.45 18.16, 52.62 -1.06 M-0.09 66.35 C13.72 51.94, 25.47 38.74, 58.5 -0.36 M-1.08 68.03 C13.73 50.78, 26.78 35.13, 58.32 1.05 M-0.67 73.07 C27.28 44.03, 48.73 14.28, 62.02 -1.82 M1.08 72.38 C25.1 45.64, 49.54 15.95, 63.82 -0.64 M5.94 70.24 C29.27 43.67, 52.25 19.58, 67.23 0.36 M6 72 C23.42 52.19, 38.74 34.13, 68.55 1.13 M13.33 71.59 C29.62 55.26, 44.9 35.84, 76.03 1.54 M11.84 72.11 C30.57 51.7, 47.78 30.04, 73.62 -0.02 M16.76 70.9 C29.74 54.31, 45.74 39.1, 80.34 -0.87 M17.68 72.51 C33.6 52.31, 51.51 33.21, 78.54 -0.6 M23.01 70.44 C42.38 48.61, 62.98 24.56, 84.42 -1.54 M22.23 71.63 C43.88 45.36, 66.13 20.38, 85.48 -0.68 M28.7 70.96 C45.88 50.39, 67.03 24.46, 90.68 0.74 M28.07 71.06 C46.69 51.35, 63.89 29.83, 89.92 -0.38 M34.1 71.54 C50 50.86, 64.53 33.3, 93.99 1 M32.42 73.11 C56.39 44.24, 82.27 14.2, 94.92 0.62 M37.44 71.63 C57.9 47.47, 82.39 23.33, 99.51 0.05 M39.26 71.3 C60.6 48.13, 81.82 22.86, 99.84 0.72 M44.72 70.89 C62.95 51.49, 82.28 30.82, 104.96 -1.65 M44.14 71.95 C57.44 55.17, 73.69 39.93, 106.51 -1.19 M48.05 71.21 C63.5 56.34, 80.19 36.49, 110.48 0.04 M48.36 72.62 C69.42 48.16, 87.86 26.61, 112.01 -0.11 M55.42 72.59 C75.97 48.51, 97.36 21.08, 116.27 -0.46 M53.67 71.74 C67.13 55.67, 81.77 40.68, 116.2 0.28 M61.04 71.1 C81.25 46.37, 101.02 23.7, 123.67 1.78 M60.55 71.08 C72.18 56.38, 86.63 40.14, 121.7 -0.54 M63.14 70.83 C87.67 45.56, 114.72 13.56, 126.26 0.41 M64.84 71.29 C84.21 49.53, 103.43 26.42, 126.96 0.85 M70.3 69.78 C92.19 46.03, 114.74 19.08, 133.54 -1.57 M70.04 72.45 C94.76 42.47, 118.93 15.36, 132.72 0.02 M75.23 71.88 C93.15 52.45, 108.32 32.42, 138.7 2.17 M76 71.6 C90.06 54.5, 105.01 39.03, 137.83 -0.68 M81.12 72.84 C97.78 54.2, 114.49 33.93, 142.98 1.23 M81.12 71.22 C100.48 50.02, 119.81 27.07, 142.41 -0.67 M87.43 72.14 C100.98 56.49, 113.96 39.09, 147.43 -1.61 M85.08 72.86 C103.32 53.81, 119.37 34.71, 147.58 -0.56 M92.21 70.95 C116.3 45.17, 139.33 14.48, 153.27 1.55 M91.09 71.57 C114.36 46.32, 134.74 20.87, 154.68 -0.65 M97.91 72.08 C109.8 55.54, 126.13 39.71, 157.68 1.69 M96.54 71.5 C111.17 56.35, 126.56 39.24, 159 -0.35 M101.03 70.63 C117.05 53.12, 136.07 33.13, 166.11 0.81 M100.65 73.14 C115.09 56.82, 130.28 39.02, 164.98 -0.73 M105.23 70.25 C119.73 55.72, 135.76 41.73, 166.78 3.34 M106.39 71.12 C119 57.18, 132.73 42.57, 168.62 1.61 M112.42 73.25 C128.72 55.66, 142.35 35.57, 166.37 8.85 M111.53 73.01 C130.94 50.9, 150.06 30.32, 168.07 8.76 M118.38 73.32 C134 51.69, 147.99 37.4, 168.92 13.21 M117.19 71.54 C135.77 51.17, 152.69 30.78, 168.47 13.24 M124.64 73.5 C142.1 50.67, 157.37 31.22, 166.49 20.79 M123.53 73.22 C135.17 58.66, 144.91 47.04, 167.45 19.87 M126.73 70.04 C142.31 55.58, 154.23 41.75, 168.07 27.42 M129.03 71.77 C137.89 61.5, 148.13 48.84, 168 27.28 M134.02 70.43 C145.67 58.61, 155.35 48.25, 168.67 32.55 M134.14 72.76 C139.56 63.38, 148 56.93, 168.47 31.62 M138.06 73.26 C148.96 59.85, 154.56 51, 168.42 37.48 M138.57 71.04 C146.14 64.63, 150.43 58.14, 167.53 39.47 M144.31 70.21 C150.12 65.53, 156.8 57.11, 168.23 45.96 M144.92 71.34 C149.26 67.26, 154.07 60.89, 168.77 43.99 M148.56 69.93 C154.93 64.23, 164.71 57.07, 169.59 50.25 M150 71.77 C156.35 63.09, 163.36 55.39, 168.42 51.55 M152.66 72.05 C156.38 70.59, 159.84 63.8, 166.23 55.69 M154.46 72.35 C158.9 66.34, 164.17 60.77, 167.88 57.93 M160.61 71.33 C162 70.19, 164.49 67.79, 167.59 62.84 M160.14 72.24 C163.34 68.42, 166.86 64.47, 168.5 62.97" stroke="#fab005" stroke-width="0.5" fill="none"></path><path d="M-0.38 -1.67 C36.57 -2.01, 72.4 0.04, 166.86 -1.76 M0.44 0.2 C33.85 -1.11, 67.37 -0.11, 166.4 -0.95 M167.29 -0.4 C165.62 16.15, 167.31 32.21, 164.5 72.18 M166.55 -0.92 C166.61 22.14, 165.65 44.14, 165.1 71.77 M164.78 70.68 C124.28 70.08, 85.2 71.54, 1.28 71.91 M166.48 71.21 C125.94 68.89, 84.63 69.11, 0.05 70.76 M0.1 72.24 C-1.15 46.12, -0.27 22.87, -0.46 1.72 M-0.82 71.96 C0.46 49.13, 0 26.12, -0.23 -0.43" stroke="#000000" stroke-width="1" fill="none"></path></g><g transform="translate(735.657683729984 435.5980134059805) rotate(0 28 12.5)"><text x="28" y="17" font-family="Virgil, Segoe UI Emoji" font-size="20px" fill="#000000" text-anchor="middle" style="white-space: pre;" direction="ltr">Model</text></g><g stroke-opacity="0.5" fill-opacity="0.5" transform="translate(10.176924385552297 413.1169519948112) rotate(0 46 35.5)"><text x="0" y="24.5" font-family="Virgil, Segoe UI Emoji" font-size="28px" fill="#000000" text-anchor="start" style="white-space: pre;" direction="ltr">Data </text><text x="0" y="60" font-family="Virgil, Segoe UI Emoji" font-size="28px" fill="#000000" text-anchor="start" style="white-space: pre;" direction="ltr">Sample</text></g><g stroke-linecap="round"><g stroke-opacity="0.5" fill-opacity="0.5" transform="translate(131.27980542081522 456.3010805260674) rotate(0 68.18959207453184 -0.512502624062563)"><path d="M0.18 0.9 C22.8 0.67, 112.74 -1.48, 135.45 -1.93 M-1.19 0.33 C21.8 0.32, 114.78 -0.43, 137.57 -0.59" stroke="#000000" stroke-width="2" fill="none"></path></g><g stroke-opacity="0.5" fill-opacity="0.5" transform="translate(131.27980542081522 456.3010805260674) rotate(0 68.18959207453184 -0.512502624062563)"><path d="M110.96 7.99 C116.71 6.63, 124.74 5.96, 136.51 -2.5 M110.42 10.54 C120.21 6.14, 130.23 3.39, 137.45 -1.1" stroke="#000000" stroke-width="2" fill="none"></path></g><g stroke-opacity="0.5" fill-opacity="0.5" transform="translate(131.27980542081522 456.3010805260674) rotate(0 68.18959207453184 -0.512502624062563)"><path d="M110.81 -12.53 C116.5 -8.17, 124.58 -3.12, 136.51 -2.5 M110.26 -9.98 C120.3 -7.06, 130.38 -2.49, 137.45 -1.1" stroke="#000000" stroke-width="2" fill="none"></path></g></g><g stroke-linecap="round"><g stroke-opacity="0.5" fill-opacity="0.5" transform="translate(858.6286283389834 208.72477372386948) rotate(0 45.490723392148766 25.873490292701717)"><path d="M0.57 -1.04 C15.83 7.58, 76.41 42.57, 91.57 51.26 M-0.59 1.03 C14.49 9.89, 75.32 44.24, 90.52 52.79" stroke="#000000" stroke-width="2" fill="none"></path></g><g stroke-opacity="0.5" fill-opacity="0.5" transform="translate(858.6286283389834 208.72477372386948) rotate(0 45.490723392148766 25.873490292701717)"><path d="M59.19 47.54 C69.8 48.81, 78.44 50.07, 89.25 53.88 M60.38 47.04 C67.48 48.17, 75.73 50.77, 90.12 52.92" stroke="#000000" stroke-width="2" fill="none"></path></g><g stroke-opacity="0.5" fill-opacity="0.5" transform="translate(858.6286283389834 208.72477372386948) rotate(0 45.490723392148766 25.873490292701717)"><path d="M69.28 29.67 C76.77 36.37, 82.38 43.03, 89.25 53.88 M70.46 29.17 C75.03 34.86, 80.71 42.02, 90.12 52.92" stroke="#000000" stroke-width="2" fill="none"></path></g></g><g stroke-linecap="round"><g stroke-opacity="0.5" fill-opacity="0.5" transform="translate(865.1158180099221 450.0440657791373) rotate(0 45.71936245483806 -24.216042536365876)"><path d="M-1.09 -0.35 C14.49 -8.16, 76.99 -40.2, 92.53 -48.09 M0.53 -1.57 C16.1 -9.12, 76.7 -39.34, 91.86 -46.8" stroke="#000000" stroke-width="2" fill="none"></path></g><g stroke-opacity="0.5" fill-opacity="0.5" transform="translate(865.1158180099221 450.0440657791373) rotate(0 45.71936245483806 -24.216042536365876)"><path d="M70.58 -24.21 C75.07 -29.35, 80.3 -32.58, 92.86 -47.63 M70.21 -24.76 C76.12 -30.21, 81.02 -35.23, 92.23 -47.53" stroke="#000000" stroke-width="2" fill="none"></path></g><g stroke-opacity="0.5" fill-opacity="0.5" transform="translate(865.1158180099221 450.0440657791373) rotate(0 45.71936245483806 -24.216042536365876)"><path d="M61.47 -42.6 C67.75 -43.67, 74.96 -42.9, 92.86 -47.63 M61.1 -43.15 C69.27 -44.34, 76.29 -45.08, 92.23 -47.53" stroke="#000000" stroke-width="2" fill="none"></path></g></g><g stroke-opacity="0.5" fill-opacity="0.5" transform="translate(957.9869043925218 311.8973171873354) rotate(0 273 35.5)"><text x="273" y="24.5" font-family="Virgil, Segoe UI Emoji" font-size="28px" fill="#000000" text-anchor="middle" style="white-space: pre;" direction="ltr">Training Prediction != Serving Prediction</text><text x="273" y="60" font-family="Virgil, Segoe UI Emoji" font-size="28px" fill="#000000" text-anchor="middle" style="white-space: pre;" direction="ltr">Difficult to debug why</text></g><g stroke-opacity="0.5" fill-opacity="0.5" transform="translate(387.1412037135808 10) rotate(0 164 22.5)"><text x="164" y="32" font-family="Virgil, Segoe UI Emoji" font-size="36px" fill="#000000" text-anchor="middle" style="white-space: pre;" direction="ltr">"Train-Serve Skew"</text></g></svg>