<svg class="logo__image" xmlns="http://www.w3.org/2000/svg" viewBox="0 0 158 48"><g fill="none" fill-rule="evenodd"><path fill="#50A1AB" d="M31.056 4.913a17.98 17.98 0 0 1 8.972 10.246l21.345 3.474C60.361 6.736 41.771-.76 31.056 4.913z"></path><path fill="#041211" d="M38.45 1.225S26.475-.304 21.746 11.59a30.417 30.417 0 0 0-2.038 10.024L0 18.5S.85-5.628 38.45 1.225zM36.037 41.182h-1.974v6.14h-4.486V28.79h7.052c4.655 0 7.39 2.433 7.39 6.281a5.31 5.31 0 0 1-3.469 5.292l4.231 7.017h-5.246l-3.498-6.197zm.903-3.565c1.636 0 2.538-.82 2.538-2.377a2.256 2.256 0 0 0-2.002-2.49 2.077 2.077 0 0 0-.593 0h-2.82v4.867h2.877zm12.383-8.885h4.485v18.59h-4.485v-18.59zm16.925 0c4.541 0 7.305 2.433 7.305 6.395 0 3.962-2.736 6.395-7.305 6.395h-2.426v5.8h-4.485V28.79l6.91-.057zm.14 8.885c1.862 0 2.709-.99 2.709-2.433 0-1.444-.847-2.406-2.708-2.406h-2.567v4.84h2.567zm41.382-9.281c5.133-.227 9.506 3.735 9.76 8.913 0 .255.028.51 0 .764-.198 5.405-4.683 9.65-10.099 9.48a9.831 9.831 0 0 1-9.45-9.48c-.169-5.15 3.865-9.507 9.055-9.649.282 0 .508 0 .734-.028zm0 15.11c2.82.113 5.19-2.094 5.303-4.923v-.538c.14-2.943-2.144-5.433-5.05-5.546a5.286 5.286 0 0 0-5.528 5.065v.481a5.138 5.138 0 0 0 4.767 5.433c.17 0 .367 0 .508.028zm19.83-2.235h-1.975v6.14h-4.485V28.79h7.052c4.654 0 7.39 2.433 7.39 6.281a5.31 5.31 0 0 1-3.47 5.292l4.232 7.017h-5.275l-3.47-6.168zm.902-3.594c1.636 0 2.54-.82 2.54-2.377a2.256 2.256 0 0 0-2.004-2.49 2.077 2.077 0 0 0-.592 0h-2.877v4.867h2.933zm19.238-8.857c5.529 0 9.76 3.792 9.76 9.366 0 5.603-4.231 9.197-9.732 9.197h-7.87V28.732l7.842.028zm-.282 14.432c2.736 0 5.529-1.415 5.529-5.066 0-3.65-2.765-5.234-5.529-5.234h-3.187v10.3h3.187zm-61.832.226c-2.82.113-5.19-2.094-5.303-4.924v-.537c-.197-2.802 1.918-5.263 4.711-5.462.198-.028.367-.028.592 0a4.93 4.93 0 0 1 4.937 3.396h4.626c-.875-4.556-4.936-7.81-9.563-7.555-5.133-.227-9.506 3.735-9.76 8.913 0 .255-.028.51 0 .764-.197 5.15 3.837 9.508 9.027 9.678h.762c4.456.198 8.406-2.773 9.477-7.131H90.45c-.93 1.81-2.82 2.943-4.824 2.858z"></path></g></svg>